<?xml version="1.0" encoding="utf-8"?>
<!-- Generator: Adobe Illustrator 16.0.0, SVG Export Plug-In . SVG Version: 6.00 Build 0)  -->
<!DOCTYPE svg PUBLIC "-//W3C//DTD SVG 1.1//EN" "http://www.w3.org/Graphics/SVG/1.1/DTD/svg11.dtd">
<svg version="1.1" id="Layer_1" xmlns="http://www.w3.org/2000/svg" xmlns:xlink="http://www.w3.org/1999/xlink" x="0px" y="0px"
	 width="595.28px" height="841.89px" viewBox="0 0 595.28 841.89" enable-background="new 0 0 595.28 841.89" xml:space="preserve">
<g>
	<circle fill="#FFFFFF" cx="297.64" cy="420.945" r="246.428"/>
	<g>
		<g>
			<g>
				<g>
					<path d="M299.713,703.845c-2.618-0.489-1.676,5.772-2.073,6.909C302.116,709.264,299.569,702.214,299.713,703.845z"/>
					<path d="M340.547,686.173l-0.317,2.659c0,0,1.245-1.816,2.49-3.633c1.21-1.812,2.42-3.623,2.42-3.623L340.547,686.173z"/>
					<path d="M378.027,677.497c-3.337-4.565-6.454-3.261-9.807-0.955c-0.836,0.595-1.692,1.206-2.555,1.819
						c-0.862,0.625-1.748,1.202-2.658,1.635c-1.811,0.896-3.679,1.394-5.551,0.849l-1.63-2.127c0,0-0.28,2.273-0.562,4.548
						c-0.306,2.279-0.611,4.559-0.611,4.559c1.993-0.806,4.073-1.914,6.156-3.096c2.08-1.196,4.184-2.387,6.175-3.636
						C370.993,678.676,374.772,676.922,378.027,677.497z"/>
					<path d="M405.946,692.063c-2.827-3.368,3.142-5.093-5.305,0.687c0.629,0.241,0.858,0.434,1.251,0.642
						C402.711,693.007,403.868,692.561,405.946,692.063z"/>
					<path d="M401.893,693.391C397.888,695.284,405.836,695.604,401.893,693.391L401.893,693.391z"/>
					<path d="M419.606,683.3l-3.738,5.774c2.097,1.758,7.116,0.094,6.087,2.521C426.635,687.231,424.365,685.576,419.606,683.3z"/>
					<path d="M421.107,673.957c0,0-0.475,0.683-0.95,1.366c-0.491,0.659-0.982,1.318-0.982,1.318
						C420.079,677.363,420.965,677.377,421.107,673.957z"/>
					<path d="M414.905,682.229l4.27-5.588c-1.493-1.219-3.019-4.339-2.079,2.265C416.217,675.822,416.408,679.082,414.905,682.229z"
						/>
					<path d="M411.025,682.186c-1.908-0.406-3.932-0.553-5.026-1.351c-1.099-0.793-1.186-2.071,0.62-4.89
						c-4.563,2.713-5.879,5.57-4.813,7.194c0.53,0.8,1.654,1.267,3.247,1.192C406.644,684.255,408.721,683.678,411.025,682.186z"/>
					<path d="M376.505,666.326c0,0-1.144-0.441-2.288-0.882c-0.565-0.212-1.145-0.472-1.572-0.651
						c-0.428-0.184-0.714-0.306-0.714-0.306l-2.154,4.344c0.55-1.081,2.529-0.891,4.243-0.83
						C375.724,668.036,377.13,667.874,376.505,666.326z"/>
					<path d="M453.993,670.911c-0.909-2.122-4.862-4.099-6.737-6.36c0,0-0.136,0.28-0.34,0.7c-0.206,0.418-0.472,0.991-0.763,1.526
						c-0.578,1.09-1.155,2.179-1.155,2.179C447.708,669.264,451.939,668.207,453.993,670.911z"/>
					<path d="M447.256,664.551l3.164-6.667C445.526,660.473,445.645,662.597,447.256,664.551z"/>
					<path d="M416.738,662.843c0,0-1.232,2.988-2.629,5.829c-1.408,2.893-2.816,5.786-2.816,5.786s1.876-3.133,3.659-6.229
						c0.906-1.524,1.738-3.154,2.368-4.346c0.623-1.194,1.038-1.991,1.038-1.991L416.738,662.843z"/>
					<path d="M474.563,657.197c0,0,0.015,0.402,0.036,1.007c0.014,0.599,0.032,1.396,0.05,2.193c0.024,1.604,0.05,3.207,0.05,3.207
						s0.159-2.564,0.319-5.129c0.083-2.592,0.167-5.184,0.167-5.184L474.563,657.197z"/>
					<path d="M486.791,646.266c0.72,5.142,7.624,3.183,7.149,7.142c2.974-3.612,3.478-8.958,3.73-13.759
						C496.249,643.497,492.873,645.718,486.791,646.266z"/>
					<path d="M498.471,632.111c-0.577,1.996-0.649,4.652-0.8,7.537C498.397,637.569,498.791,635.194,498.471,632.111z"/>
					<path d="M459.814,652.929c1.182,0.85,4.006,3.267,7.806,2.429l-5.756-3.768C461.24,651.998,460.533,652.46,459.814,652.929z"/>
					<path d="M461.676,651.472l0.188,0.118c2.243-1.425,3.827-2.378,4.514-2.778C465.791,649.158,464.378,649.972,461.676,651.472z"
						/>
					<path d="M459.295,653.262c0.193-0.119,0.338-0.204,0.52-0.333C459.262,652.55,459.025,652.456,459.295,653.262z"/>
					<path d="M433.301,660.605c0.66-2.443,2.076-5.401,2.189-7.882c0.121-2.485-1.069-4.483-5.416-5.132
						c0.053,2.5,1.311,3.94,2.352,5.648C433.46,654.953,434.285,656.933,433.301,660.605z"/>
					<path d="M452.309,648.393c0,0-0.378,0.156-0.946,0.39c-0.58,0.211-1.354,0.493-2.129,0.774
						c-1.544,0.558-3.088,1.114-3.088,1.114c1.019,1.356,3.356,2.789,2.822,5.246c0,0,0.854-1.878,1.708-3.757
						c0.417-0.934,0.833-1.867,1.146-2.567C452.113,648.873,452.309,648.393,452.309,648.393z"/>
					<polygon points="453.704,644.908 452.309,648.393 454.557,647.464 					"/>
					<path d="M485.933,635.455c0.163-1.99,0.785-3.532,1.661-4.91c0.85-1.404,1.92-2.684,3.042-4.051
						c-1.806,0.822-3.473,1.822-5.124,2.817c-1.646,1.001-3.177,2.109-4.557,3.314C481.888,634.481,482.997,638.301,485.933,635.455
						z"/>
					<path d="M473.975,643.125c0.063-0.236,0.217-0.45,0.271-0.679C473.601,642.264,473.246,642.318,473.975,643.125z"/>
					<path d="M514.365,601.436c-0.396-0.079-0.841-0.235-1.255-0.327c0.259,0.272,0.514,0.525,0.765,0.808L514.365,601.436z"/>
					<path d="M479.701,632.133c-2.916,0.887-3.155,3.163-3.114,5.737c1.186-1.871,2.599-3.644,4.368-5.244
						C480.536,631.787,480.174,631.307,479.701,632.133z"/>
					<path d="M503.446,623.049c-0.999,0.074-1.992,0.217-2.981,0.406c-1,0.179-2.02,0.383-3.024,0.625
						c1.229,0.215,2.966,0.388,4.252,0.258C502.977,624.206,503.858,623.826,503.446,623.049z"/>
					<path d="M476.106,643.236c-0.048,0.168-0.076,0.339-0.157,0.487C477.549,644.216,477.035,643.763,476.106,643.236z"/>
					<path d="M476.106,643.236c0.577-1.632,0.482-3.567,0.48-5.366c-1.02,1.458-1.841,2.977-2.342,4.576
						C474.805,642.584,475.512,642.902,476.106,643.236z"/>
					<path d="M488.329,568.092c2.222,1.979,3.417,5.085,2.962,7.799c-0.23,1.349-0.845,2.614-1.969,3.523
						c-1.15,0.888-2.767,1.453-4.893,1.475c-0.104,3.521,4.049,7.888,9.735,11.722c5.683,3.837,12.955,7.078,18.945,8.498
						c-1.899-1.82-3.577-3.319-2.449-10.476c-1.966-0.157-5.518,1.415-8.847,1.864c-3.289,0.498-6.118,0.052-6.51-3.603
						c0.702-1.999,1.442-3.184,2.161-3.935c0.72-0.749,1.495-0.996,2.347-1.025c1.702-0.061,3.699,0.76,6.147,0.188
						c-3.937-0.982-4.464-4.671-5.311-8.658c-0.788-3.973-2.135-8.392-6.981-10.922c0,0-0.043,0.474-0.108,1.185
						c-0.061,0.715-0.151,1.666-0.288,2.59c-0.256,1.876-0.512,3.752-0.512,3.752C491.354,571.118,490.666,567.62,488.329,568.092z"
						/>
					<path d="M504.562,609.987l-1.287,2.43c1.413-0.759,2.973-1.096,4.878-1.309c1.911-0.21,4.247-0.22,7.348-0.244
						c0.792-5.345-0.315-7.441-1.625-8.948c0,0-2.309,2.351-4.616,4.702c-1.154,1.17-2.309,2.34-3.174,3.218
						c-0.883,0.86-1.496,1.41-1.496,1.41L504.562,609.987z"/>
					<path d="M494.973,621.019c-0.763-1.514-1.163-3.029-1.487-4.509c-0.337-1.493-0.578-2.931-0.964-4.241
						c-0.768-2.626-2.129-4.728-5.904-5.837c-0.596,0.705-1.039,1.351-1.362,1.953c-0.335,0.59-0.559,1.127-0.682,1.643
						c-0.251,1.029-0.13,1.948,0.107,2.859c0.473,1.821,1.419,3.6,0.743,6.182c3.873-4.803,3.866-3.556,4.01-1.535
						c0.147,2.015,0.386,4.856,4.949,3.026c-1.017,2.493-2.403,4.282-3.747,5.935c2.188-0.999,4.458-1.819,6.805-2.414
						c-0.187-0.024-0.322-0.046-0.493-0.085l-0.028,0.057c-0.031-0.031-0.032-0.05-0.063-0.082c-0.962-0.194-1.435-0.421-0.66-0.513
						c-0.025-0.088,0.065-0.216,0.1-0.278c-0.569-0.702-0.949-1.424-1.298-2.134c3.58-1.585,1.602,0.789,1.298,2.134
						c0.189,0.254,0.334,0.542,0.561,0.791c0.035,0.018,0.063,0.021,0.091,0.025c0,0,0.421-0.71,1.053-1.774
						c0.633-1.061,1.394-2.55,2.184-3.998c1.546-2.903,3.091-5.806,3.091-5.806c-1.251,0.662-2.415,1.625-3.715,3.023
						c-0.649,0.699-1.333,1.507-2.079,2.44c-0.368,0.473-0.757,0.97-1.168,1.497C495.89,619.896,495.444,620.441,494.973,621.019z"
						/>
					<path d="M428.175,632.542c0.593,0.299,0.823,0.698,1.093,1.083C429.463,632.561,429.404,631.954,428.175,632.542z"/>
					<path d="M434.161,633.342c-0.204,1.2,0.598,3.759-2.047,4.66c-2.997-0.385-1.616-2.643-2.847-4.377
						c-0.409,2.321-2.431,6.972,3.593,6.935l0.227-1.188c2.541-0.31,6.182,0.411,9.211,1.322c3.024,0.915,5.419,2.032,5.31,2.63
						C443.172,639.264,439.826,636.487,434.161,633.342z"/>
					<path d="M463.547,627.705c0,0,0.362-0.537,0.906-1.344c0.544-0.804,1.27-1.868,1.936-2.996
						c1.347-2.214,2.692-4.427,2.692-4.427s-1.85-0.249-3.7-0.497c-1.831-0.266-3.661-0.531-3.661-0.531l2.343,2.417
						c-1.245,0.665-1.993,1.265-2.375,1.867c-0.378,0.606-0.387,1.218-0.201,1.83C461.857,625.251,463.012,626.48,463.547,627.705z"
						/>
					<path d="M517.632,602.569l4.317,5.447c0,0-0.796-2.724-1.722-5.481c-0.921-2.724-1.842-5.446-1.842-5.446
						s-0.183,1.367-0.365,2.734c-0.095,0.688-0.189,1.374-0.261,1.89C517.69,602.232,517.632,602.569,517.632,602.569z"/>
					<path d="M525.557,591.172l4.436,3.97c0,0-0.036-0.318-0.091-0.796c-0.067-0.483-0.155-1.129-0.244-1.773
						c-0.185-1.283-0.368-2.565-0.368-2.565L525.557,591.172z"/>
					<path d="M190.271,239.546l-1.136,2.595C189.805,241.146,190.13,240.322,190.271,239.546z"/>
					<path d="M205.208,231.912l-0.916-2.815C204.298,230.906,204.546,232.113,205.208,231.912z"/>
					<path d="M538.95,271.612c2.292-6.72,6.563-15.962,1.312-11.779l-4.656,4.78C538.307,266.66,539.027,269.133,538.95,271.612z"/>
					<path d="M345.831,180.777c0.239,0.697,0.488,1.422,0.735,2.14c1.394-1.975,2.705-3.834,3.876-5.496
						C349.026,178.477,347.469,179.521,345.831,180.777z"/>
					<path d="M338.134,206.759c0,0-0.95-1.235-1.901-2.47c-0.973-1.24-1.945-2.48-1.945-2.48
						C335.087,203.44,336.324,205.084,338.134,206.759z"/>
					<path d="M129.454,305.688c0,0,0.99,1.462,1.98,2.923c1.026,1.46,2.053,2.92,2.053,2.92
						C135.673,308.229,131.975,307.795,129.454,305.688z"/>
					<path d="M576.814,461.066c3.016-3.516,4.474-6.53,5.128-9.239C577.637,456.184,571.613,459.075,576.814,461.066z"/>
					<path d="M162.64,175.781c-1.067,1.97-1.104,3.52-0.344,4.755C163.407,178.615,163.759,176.98,162.64,175.781z"/>
					<path d="M582.878,440.451c-0.702,0.649-1.083,1.306-1.684,1.969c0.436,1.474,0.815,2.956,0.999,4.507
						c0.175,1.55,0.206,3.173-0.251,4.9c1.638-1.594,2.856-3.388,3.229-5.312C585.534,444.592,584.987,442.534,582.878,440.451z"/>
					<path d="M180.608,594.488c0.036,0.377,0.205,0.644,0.197,1.049C181.357,594.845,181.099,594.633,180.608,594.488z"/>
					<path d="M261.027,693.414c-1.288,0.241-3.309-0.011-5.224-0.17C256.661,693.805,258.234,693.965,261.027,693.414z"/>
					<path d="M556.915,544.8C556.009,547.659,557.381,545.546,556.915,544.8L556.915,544.8z"/>
					<path d="M527.742,545.397c-0.382-0.859-1.003-1.686-2.296-2.454C526.728,543.879,527.433,544.686,527.742,545.397z"/>
					<path d="M542.888,412.496c-0.002-0.074,0.019-0.134,0.017-0.22C541.649,413.072,541.888,412.934,542.888,412.496z"/>
					<path d="M552.271,547.476c1.214-0.627,2.398-1.468,3.441-2.511C554.99,545.295,553.896,546.042,552.271,547.476z"/>
					<path d="M555.299,548.312c-0.728,0.781-1.237,1.425-1.742,2.026C554.352,551.163,555.114,551.171,555.299,548.312z"/>
					<path d="M558.308,540.888c-0.607,1.588-1.542,2.9-2.595,4.077c0.638-0.338,1.069-0.402,1.202-0.165
						C557.184,543.964,557.573,542.79,558.308,540.888z"/>
					<path d="M72.942,450.725c-0.184,0.18-0.292,0.375-0.547,0.579C75.368,453.278,74.811,452.312,72.942,450.725z"/>
					<path d="M444.669,262.489c0.12,0.024,0.275-0.061,0.399-0.054c-0.031-0.121-0.066-0.276-0.086-0.396L444.669,262.489z"/>
					<path d="M435.511,260.829c7.825-3.903,8.821-1.865,9.472,1.21c0,0,2.689-3.918,5.379-7.837
						c1.326-1.976,2.653-3.951,3.648-5.433c0.979-1.479,1.63-2.465,1.63-2.465c0.001,0-5.148,3.529-10.176,7.167
						C440.426,257.097,435.511,260.829,435.511,260.829z"/>
					<path d="M159.072,264.647c0,0,1.986,0.215,3.971,0.43c1.955,0.237,3.91,0.474,3.91,0.474c0.699,5.774-0.24,8.66-0.282,10.54
						c-0.024,0.929,0.229,1.644,1.006,2.263c0.774,0.617,2.142,1.205,4.391,1.987c-3.268-3.907-4.043-6.769-3.546-9.144
						c0.505-2.362,2.201-4.291,4.07-5.999c1.833-1.761,3.653-3.529,4.309-5.922c0.718-2.304,0.284-5.269-2.534-9.511
						c0,0,1.358,0.349,2.716,0.698c1.342,0.359,2.684,0.717,2.684,0.717c-0.942,0.43-0.384,1.506-1.317,1.919
						c2.812,0.993,3.91,0.574,4.174-0.695c0.252-1.28-0.314-3.364-0.915-5.66c-1.229-4.599-2.558-10.149,2.169-11.469
						c3.606-0.392,7.049,1.137,6.39,4.271c0,0,0.902-1.97,1.804-3.939c0.936-1.995,1.872-3.989,1.872-3.989
						c0.998-0.364,1.826,0.339,2.133,1.174c0.302,0.825,0.124,1.834-0.855,2.181c0,0,0.529-0.439,1.348-1.058
						c0.834-0.596,1.946-1.39,3.058-2.185c2.235-1.605,4.471-3.21,4.471-3.21l0.191,0.577c-0.026-1.818,0.265-4.16,0.664-6.42
						c0.397-2.259,0.909-4.421,1.298-5.75c3.811,1.483-0.43,2.566,1.292,4.577c0,0,0.912-1.768,1.824-3.536
						c0.469-0.891,0.938-1.782,1.29-2.45c0.368-0.647,0.613-1.079,0.613-1.079c2.213,1.971,2.57,4.614,1.919,6.863
						c-0.632,2.316-2.267,4.259-4.321,4.772c6.753,8.114,7.194,6.486,8.14,3.505c0.478-1.44,1.06-3.207,2.506-4.204
						c1.444-0.977,3.743-1.267,7.524,0.511c0,0-0.271,0.263-0.676,0.658c-0.394,0.418-0.919,0.975-1.444,1.532
						c-1.038,1.106-2.076,2.212-2.076,2.212c1.872,2.368,3.394,3.814,4.76,4.717c1.364,0.904,2.566,1.248,3.826,1.54
						c2.489,0.539,5.105,0.455,8.902,2.955c-1.195-1.576-5.33-4.958-8.865-8.733c-3.509-3.784-6.373-7.954-4.115-11.39
						c2.27,0.875,4.688,0.777,6.843-4.223c2.179,6.909,4.874,4.312,8.853,2.744l2.219,9.343c0.871-0.964,1.429-2.004,1.814-3.039
						c0.388-1.025,0.587-2.101,0.725-3.212c0.277-2.224,0.295-4.588,1.129-6.998c5.273-0.25,7.777,6.771,10.109,12.756
						c3.924,0.085,2.103-2.622,0.3-5.75c-1.794-3.134-3.606-6.679,1.042-8.424c1.846,0.602,3.463,0.759,4.98,0.542
						c1.527-0.152,2.959-0.64,4.405-1.453c2.894-1.601,5.84-4.518,9.826-7.609c2.593,1.46,2.462,2.94,1.972,4.379
						c-0.497,1.439-1.357,2.835-0.399,4.14c0,0,0.919-1.989,1.838-3.979c0.957-1.994,1.914-3.987,1.914-3.987
						c1.076,0.099,0.855,2.474,0.752,3.672c1.719-1.633,1.699-3.948,1.931-6.33c0.238-2.358,0.744-4.676,3.709-6.054
						c0.33-2.651,1.315-3.032,2.688-2.302c0.687,0.365,1.468,1.007,2.311,1.782c0.419,0.399,0.855,0.814,1.307,1.243
						c0.445,0.456,0.905,0.926,1.376,1.408c1.876,1.893,3.872,3.742,5.865,4.376c1.997,0.651,4.001,0.001,5.995-2.802
						c1.614,2.858-1.205,5.804-0.867,9.554c5.034-3.553,7.318-4.823,9.374-6.446c2.087-1.597,3.926-3.425,8.812-8.167
						c0,0,1.559,1.783,3.117,3.566c0.771,0.866,1.513,1.849,2.071,2.535c0.555,0.7,0.924,1.167,0.924,1.167
						c-1.953-4.014-1.063-7.848,1.359-11.382c2.408-3.537,6.358-6.776,10.185-9.649c-1.304-3.766-2.497-7.075-3.419-8.712
						c0,0,2.835-0.8,5.67-1.601c1.437-0.427,2.854-0.698,3.935-0.963c1.079-0.247,1.8-0.411,1.8-0.411
						c0.92,1.828-0.879,4.796-3.374,8.332c0.854-0.615,1.678-1.229,2.349-1.818c2.853,4.296-0.37,9.236-3.959,13.909
						c-0.762-2.115-1.513-4.366-2.266-6.595c-3.636,5.272-6.967,11.234-7.507,16.843c0.799-0.981,2.136-1.71,3.521-2.008
						c-0.912,1.445-1.559,2.766-1.47,3.755c0.111,1.067,1.479-0.919,3.476-2.937c0,0-0.04,2.735-0.08,5.47
						c-0.064,2.729-0.129,5.459-0.129,5.459l1.403-4.035c0,0,2.51,2.294,5.021,4.589c1.243,1.102,2.419,2.385,3.311,3.271
						c0.883,0.904,1.471,1.507,1.471,1.507c2.723-2.02,5.55-4.364,8.515-6.697c2.936-2.24,6.017-4.499,9.28-6.489
						c1.632-0.995,3.31-1.923,5.034-2.748c1.719-0.807,3.455-1.428,5.255-1.953c1.796-0.514,3.641-0.887,5.53-1.085
						s3.837-0.246,5.763,0.06c-3.261,2.829-4.659,5.709-5.774,8.918c-1.106,3.212-1.928,6.754-3.846,10.986
						c0.227-5.303-2.794-5.284-6.399-4.556c-1.818,0.388-3.774,0.911-5.674,1.177c-1.908,0.287-3.718,0.206-5.227-0.833
						c3.157,2.158,0.894,6.068-0.46,7.244c0,0,0.908-0.285,2.271-0.711c0.688-0.21,1.491-0.456,2.353-0.719
						c0.857-0.224,1.771-0.462,2.686-0.701c3.674-0.95,7.484-1.859,7.484-1.859c-1.577,3.464-1.501,5.024-0.821,6.22
						c0.676,1.205,1.931,2.158,2.75,4.241c1.921-7.376,5.045-8.704,8.632-8.403c0.892,0.076,1.812,0.24,2.731,0.454
						c0.904,0.251,1.827,0.508,2.727,0.758c1.819,0.471,3.624,0.776,5.339,0.359c-2.072,4.605-5.558,8.617-10.503,4.703
						c0.544,6.641,4.377,3.647,8.553,0.588c4.151-3.133,8.529-6.13,9.189-0.216c-1.421-0.673-1.781-1.777-3.565,0.153
						c2.667-1.049,5.556,0.344,7.217,2.305c1.656,1.985,1.981,4.646-0.038,5.931l-1.341-0.741c1.909,1.76,4.476,3.68,7.399,5.42
						c2.885,1.801,6.019,3.588,9.296,4.783c1.657,0.575,3.212,1.188,4.818,1.546c1.593,0.376,3.176,0.579,4.712,0.563
						c3.077-0.042,5.964-0.937,8.292-3.101c-0.988,1.317-10.863,10.925-12.96,12.589c0,0,0.645-0.347,1.773-0.954
						c1.129-0.601,2.719-1.419,4.663-2.401c3.878-1.96,9.143-4.5,14.553-6.914c5.436-2.457,10.88-4.636,15.042-6.226
						c4.162-1.593,6.995-2.598,6.995-2.598c-4.466,3.311-9.938,10.894-15.769,17.308c-5.814,6.43-11.915,11.772-16.99,11.201
						c0.323,1.39,0.691,2.911,1.761,4.159c1.063,1.259,2.875,2.187,5.942,2.679c0.004-1.128,2.121-4.649,4.491-7.803
						c2.35-3.127,5.024-5.912,6.2-5.396c-2.092,6.652-2.556,8.53-2.687,10.43c-0.071,0.943-0.072,1.879-0.205,3.362
						c-0.137,1.482-0.376,3.493-1.117,6.663c0.09-1.696,3.74-4.938,7.688-7.282c3.942-2.351,8.225-3.757,9.387-1.996
						c-2.362,1.199-12.652,11.302-14.925,11.407c0,0,4.738-0.97,9.615-1.788c2.446-0.424,4.812-0.729,6.646-0.982
						c1.826-0.234,3.044-0.391,3.044-0.391c-3.956-0.117-11.4,8.632-13.878,13.196c0.995-1.407,2.206,0.26,3.529,2.386
						c1.269,2.168,2.523,4.859,3.952,5.399l0.823-5.597c1.063,2.602,3.182,3.571,5.9,3.781c1.353,0.107,2.874,0.007,4.439-0.16
						c1.557-0.161,3.199-0.417,4.859-0.67c3.319-0.505,6.714-0.994,9.645-0.683c2.912,0.317,5.454,1.392,6.709,4.126
						c-1.864,0.255-6.897,2.254-11.32,4.974c-4.423,2.718-8.274,6.099-7.833,9c2.184-0.536,5.88-1.487,10.407-2.452
						c4.521-0.962,9.923-1.958,15.295-2.506c5.403-0.569,10.93-0.768,15.828-0.318c2.434,0.231,4.771,0.592,6.738,1.192
						c1.976,0.596,3.693,1.376,5.05,2.356l-3.584,4.056c0,0,2.194,1.446,4.39,2.892c1.121,0.726,2.162,1.497,2.959,2.073
						c0.797,0.58,1.328,0.966,1.328,0.966c-6.963-0.195-18.465-0.916-29.409-1.399c-5.432-0.278-11.023-0.385-15.865-0.543
						c-4.876-0.145-9.085-0.306-12.239-0.555c-1.586,5.413-4.622,3.743-1.528,8.784c-3.209,3.885-7.708,0.371-8.688-0.968
						c0,0,0.838,3.274,1.676,6.549c0.456,1.606,0.742,3.281,0.998,4.512c0.248,1.232,0.413,2.053,0.413,2.053
						c4.473-2.357,7.827-1.074,11.056,0.418c3.108,1.525,6.037,3.264,9.853,1.472c0,0-0.959-0.652-2.396-1.63
						c-0.714-0.479-1.546-1.038-2.438-1.637c-0.93-0.567-1.921-1.172-2.912-1.777c-3.96-2.396-7.813-4.616-7.813-4.616
						c4.409-2.46,11.73-3.61,18.436-2.559c1.675,0.259,3.308,0.652,4.841,1.181c1.529,0.531,2.985,1.187,4.171,2.024
						c2.419,1.652,4.177,3.857,4.757,6.537c-1.371,1.992-5.774,3.058-10.188,3.879c-4.417,0.813-8.838,1.394-10.367,2.099
						c0.928-0.016,1.994,0.375,3.048,1.008c1.06,0.629,2.1,1.501,2.88,2.464c1.606,1.909,2.515,4.046,1.494,4.868
						c0,0-1.616-0.572-3.232-1.144c-1.606-0.547-3.213-1.095-3.213-1.095c-0.925,3.204,2.943,4.202,6.218,5.708
						c3.238,1.481,5.701,3.557,2.004,8.054c-0.017,1.205-2.607,3.668-4.657,5.664c-2.027,1.998-3.314,3.511-0.367,3.01
						c10.405-6.12,44.583-16.248,53.676-15.295c-0.265,0.575-2.096,4.853-4.515,9.344c-0.609,1.125-1.234,2.261-1.915,3.371
						c-0.704,1.114-1.426,2.193-2.146,3.19c-1.44,1.996-2.875,3.662-4.142,4.652c-4.063,2.916-9.654,2.185-15.067,1.547
						c-5.418-0.667-10.656-1.25-14.176,1.09c2.728-0.384,6.45,1.136,7.689,1.859c-1.874,2.867-8.592,0.447-6.415,5.49
						c10.237-0.646,0.53,11.069,8.879,1.282c1.786,2.487,1.45,4.008,0.817,5.646c-0.642,1.646-1.499,3.404-1.088,6.535
						c3.215-1.296,8.916-0.42,14.25,1.673c2.667,1.042,5.241,2.382,7.358,3.841c1.052,0.729,2.021,1.485,2.773,2.246
						c0.745,0.76,1.332,1.522,1.716,2.255c-2.607-0.24-5.955,1.22-7.483,1.897c-0.155,2.979-0.553,5.611-1.057,8.042
						c-0.587,2.431-1.344,4.661-2.034,6.849c-0.714,2.187-1.336,4.335-1.922,6.603c-0.638,2.266-1.127,4.655-1.354,7.353
						c-1.271,0.396-2.751,1.818-4.437,2.79c-1.672,0.979-3.63,1.489-5.688,0.206c1.625,1.659,4.88,3.423,4.715,6.719
						c-9.554,5.055-0.459-7.297-11.604-3.849c2.926,0.535,4.701,2.801,6.131,5.62c0.693,1.404,1.389,2.958,1.937,4.464
						c0.568,1.509,1.152,2.996,1.862,4.304c2.323,0.042,3.714-0.599,4.451-1.666c0.733-1.066,0.845-2.551,0.431-4.204
						c-0.762-3.307-3.077-7.151-4.626-9.639c6.294,0.657,12.478,3.37,17.597,7.736c2.537,2.176,4.901,4.771,6.713,7.65
						c1.788,2.875,3.178,6.057,4.063,9.412c0.339,2.599-0.052,4.076-0.856,4.823c-0.779,0.754-1.883,0.804-2.971,0.596
						c-2.174-0.42-4.288-1.845-3.596-0.835c-1.563,4.321-1.215,7.721-0.029,10.685c1.075,2.93,3.015,5.413,4.764,7.79
						c1.748,2.375,3.301,4.645,3.591,7.122c0.296,2.473-0.875,5.113-4.291,8.153c-4.824,1.672-8.608,0.338-11.96-1.393
						c-3.348-1.745-6.262-3.896-9.214-4.241c-0.232-4.116,1.947-6.437,4.289-8.482c2.27-2.055,4.803-3.786,5.369-6.372l-5.428,5.141
						c-1.893-3.144-2.492-8.486,0.521-10.548c-2.084,0.711-3.706,2.789-5.123,5.676c-0.713,1.441-1.355,3.094-2.015,4.869
						c-0.729,1.755-1.447,3.643-2.181,5.594c-0.746,1.946-1.455,3.976-2.307,5.957c-0.895,1.966-1.834,3.92-2.84,5.784
						c-0.503,0.932-1.022,1.841-1.562,2.717c-0.534,0.879-1.093,1.723-1.735,2.497c-1.249,1.563-2.582,2.957-4.016,4.099
						c1.512,3.219,2.337,8.185,6.064,7.813l0.74-4.374c3.771-0.447,4.993,2.31,5.86,4.796c0.873,2.473,1.404,4.648,3.946,2.72
						c0.226,0.941,0.454,1.896,0.688,2.868c0.224,0.974,0.428,1.958,0.625,2.964c0.389,2.007,0.694,4.07,0.725,6.104
						c0.028,2.031-0.212,4.036-0.925,5.901c-0.782,1.825-2.028,3.516-3.911,4.946l-8.766-3.21c2.394,1.222,7.543-2.111,6.264-5.544
						c0.921,2.523-3.454,3.868-6.897,5.615c-1.732,0.877-3.221,1.879-3.796,3.239c-0.611,1.341-0.266,3.073,1.76,5.493
						c0,0,2.159-0.42,4.318-0.84c1.094-0.212,2.167-0.445,2.954-0.636c0.797-0.187,1.328-0.312,1.328-0.312
						c0.242,1.95,0.61,4.106,0.959,6.371c0.354,2.267,0.69,4.641,0.785,6.952c0.078,2.299-0.016,4.581-0.684,6.521
						c-0.664,1.941-1.778,3.627-3.532,4.842c4.763,1.139,4.836,0.585,5.2-0.044c0.365-0.648,1.043-1.326,7.106-0.781
						c-6.85-1.581-3.898-5.881-1.264-9.898c1.315-2.017,2.586-3.956,2.464-5.439c-0.142-1.502-1.582-2.455-5.558-2.572
						c6.743,0.711,9.161-0.901,11.497-2.788c2.34-1.915,4.624-4.074,11.05-5.196c-2.802-1.188-6.407-0.215-1.923-5.689
						c-0.647-0.68-1.321-1.842-1.699-2.549c0.168-0.152,0.247-0.194,0.414-0.313c-0.167,0.07-0.332,0.104-0.493,0.178
						c-0.271-0.468-0.345-0.533-0.176,0.07c-1.93,0.863-3.949,1.304-5.693,0.998c-2.351-3.101-2.216-6.901-1.88-10.587
						c0.294-3.707,0.957-7.23,0.024-9.546c2.916-2.961,2.52,2.876,6.36,2.23c0,0-0.691-1.746-1.384-3.492
						c-0.754-1.744-1.509-3.488-1.509-3.488c3.208,1.052,6.762-0.327,9.561-0.751c2.794-0.412,4.835,0.148,4.891,5.375l3.462-7.977
						c2.714-1.718,4.871-4.22,6.319-6.878c1.404-2.672,2.071-5.507,1.323-8.025c2.557-3.613-4.328-12.03-0.223-7.171
						c0,0-0.02-0.89-0.049-2.224c-0.041-1.335-0.052-3.096-0.146-4.866c-0.251-3.532-0.502-7.064-0.502-7.064l1.67,0.256
						c2.049-6.404,0.366-13.74,0.249-20.823c-0.473-7.185,0.617-14.122,7.118-21.271c-0.684-2.309-1.438-4.636-1.766-7.298
						c-0.419-2.668-0.38-5.663,0.666-9.38l5.864-1.388c-0.873-2.929,0.424-7.299,1.283-11.327c0.846-4.016,1.223-7.656-1.957-8.733
						c3.799-1.796,5.775-4.554,6.625-7.833c0.425-1.639,0.568-3.407,0.518-5.244c-0.085-1.834-0.44-3.733-0.863-5.65
						c-0.432-1.917-0.97-3.848-1.524-5.747c-0.562-1.898-1.094-3.769-1.702-5.547c-1.146-3.567-1.98-6.839-1.767-9.563l-7.54,1.067
						c-0.104-0.879-0.247-1.747-0.43-2.605c-0.217-0.853-0.472-1.697-0.762-2.537c-0.578-1.681-1.294-3.347-2.129-5.03
						s-1.788-3.385-2.841-5.139c-1.093-1.744-2.36-3.52-3.675-5.392l-6.335,2.304c-3.679-2.739-3.647-7.504-3.692-12.973
						c0.023-2.744,0.135-5.688-0.043-8.631c-0.25-2.915-0.865-5.801-2.086-8.45c2.678-0.221,3.151,2.818,2.46,5.311
						c2.283-4.582,2.053-8.457,0.559-11.805c-1.586-3.317-4.529-6.065-7.494-8.664c-2.919-2.63-6.195-4.951-8.323-7.69
						c-2.153-2.733-3.22-5.86-2.426-9.92c-3.696-1.528-4.084-3.874-3.737-6.657c0.159,0.246,0.397,0.41,0.692,0.496
						c-0.092-0.32-0.319-0.743-0.578-1.162c0.316-1.811,0.699-3.732,0.759-5.62c-0.673,1.989-1.122,3.745-1.126,5.029
						c-1.339-2.03-4.099-4.67-7.428-6.775l5.209-5.253c-0.241-0.198-0.359-0.409-0.631-0.601c0.253-4.527-4.386-0.492-7.893,4.097
						c-1.93-0.866-4.099-1.358-6.244-1.396c3.984-4.459,1.804-5.835-0.333-7.31c-1.072-0.742-2.137-1.515-2.454-2.766
						c-0.343-1.233,0.036-2.928,1.904-5.593c-3.158,0.884-6.828-1.944-11.065-4.119c-4.379-2.065-9.302-3.434-14.657,0.124
						c1.17-1.188,1.101-2.475,2.387-1.148c-1.341-3.879-3.004-7.656-7.964-7.648l5.485-7.556c0,0-3.704,0.592-7.335,1.262
						c-3.695,0.72-7.329,1.528-7.329,1.528c0.301-7.447,0.818-11.441,9.472-12.96c-4.17-0.214-6.832-0.538-8.79-0.902
						c-1.989-0.323-3.228-0.725-4.42-1.09c-2.379-0.701-4.593-1.37-11.94-0.497l4.164-4.279c-1.538-1.069-4.724-0.974-7.32-1.229
						c-2.603-0.26-4.629-0.881-4.029-3.528c0.051-3.491-2.04-6.793-5.33-10.17c-0.829-0.834-1.713-1.702-2.698-2.517
						c-0.993-0.802-2.052-1.606-3.159-2.417c-2.217-1.619-4.631-3.261-7.143-4.945c-2.579-1.575-5.255-3.192-7.928-4.888
						c-1.347-0.831-2.652-1.753-4.018-2.569c-1.358-0.831-2.703-1.686-4.026-2.572c-1.322-0.886-2.622-1.801-3.888-2.753
						c-1.263-0.958-2.492-1.949-3.722-2.896c-2.435-1.94-4.691-4.053-6.69-6.391c-1.58,8.894-3.054,6.02-5.012,2.536
						c-1.982-3.423-4.543-7.596-7.384-1.432c0.336-4.308-1.768-7.643,2.891-9.677c-1.517-0.05-2.862-0.278-4.084-0.626
						c-1.229-0.328-2.353-0.725-3.385-1.213c-2.066-0.962-3.811-2.175-5.533-3.135c-1.728-0.936-3.404-1.717-5.374-1.551
						c-1.96,0.14-4.161,1.049-6.814,3.265c-0.13-4.354,4.021-5.162,3.583-7.837c-1.157,0.599-4.505,2.459-5.012-0.248
						c-0.5-2.698,2.542-2.891,4.835-4.112c-2.947-0.655-5.437-0.395-7.544,0.555c-2.126,1.021-3.866,2.702-5.334,4.809
						c-2.934,4.214-4.799,10.123-6.541,15.858c-2.075-3.383-3.909-5.055-5.872-5.014c-1.98,0.122-4.102,1.936-6.762,5.445
						c-1.16-4.18-3.78-8.808,3.355-8.96c-0.94-0.314-2.825-1.088-5.17-1.926c-1.173-0.419-2.46-0.854-3.798-1.253
						c-1.347-0.344-2.746-0.641-4.129-0.861c-5.543-0.87-10.785-0.436-11.428,4.401c-0.981-2.516-5.359-1.125-6.441-0.097
						c-2.152-0.306-3.814-0.592-5.229-0.845c-1.416-0.233-2.589-0.363-3.758-0.492c-2.337-0.235-4.673-0.285-8.94,0.067l2.342,1.625
						c-1.752,5.764-3.436,6.283-5.595,5.75c-2.146-0.575-4.789-2.409-8.14-1.626l0.15-1.191c-3.962-2.038-6.407-2.578-8.023-2.631
						c-1.621-0.043-2.427,0.482-3.223,0.971c-0.797,0.488-1.583,0.938-3.186,0.749c-0.802-0.09-1.81-0.361-3.132-0.827
						c-1.32-0.429-2.956-1.079-5.038-2.015l1.683,7.036c0.184,7.777-3.268,5.914-8.02,3.018c-2.366-1.409-5.042-2.957-7.65-3.757
						c-2.599-0.782-5.122-0.782-7.022,1.088c0,0,0.994,0.858,1.988,1.717c0.983,0.867,1.966,1.734,1.966,1.734
						c-1.866,2.961-6.104-1.422-10.893-6.646c-4.745-5.21-10.071-11.314-12.853-11.464c-1.454-0.975,1.181-2.611,2.514-3.951
						c-3.938-1.332-5.899-1.302-6.722-0.575c-0.824,0.743-0.517,2.248-0.007,4.063c1.026,3.63,2.806,8.511-1.66,10.924
						c-1.618-2.18-1.987-5.436-2.784-8.031c-0.401-1.297-0.915-2.427-1.771-3.167c-0.856-0.744-2.06-1.104-3.795-0.75
						c-2.29-1.394-5.923,4.15-10.155,9.257c-2.092,2.654-4.355,5.194-6.859,6.719c-1.253,0.763-2.569,1.273-3.965,1.423
						c-1.38,0.188-2.831,0.037-4.391-0.601c3.473,2.735,6.76,5.542,3.776,10.115c-1.452,1.039-3.624,1.197-6.117,1.087
						c-1.243-0.049-2.578-0.19-3.915-0.28c-1.327-0.07-2.677-0.132-3.992-0.116c-5.229,0.087-10.02,1.33-9.739,8.387
						c-1.299-0.488-2.1-1.21-2.611-2.04c-0.791,1.373-1.973,2.893-3.284,4.514c-1.311,1.621-2.762,3.322-4,5.204
						c-2.519,3.701-4.495,7.588-3.95,11.217c-4.49-4.557-8.002-4.864-10.993-3.243c-2.977,1.643-5.377,5.212-7.344,8.922
						c-1.008,1.828-1.959,3.633-2.929,5.171c-0.967,1.542-1.976,2.791-3.017,3.631c-2.114,1.63-4.714,1.252-8.441-3.1
						c0,0-0.738,0.74-1.844,1.851c-1.091,1.127-2.609,2.555-4.009,4.107c-2.801,3.09-5.602,6.18-5.602,6.18l-1.313-1.977
						c-1.1,0.789-2.047,1.583-2.857,2.381c-0.802,0.806-1.424,1.656-1.955,2.48c-1.05,1.659-1.633,3.308-1.896,4.941
						c-0.515,3.278,0.191,6.447,1.036,9.659c-2.731,0.765-3.18-1.979-3.936-2.94c-6.759,4.279-10.365,6.936-11.888,10.771
						c-0.795,1.893-1.143,4.032-1.203,6.743c-0.018,1.364-0.014,2.833,0.136,4.549c0.143,1.711,0.346,3.605,0.596,5.715
						l-6.813-3.247c0.374,1.339-0.829,2.705-2.887,4.304c-1.051,0.792-2.241,1.69-3.54,2.669c-1.312,0.98-2.742,2.048-4.198,3.223
						c-1.453,1.176-2.944,2.452-4.342,3.859c-1.339,1.443-2.605,3.006-3.697,4.693s-2.011,3.497-2.653,5.427
						c-0.659,1.92-0.881,4.047-0.812,6.234c-0.678-0.523-1.814-1.47-2.18-3.05c-0.029,2.441-0.619,4.679-1.599,6.787
						c-0.49,1.054-1.078,2.074-1.742,3.07c-0.625,1.014-1.311,2.011-2.058,2.986c-2.944,3.915-6.919,7.501-9.842,11.259
						c-1.504,1.857-2.848,3.707-3.833,5.552c-0.492,0.923-0.898,1.843-1.184,2.764c-0.25,0.934-0.389,1.865-0.389,2.792
						c-0.005,3.714,2.191,7.355,8.137,10.907c0,0,0.174,0.789,0.436,1.973c0.239,1.173,0.666,2.761,1.086,4.331
						c0.851,3.107,1.701,6.214,1.701,6.214c2.945-6.522,5.599-5.104,8.283-2.718c2.68,2.407,5.414,5.724,8.319,3.722
						c0.053,2.723-2.83,5.399-5.701,6.676c-1.421,0.637-2.796,0.921-3.845,0.609c-1.026-0.306-1.769-1.223-1.631-2.908l1.593-0.653
						c-3.242-1.499-5.456-1.306-7.108-0.165c-1.64,1.14-2.583,3.244-3.456,5.438c-0.861,2.199-1.599,4.5-2.704,6.11
						c-1.126,1.605-2.473,2.563-4.836,2c-0.547,3.522-1.215,7.006-1.978,10.47c-0.702,3.472-1.326,6.948-2.109,10.403
						c-0.358,1.731-0.826,3.452-1.137,5.187c-0.341,1.736-0.681,3.469-1.021,5.199c-0.358,1.737-0.715,3.47-1.072,5.2
						c-0.175,0.867-0.381,1.734-0.532,2.602l-0.433,2.606c-0.575,3.495-1.146,6.975-1.716,10.44
						c-0.458,3.483-0.784,6.97-1.108,10.455c-0.141,1.742-0.332,3.484-0.386,5.223c-0.044,1.737-0.071,3.473-0.075,5.205
						s0.013,3.462,0.057,5.186c0.035,1.725,0.102,3.444,0.307,5.147c0,0,2.631-1.066,5.261-2.134
						c2.657-1.037,5.314-2.075,5.314-2.075s0.001,0.144,0.003,0.396c0.003,0.252,0,0.613,0.031,1.043
						c0.049,0.862,0.114,2.013,0.179,3.162c0.133,2.305,0.267,4.608,0.267,4.608c-2.227,2.73-8.084,4.475-8.491-2.332
						c-2.864,2.141-1.205,4.857,1.456,6.902c2.62,2.063,6.468,3.42,7.633,3.32c-1.063,6.719-4.416,6.124-7.486,4.155
						c-3.066-1.947-5.83-5.24-5.601-3.175l1.792,5.405l1.04-1.469c2.605,1.846,5.09,2.617,7.035,3.934
						c0.976,0.656,1.8,1.449,2.468,2.568c0.705,1.112,1.235,2.553,1.551,4.528c-1.004,5.425-6.003,4.083-5.959,6.157
						c-0.758,0.168-0.956,0.936,0.405,3.131c0,0,0.093,0.754,0.33,1.862c0.223,1.112,0.52,2.597,0.817,4.081
						c0.603,2.975,1.206,5.95,1.206,5.95s1.747-1.771,3.495-3.541c1.759-1.733,3.518-3.468,3.518-3.468
						c2.763,1.916,3.401,4.563,4.346,5.76c0.468,0.598,1.056,0.811,1.964,0.388c0.909-0.421,2.185-1.496,4.184-3.472
						c-6.118,5.838-4.02,16.797-0.021,26.556c0.91,2.477,2.106,4.805,3.177,7.033c1.083,2.223,2.117,4.313,2.982,6.203
						c1.805,3.743,3.058,6.628,2.553,8.267c2.235,0.9,4.098,1.951,5.69,3.154c1.644,1.175,3.052,2.483,4.272,3.949
						c2.459,2.916,4.161,6.478,6.266,10.324c0.342-2.809,7.978-8.94,10.862-2.23c-4.568,2.183-6.868,4.262-7.843,6.417
						c-0.975,2.149-0.671,4.382,0.088,6.662c0.729,2.303,1.772,4.741,2.142,7.466c0.187,1.361,0.198,2.802-0.064,4.326
						c-0.235,1.505-0.762,3.108-1.705,4.835c2.07-5.132,5.965-1.111,9.961,2.188c1.964,1.685,4.132,3.054,5.994,3.112
						c1.879,0.052,3.504-1.282,4.72-5.08c1.412,2.876,0.061,4.187-1.718,5.598c-1.774,1.416-3.991,2.916-4.155,6.338
						c2.016,0.806,3.742,1.907,5.432,3.091c1.681,1.19,3.203,2.576,4.623,4.114c1.428,1.529,2.719,3.247,4.027,5.007
						c1.337,1.731,2.627,3.568,3.921,5.461c1.306,1.88,2.565,3.869,3.964,5.76c1.412,1.875,2.875,3.749,4.425,5.563
						c0.776,0.906,1.573,1.798,2.397,2.666c0.412,0.435,0.831,0.863,1.257,1.284c0.44,0.405,0.891,0.798,1.347,1.187
						c1.827,1.549,3.777,2.973,5.878,4.203c1.825-1.919,1.848-7.032,7.395-7.669c0,0-0.015,1.036-0.038,2.59
						c-0.004,0.78-0.01,1.69-0.016,2.665c0.017,0.962,0.034,1.987,0.052,3.013c0.083,4.111,0.279,8.296,0.279,8.296
						c1.947,0.589,4.843-2.024,7.28-3.361c1.221-0.67,2.321-1.013,3.154-0.484c0.854,0.504,1.431,1.882,1.625,4.727
						c0.391-2.387,1.054-5.938,3.592-5.31c2.965,3.805,6.288,7.255,10.054,10.06c1.861,1.438,3.785,2.795,5.756,4.082
						c1.977,1.276,4.076,2.347,6.165,3.438c2.099,1.074,4.23,2.094,6.379,3.075c2.193,0.892,4.408,1.738,6.628,2.568
						c2.229,0.812,4.433,1.676,6.691,2.405l6.786,2.14c4.479,1.532,9.046,2.776,13.508,4.325l6.677,2.386
						c2.225,0.806,4.431,1.689,6.617,2.673c1.094,0.488,2.18,1.015,3.268,1.545c1.097,0.492,2.19,1.013,3.279,1.563
						c2.178,1.1,4.339,2.32,6.49,3.685c2.142,1.407,4.309,2.778,6.466,4.343s4.311,3.293,6.47,5.207
						c-4.336-5.962-0.781-5.837,3.113-5.352c-2.331-1.646,1.056-6.43,1.098-10.049c0,0,0.211,0.206,0.589,0.522
						c0.379,0.322,0.92,0.783,1.57,1.336c1.324,1.108,3.09,2.585,4.855,4.062c1.815,1.479,3.63,2.959,4.992,4.069
						c0.689,0.567,1.271,0.99,1.679,1.296c0.408,0.304,0.642,0.478,0.642,0.478c1.924-4.825,6.09-4.674,10.133-4.486
						c2.017,0.13,4.003,0.129,5.602-0.457c1.6-0.579,2.805-1.749,3.269-4.109l-4.94,1.578c3.49-5.521,1.378-11.76-1.016-18.497
						c-2.439-6.821-5.126-14.063-4.146-21.193c-1.795,3.055-3.686,3.326-5.606,2.295c-1.917-1.091-3.845-3.576-5.846-5.849
						c-1.001-1.143-2.022-2.242-3.085-3.118c-0.532-0.438-1.075-0.819-1.632-1.123c-0.554-0.325-1.12-0.591-1.707-0.745
						c-2.351-0.627-4.995,0.367-8.371,4.396c-1.622-3.262,2.749-4.214,2.205-7.694c-3.617,5.694-7.013,6.131-11.921,2.188
						l0.985-1.337c-0.989-0.131-1.938-0.282-2.851-0.452c-0.907-0.192-1.767-0.449-2.602-0.697c-1.667-0.508-3.208-1.08-4.663-1.711
						c-1.447-0.654-2.838-1.265-4.124-2.107c-1.294-0.815-2.542-1.678-3.781-2.581c-1.239-0.904-2.47-1.849-3.734-2.828
						c-1.27-0.964-2.512-2.13-3.858-3.236c-1.338-1.129-2.749-2.289-4.272-3.476c-0.381-0.293-0.77-0.592-1.165-0.895
						c-0.386-0.32-0.779-0.646-1.18-0.979c-0.802-0.658-1.636-1.323-2.509-1.995l-1.711,7.024c-3.083-2.441-2.865-4.783-3.692-7.105
						c-8.59,7.939,9.41,4.912,0.955,14.131c0.262-3.85-1.109-6.47-3.271-8.488c-1.098-0.976-2.318-1.964-3.664-2.818
						c-1.338-0.868-2.77-1.668-4.184-2.474c-0.707-0.403-1.409-0.808-2.091-1.222c-0.672-0.434-1.308-0.909-1.918-1.385
						c-1.217-0.958-2.297-1.987-3.116-3.15c-1.638-2.327-2.229-5.16-0.739-9.135c-2.334-1.557-3.094,0.401-3.833,2.369
						c-0.741,1.968-1.461,3.944-3.894,2.327l1.124-4.56l-4.375,4.001c-0.676-0.721-1.107-1.59-1.297-2.594
						c-0.187-1.01-0.166-2.103,0.002-3.197c0.336-2.19,1.267-4.39,2.291-5.972c0.472,0.886,2.659,0.604,3.606,0.887
						c-0.451-3.546-3.353-5.067-6.276-6.044c-1.479-0.458-2.859-0.909-3.942-1.32c-1.076-0.42-1.814-0.849-1.87-1.436
						c0,0,0.634,1.371,1.268,2.742c0.322,0.69,0.644,1.382,0.885,1.9c0.238,0.527,0.42,0.849,0.42,0.849
						c-1.845-0.74-3.604-1.708-5.362-2.749c-0.875-0.524-1.745-1.077-2.608-1.65l-1.292-0.875c-0.419-0.309-0.824-0.639-1.235-0.963
						c-3.246-2.646-6.571-5.367-9.655-8.33c-1.578-1.443-3.187-2.849-4.843-4.187c-1.579-1.417-3.212-2.759-4.932-3.988
						c-3.513-2.394-7.03-4.645-11.301-6.066l-1.787,3.058c-1.563-0.625-2.814-1.242-3.78-1.884
						c-0.938-0.664-1.625-1.325-2.137-1.986c-1.026-1.323-1.35-2.649-1.606-4.057c-0.24-1.42-0.485-2.869-1.18-4.587
						c-0.696-1.722-1.948-3.625-4.429-5.868l0.931-0.069c-4.312-0.164-7.583-2.288-9.234-5.543c2.56,0.354,3.315-2.003,4.22-4.219
						c0.898-2.228,1.948-4.31,4.924-3.701c-0.782-0.432-1.49-0.823-2.132-1.179c-0.636-0.366-1.207-0.696-1.721-0.993
						c-1.052-0.585-1.924-1.021-2.68-1.338c-1.514-0.634-2.565-0.786-3.709-0.735c-1.145,0.049-2.38,0.303-4.283,0.451
						c-1.901,0.143-4.503,0.207-8.232-0.318l4.002-4.384c-2.905-0.154-4.99-0.011-6.895-0.499c-1.892-0.498-3.697-1.592-5.724-4.448
						c3.323,1.56,4.773-0.376,6.464-2.249c1.682-1.89,3.611-3.704,7.684-2.343c1.361-4.391,0.871-7.299-0.479-9.529
						c-1.281-2.25-3.316-3.854-5.188-5.327c-0.928-0.738-1.798-1.447-2.469-2.189c-0.678-0.738-1.145-1.515-1.211-2.399
						c-0.168-1.755,1.027-3.866,4.758-6.717c-4.138-0.218-6.499,0.476-7.748,1.696c-1.25,1.215-1.396,2.937-1.156,4.626
						c0.231,1.693,0.858,3.343,1.245,4.395c0.354,1.063,0.354,1.58-0.746,1.039c-1.799,2.291-4.966,2.104-7.749,0.652
						c-2.695-1.471-4.907-4.234-4.913-6.64c-0.292-1.128,0.575-2.541,1.985-4.164c1.408-1.622,3.464-3.486,5.401-5.486
						c1.95-2.005,3.836-4.16,5.036-6.435c0.6-1.138,1.028-2.307,1.204-3.509c0.232-1.217,0.227-2.471-0.11-3.769
						c0.168,1.059,1.315,0.853,1.487,1.9c1.461-2.418-0.262-3.982-1.731-5.789c-0.734-0.9-1.403-1.854-1.568-2.961
						c-0.111-1.118,0.299-2.393,1.651-3.89c-4.814-0.492-4.973-2.137-5.398-3.447c-0.427-1.319-1.127-2.333-7.068-1.84l4.499,9.566
						c-2.02-2.517-6.696-4.522-10.277-7.383c-1.834-1.417-3.18-3.072-3.855-5.031c-0.655-1.959-0.546-4.238,0.813-6.876
						c2.481,0.524,5.979,3.043,7.967,4.751c1.56-1.617,0.815-2.865,0.077-4.154c-0.742-1.282-1.488-2.605,0.226-4.226
						c2.991-0.072,4.639,0.641,5.745,1.799c1.099,1.159,1.546,2.785,1.922,4.585c0.38,1.797,0.674,3.772,1.507,5.574
						c0.922,1.785,2.347,3.396,4.836,4.447c2.247-1.834-0.442-4.159-1.864-6.052c-1.414-1.893-1.768-3.187,4.79-2.606
						c-8.364-0.955-8.198-3.742-7.589-6.803c0.752-3.124,2.006-6.463-4.523-9.753l7.145,0.068c-1.255-1.043-4.655-3.262-4.519-5.403
						c0,0,2.328,0.864,4.656,1.729c2.325,0.824,4.65,1.648,4.65,1.648c-3.991-2.644-2.341-5.537-0.246-8.241
						c2.02-2.734,4.84-5.281,2.731-8c-0.016,2.802-0.571,4.353-1.471,5.192c-0.899,0.839-2.102,0.96-3.526,0.871
						c-2.826-0.165-6.353-1.236-8.879,1.299c-1.282-1.833-1.786-3.368-1.912-4.651c-0.115-1.284,0.216-2.318,0.861-3.177
						c1.289-1.719,3.832-2.736,6.564-3.755c2.701-1.021,5.726-2.036,7.87-3.747c2.168-1.715,3.415-4.103,2.918-8.001
						c0.344,1.077-0.799,2.915-2.516,4.075c-1.698,1.156-3.886,1.648-5.402-0.165c0.866-1.448,1.965-3.106,3.505-4.537
						c1.532-1.433,3.319-2.659,5.285-3.313c-0.099-5.117-1.962-5.035-4.271-4.208c-2.31,0.812-5.087,2.417-6.969-0.136
						c4.521-1.206,3.775-2.574,1.781-4.357c-2.028-1.777-5.437-3.982-6.377-6.623l7.12,1.293c0.836-1.389,1.236-2.514,1.315-3.455
						c0.123-0.931-0.074-1.675-0.499-2.3c-0.847-1.25-2.574-2.012-4.279-2.735c-3.416-1.432-6.719-2.782-2.717-7.696
						c0,0,2.167,1.773,4.335,3.546c2.179,1.72,4.357,3.439,4.357,3.439s-0.312-1.541-0.623-3.083
						c-0.155-0.778-0.31-1.556-0.427-2.14c-0.086-0.579-0.145-0.965-0.145-0.965l7.664,3.186c-2.154-3.665-2.662-5.933-2.203-7.876
						c0.234-0.973,0.718-1.869,1.38-2.836c0.663-0.966,1.617-1.968,2.631-3.204c-2.645-0.14-5.71-1.321-7.904-3.176
						c-2.197-1.849-3.516-4.393-2.726-7.1c2.624-1.081,4.109,0.05,5.069,0.417c0.981,0.379,1.523,0.072,2.465-3.716
						c1.786,1.639,3.838,3.389,4.517,4.805c0.341,0.709,0.329,1.333-0.22,1.836c-0.523,0.513-1.595,0.899-3.43,1.129
						c2.114,1.114,3.749,3.098,5.845,4.17c2.96-1.003,3.905-3.153,4.465-5.332c0.501-2.192,0.368-4.508,0.822-5.761
						c-0.623,0.85-1.431,1.844-2.624,2.053c0,0-0.335-0.859-0.839-2.147c-0.492-1.292-1.187-3.048-1.798-4.802
						c-1.168-3.475-2.289-7.086-2.289-7.086c3.197-0.478,4.597,1.728,5.995,3.827c0.097-1.166-0.453-2.446-0.923-3.854
						c-0.466-1.404-0.895-2.958-0.385-4.557c4.907,3.343,10.356,5.834,11.101,10.999c0,0-0.116-0.737-0.29-1.842
						c-0.177-1.111-0.415-2.606-0.544-4.069c-0.299-2.989-0.599-5.978-0.599-5.978c1.289,0.286,3.434-0.055,5.403-0.166
						c1.952-0.125,3.845,0.037,4.461,1.097c2.882-1.492,1.992-5.74,1.508-10.278c-0.178-2.221-0.278-4.51,0.159-6.49
						c0.448-1.97,1.368-3.673,3.429-4.51c-0.717-0.961-1.162-2.214-0.919-4.007c1.299-1.25,2.859-2.24,4.429-3.189
						c1.633-0.904,3.305-1.747,4.743-2.805c1.45-1.05,2.647-2.331,3.478-4.036c0.878-1.668,1.332-3.808,1.186-6.722
						c0,0,2.762,0.837,5.477,1.722c2.7,0.863,5.439,1.85,5.439,1.85c1.278-3.06-2.184-4.251-5.503-5.872
						c-3.306-1.64-6.464-3.703-4.007-9.158c1.556-4.071,3.667-3.05,5.887-0.943c2.208,2.089,4.534,5.15,6.53,5.283
						c-0.512-3.175-1.406-7.892-0.717-11.733c0.085-0.479,0.194-0.945,0.332-1.39c0.151-0.429,0.331-0.838,0.541-1.223
						c0.42-0.769,0.964-1.437,1.655-1.962c1.382-1.049,3.356-1.526,6.085-1.06C162.646,262.584,160.236,262.608,159.072,264.647z
						 M227.158,219.303c-0.514,0.974-1.128,2.813-1.915,3.951c-0.768,1.198-1.72,1.688-3.023-0.092
						c-0.632-4.208-0.229-5.53,0.73-5.638C223.921,217.441,225.467,218.618,227.158,219.303z M356.004,197.368
						c-1.848,1.963-3.469,0.426-5.057-2.767C352.686,194.408,354.479,195.048,356.004,197.368z M563.643,512.771
						c-0.082-0.123-0.145-0.213-0.26-0.329C567.575,508.85,565.98,510.091,563.643,512.771z M557.342,520.883
						c0.585,1.273,1.543,1.579,2.639,1.555c-1.46-1.304-0.762-3.373,0.607-5.535C558.573,516.913,556.886,517.604,557.342,520.883z
						 M30.231,486.906l1.415-2.265C34.621,488.231,32.53,487.542,30.231,486.906z"/>
					<path d="M339.043,203.752c-0.237-1.284-0.122-2.632,0.017-3.992C338.18,200.838,337.925,202.222,339.043,203.752z"/>
					<path d="M128.73,304.599c-0.095,0.033-0.125,0.111-0.208,0.151c0.278,0.354,0.599,0.661,0.932,0.938L128.73,304.599z"/>
					<path d="M511.247,383.425c0.75-1.713,1.9-2.82,3.144-3.653C512.634,380.017,511.29,381.002,511.247,383.425z"/>
					<path d="M544.964,573.447c0,0,0.118-0.404,0.295-1.011c0.184-0.602,0.411-1.413,0.605-2.241c0.404-1.642,0.81-3.283,0.81-3.283
						c-1.262,2.889-3.147,3.059-4.988,3.762C543.202,571.442,545.956,571.672,544.964,573.447z"/>
					<path d="M478.015,587.84c0.094,1.186-1.106,1.298-0.999,2.491l2.598,2.146C481.87,589.792,481.512,586.24,478.015,587.84z"/>
					<path d="M521.529,565.459c-2.684-1.452-4.086-1.128-4.978,0.069c-0.447,0.599-0.766,1.419-1.059,2.346
						c-0.312,0.918-0.646,1.904-0.991,2.918c0.125-0.215,0.22-0.436,0.423-0.596c3.152,2.916,4.79,3.07,5.685,1.824
						C521.488,570.769,521.504,568.076,521.529,565.459z"/>
					<path d="M514.115,571.69c-0.503,1.201-1.128,2.359-2.089,3.205C514.514,577.286,513.513,574.032,514.115,571.69z"/>
					<path d="M556.363,533.912c-2.295,1.277,6.576,4.357,3.81,4.452c3.038,2.686,2.39-1.573,0.788-4.853
						c-0.784-1.636-1.868-3.061-2.752-3.3C557.336,529.98,556.619,530.894,556.363,533.912z"/>
					<polygon points="503.003,557.201 510.031,560.161 506.144,555.003 					"/>
					<path d="M523.19,533.277l-4.715,4.643c1.156,0.505,1.446,1.563,1.492,2.708C521.96,537.289,525.251,534.138,523.19,533.277z"/>
					<path d="M519.968,540.628c-1.078,1.725-1.94,3.446-1.42,5.042C519.013,544.667,520.024,542.509,519.968,540.628z"/>
					<path d="M505.636,548.915c0,0,0.579-0.177,1.157-0.353c0.582-0.175,1.15-0.362,1.15-0.362l2.642-3.492
						c0,0-1.225,1.067-2.448,2.135C506.942,547.921,505.636,548.915,505.636,548.915z"/>
					<path d="M546.368,469.521l-0.906-7.172c-2.423-1.1-4.3,0.456-3.732,3.113C543.211,467.377,543.737,470.085,546.368,469.521z"/>
					<path d="M521.692,484.3c1.973-1.235,3.623-0.906,6.284-1.214l-8.944-2.604L521.692,484.3z"/>
					<path d="M523.91,465.854c-1.213-0.565-2.638-3.149-3.865-4.568c-1.228-1.423-2.254-1.726-2.644,2.138
						c1.2,0.544,2.076,2.446,2.993,3.577c0.445,0.562,0.921,0.932,1.498,0.836C522.479,467.741,523.152,467.18,523.91,465.854z"/>
					<path d="M534.458,368.985l0.494,1.617l14.892-3.407c0,0-3.85,0.436-7.698,0.872
						C538.302,368.526,534.458,368.985,534.458,368.985z"/>
					<path d="M469.995,308.339c0.489,7.579,8.846-3.724,8.245,3.911c1.932-0.226,2.151-1.833,2.174-3.349
						c0.051-1.527,0.04-3.042,1.819-3.158C476.713,304.2,477.388,301.243,469.995,308.339z"/>
					<path d="M482.233,305.744c0.879,0.255,1.893,0.478,3.157,0.614C483.903,305.809,482.969,305.708,482.233,305.744z"/>
					<path d="M281.428,703.621c0,0,0.357,0.226,0.892,0.564c0.536,0.351,1.253,0.77,1.975,1.186
						c1.451,0.836,2.901,1.673,2.901,1.673s-0.905-1.309-1.811-2.617c-0.889-1.309-1.777-2.617-1.777-2.617
						s-0.542,0.476-1.087,0.915C281.975,703.173,281.428,703.621,281.428,703.621z"/>
					<path d="M292.916,692.669l1.211,9.765c0,0,0.892-2.182,1.784-4.364c0.865-2.183,1.729-4.366,1.729-4.366
						C296.363,694.106,293.849,694.89,292.916,692.669z"/>
					<path d="M244.304,234.447l-0.344-2.339c-1.3-2.265-2.29-2.182-4.274-2.037c0,0,1.166,1.092,2.331,2.183
						C243.161,233.351,244.304,234.447,244.304,234.447z"/>
					<path d="M190.636,250.506l0.927-0.362c0,0-1.556-1.616-3.112-3.231c-1.573-1.605-3.146-3.21-3.146-3.21L190.636,250.506z"/>
					<path d="M161.623,288.293c0.774-0.53,1.142-1.571,1.598-2.541c0.451-0.972,0.909-1.952,1.714-2.46
						C163.116,287.11,153.44,281.009,161.623,288.293z"/>
				</g>
			</g>
		</g>
	</g>
</g>
<text transform="matrix(1 0 0 1 157.5713 90.7144)" font-family="'MyriadPro-Regular'" font-size="60">Pyromancy</text>
<path d="M242.423,527.068c0,0-65.753-80.822,0-201.37c0,0,5.252,91.892,34.95,80.013c29.698-11.879,33.261-106.319,33.261-106.319
	s-5.346,103.943,13.662,105.726c19.006,1.782,48.11-78.997,42.171-78.997s50.486,194.82-20.789,205.512"/>
</svg>
