<?xml version="1.0" encoding="utf-8"?>
<!-- Generator: Adobe Illustrator 16.0.0, SVG Export Plug-In . SVG Version: 6.00 Build 0)  -->
<!DOCTYPE svg PUBLIC "-//W3C//DTD SVG 1.1//EN" "http://www.w3.org/Graphics/SVG/1.1/DTD/svg11.dtd">
<svg version="1.1" id="Layer_1" xmlns="http://www.w3.org/2000/svg" xmlns:xlink="http://www.w3.org/1999/xlink" x="0px" y="0px"
	 width="595.28px" height="841.89px" viewBox="0 0 595.28 841.89" enable-background="new 0 0 595.28 841.89" xml:space="preserve">
<g>
	<circle fill="#FFFFFF" cx="289.641" cy="466.945" r="246.428"/>
	<g>
		<g>
			<g>
				<g>
					<path d="M291.713,749.845c-2.617-0.489-1.675,5.772-2.072,6.909C294.116,755.264,291.57,748.214,291.713,749.845z"/>
					<path d="M332.547,732.173l-0.317,2.659c0,0,1.245-1.816,2.491-3.633c1.21-1.812,2.42-3.623,2.42-3.623L332.547,732.173z"/>
					<path d="M370.027,723.497c-3.337-4.565-6.454-3.261-9.807-0.955c-0.835,0.595-1.692,1.206-2.554,1.819
						c-0.863,0.625-1.748,1.202-2.658,1.635c-1.812,0.896-3.68,1.394-5.552,0.849l-1.629-2.127c0,0-0.281,2.273-0.563,4.548
						c-0.305,2.279-0.611,4.559-0.611,4.559c1.993-0.806,4.074-1.914,6.156-3.096c2.081-1.196,4.184-2.387,6.176-3.636
						C362.994,724.676,366.773,722.922,370.027,723.497z"/>
					<path d="M397.947,738.062c-2.827-3.367,3.142-5.092-5.305,0.688c0.629,0.241,0.858,0.434,1.25,0.642
						C394.712,739.006,395.869,738.561,397.947,738.062z"/>
					<path d="M393.893,739.391C389.889,741.284,397.837,741.604,393.893,739.391L393.893,739.391z"/>
					<path d="M411.607,729.3l-3.738,5.774c2.096,1.757,7.115,0.094,6.086,2.521C418.635,733.231,416.365,731.576,411.607,729.3z"/>
					<path d="M413.107,719.957c0,0-0.475,0.683-0.949,1.366c-0.492,0.659-0.982,1.318-0.982,1.318
						C412.08,723.363,412.965,723.376,413.107,719.957z"/>
					<path d="M406.906,728.229l4.27-5.587c-1.494-1.22-3.02-4.339-2.08,2.265C408.217,721.821,408.408,725.082,406.906,728.229z"/>
					<path d="M403.026,728.186c-1.909-0.406-3.932-0.553-5.027-1.351c-1.098-0.794-1.185-2.071,0.62-4.891
						c-4.562,2.714-5.879,5.571-4.813,7.194c0.53,0.801,1.655,1.268,3.248,1.193C398.644,730.255,400.722,729.678,403.026,728.186z"
						/>
					<path d="M368.506,712.326c0,0-1.145-0.441-2.288-0.882c-0.566-0.212-1.145-0.472-1.572-0.651
						c-0.429-0.184-0.714-0.306-0.714-0.306l-2.155,4.344c0.55-1.081,2.529-0.891,4.243-0.83
						C367.725,714.036,369.13,713.874,368.506,712.326z"/>
					<path d="M445.994,716.91c-0.91-2.121-4.863-4.099-6.738-6.359c0,0-0.136,0.279-0.34,0.7c-0.205,0.418-0.471,0.991-0.763,1.526
						c-0.577,1.089-1.155,2.179-1.155,2.179C439.708,715.264,443.939,714.207,445.994,716.91z"/>
					<path d="M439.256,710.551l3.164-6.667C437.527,706.473,437.645,708.597,439.256,710.551z"/>
					<path d="M408.738,708.843c0,0-1.232,2.988-2.629,5.829c-1.408,2.893-2.816,5.786-2.816,5.786s1.877-3.133,3.659-6.229
						c0.907-1.524,1.739-3.155,2.368-4.346c0.623-1.194,1.038-1.991,1.038-1.991L408.738,708.843z"/>
					<path d="M466.564,703.197c0,0,0.014,0.402,0.036,1.006c0.014,0.599,0.032,1.396,0.05,2.194
						c0.024,1.604,0.049,3.207,0.049,3.207s0.16-2.564,0.32-5.129c0.082-2.592,0.166-5.185,0.166-5.185L466.564,703.197z"/>
					<path d="M478.791,692.265c0.721,5.143,7.625,3.184,7.149,7.143c2.975-3.613,3.478-8.958,3.731-13.759
						C488.25,689.496,484.874,691.717,478.791,692.265z"/>
					<path d="M490.471,678.11c-0.576,1.997-0.649,4.653-0.799,7.538C490.398,683.568,490.792,681.194,490.471,678.11z"/>
					<path d="M451.815,698.929c1.181,0.85,4.005,3.267,7.806,2.429l-5.756-3.769C453.24,697.997,452.533,698.46,451.815,698.929z"/>
					<path d="M453.676,697.472l0.189,0.117c2.242-1.425,3.826-2.377,4.513-2.777C457.792,695.158,456.379,695.972,453.676,697.472z"
						/>
					<path d="M451.295,699.262c0.193-0.119,0.339-0.204,0.521-0.333C451.262,698.549,451.025,698.456,451.295,699.262z"/>
					<path d="M425.301,706.605c0.661-2.443,2.077-5.401,2.19-7.882c0.121-2.485-1.069-4.483-5.417-5.132
						c0.053,2.5,1.311,3.939,2.352,5.648C425.461,700.953,426.285,702.933,425.301,706.605z"/>
					<path d="M444.309,694.393c0,0-0.378,0.155-0.945,0.389c-0.58,0.212-1.355,0.494-2.129,0.775
						c-1.545,0.558-3.088,1.114-3.088,1.114c1.018,1.356,3.355,2.789,2.822,5.246c0,0,0.854-1.878,1.707-3.757
						c0.417-0.934,0.834-1.867,1.146-2.567C444.114,694.873,444.309,694.393,444.309,694.393z"/>
					<polygon points="445.705,690.907 444.309,694.393 446.558,693.464 					"/>
					<path d="M477.934,681.454c0.163-1.989,0.784-3.531,1.66-4.909c0.85-1.405,1.921-2.684,3.043-4.051
						c-1.807,0.822-3.473,1.822-5.125,2.817c-1.646,1.001-3.176,2.108-4.557,3.314C473.889,680.481,474.998,684.3,477.934,681.454z"
						/>
					<path d="M465.975,689.125c0.064-0.236,0.217-0.45,0.271-0.679C465.602,688.264,465.246,688.318,465.975,689.125z"/>
					<path d="M506.365,647.436c-0.395-0.079-0.841-0.235-1.255-0.327c0.259,0.271,0.515,0.524,0.765,0.807L506.365,647.436z"/>
					<path d="M471.701,678.133c-2.916,0.887-3.154,3.162-3.114,5.737c1.187-1.872,2.599-3.644,4.368-5.244
						C472.536,677.787,472.174,677.307,471.701,678.133z"/>
					<path d="M495.447,669.049c-1,0.074-1.992,0.216-2.982,0.406c-1,0.179-2.02,0.382-3.023,0.624
						c1.229,0.216,2.965,0.388,4.252,0.258C494.978,670.206,495.859,669.826,495.447,669.049z"/>
					<path d="M468.107,689.235c-0.049,0.168-0.076,0.34-0.157,0.487C469.549,690.216,469.035,689.763,468.107,689.235z"/>
					<path d="M468.107,689.235c0.576-1.631,0.482-3.566,0.479-5.365c-1.019,1.458-1.841,2.977-2.341,4.576
						C466.805,688.583,467.512,688.902,468.107,689.235z"/>
					<path d="M480.33,614.092c2.221,1.979,3.416,5.085,2.961,7.798c-0.23,1.35-0.845,2.614-1.969,3.524
						c-1.149,0.887-2.766,1.453-4.892,1.475c-0.105,3.521,4.048,7.888,9.735,11.721c5.682,3.838,12.954,7.079,18.944,8.499
						c-1.899-1.82-3.577-3.32-2.449-10.476c-1.965-0.157-5.517,1.414-8.846,1.864c-3.29,0.497-6.118,0.051-6.511-3.603
						c0.703-1.999,1.443-3.184,2.161-3.935c0.72-0.749,1.495-0.996,2.347-1.025c1.703-0.061,3.699,0.76,6.148,0.187
						c-3.938-0.982-4.465-4.67-5.311-8.658c-0.789-3.973-2.136-8.392-6.982-10.922c0,0-0.043,0.474-0.107,1.185
						c-0.062,0.716-0.152,1.667-0.289,2.591c-0.256,1.875-0.512,3.751-0.512,3.751C483.354,617.117,482.666,613.62,480.33,614.092z"
						/>
					<path d="M496.562,655.987l-1.286,2.429c1.412-0.758,2.972-1.096,4.878-1.308c1.911-0.21,4.247-0.22,7.347-0.245
						c0.793-5.344-0.315-7.44-1.625-8.948c0,0-2.309,2.352-4.615,4.703c-1.154,1.17-2.309,2.34-3.175,3.217
						c-0.882,0.86-1.495,1.411-1.495,1.41L496.562,655.987z"/>
					<path d="M486.973,667.019c-0.762-1.514-1.162-3.029-1.487-4.51c-0.337-1.492-0.578-2.93-0.964-4.24
						c-0.768-2.626-2.129-4.728-5.904-5.838c-0.596,0.705-1.039,1.352-1.361,1.954c-0.336,0.59-0.559,1.126-0.683,1.643
						c-0.25,1.029-0.13,1.948,0.108,2.858c0.473,1.822,1.418,3.601,0.742,6.183c3.873-4.803,3.866-3.556,4.011-1.535
						c0.147,2.015,0.386,4.855,4.948,3.025c-1.016,2.493-2.402,4.283-3.746,5.936c2.187-1,4.457-1.82,6.805-2.415
						c-0.188-0.023-0.323-0.046-0.494-0.085l-0.028,0.058c-0.03-0.031-0.032-0.051-0.063-0.082c-0.962-0.194-1.435-0.422-0.66-0.514
						c-0.025-0.087,0.065-0.215,0.1-0.278c-0.569-0.701-0.948-1.423-1.298-2.134c3.58-1.584,1.602,0.79,1.298,2.134
						c0.19,0.255,0.334,0.543,0.561,0.792c0.035,0.018,0.063,0.021,0.091,0.024c0,0,0.422-0.709,1.053-1.773
						c0.633-1.061,1.395-2.55,2.184-3.998c1.546-2.903,3.092-5.807,3.092-5.807c-1.252,0.662-2.416,1.626-3.715,3.024
						c-0.65,0.699-1.334,1.507-2.08,2.44c-0.367,0.472-0.756,0.97-1.168,1.497C487.891,665.895,487.444,666.44,486.973,667.019z"/>
					<path d="M420.176,678.542c0.592,0.299,0.822,0.698,1.092,1.083C421.463,678.561,421.404,677.954,420.176,678.542z"/>
					<path d="M426.162,679.341c-0.205,1.201,0.597,3.759-2.047,4.661c-2.998-0.385-1.617-2.643-2.848-4.377
						c-0.409,2.321-2.431,6.972,3.594,6.934l0.227-1.188c2.541-0.31,6.181,0.411,9.211,1.323c3.023,0.914,5.419,2.031,5.309,2.63
						C435.172,685.264,431.826,682.487,426.162,679.341z"/>
					<path d="M455.547,673.705c0,0,0.363-0.538,0.906-1.345c0.545-0.804,1.271-1.868,1.936-2.995
						c1.347-2.214,2.693-4.428,2.693-4.428s-1.851-0.248-3.701-0.496c-1.83-0.266-3.66-0.532-3.66-0.532l2.343,2.418
						c-1.245,0.665-1.993,1.265-2.376,1.867c-0.377,0.606-0.387,1.217-0.201,1.83C453.857,671.25,455.013,672.48,455.547,673.705z"
						/>
					<path d="M509.633,648.569l4.316,5.446c0,0-0.795-2.724-1.722-5.48c-0.921-2.724-1.841-5.447-1.841-5.447
						s-0.184,1.368-0.366,2.735c-0.095,0.687-0.189,1.374-0.261,1.89C509.691,648.231,509.633,648.568,509.633,648.569z"/>
					<path d="M517.558,637.171l4.435,3.97c0,0-0.036-0.317-0.091-0.795c-0.067-0.484-0.155-1.129-0.244-1.774
						c-0.185-1.282-0.368-2.564-0.368-2.564L517.558,637.171z"/>
					<path d="M182.271,285.546l-1.136,2.595C181.805,287.146,182.13,286.322,182.271,285.546z"/>
					<path d="M197.207,277.912l-0.916-2.815C196.298,276.906,196.545,278.113,197.207,277.912z"/>
					<path d="M530.95,317.612c2.292-6.72,6.563-15.962,1.312-11.779l-4.656,4.78C530.306,312.659,531.027,315.132,530.95,317.612z"
						/>
					<path d="M337.83,226.777c0.24,0.697,0.489,1.422,0.736,2.14c1.393-1.975,2.704-3.834,3.876-5.496
						C341.025,224.477,339.469,225.521,337.83,226.777z"/>
					<path d="M330.134,252.759c0,0-0.951-1.235-1.901-2.47c-0.973-1.24-1.945-2.48-1.945-2.48
						C327.086,249.44,328.323,251.084,330.134,252.759z"/>
					<path d="M121.454,351.689c0,0,0.99,1.461,1.98,2.923c1.026,1.46,2.053,2.92,2.053,2.92
						C127.673,354.229,123.975,353.796,121.454,351.689z"/>
					<path d="M568.814,507.066c3.016-3.517,4.474-6.531,5.128-9.239C569.637,502.184,563.613,505.075,568.814,507.066z"/>
					<path d="M154.639,221.782c-1.066,1.969-1.104,3.52-0.344,4.755C155.407,224.616,155.759,222.98,154.639,221.782z"/>
					<path d="M574.877,486.45c-0.701,0.65-1.082,1.307-1.683,1.969c0.435,1.474,0.815,2.957,0.999,4.508
						c0.175,1.55,0.207,3.172-0.251,4.9c1.638-1.594,2.856-3.388,3.229-5.313C577.534,490.592,576.987,488.533,574.877,486.45z"/>
					<path d="M172.608,640.488c0.036,0.377,0.204,0.644,0.197,1.049C173.357,640.845,173.1,640.633,172.608,640.488z"/>
					<path d="M253.027,739.414c-1.288,0.241-3.309-0.011-5.224-0.17C248.661,739.805,250.234,739.965,253.027,739.414z"/>
					<path d="M548.916,590.8C548.009,593.659,549.381,591.545,548.916,590.8L548.916,590.8z"/>
					<path d="M519.742,591.397c-0.381-0.86-1.003-1.686-2.296-2.454C518.728,589.879,519.434,590.685,519.742,591.397z"/>
					<path d="M534.888,458.495c-0.002-0.074,0.019-0.134,0.017-0.22C533.649,459.072,533.888,458.934,534.888,458.495z"/>
					<path d="M544.271,593.476c1.214-0.628,2.398-1.469,3.441-2.511C546.99,591.295,545.896,592.042,544.271,593.476z"/>
					<path d="M547.299,594.311c-0.727,0.781-1.236,1.426-1.742,2.026C546.352,597.162,547.115,597.17,547.299,594.311z"/>
					<path d="M550.308,586.888c-0.607,1.588-1.542,2.899-2.595,4.077c0.638-0.338,1.069-0.402,1.203-0.165
						C549.184,589.963,549.574,588.79,550.308,586.888z"/>
					<path d="M64.941,496.726c-0.184,0.18-0.292,0.374-0.547,0.578C67.368,499.278,66.811,498.313,64.941,496.726z"/>
					<path d="M436.668,308.489c0.121,0.024,0.275-0.061,0.399-0.054c-0.03-0.121-0.065-0.276-0.085-0.396L436.668,308.489z"/>
					<path d="M427.511,306.829c7.825-3.903,8.821-1.865,9.472,1.21c0,0,2.689-3.919,5.379-7.837
						c1.326-1.976,2.652-3.951,3.648-5.433c0.979-1.479,1.63-2.465,1.63-2.465s-5.149,3.529-10.176,7.166
						C432.425,303.097,427.511,306.829,427.511,306.829z"/>
					<path d="M151.072,310.647c0,0,1.985,0.215,3.971,0.43c1.955,0.237,3.91,0.474,3.91,0.474c0.699,5.774-0.24,8.661-0.282,10.541
						c-0.024,0.929,0.229,1.644,1.007,2.263c0.774,0.617,2.142,1.205,4.391,1.986c-3.268-3.906-4.043-6.768-3.546-9.144
						c0.506-2.362,2.201-4.291,4.07-5.999c1.833-1.761,3.653-3.529,4.31-5.922c0.718-2.304,0.283-5.269-2.533-9.511
						c0,0,1.357,0.349,2.715,0.698c1.343,0.359,2.686,0.718,2.686,0.718c-0.943,0.43-0.385,1.506-1.317,1.918
						c2.812,0.993,3.91,0.574,4.174-0.695c0.252-1.28-0.314-3.364-0.914-5.661c-1.229-4.599-2.558-10.149,2.169-11.469
						c3.606-0.392,7.049,1.138,6.39,4.271c0,0,0.901-1.97,1.804-3.94c0.936-1.995,1.872-3.989,1.872-3.989
						c0.998-0.363,1.825,0.34,2.134,1.174c0.302,0.826,0.123,1.835-0.855,2.182c-0.001,0,0.528-0.439,1.348-1.059
						c0.834-0.596,1.945-1.39,3.058-2.185c2.235-1.605,4.47-3.209,4.47-3.209l0.191,0.577c-0.025-1.817,0.266-4.16,0.665-6.42
						c0.397-2.258,0.909-4.421,1.298-5.75c3.811,1.483-0.43,2.567,1.291,4.577c0,0,0.912-1.768,1.824-3.536
						c0.469-0.891,0.938-1.782,1.29-2.45c0.368-0.647,0.613-1.08,0.613-1.08c2.213,1.971,2.569,4.614,1.919,6.863
						c-0.633,2.316-2.268,4.259-4.321,4.772c6.753,8.114,7.193,6.486,8.14,3.505c0.478-1.44,1.06-3.207,2.506-4.204
						c1.443-0.976,3.742-1.267,7.523,0.511c0,0-0.27,0.263-0.676,0.658c-0.394,0.418-0.919,0.975-1.444,1.532
						c-1.038,1.106-2.075,2.213-2.075,2.213c1.872,2.367,3.394,3.813,4.76,4.717c1.364,0.903,2.566,1.247,3.825,1.54
						c2.489,0.539,5.105,0.455,8.902,2.955c-1.194-1.576-5.329-4.958-8.865-8.733c-3.509-3.784-6.373-7.954-4.115-11.389
						c2.271,0.875,4.688,0.776,6.844-4.223c2.179,6.909,4.874,4.312,8.853,2.744l2.219,9.344c0.871-0.964,1.43-2.005,1.814-3.04
						c0.388-1.025,0.588-2.101,0.725-3.212c0.277-2.224,0.295-4.588,1.129-6.998c5.273-0.25,7.778,6.771,10.11,12.756
						c3.924,0.085,2.103-2.622,0.3-5.75c-1.795-3.134-3.606-6.679,1.042-8.424c1.847,0.602,3.463,0.759,4.979,0.542
						c1.527-0.153,2.96-0.641,4.406-1.453c2.894-1.601,5.84-4.518,9.825-7.609c2.593,1.46,2.462,2.94,1.972,4.379
						c-0.497,1.439-1.357,2.835-0.398,4.14c0,0,0.919-1.99,1.838-3.979c0.957-1.994,1.914-3.987,1.914-3.987
						c1.076,0.099,0.855,2.474,0.752,3.672c1.719-1.633,1.699-3.948,1.931-6.33c0.238-2.358,0.744-4.676,3.71-6.054
						c0.329-2.651,1.314-3.032,2.688-2.302c0.686,0.365,1.468,1.007,2.31,1.782c0.42,0.399,0.855,0.814,1.307,1.243
						c0.446,0.456,0.906,0.926,1.377,1.408c1.877,1.893,3.872,3.742,5.865,4.376c1.996,0.651,4.001,0.001,5.994-2.802
						c1.615,2.858-1.205,5.804-0.866,9.554c5.033-3.553,7.317-4.823,9.374-6.446c2.087-1.597,3.926-3.425,8.811-8.167
						c0,0,1.559,1.783,3.118,3.566c0.771,0.866,1.513,1.849,2.071,2.535c0.555,0.7,0.924,1.167,0.924,1.167
						c-1.953-4.014-1.063-7.848,1.358-11.382c2.409-3.537,6.358-6.776,10.185-9.649c-1.303-3.766-2.497-7.075-3.419-8.712
						c0,0,2.835-0.8,5.671-1.601c1.436-0.427,2.854-0.698,3.934-0.963c1.08-0.247,1.8-0.411,1.8-0.411
						c0.921,1.828-0.878,4.796-3.373,8.332c0.854-0.615,1.678-1.229,2.348-1.818c2.854,4.296-0.369,9.236-3.959,13.909
						c-0.761-2.115-1.512-4.366-2.265-6.595c-3.637,5.272-6.967,11.234-7.507,16.843c0.798-0.981,2.136-1.71,3.521-2.008
						c-0.911,1.445-1.558,2.766-1.47,3.755c0.112,1.067,1.479-0.92,3.477-2.937c0,0-0.04,2.735-0.08,5.47
						c-0.065,2.729-0.13,5.458-0.13,5.458l1.404-4.035c0,0,2.51,2.294,5.02,4.589c1.244,1.102,2.42,2.386,3.312,3.271
						c0.882,0.904,1.471,1.507,1.471,1.507c2.722-2.02,5.55-4.364,8.515-6.697c2.935-2.24,6.017-4.499,9.28-6.489
						c1.632-0.995,3.309-1.923,5.034-2.748c1.718-0.807,3.454-1.428,5.254-1.953c1.797-0.514,3.641-0.888,5.531-1.085
						c1.89-0.197,3.837-0.246,5.763,0.061c-3.262,2.829-4.659,5.709-5.774,8.918c-1.107,3.212-1.928,6.754-3.846,10.986
						c0.227-5.303-2.794-5.285-6.4-4.556c-1.817,0.388-3.773,0.91-5.673,1.177c-1.909,0.287-3.719,0.206-5.228-0.833
						c3.158,2.158,0.895,6.068-0.459,7.244c0,0,0.908-0.285,2.271-0.711c0.688-0.21,1.491-0.456,2.352-0.719
						c0.857-0.224,1.771-0.462,2.687-0.701c3.674-0.95,7.484-1.859,7.484-1.859c-1.577,3.464-1.502,5.024-0.822,6.22
						c0.676,1.205,1.932,2.158,2.751,4.241c1.921-7.375,5.044-8.704,8.631-8.403c0.892,0.076,1.813,0.241,2.732,0.454
						c0.904,0.251,1.826,0.508,2.727,0.758c1.818,0.471,3.624,0.776,5.339,0.359c-2.072,4.605-5.558,8.617-10.503,4.703
						c0.544,6.641,4.376,3.646,8.553,0.587c4.151-3.132,8.529-6.13,9.189-0.216c-1.422-0.674-1.781-1.777-3.565,0.153
						c2.667-1.049,5.556,0.344,7.216,2.305c1.656,1.985,1.982,4.646-0.037,5.931l-1.342-0.742c1.91,1.76,4.477,3.681,7.4,5.421
						c2.885,1.801,6.019,3.588,9.296,4.783c1.656,0.575,3.212,1.188,4.817,1.546c1.594,0.376,3.176,0.58,4.713,0.563
						c3.077-0.042,5.963-0.937,8.292-3.101c-0.989,1.317-10.864,10.926-12.96,12.589c0,0,0.645-0.347,1.773-0.954
						c1.129-0.601,2.719-1.419,4.662-2.401c3.879-1.96,9.143-4.5,14.553-6.914c5.436-2.457,10.881-4.636,15.043-6.227
						c4.162-1.593,6.995-2.598,6.995-2.598c-4.467,3.311-9.938,10.894-15.769,17.308c-5.814,6.43-11.915,11.772-16.991,11.202
						c0.324,1.389,0.692,2.911,1.761,4.159c1.064,1.258,2.876,2.186,5.943,2.679c0.004-1.128,2.121-4.65,4.49-7.803
						c2.35-3.127,5.025-5.912,6.201-5.396c-2.092,6.652-2.556,8.53-2.687,10.43c-0.071,0.943-0.073,1.879-0.206,3.362
						c-0.137,1.482-0.375,3.492-1.116,6.663c0.09-1.696,3.74-4.938,7.688-7.282c3.942-2.351,8.225-3.757,9.387-1.997
						c-2.363,1.199-12.652,11.302-14.926,11.408c0.001,0,4.739-0.97,9.615-1.789c2.447-0.424,4.813-0.728,6.646-0.981
						c1.826-0.234,3.043-0.391,3.043-0.391c-3.955-0.118-11.399,8.632-13.877,13.196c0.995-1.407,2.206,0.26,3.529,2.386
						c1.269,2.168,2.523,4.859,3.952,5.399l0.823-5.596c1.063,2.601,3.182,3.57,5.9,3.781c1.352,0.107,2.874,0.007,4.439-0.161
						c1.557-0.161,3.199-0.417,4.859-0.67c3.319-0.505,6.714-0.994,9.645-0.683c2.912,0.318,5.453,1.392,6.709,4.127
						c-1.864,0.255-6.898,2.253-11.32,4.974c-4.424,2.718-8.274,6.099-7.833,9c2.184-0.536,5.88-1.487,10.407-2.452
						c4.52-0.962,9.923-1.958,15.295-2.506c5.403-0.569,10.93-0.768,15.828-0.318c2.434,0.23,4.771,0.592,6.738,1.191
						c1.976,0.596,3.693,1.376,5.049,2.357l-3.584,4.055c0,0,2.195,1.446,4.391,2.892c1.121,0.726,2.162,1.497,2.959,2.073
						c0.797,0.58,1.328,0.966,1.328,0.966c-6.963-0.194-18.465-0.916-29.409-1.398c-5.433-0.278-11.024-0.386-15.866-0.543
						c-4.875-0.145-9.084-0.306-12.238-0.555c-1.586,5.413-4.622,3.743-1.529,8.784c-3.208,3.885-7.707,0.372-8.686-0.968
						c0,0,0.837,3.274,1.675,6.549c0.456,1.606,0.741,3.282,0.998,4.513c0.248,1.232,0.413,2.053,0.413,2.053
						c4.473-2.358,7.827-1.074,11.056,0.417c3.108,1.525,6.037,3.264,9.853,1.472c0,0-0.959-0.652-2.396-1.629
						c-0.713-0.479-1.545-1.038-2.438-1.637c-0.93-0.567-1.921-1.172-2.912-1.777c-3.96-2.396-7.813-4.615-7.813-4.616
						c4.409-2.46,11.73-3.61,18.436-2.559c1.675,0.259,3.308,0.652,4.841,1.181c1.529,0.531,2.985,1.187,4.17,2.024
						c2.42,1.652,4.178,3.857,4.758,6.537c-1.371,1.992-5.774,3.058-10.188,3.879c-4.417,0.813-8.838,1.393-10.367,2.098
						c0.928-0.016,1.994,0.376,3.047,1.008c1.061,0.629,2.101,1.501,2.881,2.464c1.605,1.909,2.514,4.046,1.494,4.868
						c0,0-1.617-0.572-3.232-1.144c-1.607-0.547-3.213-1.095-3.213-1.095c-0.925,3.204,2.943,4.202,6.217,5.708
						c3.24,1.482,5.701,3.557,2.005,8.054c-0.017,1.204-2.607,3.667-4.657,5.664c-2.027,1.998-3.314,3.511-0.367,3.01
						c10.405-6.12,44.583-16.248,53.676-15.295c-0.265,0.575-2.096,4.853-4.516,9.344c-0.608,1.125-1.233,2.261-1.914,3.37
						c-0.704,1.114-1.426,2.193-2.146,3.19c-1.441,1.996-2.875,3.662-4.142,4.652c-4.063,2.916-9.653,2.185-15.067,1.547
						c-5.418-0.667-10.656-1.25-14.176,1.091c2.729-0.385,6.45,1.136,7.689,1.859c-1.874,2.866-8.592,0.446-6.416,5.489
						c10.238-0.645,0.531,11.07,8.88,1.282c1.786,2.487,1.45,4.009,0.817,5.646c-0.642,1.646-1.498,3.403-1.088,6.534
						c3.215-1.296,8.916-0.42,14.25,1.673c2.667,1.042,5.24,2.383,7.359,3.841c1.051,0.729,2.02,1.485,2.771,2.246
						c0.746,0.76,1.333,1.521,1.717,2.255c-2.607-0.241-5.955,1.22-7.483,1.896c-0.155,2.979-0.552,5.611-1.058,8.042
						c-0.586,2.431-1.344,4.66-2.033,6.848c-0.714,2.188-1.336,4.335-1.922,6.604c-0.637,2.265-1.127,4.655-1.354,7.353
						c-1.271,0.396-2.751,1.818-4.437,2.79c-1.672,0.978-3.63,1.489-5.688,0.205c1.625,1.659,4.88,3.424,4.715,6.72
						c-9.554,5.054-0.459-7.297-11.604-3.849c2.926,0.535,4.701,2.8,6.131,5.62c0.693,1.404,1.389,2.958,1.938,4.464
						c0.568,1.509,1.152,2.996,1.861,4.304c2.322,0.041,3.715-0.599,4.451-1.666c0.733-1.067,0.844-2.552,0.431-4.204
						c-0.763-3.308-3.077-7.151-4.626-9.639c6.293,0.656,12.479,3.369,17.597,7.736c2.538,2.176,4.901,4.771,6.713,7.65
						c1.788,2.875,3.179,6.057,4.063,9.412c0.339,2.599-0.052,4.076-0.856,4.823c-0.779,0.754-1.883,0.803-2.971,0.595
						c-2.174-0.419-4.288-1.845-3.596-0.835c-1.563,4.321-1.215,7.721-0.029,10.686c1.074,2.93,3.015,5.412,4.764,7.789
						c1.748,2.376,3.301,4.645,3.591,7.123c0.296,2.473-0.875,5.113-4.29,8.152c-4.825,1.672-8.609,0.338-11.961-1.393
						c-3.348-1.744-6.262-3.895-9.214-4.241c-0.232-4.116,1.947-6.436,4.289-8.482c2.27-2.055,4.803-3.786,5.369-6.372l-5.427,5.142
						c-1.894-3.145-2.493-8.487,0.521-10.549c-2.084,0.712-3.706,2.79-5.122,5.676c-0.713,1.442-1.356,3.094-2.016,4.87
						c-0.729,1.754-1.447,3.643-2.181,5.593c-0.746,1.947-1.455,3.977-2.306,5.958c-0.896,1.966-1.834,3.92-2.841,5.783
						c-0.503,0.933-1.022,1.841-1.562,2.718c-0.534,0.879-1.092,1.723-1.734,2.497c-1.25,1.563-2.582,2.956-4.016,4.099
						c1.512,3.218,2.336,8.185,6.063,7.813l0.741-4.374c3.77-0.447,4.992,2.309,5.859,4.796c0.873,2.473,1.404,4.648,3.947,2.72
						c0.225,0.94,0.453,1.896,0.687,2.867c0.224,0.974,0.429,1.959,0.626,2.964c0.388,2.008,0.693,4.071,0.724,6.104
						c0.028,2.032-0.212,4.037-0.925,5.901c-0.781,1.826-2.028,3.517-3.911,4.947l-8.766-3.211c2.394,1.223,7.543-2.11,6.265-5.544
						c0.92,2.523-3.455,3.869-6.897,5.616c-1.732,0.877-3.222,1.878-3.796,3.239c-0.611,1.341-0.267,3.073,1.759,5.492
						c0,0,2.159-0.42,4.319-0.839c1.094-0.212,2.166-0.446,2.953-0.637c0.797-0.187,1.328-0.311,1.328-0.311
						c0.242,1.95,0.61,4.106,0.959,6.37c0.355,2.267,0.69,4.642,0.785,6.952c0.078,2.299-0.016,4.581-0.684,6.521
						c-0.664,1.942-1.777,3.627-3.532,4.843c4.763,1.138,4.837,0.584,5.2-0.044c0.365-0.649,1.043-1.327,7.106-0.781
						c-6.85-1.581-3.897-5.881-1.263-9.899c1.314-2.016,2.586-3.955,2.463-5.438c-0.142-1.502-1.582-2.455-5.558-2.573
						c6.743,0.712,9.161-0.9,11.497-2.788c2.34-1.914,4.624-4.074,11.05-5.196c-2.802-1.188-6.407-0.215-1.923-5.689
						c-0.647-0.679-1.32-1.841-1.699-2.549c0.168-0.151,0.247-0.194,0.414-0.313c-0.167,0.07-0.332,0.104-0.493,0.177
						c-0.271-0.467-0.345-0.532-0.176,0.071c-1.929,0.863-3.948,1.303-5.693,0.997c-2.351-3.1-2.216-6.9-1.88-10.587
						c0.295-3.706,0.957-7.23,0.024-9.546c2.916-2.96,2.521,2.876,6.36,2.231c0,0-0.691-1.746-1.384-3.492
						c-0.754-1.744-1.509-3.488-1.509-3.488c3.208,1.051,6.762-0.327,9.561-0.751c2.795-0.412,4.835,0.148,4.891,5.374l3.463-7.976
						c2.713-1.719,4.87-4.221,6.318-6.878c1.404-2.673,2.071-5.507,1.323-8.026c2.558-3.612-4.328-12.03-0.224-7.171
						c0,0-0.019-0.89-0.048-2.224c-0.041-1.334-0.052-3.095-0.146-4.866c-0.251-3.531-0.501-7.063-0.501-7.063l1.669,0.256
						c2.05-6.404,0.366-13.741,0.249-20.823c-0.473-7.185,0.617-14.123,7.118-21.271c-0.684-2.308-1.438-4.636-1.767-7.298
						c-0.418-2.667-0.379-5.663,0.668-9.379l5.863-1.388c-0.873-2.93,0.424-7.3,1.283-11.327c0.846-4.017,1.223-7.656-1.957-8.733
						c3.799-1.796,5.775-4.554,6.625-7.833c0.425-1.64,0.568-3.407,0.518-5.244c-0.085-1.835-0.441-3.733-0.863-5.65
						c-0.432-1.916-0.971-3.848-1.525-5.746c-0.561-1.898-1.093-3.77-1.701-5.548c-1.146-3.567-1.98-6.839-1.767-9.563l-7.54,1.067
						c-0.104-0.879-0.247-1.747-0.43-2.605c-0.217-0.853-0.473-1.697-0.762-2.537c-0.578-1.681-1.295-3.347-2.129-5.03
						c-0.835-1.684-1.788-3.385-2.841-5.139c-1.093-1.744-2.36-3.52-3.675-5.392l-6.336,2.304
						c-3.678-2.739-3.646-7.504-3.691-12.973c0.023-2.744,0.135-5.688-0.043-8.631c-0.25-2.915-0.865-5.801-2.086-8.45
						c2.678-0.221,3.15,2.818,2.46,5.311c2.282-4.582,2.053-8.457,0.558-11.805c-1.585-3.317-4.528-6.065-7.494-8.664
						c-2.918-2.63-6.195-4.951-8.322-7.69c-2.153-2.733-3.22-5.86-2.426-9.919c-3.696-1.529-4.084-3.874-3.737-6.657
						c0.159,0.246,0.397,0.41,0.692,0.496c-0.092-0.32-0.319-0.743-0.578-1.162c0.316-1.811,0.699-3.733,0.759-5.621
						c-0.673,1.99-1.122,3.745-1.126,5.029c-1.339-2.03-4.1-4.67-7.428-6.775l5.209-5.253c-0.241-0.198-0.359-0.409-0.631-0.601
						c0.252-4.527-4.386-0.491-7.893,4.097c-1.93-0.866-4.1-1.359-6.244-1.396c3.984-4.459,1.804-5.835-0.334-7.31
						c-1.071-0.742-2.137-1.515-2.453-2.766c-0.343-1.233,0.036-2.928,1.904-5.593c-3.159,0.884-6.828-1.945-11.066-4.119
						c-4.378-2.066-9.301-3.435-14.656,0.124c1.17-1.188,1.1-2.476,2.387-1.149c-1.341-3.879-3.004-7.656-7.964-7.648l5.485-7.556
						c0,0-3.704,0.592-7.336,1.262c-3.695,0.72-7.328,1.528-7.328,1.528c0.301-7.447,0.818-11.441,9.472-12.96
						c-4.17-0.214-6.832-0.539-8.79-0.902c-1.99-0.324-3.229-0.725-4.421-1.09c-2.378-0.701-4.593-1.37-11.94-0.497l4.165-4.28
						c-1.538-1.069-4.724-0.974-7.321-1.229c-2.602-0.26-4.629-0.881-4.029-3.528c0.051-3.491-2.04-6.793-5.33-10.169
						c-0.828-0.834-1.713-1.702-2.697-2.518c-0.994-0.802-2.052-1.606-3.16-2.416c-2.217-1.619-4.631-3.262-7.143-4.946
						c-2.579-1.574-5.255-3.192-7.928-4.887c-1.346-0.831-2.651-1.754-4.018-2.569c-1.357-0.831-2.703-1.687-4.025-2.572
						c-1.322-0.886-2.622-1.801-3.888-2.753c-1.263-0.958-2.493-1.949-3.722-2.895c-2.435-1.94-4.691-4.053-6.69-6.391
						c-1.58,8.894-3.055,6.019-5.012,2.536c-1.982-3.424-4.544-7.596-7.384-1.433c0.336-4.307-1.768-7.642,2.891-9.677
						c-1.518-0.05-2.862-0.278-4.084-0.626c-1.229-0.328-2.354-0.724-3.385-1.212c-2.067-0.962-3.811-2.175-5.533-3.135
						c-1.729-0.936-3.404-1.717-5.375-1.551c-1.959,0.14-4.16,1.049-6.814,3.265c-0.13-4.354,4.021-5.162,3.583-7.837
						c-1.157,0.599-4.505,2.459-5.012-0.248c-0.499-2.698,2.543-2.891,4.835-4.112c-2.946-0.655-5.436-0.394-7.543,0.556
						c-2.127,1.021-3.867,2.702-5.335,4.809c-2.934,4.214-4.799,10.123-6.54,15.858c-2.076-3.383-3.909-5.055-5.873-5.014
						c-1.98,0.123-4.101,1.937-6.761,5.445c-1.161-4.18-3.78-8.808,3.355-8.96c-0.941-0.314-2.825-1.088-5.171-1.926
						c-1.172-0.419-2.459-0.854-3.798-1.254c-1.347-0.344-2.746-0.641-4.129-0.86c-5.543-0.87-10.785-0.437-11.427,4.401
						c-0.981-2.516-5.359-1.125-6.441-0.097c-2.152-0.306-3.814-0.592-5.23-0.845c-1.416-0.232-2.588-0.363-3.758-0.492
						c-2.337-0.235-4.672-0.285-8.94,0.067l2.343,1.625c-1.752,5.764-3.437,6.283-5.596,5.75c-2.146-0.575-4.789-2.409-8.141-1.626
						l0.15-1.191c-3.962-2.038-6.406-2.578-8.023-2.631c-1.621-0.043-2.427,0.482-3.223,0.971c-0.797,0.488-1.582,0.938-3.186,0.749
						c-0.801-0.09-1.81-0.361-3.132-0.827c-1.319-0.429-2.955-1.079-5.038-2.015l1.684,7.037c0.184,7.776-3.268,5.913-8.02,3.018
						c-2.365-1.409-5.043-2.957-7.649-3.757c-2.6-0.782-5.122-0.782-7.022,1.088c0,0,0.994,0.858,1.988,1.717
						c0.983,0.867,1.967,1.734,1.967,1.734c-1.867,2.96-6.105-1.422-10.893-6.646c-4.746-5.211-10.071-11.314-12.854-11.464
						c-1.453-0.976,1.182-2.611,2.515-3.952c-3.938-1.332-5.899-1.302-6.722-0.575c-0.824,0.743-0.517,2.249-0.008,4.064
						c1.026,3.629,2.807,8.511-1.659,10.923c-1.619-2.18-1.987-5.436-2.784-8.031c-0.401-1.297-0.915-2.427-1.771-3.167
						c-0.855-0.744-2.06-1.105-3.795-0.751c-2.29-1.394-5.923,4.151-10.154,9.257c-2.092,2.654-4.355,5.193-6.859,6.719
						c-1.253,0.763-2.568,1.274-3.965,1.423c-1.38,0.188-2.831,0.037-4.391-0.601c3.473,2.734,6.76,5.542,3.775,10.115
						c-1.451,1.039-3.623,1.196-6.117,1.086c-1.242-0.049-2.577-0.19-3.914-0.28c-1.327-0.07-2.678-0.132-3.991-0.116
						c-5.229,0.087-10.021,1.33-9.739,8.387c-1.299-0.488-2.101-1.21-2.611-2.04c-0.791,1.372-1.973,2.893-3.283,4.514
						c-1.312,1.62-2.762,3.322-4,5.204c-2.52,3.701-4.495,7.588-3.95,11.216c-4.49-4.557-8.002-4.863-10.993-3.243
						c-2.977,1.643-5.377,5.213-7.344,8.922c-1.008,1.828-1.959,3.633-2.93,5.171c-0.967,1.542-1.976,2.791-3.017,3.631
						c-2.114,1.63-4.714,1.251-8.44-3.101c0,0-0.738,0.741-1.845,1.852c-1.091,1.127-2.609,2.555-4.009,4.107
						c-2.801,3.09-5.602,6.181-5.602,6.181l-1.313-1.977c-1.101,0.789-2.047,1.584-2.856,2.382
						c-0.803,0.805-1.425,1.656-1.955,2.479c-1.051,1.659-1.633,3.308-1.896,4.941c-0.516,3.279,0.19,6.447,1.035,9.66
						c-2.73,0.765-3.18-1.979-3.936-2.94c-6.758,4.28-10.364,6.936-11.887,10.772c-0.795,1.893-1.143,4.032-1.203,6.743
						c-0.019,1.364-0.015,2.833,0.136,4.549c0.143,1.711,0.346,3.605,0.596,5.715l-6.813-3.247c0.373,1.339-0.829,2.705-2.888,4.304
						c-1.051,0.792-2.241,1.69-3.539,2.669c-1.312,0.98-2.742,2.048-4.198,3.223c-1.453,1.176-2.944,2.452-4.342,3.858
						c-1.34,1.443-2.605,3.007-3.698,4.694c-1.093,1.687-2.011,3.497-2.652,5.427c-0.659,1.92-0.882,4.047-0.812,6.233
						c-0.679-0.522-1.814-1.469-2.18-3.05c-0.029,2.441-0.619,4.679-1.6,6.787c-0.49,1.054-1.078,2.074-1.741,3.07
						c-0.625,1.014-1.312,2.011-2.059,2.986c-2.943,3.914-6.919,7.501-9.842,11.259c-1.504,1.857-2.847,3.707-3.833,5.552
						c-0.492,0.923-0.898,1.843-1.184,2.764c-0.251,0.934-0.389,1.865-0.39,2.792c-0.005,3.714,2.191,7.355,8.137,10.907
						c0,0,0.175,0.789,0.436,1.973c0.239,1.173,0.666,2.761,1.087,4.331c0.85,3.107,1.7,6.214,1.7,6.214
						c2.945-6.522,5.599-5.104,8.283-2.718c2.68,2.406,5.413,5.724,8.319,3.722c0.053,2.723-2.83,5.399-5.701,6.676
						c-1.42,0.637-2.795,0.921-3.845,0.609c-1.026-0.306-1.769-1.224-1.631-2.908l1.593-0.653c-3.242-1.499-5.456-1.306-7.108-0.165
						c-1.64,1.14-2.583,3.244-3.456,5.438c-0.861,2.199-1.599,4.5-2.703,6.11c-1.127,1.605-2.474,2.563-4.837,2
						c-0.547,3.522-1.216,7.006-1.978,10.469c-0.702,3.472-1.326,6.948-2.109,10.403c-0.358,1.731-0.826,3.452-1.137,5.188
						c-0.341,1.736-0.681,3.47-1.02,5.199c-0.358,1.736-0.716,3.47-1.072,5.2c-0.175,0.867-0.381,1.733-0.532,2.602l-0.433,2.606
						c-0.574,3.494-1.146,6.975-1.716,10.44c-0.457,3.483-0.784,6.971-1.108,10.455c-0.141,1.741-0.332,3.484-0.386,5.222
						c-0.044,1.737-0.071,3.473-0.075,5.205s0.014,3.462,0.057,5.187c0.035,1.725,0.103,3.444,0.308,5.147
						c0,0,2.631-1.067,5.261-2.134c2.657-1.038,5.314-2.076,5.314-2.076s0.001,0.145,0.004,0.396c0.002,0.252,0,0.613,0.031,1.044
						c0.049,0.862,0.113,2.012,0.179,3.162c0.134,2.304,0.267,4.608,0.267,4.608c-2.227,2.73-8.084,4.474-8.491-2.333
						c-2.863,2.141-1.204,4.857,1.457,6.902c2.619,2.063,6.468,3.42,7.633,3.321c-1.063,6.718-4.416,6.123-7.486,4.155
						c-3.065-1.947-5.83-5.241-5.601-3.176l1.792,5.406l1.04-1.469c2.605,1.845,5.09,2.617,7.035,3.933
						c0.976,0.656,1.8,1.449,2.467,2.568c0.705,1.112,1.235,2.553,1.551,4.528c-1.004,5.425-6.002,4.084-5.959,6.157
						c-0.758,0.168-0.956,0.937,0.405,3.131c0,0,0.093,0.754,0.33,1.862c0.223,1.113,0.521,2.598,0.817,4.081
						c0.603,2.976,1.205,5.95,1.205,5.95s1.748-1.771,3.495-3.54c1.759-1.734,3.519-3.469,3.519-3.469
						c2.763,1.917,3.4,4.564,4.346,5.761c0.468,0.597,1.055,0.81,1.964,0.387c0.908-0.42,2.185-1.495,4.183-3.472
						c-6.117,5.838-4.019,16.797-0.021,26.556c0.909,2.477,2.106,4.805,3.177,7.033c1.084,2.223,2.117,4.314,2.982,6.204
						c1.805,3.742,3.058,6.628,2.553,8.266c2.235,0.9,4.098,1.951,5.69,3.155c1.644,1.175,3.052,2.483,4.272,3.948
						c2.459,2.917,4.161,6.478,6.266,10.325c0.342-2.81,7.978-8.941,10.862-2.231c-4.569,2.184-6.868,4.263-7.844,6.418
						c-0.974,2.149-0.671,4.382,0.088,6.661c0.729,2.303,1.772,4.741,2.142,7.466c0.188,1.361,0.198,2.802-0.064,4.327
						c-0.234,1.504-0.762,3.107-1.705,4.834c2.07-5.132,5.966-1.11,9.962,2.188c1.964,1.684,4.132,3.054,5.993,3.111
						c1.88,0.052,3.506-1.281,4.721-5.079c1.412,2.875,0.061,4.186-1.719,5.597c-1.774,1.416-3.99,2.917-4.154,6.339
						c2.016,0.806,3.741,1.907,5.431,3.09c1.682,1.19,3.203,2.576,4.623,4.114c1.428,1.529,2.719,3.247,4.026,5.007
						c1.337,1.731,2.627,3.569,3.922,5.462c1.305,1.88,2.564,3.868,3.963,5.759c1.412,1.875,2.875,3.75,4.426,5.563
						c0.775,0.906,1.573,1.798,2.397,2.667c0.412,0.434,0.831,0.862,1.257,1.284c0.439,0.404,0.891,0.798,1.347,1.186
						c1.827,1.55,3.778,2.974,5.878,4.203c1.826-1.919,1.848-7.031,7.396-7.668c0,0-0.015,1.035-0.037,2.589
						c-0.005,0.78-0.011,1.69-0.017,2.665c0.017,0.962,0.034,1.987,0.052,3.013c0.083,4.111,0.279,8.296,0.279,8.296
						c1.946,0.589,4.843-2.024,7.279-3.361c1.222-0.67,2.321-1.012,3.155-0.483c0.853,0.503,1.431,1.881,1.624,4.726
						c0.392-2.387,1.055-5.938,3.593-5.309c2.965,3.804,6.287,7.255,10.055,10.059c1.86,1.439,3.784,2.795,5.756,4.083
						c1.977,1.275,4.075,2.346,6.164,3.438c2.1,1.073,4.23,2.093,6.38,3.074c2.192,0.892,4.407,1.738,6.628,2.568
						c2.229,0.812,4.433,1.677,6.69,2.405l6.786,2.14c4.479,1.533,9.047,2.776,13.508,4.325l6.678,2.386
						c2.226,0.806,4.431,1.689,6.617,2.673c1.094,0.488,2.18,1.015,3.267,1.545c1.098,0.492,2.19,1.013,3.279,1.563
						c2.178,1.1,4.339,2.32,6.49,3.685c2.142,1.407,4.309,2.779,6.466,4.343c2.157,1.564,4.311,3.293,6.471,5.207
						c-4.337-5.962-0.781-5.837,3.112-5.352c-2.331-1.646,1.056-6.43,1.098-10.049c0,0,0.211,0.206,0.589,0.522
						c0.38,0.322,0.921,0.783,1.57,1.336c1.324,1.108,3.09,2.585,4.855,4.062c1.815,1.479,3.631,2.959,4.992,4.069
						c0.688,0.567,1.271,0.99,1.679,1.296c0.408,0.304,0.642,0.478,0.642,0.478c1.924-4.825,6.09-4.674,10.133-4.486
						c2.018,0.13,4.003,0.129,5.603-0.457c1.599-0.579,2.804-1.749,3.269-4.109l-4.939,1.578c3.489-5.521,1.378-11.76-1.016-18.497
						c-2.439-6.821-5.127-14.063-4.147-21.193c-1.794,3.055-3.686,3.326-5.605,2.295c-1.917-1.091-3.845-3.576-5.846-5.849
						c-1.001-1.143-2.022-2.242-3.085-3.118c-0.532-0.438-1.075-0.819-1.633-1.123c-0.554-0.325-1.119-0.591-1.707-0.745
						c-2.35-0.627-4.994,0.367-8.37,4.396c-1.622-3.262,2.748-4.214,2.205-7.694c-3.618,5.694-7.014,6.131-11.922,2.188l0.985-1.337
						c-0.988-0.131-1.938-0.282-2.851-0.452c-0.907-0.192-1.767-0.449-2.601-0.697c-1.667-0.508-3.209-1.08-4.663-1.711
						c-1.447-0.654-2.838-1.265-4.124-2.107c-1.295-0.815-2.541-1.678-3.78-2.581c-1.239-0.904-2.471-1.849-3.735-2.828
						c-1.27-0.964-2.512-2.13-3.857-3.236c-1.339-1.129-2.75-2.289-4.273-3.476c-0.381-0.293-0.77-0.591-1.164-0.895
						c-0.387-0.32-0.779-0.646-1.18-0.979c-0.802-0.658-1.637-1.323-2.509-1.995l-1.711,7.024c-3.083-2.441-2.865-4.783-3.692-7.105
						c-8.59,7.939,9.411,4.912,0.955,14.131c0.263-3.85-1.109-6.47-3.271-8.488c-1.099-0.976-2.318-1.964-3.663-2.818
						c-1.339-0.867-2.771-1.668-4.184-2.474c-0.707-0.403-1.409-0.808-2.092-1.222c-0.672-0.434-1.308-0.909-1.919-1.384
						c-1.217-0.959-2.297-1.988-3.115-3.151c-1.638-2.327-2.229-5.16-0.739-9.135c-2.334-1.557-3.094,0.402-3.834,2.369
						c-0.74,1.968-1.461,3.944-3.894,2.327l1.124-4.56l-4.375,4.001c-0.676-0.721-1.107-1.59-1.297-2.594
						c-0.187-1.01-0.166-2.103,0.002-3.197c0.337-2.19,1.268-4.39,2.291-5.971c0.473,0.885,2.659,0.603,3.606,0.886
						c-0.45-3.546-3.353-5.067-6.276-6.044c-1.479-0.458-2.859-0.909-3.942-1.319c-1.075-0.421-1.814-0.85-1.87-1.437
						c0,0,0.634,1.371,1.268,2.742c0.322,0.691,0.645,1.382,0.886,1.9c0.237,0.527,0.42,0.849,0.421,0.849
						c-1.846-0.74-3.605-1.707-5.363-2.749c-0.875-0.524-1.744-1.077-2.607-1.65l-1.292-0.875c-0.419-0.309-0.823-0.639-1.235-0.963
						c-3.245-2.646-6.571-5.367-9.654-8.33c-1.578-1.442-3.187-2.849-4.844-4.187c-1.578-1.417-3.212-2.758-4.932-3.988
						c-3.514-2.394-7.029-4.645-11.301-6.066l-1.787,3.058c-1.563-0.625-2.813-1.241-3.779-1.883
						c-0.938-0.665-1.625-1.325-2.137-1.987c-1.026-1.323-1.351-2.649-1.606-4.057c-0.24-1.42-0.485-2.868-1.181-4.587
						c-0.696-1.721-1.947-3.625-4.429-5.868l0.931-0.069c-4.313-0.164-7.584-2.288-9.234-5.543c2.56,0.354,3.315-2.003,4.221-4.219
						c0.897-2.227,1.947-4.31,4.924-3.7c-0.782-0.433-1.49-0.824-2.133-1.179c-0.636-0.367-1.206-0.697-1.721-0.994
						c-1.052-0.585-1.924-1.021-2.68-1.338c-1.514-0.633-2.566-0.786-3.709-0.735c-1.145,0.05-2.381,0.304-4.283,0.451
						c-1.9,0.143-4.503,0.207-8.232-0.317l4.002-4.384c-2.904-0.155-4.99-0.012-6.895-0.5c-1.893-0.497-3.697-1.592-5.725-4.448
						c3.323,1.56,4.773-0.376,6.464-2.248c1.682-1.891,3.611-3.704,7.685-2.344c1.361-4.391,0.871-7.299-0.479-9.529
						c-1.281-2.249-3.316-3.854-5.188-5.326c-0.928-0.738-1.798-1.448-2.469-2.189c-0.678-0.739-1.145-1.515-1.212-2.399
						c-0.168-1.755,1.028-3.867,4.758-6.718c-4.137-0.217-6.498,0.476-7.747,1.696c-1.251,1.215-1.396,2.938-1.156,4.627
						c0.231,1.692,0.858,3.342,1.245,4.394c0.354,1.063,0.354,1.58-0.746,1.04c-1.799,2.291-4.966,2.104-7.749,0.652
						c-2.695-1.472-4.907-4.234-4.913-6.64c-0.291-1.129,0.574-2.542,1.985-4.164c1.407-1.622,3.465-3.486,5.401-5.486
						c1.949-2.005,3.836-4.161,5.036-6.436c0.6-1.138,1.028-2.307,1.204-3.509c0.232-1.217,0.228-2.471-0.109-3.769
						c0.168,1.06,1.314,0.853,1.486,1.9c1.462-2.418-0.262-3.981-1.731-5.789c-0.733-0.899-1.402-1.854-1.567-2.961
						c-0.111-1.117,0.299-2.393,1.65-3.89c-4.813-0.492-4.972-2.137-5.397-3.447c-0.427-1.318-1.127-2.332-7.068-1.84l4.499,9.566
						c-2.02-2.516-6.695-4.522-10.277-7.382c-1.833-1.418-3.18-3.073-3.854-5.032c-0.655-1.959-0.546-4.238,0.813-6.876
						c2.481,0.524,5.979,3.044,7.967,4.752c1.561-1.618,0.815-2.865,0.077-4.155c-0.741-1.282-1.488-2.605,0.226-4.225
						c2.991-0.073,4.64,0.64,5.745,1.798c1.099,1.16,1.546,2.786,1.922,4.585c0.38,1.798,0.674,3.773,1.507,5.574
						c0.922,1.785,2.348,3.397,4.836,4.448c2.247-1.835-0.442-4.159-1.863-6.052c-1.414-1.894-1.769-3.188,4.789-2.606
						c-8.363-0.956-8.198-3.743-7.59-6.803c0.753-3.124,2.007-6.464-4.523-9.754l7.146,0.069c-1.255-1.044-4.655-3.263-4.519-5.404
						c0,0,2.328,0.864,4.656,1.729c2.324,0.825,4.649,1.649,4.649,1.649c-3.991-2.644-2.341-5.538-0.246-8.242
						c2.021-2.733,4.841-5.281,2.732-8c-0.016,2.802-0.572,4.353-1.472,5.192c-0.899,0.839-2.102,0.96-3.525,0.871
						c-2.826-0.165-6.353-1.235-8.879,1.299c-1.281-1.833-1.785-3.367-1.912-4.65c-0.114-1.285,0.217-2.319,0.861-3.178
						c1.289-1.719,3.831-2.736,6.563-3.755c2.7-1.021,5.727-2.036,7.87-3.747c2.168-1.715,3.415-4.103,2.918-8.001
						c0.344,1.077-0.8,2.914-2.517,4.075c-1.697,1.155-3.886,1.647-5.401-0.165c0.866-1.447,1.965-3.105,3.505-4.536
						c1.531-1.434,3.319-2.659,5.285-3.313c-0.099-5.117-1.963-5.035-4.271-4.208c-2.31,0.813-5.087,2.417-6.97-0.136
						c4.521-1.206,3.775-2.574,1.781-4.357c-2.028-1.776-5.437-3.981-6.377-6.622l7.119,1.294c0.836-1.39,1.236-2.515,1.315-3.455
						c0.123-0.931-0.073-1.675-0.499-2.3c-0.847-1.25-2.574-2.012-4.279-2.735c-3.416-1.432-6.719-2.782-2.718-7.696
						c0,0,2.168,1.773,4.335,3.546c2.179,1.719,4.357,3.439,4.357,3.439s-0.311-1.541-0.623-3.083
						c-0.154-0.778-0.31-1.556-0.426-2.14c-0.087-0.579-0.145-0.965-0.145-0.965l7.664,3.186c-2.154-3.665-2.662-5.933-2.203-7.876
						c0.233-0.973,0.718-1.87,1.38-2.836c0.663-0.966,1.617-1.969,2.632-3.204c-2.646-0.139-5.711-1.321-7.905-3.176
						c-2.196-1.849-3.516-4.393-2.726-7.1c2.624-1.082,4.109,0.05,5.069,0.417c0.981,0.378,1.523,0.071,2.466-3.717
						c1.786,1.639,3.838,3.39,4.517,4.805c0.341,0.71,0.329,1.334-0.22,1.836c-0.523,0.513-1.596,0.9-3.431,1.13
						c2.114,1.114,3.749,3.098,5.845,4.169c2.96-1.002,3.905-3.153,4.465-5.332c0.501-2.192,0.367-4.508,0.822-5.761
						c-0.623,0.85-1.432,1.844-2.624,2.053c0,0-0.335-0.859-0.839-2.147c-0.492-1.291-1.186-3.048-1.798-4.802
						c-1.168-3.475-2.289-7.086-2.289-7.086c3.196-0.479,4.597,1.728,5.995,3.826c0.097-1.165-0.453-2.446-0.924-3.854
						c-0.466-1.404-0.895-2.958-0.385-4.557c4.906,3.343,10.355,5.834,11.101,10.999c0,0-0.116-0.737-0.29-1.842
						c-0.178-1.111-0.415-2.606-0.545-4.069c-0.299-2.989-0.598-5.978-0.598-5.978c1.289,0.286,3.433-0.055,5.402-0.166
						c1.952-0.125,3.846,0.037,4.461,1.097c2.883-1.492,1.992-5.74,1.508-10.278c-0.178-2.221-0.277-4.51,0.16-6.49
						c0.447-1.97,1.367-3.673,3.429-4.51c-0.717-0.961-1.161-2.215-0.919-4.007c1.299-1.251,2.857-2.24,4.429-3.189
						c1.633-0.904,3.305-1.747,4.743-2.805c1.449-1.05,2.646-2.331,3.478-4.036c0.878-1.669,1.332-3.808,1.187-6.722
						c0,0,2.761,0.837,5.477,1.723c2.699,0.862,5.438,1.85,5.438,1.85c1.278-3.06-2.184-4.251-5.503-5.872
						c-3.307-1.64-6.464-3.703-4.007-9.159c1.556-4.07,3.667-3.049,5.886-0.943c2.209,2.088,4.534,5.149,6.531,5.282
						c-0.512-3.174-1.407-7.891-0.719-11.733c0.086-0.479,0.195-0.945,0.332-1.39c0.151-0.429,0.331-0.839,0.541-1.223
						c0.42-0.769,0.964-1.437,1.655-1.962c1.382-1.049,3.355-1.526,6.085-1.059C154.646,308.584,152.235,308.608,151.072,310.647z
						 M219.157,265.303c-0.514,0.974-1.128,2.813-1.915,3.951c-0.768,1.198-1.72,1.688-3.023-0.092
						c-0.632-4.208-0.229-5.53,0.73-5.638C215.921,263.441,217.467,264.618,219.157,265.303z M348.004,243.368
						c-1.848,1.963-3.47,0.426-5.057-2.767C344.686,240.408,346.479,241.048,348.004,243.368z M555.643,558.77
						c-0.082-0.123-0.145-0.212-0.26-0.328C559.575,554.85,557.98,556.09,555.643,558.77z M549.342,566.882
						c0.586,1.274,1.543,1.579,2.639,1.555c-1.46-1.304-0.762-3.372,0.607-5.534C550.574,562.913,548.887,563.603,549.342,566.882z
						 M22.231,532.906l1.415-2.264C26.621,534.231,24.53,533.543,22.231,532.906z"/>
					<path d="M331.042,249.752c-0.237-1.285-0.121-2.633,0.018-3.992C330.179,246.838,329.924,248.222,331.042,249.752z"/>
					<path d="M120.729,350.6c-0.095,0.032-0.124,0.11-0.207,0.151c0.278,0.354,0.599,0.661,0.932,0.938L120.729,350.6z"/>
					<path d="M503.247,429.425c0.75-1.713,1.899-2.82,3.144-3.652C504.635,426.017,503.289,427.001,503.247,429.425z"/>
					<path d="M536.965,619.446c0,0,0.117-0.404,0.295-1.01c0.183-0.603,0.41-1.413,0.604-2.242c0.405-1.642,0.81-3.282,0.81-3.282
						c-1.262,2.889-3.146,3.059-4.987,3.761C535.202,617.441,537.957,617.671,536.965,619.446z"/>
					<path d="M470.015,633.839c0.095,1.186-1.106,1.299-0.999,2.491l2.598,2.147C473.87,635.791,473.512,632.24,470.015,633.839z"/>
					<path d="M513.53,611.458c-2.685-1.452-4.087-1.128-4.979,0.069c-0.446,0.6-0.766,1.42-1.058,2.347
						c-0.313,0.917-0.647,1.904-0.992,2.917c0.125-0.214,0.22-0.435,0.423-0.595c3.152,2.916,4.79,3.069,5.685,1.823
						C513.488,616.768,513.504,614.076,513.53,611.458z"/>
					<path d="M506.116,617.689c-0.503,1.202-1.129,2.36-2.09,3.205C506.514,623.285,505.514,620.031,506.116,617.689z"/>
					<path d="M548.363,579.912c-2.295,1.276,6.576,4.357,3.81,4.452c3.038,2.686,2.39-1.573,0.788-4.853
						c-0.783-1.637-1.868-3.061-2.752-3.3C549.336,575.979,548.619,576.893,548.363,579.912z"/>
					<polygon points="495.003,603.201 502.031,606.161 498.144,601.003 					"/>
					<path d="M515.19,579.277l-4.714,4.642c1.156,0.506,1.445,1.563,1.491,2.709C513.96,583.289,517.252,580.138,515.19,579.277z"/>
					<path d="M511.968,586.628c-1.078,1.725-1.94,3.445-1.42,5.042C511.014,590.667,512.024,588.508,511.968,586.628z"/>
					<path d="M497.637,594.914c0,0,0.578-0.176,1.156-0.352c0.583-0.176,1.15-0.363,1.15-0.363l2.642-3.491
						c0,0-1.224,1.067-2.448,2.135C498.942,593.921,497.637,594.914,497.637,594.914z"/>
					<path d="M538.368,515.521l-0.906-7.171c-2.423-1.1-4.3,0.455-3.732,3.113C535.211,513.376,535.738,516.085,538.368,515.521z"/>
					<path d="M513.692,530.299c1.973-1.234,3.623-0.906,6.284-1.213l-8.944-2.604L513.692,530.299z"/>
					<path d="M515.91,511.853c-1.213-0.564-2.638-3.148-3.865-4.568c-1.227-1.423-2.254-1.726-2.643,2.139
						c1.199,0.543,2.074,2.446,2.992,3.577c0.445,0.562,0.922,0.931,1.498,0.835C514.479,513.741,515.152,513.18,515.91,511.853z"/>
					<path d="M526.458,414.985l0.494,1.617l14.892-3.407c0,0-3.85,0.436-7.698,0.872
						C530.302,414.526,526.458,414.985,526.458,414.985z"/>
					<path d="M461.994,354.339c0.49,7.579,8.846-3.724,8.246,3.911c1.932-0.225,2.151-1.832,2.174-3.348
						c0.051-1.527,0.04-3.042,1.819-3.158C468.713,350.199,469.387,347.242,461.994,354.339z"/>
					<path d="M474.233,351.744c0.878,0.255,1.893,0.478,3.157,0.614C475.903,351.808,474.969,351.708,474.233,351.744z"/>
					<path d="M273.429,749.621c0,0,0.356,0.226,0.892,0.564c0.536,0.351,1.254,0.77,1.975,1.186
						c1.451,0.836,2.902,1.673,2.902,1.673s-0.906-1.309-1.811-2.617c-0.889-1.309-1.777-2.617-1.777-2.617
						s-0.542,0.476-1.087,0.915C273.976,749.173,273.429,749.621,273.429,749.621z"/>
					<path d="M284.916,738.669l1.211,9.765c0,0,0.893-2.182,1.784-4.364c0.864-2.183,1.729-4.366,1.729-4.366
						C288.363,740.106,285.85,740.89,284.916,738.669z"/>
					<path d="M236.304,280.447l-0.344-2.339c-1.3-2.265-2.289-2.182-4.274-2.037c0,0,1.166,1.092,2.331,2.184
						C235.16,279.351,236.304,280.447,236.304,280.447z"/>
					<path d="M182.636,296.507l0.927-0.362c0,0-1.555-1.616-3.111-3.231c-1.572-1.605-3.146-3.211-3.146-3.211L182.636,296.507z"/>
					<path d="M153.623,334.294c0.774-0.53,1.142-1.572,1.598-2.541c0.451-0.972,0.908-1.952,1.714-2.459
						C155.115,333.11,145.439,327.01,153.623,334.294z"/>
				</g>
			</g>
		</g>
	</g>
</g>
<text transform="matrix(1 0 0 1 148.5215 136.7144)" font-family="'MyriadPro-Regular'" font-size="60">Aimimancy</text>
<path stroke="#000000" stroke-miterlimit="10" d="M296.017,346.001c0,0-110.946,186.322,0,248.994
	c111.639-11.931,14.228-251.288,8.168-248.994"/>
</svg>
