<?xml version="1.0" encoding="utf-8"?>
<!-- Generator: Adobe Illustrator 16.0.0, SVG Export Plug-In . SVG Version: 6.00 Build 0)  -->
<!DOCTYPE svg PUBLIC "-//W3C//DTD SVG 1.1//EN" "http://www.w3.org/Graphics/SVG/1.1/DTD/svg11.dtd">
<svg version="1.1" id="Layer_1" xmlns="http://www.w3.org/2000/svg" xmlns:xlink="http://www.w3.org/1999/xlink" x="0px" y="0px"
	 width="595.281px" height="841.891px" viewBox="0 0 595.281 841.891" enable-background="new 0 0 595.281 841.891"
	 xml:space="preserve">
<g>
	<circle stroke="#FFFFFF" stroke-miterlimit="10" cx="306.263" cy="478.297" r="246.428"/>
	<g>
		<g>
			<g>
				<g>
					<path stroke="#FFFFFF" stroke-miterlimit="10" d="M304.192,195.396c2.616,0.489,1.675-5.771,2.071-6.909
						C301.789,189.977,304.334,197.027,304.192,195.396z"/>
					<path stroke="#FFFFFF" stroke-miterlimit="10" d="M263.358,213.068l0.316-2.658c0,0-1.244,1.815-2.49,3.633
						c-1.211,1.812-2.42,3.623-2.42,3.623L263.358,213.068z"/>
					<path stroke="#FFFFFF" stroke-miterlimit="10" d="M225.878,221.745c3.336,4.564,6.453,3.261,9.807,0.954
						c0.836-0.595,1.691-1.205,2.555-1.818c0.863-0.625,1.748-1.202,2.658-1.635c1.811-0.896,3.68-1.395,5.551-0.85l1.629,2.127
						c0,0,0.281-2.272,0.564-4.548c0.305-2.278,0.609-4.559,0.609-4.559c-1.992,0.806-4.074,1.914-6.154,3.096
						c-2.082,1.196-4.186,2.387-6.178,3.636C232.911,220.565,229.132,222.319,225.878,221.745z"/>
					<path stroke="#FFFFFF" stroke-miterlimit="10" d="M197.958,207.18c2.826,3.367-3.143,5.092,5.305-0.688
						c-0.629-0.241-0.857-0.434-1.25-0.642C201.192,206.236,200.036,206.681,197.958,207.18z"/>
					<path stroke="#FFFFFF" stroke-miterlimit="10" d="M202.013,205.851C206.017,203.958,198.067,203.638,202.013,205.851
						L202.013,205.851z"/>
					<path stroke="#FFFFFF" stroke-miterlimit="10" d="M184.298,215.942l3.738-5.773c-2.096-1.757-7.115-0.094-6.086-2.521
						C177.271,212.011,179.54,213.666,184.298,215.942z"/>
					<path stroke="#FFFFFF" stroke-miterlimit="10" d="M182.798,225.285c0,0,0.475-0.684,0.949-1.366
						c0.492-0.659,0.982-1.318,0.982-1.318C183.825,221.879,182.94,221.865,182.798,225.285z"/>
					<path stroke="#FFFFFF" stroke-miterlimit="10" d="M188.999,217.013l-4.27,5.587c1.494,1.22,3.02,4.339,2.08-2.265
						C187.688,223.421,187.497,220.16,188.999,217.013z"/>
					<path stroke="#FFFFFF" stroke-miterlimit="10" d="M192.878,217.056c1.91,0.406,3.934,0.553,5.027,1.351
						c1.098,0.795,1.186,2.071-0.619,4.892c4.563-2.714,5.879-5.572,4.813-7.194c-0.529-0.801-1.654-1.268-3.248-1.192
						C197.261,214.987,195.183,215.564,192.878,217.056z"/>
					<path stroke="#FFFFFF" stroke-miterlimit="10" d="M227.399,232.916c0,0,1.145,0.44,2.287,0.882
						c0.566,0.212,1.145,0.472,1.572,0.651c0.43,0.184,0.715,0.306,0.715,0.306l2.154-4.344c-0.551,1.081-2.529,0.891-4.244,0.83
						C228.181,231.206,226.774,231.367,227.399,232.916z"/>
					<path stroke="#FFFFFF" stroke-miterlimit="10" d="M149.911,228.332c0.91,2.121,4.863,4.099,6.738,6.358
						c0,0,0.135-0.278,0.34-0.7c0.205-0.418,0.471-0.99,0.762-1.525c0.578-1.089,1.156-2.179,1.156-2.179
						C156.196,229.978,151.966,231.035,149.911,228.332z"/>
					<path stroke="#FFFFFF" stroke-miterlimit="10" d="M156.649,234.691l-3.164,6.667
						C158.378,238.769,158.261,236.645,156.649,234.691z"/>
					<path stroke="#FFFFFF" stroke-miterlimit="10" d="M187.167,236.398c0,0,1.232-2.987,2.629-5.829
						c1.408-2.893,2.816-5.786,2.816-5.786s-1.877,3.134-3.66,6.229c-0.906,1.524-1.738,3.155-2.367,4.345
						c-0.623,1.194-1.039,1.991-1.039,1.991L187.167,236.398z"/>
					<path stroke="#FFFFFF" stroke-miterlimit="10" d="M129.341,242.045c0,0-0.014-0.402-0.035-1.006
						c-0.016-0.6-0.033-1.396-0.051-2.194c-0.023-1.604-0.049-3.207-0.049-3.207s-0.16,2.564-0.32,5.129
						c-0.082,2.592-0.166,5.186-0.166,5.186L129.341,242.045z"/>
					<path stroke="#FFFFFF" stroke-miterlimit="10" d="M117.114,252.977c-0.721-5.143-7.625-3.184-7.15-7.143
						c-2.975,3.612-3.477,8.958-3.73,13.759C107.655,255.746,111.03,253.525,117.114,252.977z"/>
					<path stroke="#FFFFFF" stroke-miterlimit="10" d="M105.435,267.132c0.574-1.997,0.648-4.653,0.799-7.538
						C105.507,261.674,105.112,264.048,105.435,267.132z"/>
					<path stroke="#FFFFFF" stroke-miterlimit="10" d="M144.089,246.313c-1.18-0.85-4.004-3.267-7.805-2.429l5.756,3.769
						C142.665,247.245,143.372,246.781,144.089,246.313z"/>
					<path stroke="#FFFFFF" stroke-miterlimit="10" d="M142.229,247.77l-0.189-0.117c-2.242,1.426-3.826,2.377-4.514,2.777
						C138.112,250.084,139.526,249.27,142.229,247.77z"/>
					<path stroke="#FFFFFF" stroke-miterlimit="10" d="M144.61,245.98c-0.193,0.119-0.34,0.204-0.521,0.333
						C144.644,246.693,144.88,246.786,144.61,245.98z"/>
					<path stroke="#FFFFFF" stroke-miterlimit="10" d="M170.604,238.636c-0.662,2.443-2.078,5.401-2.191,7.882
						c-0.121,2.485,1.07,4.483,5.418,5.132c-0.053-2.5-1.311-3.938-2.352-5.647C170.444,244.289,169.62,242.308,170.604,238.636z"/>
					<path stroke="#FFFFFF" stroke-miterlimit="10" d="M151.597,250.849c0,0,0.377-0.155,0.943-0.389
						c0.58-0.212,1.355-0.494,2.129-0.775c1.545-0.558,3.088-1.114,3.088-1.114c-1.018-1.355-3.354-2.789-2.82-5.246
						c0,0-0.855,1.879-1.707,3.758c-0.418,0.934-0.834,1.867-1.146,2.566C151.79,250.369,151.597,250.849,151.597,250.849z"/>
					<polygon stroke="#FFFFFF" stroke-miterlimit="10" points="150.2,254.335 151.597,250.849 149.347,251.778 					"/>
					<path stroke="#FFFFFF" stroke-miterlimit="10" d="M117.972,263.788c-0.164,1.988-0.785,3.53-1.66,4.908
						c-0.852,1.405-1.922,2.685-3.043,4.052c1.807-0.822,3.473-1.822,5.125-2.817c1.645-1.001,3.176-2.108,4.557-3.313
						C122.017,264.761,120.907,260.942,117.972,263.788z"/>
					<path stroke="#FFFFFF" stroke-miterlimit="10" d="M129.931,256.117c-0.064,0.235-0.219,0.449-0.271,0.679
						C130.304,256.978,130.659,256.924,129.931,256.117z"/>
					<path stroke="#FFFFFF" stroke-miterlimit="10" d="M89.54,297.806c0.395,0.079,0.84,0.235,1.254,0.327
						c-0.258-0.271-0.514-0.524-0.764-0.807L89.54,297.806z"/>
					<path stroke="#FFFFFF" stroke-miterlimit="10" d="M124.204,267.109c2.916-0.887,3.154-3.162,3.113-5.736
						c-1.188,1.872-2.598,3.644-4.367,5.243C123.368,267.455,123.731,267.935,124.204,267.109z"/>
					<path stroke="#FFFFFF" stroke-miterlimit="10" d="M100.458,276.193c1-0.073,1.992-0.216,2.982-0.405
						c1-0.18,2.02-0.383,3.021-0.624c-1.229-0.217-2.965-0.389-4.252-0.259C100.927,275.036,100.046,275.416,100.458,276.193z"/>
					<path stroke="#FFFFFF" stroke-miterlimit="10" d="M127.798,256.007c0.049-0.168,0.076-0.34,0.156-0.487
						C126.356,255.026,126.87,255.479,127.798,256.007z"/>
					<path stroke="#FFFFFF" stroke-miterlimit="10" d="M127.798,256.007c-0.576,1.631-0.482,3.565-0.479,5.365
						c1.018-1.458,1.84-2.978,2.34-4.576C129.101,256.658,128.394,256.34,127.798,256.007z"/>
					<path stroke="#FFFFFF" stroke-miterlimit="10" d="M115.575,331.15c-2.221-1.979-3.416-5.085-2.961-7.798
						c0.23-1.35,0.844-2.614,1.969-3.523c1.148-0.888,2.766-1.453,4.893-1.476c0.104-3.521-4.049-7.888-9.736-11.721
						c-5.682-3.838-12.953-7.079-18.943-8.499c1.898,1.82,3.576,3.32,2.449,10.476c1.965,0.157,5.518-1.414,8.846-1.863
						c3.289-0.497,6.117-0.052,6.512,3.603c-0.703,1.999-1.443,3.185-2.162,3.936c-0.719,0.749-1.494,0.995-2.346,1.024
						c-1.703,0.062-3.699-0.76-6.148-0.187c3.938,0.981,4.465,4.67,5.311,8.658c0.789,3.973,2.137,8.392,6.982,10.922
						c0,0,0.043-0.475,0.107-1.186c0.061-0.716,0.15-1.667,0.289-2.591c0.256-1.875,0.512-3.751,0.512-3.751
						C112.55,328.125,113.239,331.622,115.575,331.15z"/>
					<path stroke="#FFFFFF" stroke-miterlimit="10" d="M99.343,289.255l1.285-2.429c-1.412,0.758-2.971,1.096-4.877,1.308
						c-1.912,0.21-4.248,0.22-7.348,0.245c-0.793,5.344,0.316,7.439,1.625,8.947c0,0,2.309-2.352,4.615-4.702
						c1.154-1.17,2.309-2.341,3.176-3.218c0.881-0.859,1.494-1.41,1.494-1.409L99.343,289.255z"/>
					<path stroke="#FFFFFF" stroke-miterlimit="10" d="M108.933,278.223c0.762,1.514,1.162,3.029,1.486,4.51
						c0.336,1.492,0.578,2.931,0.963,4.24c0.77,2.626,2.131,4.729,5.904,5.838c0.596-0.705,1.039-1.352,1.361-1.954
						c0.336-0.59,0.559-1.126,0.684-1.643c0.25-1.029,0.129-1.948-0.107-2.858c-0.475-1.821-1.418-3.601-0.742-6.183
						c-3.873,4.803-3.867,3.556-4.012,1.535c-0.146-2.016-0.387-4.855-4.947-3.025c1.016-2.493,2.4-4.283,3.746-5.936
						c-2.188,1-4.457,1.819-6.807,2.415c0.189,0.022,0.324,0.046,0.494,0.085l0.029-0.059c0.029,0.031,0.031,0.052,0.063,0.082
						c0.963,0.194,1.436,0.422,0.66,0.515c0.025,0.087-0.064,0.215-0.1,0.277c0.568,0.701,0.947,1.423,1.297,2.134
						c-3.58,1.584-1.602-0.79-1.297-2.134c-0.191-0.255-0.334-0.543-0.563-0.792c-0.033-0.018-0.063-0.021-0.09-0.023
						c0,0-0.422,0.709-1.053,1.772c-0.633,1.062-1.396,2.55-2.184,3.998c-1.547,2.903-3.094,5.808-3.094,5.808
						c1.252-0.662,2.416-1.626,3.715-3.024c0.65-0.699,1.334-1.507,2.08-2.44c0.367-0.472,0.758-0.97,1.168-1.497
						C108.015,279.347,108.46,278.802,108.933,278.223z"/>
					<path stroke="#FFFFFF" stroke-miterlimit="10" d="M175.729,266.699c-0.592-0.299-0.822-0.697-1.092-1.082
						C174.442,266.68,174.501,267.288,175.729,266.699z"/>
					<path stroke="#FFFFFF" stroke-miterlimit="10" d="M169.743,265.9c0.205-1.201-0.598-3.759,2.047-4.661
						c2.998,0.386,1.617,2.644,2.848,4.378c0.408-2.321,2.432-6.973-3.594-6.935l-0.227,1.188c-2.541,0.31-6.182-0.411-9.211-1.323
						c-3.023-0.914-5.42-2.031-5.311-2.629C160.733,259.977,164.079,262.755,169.743,265.9z"/>
					<path stroke="#FFFFFF" stroke-miterlimit="10" d="M140.358,271.537c0,0-0.363,0.537-0.906,1.345
						c-0.545,0.804-1.271,1.868-1.936,2.995c-1.348,2.214-2.693,4.428-2.693,4.428s1.85,0.248,3.701,0.496
						c1.83,0.266,3.66,0.532,3.66,0.532l-2.344-2.419c1.244-0.664,1.992-1.265,2.375-1.866c0.379-0.606,0.389-1.218,0.201-1.83
						C142.048,273.992,140.892,272.762,140.358,271.537z"/>
					<path stroke="#FFFFFF" stroke-miterlimit="10" d="M86.272,296.673l-4.316-5.446c0,0,0.795,2.725,1.723,5.48
						c0.92,2.724,1.84,5.446,1.84,5.446s0.184-1.367,0.367-2.734c0.094-0.688,0.188-1.374,0.26-1.891
						C86.214,297.011,86.272,296.674,86.272,296.673z"/>
					<path stroke="#FFFFFF" stroke-miterlimit="10" d="M78.347,308.071l-4.436-3.97c0,0,0.037,0.317,0.092,0.795
						c0.066,0.484,0.154,1.129,0.244,1.774c0.186,1.281,0.367,2.563,0.367,2.563L78.347,308.071z"/>
					<path stroke="#FFFFFF" stroke-miterlimit="10" d="M413.633,659.696l1.137-2.596
						C414.099,658.095,413.775,658.92,413.633,659.696z"/>
					<path stroke="#FFFFFF" stroke-miterlimit="10" d="M398.698,667.33l0.916,2.814C399.607,668.336,399.36,667.129,398.698,667.33z
						"/>
					<path stroke="#FFFFFF" stroke-miterlimit="10" d="M64.954,627.63c-2.291,6.72-6.563,15.962-1.311,11.779l4.654-4.78
						C65.599,632.583,64.878,630.11,64.954,627.63z"/>
					<path stroke="#FFFFFF" stroke-miterlimit="10" d="M258.075,718.465c-0.24-0.697-0.49-1.422-0.736-2.14
						c-1.393,1.975-2.703,3.834-3.877,5.496C254.88,720.764,256.437,719.72,258.075,718.465z"/>
					<path stroke="#FFFFFF" stroke-miterlimit="10" d="M265.771,692.482c0,0,0.951,1.235,1.9,2.471
						c0.975,1.24,1.945,2.479,1.945,2.479C268.819,695.802,267.581,694.158,265.771,692.482z"/>
					<path stroke="#FFFFFF" stroke-miterlimit="10" d="M474.451,593.552c0,0-0.99-1.461-1.98-2.923
						c-1.025-1.46-2.053-2.92-2.053-2.92C468.232,591.012,471.929,591.446,474.451,593.552z"/>
					<path stroke="#FFFFFF" stroke-miterlimit="10" d="M27.091,438.176c-3.016,3.517-4.475,6.531-5.129,9.239
						C26.269,443.057,32.292,440.167,27.091,438.176z"/>
					<path stroke="#FFFFFF" stroke-miterlimit="10" d="M441.265,723.46c1.066-1.969,1.104-3.521,0.345-4.755
						C440.498,720.626,440.146,722.261,441.265,723.46z"/>
					<path stroke="#FFFFFF" stroke-miterlimit="10" d="M21.028,458.792c0.701-0.65,1.082-1.308,1.682-1.97
						c-0.434-1.474-0.814-2.957-0.998-4.508c-0.176-1.55-0.207-3.172,0.25-4.899c-1.637,1.594-2.855,3.388-3.229,5.313
						C18.37,454.649,18.917,456.709,21.028,458.792z"/>
					<path stroke="#FFFFFF" stroke-miterlimit="10" d="M423.296,304.754c-0.036-0.377-0.204-0.645-0.197-1.049
						C422.547,304.396,422.804,304.608,423.296,304.754z"/>
					<path stroke="#FFFFFF" stroke-miterlimit="10" d="M342.877,205.828c1.288-0.241,3.31,0.011,5.224,0.17
						C347.244,205.436,345.67,205.276,342.877,205.828z"/>
					<path stroke="#FFFFFF" stroke-miterlimit="10" d="M46.989,354.442C47.896,351.583,46.524,353.697,46.989,354.442
						L46.989,354.442z"/>
					<path stroke="#FFFFFF" stroke-miterlimit="10" d="M76.163,353.845c0.381,0.86,1.002,1.686,2.295,2.454
						C77.177,355.363,76.472,354.557,76.163,353.845z"/>
					<path stroke="#FFFFFF" stroke-miterlimit="10" d="M61.017,486.747c0.002,0.073-0.02,0.134-0.018,0.22
						C62.255,486.17,62.017,486.307,61.017,486.747z"/>
					<path stroke="#FFFFFF" stroke-miterlimit="10" d="M51.634,351.766c-1.215,0.628-2.398,1.469-3.441,2.511
						C48.915,353.947,50.009,353.199,51.634,351.766z"/>
					<path stroke="#FFFFFF" stroke-miterlimit="10" d="M48.606,350.931c0.727-0.781,1.234-1.426,1.742-2.026
						C49.554,348.08,48.79,348.072,48.606,350.931z"/>
					<path stroke="#FFFFFF" stroke-miterlimit="10" d="M45.597,358.354c0.607-1.588,1.543-2.898,2.596-4.077
						c-0.639,0.338-1.07,0.402-1.203,0.165C46.722,355.279,46.331,356.452,45.597,358.354z"/>
					<path stroke="#FFFFFF" stroke-miterlimit="10" d="M530.963,448.515c0.185-0.18,0.292-0.374,0.547-0.578
						C528.537,445.964,529.093,446.928,530.963,448.515z"/>
					<path stroke="#FFFFFF" stroke-miterlimit="10" d="M159.237,636.753c-0.121-0.024-0.275,0.061-0.4,0.054
						c0.031,0.121,0.066,0.276,0.086,0.396L159.237,636.753z"/>
					<path stroke="#FFFFFF" stroke-miterlimit="10" d="M168.394,638.413c-7.824,3.902-8.82,1.865-9.473-1.21
						c0,0-2.688,3.919-5.379,7.837c-1.324,1.976-2.65,3.951-3.646,5.433c-0.98,1.479-1.631,2.465-1.631,2.465
						s5.148-3.528,10.176-7.166C163.479,642.144,168.394,638.413,168.394,638.413z"/>
					<path stroke="#FFFFFF" stroke-miterlimit="10" d="M444.833,634.594c0,0-1.985-0.215-3.971-0.43
						c-1.955-0.237-3.91-0.475-3.91-0.475c-0.699-5.773,0.24-8.66,0.282-10.54c0.023-0.93-0.229-1.645-1.008-2.264
						c-0.773-0.617-2.142-1.205-4.391-1.985c3.269,3.905,4.043,6.768,3.546,9.144c-0.506,2.362-2.201,4.291-4.069,5.999
						c-1.833,1.761-3.653,3.529-4.311,5.922c-0.718,2.304-0.283,5.27,2.533,9.511c0,0-1.357-0.349-2.715-0.697
						c-1.344-0.359-2.687-0.719-2.687-0.719c0.943-0.43,0.385-1.506,1.317-1.918c-2.813-0.992-3.91-0.573-4.174,0.695
						c-0.252,1.28,0.313,3.364,0.914,5.661c1.229,4.599,2.558,10.148-2.169,11.469c-3.606,0.393-7.05-1.138-6.391-4.271
						c0,0-0.9,1.97-1.804,3.939c-0.937,1.995-1.872,3.989-1.872,3.989c-0.998,0.363-1.825-0.34-2.134-1.174
						c-0.302-0.826-0.123-1.835,0.854-2.183c0.001,0-0.527,0.439-1.348,1.06c-0.834,0.596-1.945,1.39-3.058,2.185
						c-2.235,1.605-4.471,3.209-4.471,3.209l-0.19-0.577c0.024,1.817-0.267,4.16-0.665,6.421c-0.397,2.258-0.909,4.421-1.298,5.75
						c-3.812-1.483,0.43-2.567-1.291-4.577c0,0-0.912,1.768-1.824,3.536c-0.469,0.891-0.938,1.781-1.29,2.449
						c-0.368,0.647-0.613,1.08-0.613,1.08c-2.213-1.971-2.569-4.613-1.919-6.862c0.633-2.316,2.268-4.26,4.321-4.772
						c-6.753-8.114-7.193-6.486-8.141-3.505c-0.478,1.439-1.06,3.207-2.506,4.204c-1.442,0.976-3.742,1.267-7.522-0.511
						c0,0,0.27-0.264,0.676-0.658c0.394-0.418,0.919-0.976,1.444-1.532c1.037-1.106,2.074-2.213,2.074-2.213
						c-1.872-2.367-3.394-3.813-4.76-4.717c-1.364-0.903-2.565-1.247-3.825-1.54c-2.488-0.539-5.104-0.455-8.901-2.955
						c1.193,1.576,5.329,4.958,8.864,8.732c3.51,3.784,6.373,7.954,4.115,11.39c-2.271-0.875-4.688-0.776-6.844,4.223
						c-2.179-6.909-4.874-4.312-8.853-2.744l-2.22-9.344c-0.871,0.964-1.43,2.005-1.813,3.04c-0.389,1.025-0.588,2.101-0.726,3.212
						c-0.276,2.224-0.295,4.588-1.129,6.998c-5.272,0.25-7.777-6.771-10.109-12.756c-3.925-0.085-2.104,2.622-0.301,5.75
						c1.795,3.134,3.606,6.679-1.042,8.424c-1.847-0.602-3.463-0.759-4.979-0.542c-1.527,0.153-2.96,0.641-4.406,1.453
						c-2.894,1.601-5.84,4.518-9.825,7.609c-2.593-1.461-2.462-2.94-1.972-4.38c0.497-1.438,1.357-2.835,0.398-4.14
						c0,0-0.919,1.99-1.839,3.979c-0.957,1.993-1.913,3.986-1.913,3.986c-1.076-0.099-0.855-2.474-0.753-3.672
						c-1.719,1.633-1.698,3.948-1.931,6.33c-0.238,2.358-0.744,4.676-3.71,6.054c-0.329,2.651-1.313,3.032-2.688,2.303
						c-0.687-0.365-1.469-1.008-2.311-1.782c-0.42-0.399-0.854-0.814-1.307-1.243c-0.446-0.456-0.906-0.926-1.377-1.408
						c-1.877-1.893-3.872-3.742-5.865-4.376c-1.996-0.65-4.001-0.001-5.994,2.802c-1.615-2.857,1.205-5.804,0.865-9.554
						c-5.033,3.553-7.316,4.823-9.373,6.446c-2.088,1.597-3.926,3.425-8.811,8.167c0,0-1.561-1.783-3.119-3.566
						c-0.771-0.866-1.512-1.849-2.07-2.535c-0.555-0.699-0.924-1.167-0.924-1.167c1.953,4.015,1.063,7.849-1.359,11.383
						c-2.408,3.536-6.357,6.775-10.184,9.648c1.303,3.767,2.496,7.075,3.418,8.712c0,0-2.834,0.8-5.67,1.602
						c-1.438,0.427-2.855,0.697-3.936,0.963c-1.078,0.247-1.799,0.411-1.799,0.411c-0.922-1.828,0.877-4.796,3.373-8.332
						c-0.854,0.614-1.678,1.229-2.348,1.817c-2.855-4.296,0.369-9.235,3.959-13.909c0.76,2.115,1.512,4.366,2.264,6.596
						c3.639-5.272,6.967-11.234,7.508-16.843c-0.799,0.98-2.137,1.71-3.521,2.008c0.912-1.445,1.559-2.767,1.471-3.755
						c-0.111-1.067-1.479,0.92-3.477,2.937c0,0,0.039-2.735,0.08-5.47c0.064-2.729,0.129-5.458,0.129-5.458l-1.404,4.035
						c0,0-2.51-2.294-5.02-4.589c-1.244-1.103-2.42-2.387-3.313-3.271c-0.881-0.904-1.471-1.507-1.471-1.507
						c-2.721,2.02-5.549,4.364-8.516,6.697c-2.934,2.239-6.016,4.499-9.279,6.488c-1.631,0.995-3.309,1.923-5.033,2.748
						c-1.719,0.808-3.455,1.429-5.254,1.953c-1.797,0.515-3.643,0.888-5.531,1.085c-1.891,0.197-3.838,0.246-5.764-0.061
						c3.262-2.829,4.66-5.709,5.773-8.918c1.107-3.212,1.93-6.754,3.848-10.986c-0.229,5.303,2.793,5.285,6.398,4.556
						c1.818-0.388,3.773-0.909,5.674-1.177c1.908-0.287,3.719-0.206,5.229,0.833c-3.158-2.158-0.896-6.067,0.459-7.244
						c0,0-0.908,0.285-2.271,0.711c-0.688,0.21-1.49,0.456-2.352,0.72c-0.857,0.224-1.771,0.462-2.688,0.7
						c-3.674,0.95-7.484,1.859-7.484,1.859c1.578-3.464,1.502-5.024,0.822-6.22c-0.676-1.205-1.932-2.158-2.75-4.241
						c-1.922,7.375-5.045,8.704-8.633,8.403c-0.891-0.076-1.813-0.241-2.73-0.454c-0.904-0.251-1.826-0.508-2.729-0.758
						c-1.816-0.472-3.623-0.776-5.338-0.359c2.072-4.605,5.559-8.617,10.502-4.703c-0.543-6.641-4.375-3.646-8.553-0.587
						c-4.15,3.132-8.529,6.13-9.189,0.216c1.424,0.674,1.781,1.777,3.566-0.153c-2.668,1.05-5.557-0.344-7.217-2.305
						c-1.656-1.984-1.982-4.646,0.037-5.931l1.342,0.742c-1.91-1.761-4.477-3.682-7.4-5.421c-2.885-1.802-6.018-3.589-9.295-4.783
						c-1.656-0.575-3.213-1.188-4.816-1.546c-1.596-0.376-3.178-0.58-4.713-0.563c-3.078,0.042-5.965,0.938-8.293,3.102
						c0.988-1.317,10.863-10.927,12.961-12.59c0,0-0.646,0.348-1.773,0.954c-1.129,0.602-2.719,1.419-4.662,2.401
						c-3.879,1.96-9.143,4.5-14.553,6.914c-5.438,2.457-10.881,4.636-15.043,6.227c-4.162,1.594-6.996,2.599-6.996,2.599
						c4.467-3.312,9.938-10.895,15.77-17.309c5.814-6.43,11.914-11.771,16.99-11.202c-0.324-1.389-0.691-2.91-1.76-4.158
						c-1.064-1.259-2.877-2.187-5.943-2.68c-0.004,1.128-2.121,4.65-4.49,7.804c-2.35,3.127-5.025,5.912-6.201,5.396
						c2.092-6.652,2.557-8.53,2.688-10.43c0.07-0.943,0.072-1.879,0.205-3.362c0.137-1.481,0.375-3.492,1.117-6.663
						c-0.09,1.696-3.74,4.938-7.689,7.282c-3.941,2.351-8.225,3.757-9.387,1.997c2.363-1.199,12.652-11.302,14.926-11.408
						c0,0-4.738,0.97-9.613,1.789c-2.447,0.424-4.814,0.729-6.646,0.981c-1.826,0.233-3.043,0.391-3.043,0.391
						c3.955,0.118,11.398-8.632,13.877-13.196c-0.996,1.407-2.207-0.26-3.529-2.386c-1.27-2.168-2.523-4.859-3.951-5.398
						l-0.824,5.596c-1.063-2.602-3.182-3.57-5.9-3.781c-1.352-0.106-2.873-0.007-4.438,0.161c-1.559,0.161-3.199,0.417-4.859,0.67
						c-3.318,0.505-6.715,0.994-9.645,0.683c-2.912-0.317-5.453-1.392-6.709-4.127c1.863-0.255,6.896-2.253,11.318-4.974
						c4.426-2.718,8.275-6.099,7.834-9c-2.184,0.536-5.881,1.487-10.406,2.452c-4.521,0.962-9.924,1.958-15.297,2.506
						c-5.402,0.569-10.93,0.768-15.826,0.318c-2.436-0.23-4.771-0.593-6.738-1.191c-1.977-0.596-3.693-1.376-5.049-2.357
						l3.584-4.055c0,0-2.195-1.446-4.393-2.892c-1.121-0.727-2.162-1.497-2.959-2.073c-0.797-0.58-1.328-0.966-1.328-0.966
						c6.965,0.193,18.467,0.916,29.41,1.397c5.434,0.278,11.023,0.387,15.865,0.543c4.875,0.146,9.084,0.307,12.238,0.556
						c1.586-5.413,4.623-3.743,1.529-8.784c3.207-3.885,7.707-0.372,8.686,0.968c0,0-0.836-3.273-1.674-6.549
						c-0.457-1.606-0.742-3.282-0.998-4.513c-0.248-1.232-0.414-2.054-0.414-2.054c-4.473,2.358-7.826,1.074-11.055-0.417
						c-3.109-1.524-6.037-3.264-9.854-1.472c0,0,0.959,0.652,2.396,1.629c0.713,0.479,1.545,1.038,2.438,1.637
						c0.93,0.567,1.92,1.173,2.912,1.777c3.959,2.396,7.813,4.615,7.813,4.616c-4.408,2.46-11.73,3.609-18.436,2.559
						c-1.676-0.259-3.309-0.651-4.842-1.181c-1.529-0.531-2.984-1.188-4.17-2.024c-2.42-1.651-4.178-3.856-4.758-6.537
						c1.371-1.991,5.773-3.058,10.188-3.879c4.418-0.813,8.838-1.393,10.367-2.098c-0.928,0.016-1.994-0.376-3.047-1.008
						c-1.061-0.629-2.102-1.501-2.881-2.464c-1.605-1.909-2.514-4.046-1.494-4.868c0,0,1.617,0.572,3.232,1.144
						c1.607,0.547,3.213,1.096,3.213,1.096c0.926-3.204-2.943-4.202-6.217-5.708c-3.24-1.482-5.701-3.558-2.006-8.055
						c0.018-1.204,2.607-3.667,4.658-5.664c2.027-1.998,3.313-3.511,0.367-3.01c-10.406,6.12-44.584,16.248-53.678,15.295
						c0.266-0.575,2.098-4.853,4.518-9.344c0.607-1.125,1.232-2.261,1.914-3.37c0.703-1.114,1.426-2.192,2.145-3.189
						c1.441-1.996,2.875-3.663,4.143-4.652c4.063-2.916,9.652-2.186,15.066-1.547c5.418,0.667,10.656,1.25,14.178-1.092
						c-2.73,0.386-6.451-1.136-7.689-1.858c1.873-2.866,8.592-0.446,6.416-5.489c-10.238,0.645-0.531-11.07-8.881-1.282
						c-1.785-2.486-1.449-4.009-0.816-5.646c0.643-1.646,1.498-3.403,1.088-6.534c-3.215,1.296-8.916,0.42-14.25-1.673
						c-2.668-1.042-5.24-2.383-7.359-3.841c-1.051-0.729-2.02-1.485-2.771-2.246c-0.746-0.761-1.332-1.521-1.717-2.255
						c2.607,0.24,5.955-1.221,7.484-1.896c0.154-2.979,0.551-5.611,1.057-8.042c0.586-2.431,1.344-4.66,2.033-6.848
						c0.715-2.188,1.336-4.335,1.922-6.604c0.637-2.265,1.127-4.655,1.354-7.353c1.271-0.396,2.752-1.818,4.438-2.79
						c1.672-0.979,3.631-1.489,5.688-0.205c-1.625-1.659-4.879-3.424-4.715-6.72c9.555-5.055,0.459,7.297,11.605,3.849
						c-2.928-0.535-4.701-2.8-6.131-5.62c-0.693-1.404-1.391-2.958-1.939-4.464c-0.568-1.509-1.152-2.996-1.861-4.304
						c-2.32-0.041-3.715,0.599-4.449,1.666c-0.734,1.066-0.846,2.552-0.432,4.204c0.764,3.308,3.076,7.15,4.625,9.639
						c-6.293-0.656-12.479-3.369-17.596-7.736c-2.539-2.176-4.902-4.771-6.713-7.649c-1.789-2.875-3.18-6.058-4.064-9.412
						c-0.338-2.6,0.053-4.076,0.857-4.823c0.779-0.754,1.883-0.803,2.971-0.595c2.174,0.419,4.287,1.845,3.596,0.835
						c1.563-4.321,1.215-7.721,0.029-10.686c-1.074-2.93-3.016-5.412-4.764-7.789c-1.748-2.376-3.301-4.645-3.592-7.123
						c-0.295-2.473,0.875-5.112,4.291-8.151c4.824-1.672,8.607-0.338,11.961,1.393c3.348,1.744,6.262,3.896,9.213,4.241
						c0.232,4.116-1.947,6.437-4.289,8.482c-2.27,2.055-4.803,3.786-5.369,6.372l5.428-5.143c1.895,3.146,2.492,8.487-0.521,10.549
						c2.084-0.712,3.707-2.79,5.123-5.676c0.713-1.442,1.355-3.094,2.016-4.87c0.729-1.754,1.447-3.643,2.18-5.593
						c0.746-1.947,1.455-3.977,2.307-5.958c0.896-1.966,1.834-3.92,2.842-5.783c0.502-0.933,1.021-1.841,1.561-2.718
						c0.535-0.879,1.094-1.723,1.734-2.497c1.25-1.563,2.582-2.956,4.016-4.099c-1.512-3.219-2.336-8.186-6.063-7.813l-0.74,4.374
						c-3.77,0.447-4.992-2.309-5.859-4.796c-0.873-2.473-1.404-4.648-3.947-2.72c-0.225-0.94-0.453-1.896-0.688-2.867
						c-0.223-0.974-0.428-1.959-0.625-2.964c-0.389-2.008-0.693-4.071-0.725-6.104c-0.027-2.031,0.213-4.037,0.926-5.9
						c0.781-1.826,2.027-3.518,3.91-4.947l8.766,3.211c-2.393-1.223-7.543,2.11-6.264,5.544c-0.92-2.523,3.455-3.869,6.896-5.616
						c1.732-0.877,3.223-1.878,3.797-3.239c0.609-1.341,0.266-3.072-1.76-5.491c0,0-2.158,0.42-4.318,0.839
						c-1.096,0.212-2.166,0.445-2.953,0.637c-0.797,0.188-1.328,0.312-1.328,0.312c-0.242-1.95-0.611-4.106-0.959-6.37
						c-0.355-2.268-0.691-4.643-0.785-6.952c-0.078-2.299,0.016-4.581,0.684-6.521c0.664-1.941,1.777-3.627,3.531-4.843
						c-4.762-1.138-4.836-0.584-5.199,0.044c-0.365,0.649-1.043,1.327-7.105,0.781c6.85,1.581,3.896,5.881,1.262,9.898
						c-1.313,2.017-2.586,3.955-2.463,5.438c0.143,1.502,1.582,2.455,5.559,2.573c-6.742-0.712-9.16,0.899-11.496,2.788
						c-2.342,1.914-4.625,4.073-11.051,5.195c2.803,1.188,6.406,0.215,1.924,5.689c0.646,0.679,1.318,1.841,1.697,2.549
						c-0.168,0.151-0.246,0.194-0.414,0.313c0.168-0.07,0.332-0.104,0.494-0.178c0.271,0.468,0.344,0.532,0.176-0.07
						c1.93-0.863,3.947-1.304,5.693-0.997c2.35,3.1,2.215,6.899,1.879,10.587c-0.295,3.706-0.957,7.229-0.023,9.546
						c-2.916,2.96-2.521-2.876-6.359-2.231c0,0,0.691,1.746,1.383,3.492c0.754,1.744,1.51,3.488,1.51,3.488
						c-3.209-1.051-6.762,0.327-9.561,0.751c-2.795,0.412-4.836-0.148-4.891-5.374l-3.465,7.976
						c-2.713,1.719-4.869,4.222-6.316,6.878c-1.404,2.673-2.072,5.507-1.324,8.026c-2.557,3.612,4.328,12.03,0.225,7.171
						c0,0,0.02,0.89,0.049,2.224c0.041,1.334,0.051,3.096,0.145,4.866c0.252,3.531,0.502,7.063,0.502,7.063l-1.67-0.256
						c-2.049,6.403-0.365,13.74-0.248,20.822c0.473,7.186-0.617,14.123-7.119,21.271c0.686,2.308,1.439,4.636,1.768,7.298
						c0.418,2.667,0.379,5.663-0.668,9.379l-5.863,1.388c0.873,2.931-0.424,7.301-1.283,11.327
						c-0.846,4.018-1.223,7.656,1.957,8.733c-3.799,1.796-5.775,4.554-6.625,7.833c-0.424,1.64-0.568,3.407-0.518,5.244
						c0.086,1.835,0.441,3.732,0.863,5.649c0.432,1.916,0.971,3.849,1.525,5.746c0.561,1.898,1.092,3.771,1.701,5.549
						c1.145,3.566,1.979,6.839,1.766,9.563l7.541-1.066c0.104,0.879,0.246,1.746,0.43,2.604c0.217,0.854,0.473,1.697,0.762,2.537
						c0.578,1.681,1.295,3.347,2.129,5.03c0.836,1.684,1.789,3.385,2.842,5.139c1.092,1.744,2.359,3.52,3.674,5.392l6.336-2.304
						c3.678,2.739,3.646,7.504,3.691,12.973c-0.023,2.744-0.135,5.688,0.043,8.632c0.25,2.915,0.865,5.801,2.086,8.449
						c-2.678,0.222-3.15-2.817-2.459-5.311c-2.283,4.582-2.053,8.457-0.559,11.805c1.586,3.317,4.527,6.065,7.494,8.664
						c2.918,2.63,6.195,4.951,8.322,7.69c2.152,2.732,3.219,5.859,2.426,9.919c3.695,1.528,4.084,3.874,3.736,6.657
						c-0.158-0.246-0.396-0.41-0.691-0.496c0.092,0.319,0.318,0.743,0.578,1.162c-0.316,1.811-0.699,3.732-0.76,5.62
						c0.674-1.989,1.123-3.744,1.127-5.028c1.338,2.029,4.1,4.67,7.428,6.774l-5.209,5.253c0.24,0.198,0.359,0.409,0.631,0.602
						c-0.252,4.527,4.387,0.491,7.893-4.097c1.93,0.865,4.1,1.358,6.244,1.396c-3.984,4.459-1.805,5.835,0.334,7.31
						c1.072,0.742,2.137,1.516,2.453,2.767c0.344,1.232-0.035,2.928-1.904,5.593c3.16-0.884,6.828,1.945,11.066,4.119
						c4.379,2.065,9.301,3.435,14.656-0.124c-1.17,1.188-1.1,2.476-2.387,1.148c1.34,3.88,3.004,7.656,7.963,7.648l-5.484,7.556
						c0,0,3.703-0.592,7.336-1.262c3.695-0.72,7.328-1.528,7.328-1.528c-0.301,7.447-0.818,11.441-9.473,12.96
						c4.17,0.215,6.832,0.539,8.791,0.902c1.99,0.324,3.229,0.726,4.42,1.09c2.379,0.701,4.594,1.37,11.941,0.497l-4.166,4.28
						c1.539,1.069,4.725,0.974,7.322,1.229c2.602,0.261,4.629,0.882,4.027,3.528c-0.051,3.491,2.041,6.793,5.33,10.169
						c0.828,0.834,1.713,1.702,2.697,2.519c0.994,0.802,2.053,1.605,3.16,2.416c2.217,1.618,4.631,3.262,7.143,4.945
						c2.58,1.574,5.256,3.192,7.928,4.888c1.348,0.831,2.652,1.754,4.02,2.568c1.355,0.831,2.703,1.688,4.023,2.572
						c1.322,0.886,2.623,1.801,3.889,2.753c1.264,0.958,2.494,1.949,3.723,2.896c2.436,1.939,4.691,4.053,6.689,6.391
						c1.58-8.895,3.055-6.02,5.012-2.536c1.982,3.424,4.545,7.596,7.385,1.433c-0.336,4.308,1.768,7.643-2.891,9.678
						c1.518,0.05,2.861,0.277,4.084,0.626c1.229,0.328,2.354,0.724,3.385,1.212c2.066,0.962,3.811,2.175,5.533,3.135
						c1.729,0.937,3.404,1.717,5.375,1.551c1.959-0.14,4.16-1.049,6.813-3.265c0.131,4.354-4.02,5.162-3.582,7.837
						c1.156-0.599,4.504-2.459,5.012,0.248c0.5,2.698-2.543,2.891-4.834,4.112c2.945,0.654,5.436,0.394,7.543-0.557
						c2.127-1.021,3.865-2.702,5.334-4.809c2.934-4.214,4.799-10.123,6.541-15.858c2.074,3.383,3.908,5.056,5.873,5.015
						c1.979-0.123,4.1-1.938,6.76-5.445c1.162,4.18,3.781,8.808-3.355,8.96c0.941,0.314,2.826,1.088,5.172,1.926
						c1.172,0.419,2.459,0.854,3.799,1.254c1.346,0.345,2.744,0.642,4.129,0.86c5.543,0.87,10.783,0.437,11.426-4.401
						c0.98,2.517,5.359,1.125,6.441,0.098c2.152,0.306,3.814,0.592,5.23,0.845c1.416,0.231,2.588,0.363,3.758,0.492
						c2.336,0.234,4.671,0.285,8.94-0.067l-2.344-1.625c1.752-5.764,3.438-6.283,5.597-5.75c2.146,0.575,4.789,2.409,8.141,1.626
						l-0.15,1.191c3.963,2.038,6.406,2.578,8.023,2.631c1.621,0.043,2.427-0.482,3.223-0.971c0.797-0.488,1.582-0.938,3.187-0.749
						c0.801,0.09,1.81,0.36,3.132,0.826c1.319,0.43,2.955,1.079,5.038,2.016l-1.685-7.037c-0.184-7.776,3.269-5.913,8.021-3.019
						c2.365,1.409,5.043,2.957,7.649,3.758c2.6,0.781,5.121,0.781,7.021-1.088c0,0-0.994-0.858-1.988-1.718
						c-0.982-0.866-1.967-1.733-1.967-1.733c1.867-2.96,6.105,1.422,10.894,6.646c4.745,5.211,10.07,11.314,12.854,11.464
						c1.453,0.977-1.182,2.611-2.515,3.952c3.938,1.332,5.898,1.302,6.722,0.575c0.824-0.743,0.517-2.249,0.008-4.064
						c-1.025-3.629-2.807-8.511,1.659-10.923c1.619,2.181,1.987,5.437,2.784,8.031c0.4,1.297,0.915,2.427,1.771,3.167
						c0.855,0.744,2.061,1.105,3.795,0.751c2.29,1.395,5.924-4.151,10.154-9.257c2.092-2.654,4.355-5.193,6.859-6.719
						c1.253-0.764,2.567-1.274,3.965-1.423c1.38-0.188,2.831-0.037,4.391,0.601c-3.473-2.734-6.76-5.542-3.774-10.115
						c1.451-1.039,3.623-1.196,6.116-1.086c1.242,0.049,2.577,0.19,3.914,0.28c1.327,0.07,2.679,0.132,3.991,0.116
						c5.229-0.087,10.021-1.33,9.739-8.388c1.299,0.488,2.101,1.21,2.611,2.04c0.791-1.372,1.973-2.893,3.282-4.514
						c1.313-1.62,2.763-3.322,4-5.204c2.521-3.701,4.495-7.588,3.95-11.216c4.49,4.557,8.002,4.863,10.993,3.243
						c2.977-1.644,5.377-5.213,7.344-8.922c1.008-1.828,1.959-3.634,2.931-5.172c0.967-1.542,1.976-2.79,3.017-3.631
						c2.114-1.63,4.714-1.251,8.44,3.102c0,0,0.737-0.741,1.845-1.853c1.091-1.127,2.608-2.555,4.009-4.106
						c2.801-3.09,5.603-6.182,5.603-6.182l1.313,1.978c1.101-0.789,2.047-1.584,2.856-2.382c0.803-0.806,1.425-1.656,1.954-2.479
						c1.052-1.659,1.634-3.308,1.896-4.94c0.516-3.279-0.19-6.447-1.035-9.66c2.73-0.766,3.18,1.979,3.937,2.939
						c6.758-4.279,10.363-6.936,11.887-10.771c0.795-1.894,1.143-4.032,1.203-6.743c0.019-1.364,0.015-2.833-0.136-4.549
						c-0.144-1.711-0.347-3.605-0.597-5.715l6.813,3.247c-0.373-1.34,0.829-2.705,2.888-4.305c1.051-0.792,2.241-1.689,3.539-2.669
						c1.312-0.979,2.742-2.048,4.198-3.223c1.453-1.176,2.943-2.452,4.342-3.858c1.34-1.442,2.604-3.007,3.698-4.693
						c1.093-1.688,2.011-3.497,2.651-5.428c0.659-1.92,0.883-4.047,0.813-6.232c0.679,0.521,1.813,1.469,2.18,3.05
						c0.029-2.441,0.619-4.679,1.601-6.787c0.489-1.054,1.077-2.074,1.74-3.07c0.625-1.014,1.313-2.011,2.06-2.985
						c2.942-3.914,6.919-7.501,9.842-11.259c1.504-1.857,2.847-3.707,3.833-5.553c0.492-0.923,0.897-1.843,1.184-2.764
						c0.251-0.934,0.39-1.865,0.391-2.792c0.005-3.714-2.191-7.355-8.138-10.907c0,0-0.175-0.789-0.436-1.973
						c-0.239-1.173-0.666-2.761-1.087-4.331c-0.851-3.107-1.7-6.214-1.7-6.214c-2.945,6.521-5.599,5.104-8.283,2.718
						c-2.68-2.406-5.413-5.724-8.318-3.722c-0.054-2.724,2.83-5.399,5.7-6.677c1.421-0.637,2.796-0.921,3.846-0.608
						c1.025,0.306,1.769,1.224,1.631,2.908l-1.593,0.652c3.241,1.499,5.456,1.307,7.107,0.165c1.641-1.14,2.583-3.244,3.456-5.438
						c0.861-2.199,1.6-4.5,2.703-6.11c1.127-1.604,2.474-2.563,4.837-2c0.547-3.521,1.216-7.006,1.979-10.469
						c0.701-3.473,1.325-6.948,2.108-10.403c0.358-1.731,0.826-3.452,1.138-5.188c0.341-1.735,0.681-3.47,1.02-5.198
						c0.358-1.736,0.716-3.471,1.072-5.2c0.175-0.867,0.381-1.733,0.531-2.603l0.434-2.605c0.574-3.494,1.146-6.975,1.716-10.44
						c0.457-3.482,0.784-6.971,1.108-10.455c0.141-1.74,0.332-3.483,0.386-5.222c0.044-1.737,0.071-3.473,0.075-5.205
						c0.004-1.731-0.015-3.462-0.058-5.187c-0.034-1.726-0.103-3.444-0.308-5.147c0,0-2.631,1.067-5.261,2.134
						c-2.657,1.038-5.314,2.076-5.314,2.076s-0.001-0.145-0.004-0.396c-0.002-0.252,0-0.613-0.031-1.044
						c-0.049-0.862-0.112-2.013-0.179-3.162c-0.134-2.305-0.267-4.608-0.267-4.608c2.227-2.729,8.084-4.474,8.49,2.333
						c2.863-2.141,1.204-4.856-1.457-6.901c-2.618-2.063-6.468-3.421-7.633-3.321c1.063-6.718,4.416-6.123,7.486-4.155
						c3.064,1.947,5.83,5.241,5.601,3.176l-1.792-5.405l-1.04,1.469c-2.604-1.845-5.09-2.617-7.034-3.934
						c-0.977-0.655-1.801-1.448-2.468-2.567c-0.705-1.112-1.234-2.553-1.551-4.528c1.004-5.425,6.002-4.084,5.959-6.157
						c0.758-0.168,0.956-0.937-0.405-3.131c0,0-0.093-0.754-0.33-1.861c-0.223-1.113-0.521-2.599-0.816-4.081
						c-0.604-2.977-1.205-5.95-1.205-5.95s-1.748,1.771-3.495,3.54c-1.759,1.733-3.519,3.469-3.519,3.469
						c-2.764-1.917-3.4-4.564-4.347-5.761c-0.468-0.598-1.055-0.811-1.964-0.388c-0.908,0.42-2.185,1.495-4.183,3.473
						c6.117-5.838,4.019-16.797,0.021-26.557c-0.909-2.477-2.105-4.805-3.177-7.032c-1.084-2.224-2.117-4.314-2.982-6.204
						c-1.805-3.742-3.058-6.628-2.553-8.267c-2.234-0.899-4.098-1.95-5.689-3.154c-1.645-1.176-3.053-2.483-4.272-3.948
						c-2.459-2.917-4.161-6.479-6.266-10.325c-0.342,2.81-7.979,8.941-10.862,2.231c4.569-2.185,6.868-4.264,7.844-6.418
						c0.975-2.149,0.671-4.383-0.088-6.661c-0.729-2.304-1.771-4.741-2.142-7.467c-0.188-1.36-0.198-2.802,0.063-4.326
						c0.234-1.505,0.763-3.107,1.705-4.834c-2.069,5.132-5.966,1.109-9.962-2.188c-1.964-1.684-4.132-3.054-5.993-3.111
						c-1.88-0.052-3.506,1.281-4.721,5.079c-1.412-2.875-0.061-4.186,1.719-5.597c1.774-1.416,3.99-2.917,4.154-6.339
						c-2.016-0.807-3.741-1.907-5.431-3.09c-1.683-1.19-3.203-2.576-4.623-4.114c-1.429-1.529-2.72-3.247-4.026-5.007
						c-1.337-1.731-2.627-3.569-3.922-5.462c-1.305-1.881-2.564-3.868-3.963-5.76c-1.412-1.875-2.875-3.75-4.426-5.563
						c-0.775-0.906-1.573-1.798-2.397-2.667c-0.412-0.435-0.831-0.862-1.257-1.284c-0.439-0.404-0.892-0.798-1.347-1.186
						c-1.827-1.551-3.778-2.975-5.879-4.203c-1.825,1.919-1.848,7.031-7.396,7.668c0,0,0.015-1.035,0.037-2.589
						c0.005-0.78,0.011-1.69,0.017-2.665c-0.017-0.962-0.034-1.987-0.052-3.014c-0.083-4.11-0.279-8.296-0.279-8.296
						c-1.945-0.589-4.843,2.024-7.278,3.361c-1.223,0.67-2.321,1.012-3.155,0.483c-0.854-0.503-1.431-1.881-1.624-4.727
						c-0.392,2.387-1.055,5.938-3.593,5.31c-2.965-3.805-6.287-7.255-10.056-10.06c-1.859-1.438-3.783-2.795-5.756-4.083
						c-1.977-1.274-4.075-2.346-6.164-3.438c-2.1-1.073-4.229-2.094-6.38-3.074c-2.191-0.892-4.407-1.738-6.628-2.568
						c-2.229-0.812-4.433-1.677-6.689-2.404l-6.786-2.141c-4.479-1.533-9.047-2.775-13.509-4.325l-6.678-2.386
						c-2.226-0.806-4.431-1.688-6.617-2.673c-1.094-0.488-2.18-1.015-3.267-1.545c-1.098-0.492-2.19-1.013-3.279-1.563
						c-2.178-1.1-4.339-2.319-6.489-3.685c-2.143-1.407-4.31-2.779-6.467-4.343c-2.156-1.564-4.311-3.293-6.471-5.207
						c4.337,5.962,0.781,5.837-3.112,5.352c2.331,1.646-1.056,6.431-1.098,10.049c0,0-0.211-0.206-0.589-0.521
						c-0.38-0.322-0.921-0.783-1.57-1.336c-1.324-1.108-3.09-2.585-4.854-4.063c-1.815-1.479-3.631-2.959-4.992-4.068
						c-0.688-0.567-1.271-0.99-1.679-1.296c-0.408-0.305-0.643-0.479-0.643-0.479c-1.924,4.825-6.09,4.674-10.133,4.486
						c-2.018-0.13-4.003-0.129-5.603,0.457c-1.6,0.579-2.805,1.749-3.27,4.108l4.939-1.577c-3.489,5.521-1.378,11.76,1.016,18.496
						c2.438,6.821,5.127,14.063,4.146,21.193c1.795-3.055,3.687-3.326,5.605-2.295c1.917,1.091,3.845,3.576,5.846,5.849
						c1.001,1.144,2.022,2.242,3.085,3.118c0.532,0.438,1.075,0.819,1.634,1.123c0.554,0.325,1.118,0.591,1.707,0.745
						c2.35,0.627,4.993-0.367,8.369-4.396c1.622,3.262-2.748,4.214-2.205,7.693c3.618-5.693,7.015-6.131,11.923-2.188l-0.985,1.337
						c0.988,0.131,1.938,0.281,2.851,0.452c0.907,0.191,1.768,0.448,2.602,0.696c1.667,0.509,3.209,1.08,4.663,1.711
						c1.446,0.654,2.838,1.266,4.124,2.107c1.295,0.815,2.541,1.678,3.779,2.581c1.239,0.904,2.472,1.849,3.735,2.828
						c1.271,0.964,2.512,2.13,3.857,3.235c1.339,1.13,2.75,2.289,4.272,3.477c0.381,0.293,0.771,0.591,1.164,0.895
						c0.387,0.32,0.779,0.646,1.18,0.979c0.803,0.658,1.638,1.323,2.51,1.995l1.711-7.024c3.083,2.441,2.864,4.783,3.691,7.105
						c8.59-7.939-9.411-4.912-0.955-14.131c-0.263,3.85,1.109,6.47,3.271,8.487c1.099,0.977,2.317,1.964,3.663,2.818
						c1.339,0.867,2.771,1.668,4.184,2.474c0.707,0.403,1.409,0.809,2.092,1.223c0.673,0.434,1.309,0.908,1.919,1.384
						c1.218,0.959,2.298,1.987,3.115,3.15c1.639,2.327,2.229,5.16,0.739,9.136c2.334,1.557,3.094-0.402,3.834-2.369
						c0.74-1.969,1.461-3.944,3.894-2.327l-1.124,4.56l4.375-4.001c0.677,0.722,1.107,1.591,1.298,2.595
						c0.187,1.01,0.166,2.103-0.002,3.196c-0.338,2.19-1.269,4.391-2.291,5.972c-0.474-0.886-2.659-0.604-3.606-0.887
						c0.45,3.547,3.353,5.067,6.276,6.044c1.479,0.458,2.858,0.909,3.941,1.319c1.075,0.421,1.814,0.85,1.87,1.438
						c0,0-0.634-1.371-1.268-2.742c-0.322-0.691-0.646-1.382-0.887-1.9c-0.236-0.527-0.42-0.849-0.421-0.849
						c1.847,0.739,3.605,1.707,5.363,2.749c0.875,0.523,1.744,1.077,2.607,1.649l1.292,0.875c0.419,0.31,0.822,0.64,1.234,0.964
						c3.245,2.646,6.571,5.366,9.654,8.329c1.578,1.442,3.187,2.85,4.844,4.188c1.578,1.417,3.212,2.758,4.933,3.988
						c3.514,2.394,7.028,4.645,11.301,6.065l1.787-3.058c1.563,0.625,2.813,1.241,3.778,1.883c0.938,0.665,1.625,1.325,2.138,1.987
						c1.025,1.322,1.351,2.648,1.605,4.057c0.24,1.42,0.485,2.868,1.182,4.587c0.695,1.721,1.946,3.625,4.429,5.868l-0.932,0.069
						c4.313,0.163,7.585,2.288,9.234,5.543c-2.56-0.354-3.314,2.003-4.221,4.219c-0.897,2.227-1.947,4.31-4.924,3.7
						c0.781,0.433,1.489,0.823,2.133,1.179c0.636,0.367,1.206,0.697,1.721,0.994c1.052,0.585,1.924,1.021,2.68,1.338
						c1.515,0.633,2.566,0.786,3.709,0.735c1.146-0.051,2.382-0.305,4.283-0.451c1.9-0.144,4.503-0.207,8.232,0.316l-4.002,4.385
						c2.903,0.154,4.99,0.012,6.895,0.5c1.894,0.497,3.697,1.592,5.726,4.447c-3.323-1.56-4.773,0.376-6.464,2.248
						c-1.683,1.892-3.611,3.704-7.686,2.345c-1.361,4.391-0.871,7.299,0.479,9.528c1.28,2.249,3.315,3.854,5.188,5.326
						c0.928,0.738,1.798,1.448,2.469,2.189c0.679,0.738,1.146,1.515,1.212,2.398c0.168,1.755-1.027,3.867-4.758,6.718
						c4.138,0.218,6.498-0.476,7.747-1.695c1.251-1.215,1.396-2.938,1.156-4.627c-0.231-1.692-0.858-3.343-1.245-4.395
						c-0.354-1.063-0.354-1.58,0.746-1.04c1.799-2.291,4.966-2.104,7.749-0.651c2.695,1.472,4.907,4.233,4.913,6.64
						c0.291,1.129-0.574,2.542-1.985,4.164c-1.407,1.622-3.465,3.486-5.4,5.486c-1.949,2.005-3.837,4.161-5.036,6.436
						c-0.601,1.138-1.028,2.307-1.204,3.509c-0.232,1.218-0.229,2.472,0.108,3.77c-0.168-1.061-1.313-0.854-1.485-1.9
						c-1.462,2.418,0.262,3.981,1.73,5.789c0.733,0.899,1.402,1.854,1.567,2.961c0.111,1.117-0.299,2.394-1.65,3.89
						c4.813,0.492,4.973,2.138,5.397,3.447c0.427,1.318,1.127,2.332,7.067,1.84l-4.499-9.565c2.021,2.516,6.695,4.521,10.277,7.382
						c1.833,1.418,3.18,3.073,3.854,5.032c0.654,1.959,0.546,4.237-0.813,6.876c-2.48-0.524-5.979-3.044-7.967-4.752
						c-1.562,1.618-0.815,2.864-0.077,4.154c0.741,1.282,1.488,2.605-0.226,4.226c-2.991,0.073-4.641-0.641-5.745-1.798
						c-1.1-1.16-1.546-2.786-1.922-4.585c-0.38-1.799-0.675-3.773-1.508-5.574c-0.922-1.785-2.348-3.397-4.836-4.448
						c-2.247,1.835,0.442,4.159,1.863,6.052c1.414,1.895,1.77,3.188-4.789,2.606c8.363,0.956,8.198,3.743,7.59,6.803
						c-0.753,3.124-2.007,6.464,4.523,9.754l-7.146-0.068c1.255,1.044,4.655,3.263,4.52,5.403c0,0-2.328-0.863-4.656-1.729
						c-2.324-0.825-4.648-1.649-4.648-1.649c3.99,2.645,2.341,5.538,0.245,8.242c-2.021,2.733-4.841,5.281-2.731,8
						c0.016-2.802,0.572-4.353,1.472-5.192c0.899-0.839,2.103-0.96,3.525-0.87c2.826,0.164,6.353,1.234,8.879-1.3
						c1.281,1.833,1.785,3.367,1.912,4.65c0.113,1.285-0.217,2.319-0.861,3.178c-1.289,1.719-3.831,2.736-6.563,3.755
						c-2.7,1.021-5.728,2.036-7.87,3.747c-2.168,1.715-3.415,4.104-2.918,8.001c-0.345-1.077,0.8-2.914,2.517-4.074
						c1.697-1.155,3.886-1.647,5.401,0.164c-0.866,1.447-1.965,3.105-3.505,4.536c-1.531,1.435-3.319,2.659-5.285,3.313
						c0.099,5.117,1.963,5.035,4.271,4.208c2.311-0.813,5.087-2.417,6.971,0.136c-4.521,1.206-3.775,2.574-1.781,4.357
						c2.027,1.775,5.437,3.98,6.377,6.622l-7.119-1.294c-0.836,1.39-1.236,2.515-1.315,3.454c-0.123,0.932,0.073,1.676,0.499,2.301
						c0.848,1.25,2.574,2.012,4.279,2.734c3.416,1.433,6.719,2.782,2.718,7.696c0,0-2.168-1.772-4.335-3.546
						c-2.179-1.719-4.356-3.438-4.356-3.438s0.311,1.541,0.623,3.083c0.153,0.777,0.31,1.556,0.426,2.14
						c0.087,0.579,0.145,0.965,0.145,0.965l-7.664-3.186c2.154,3.665,2.662,5.933,2.203,7.876c-0.232,0.973-0.718,1.87-1.38,2.836
						c-0.663,0.966-1.617,1.969-2.632,3.204c2.646,0.139,5.711,1.32,7.905,3.176c2.195,1.849,3.516,4.393,2.726,7.1
						c-2.624,1.082-4.108-0.05-5.069-0.417c-0.98-0.378-1.522-0.07-2.466,3.717c-1.786-1.639-3.838-3.39-4.517-4.805
						c-0.341-0.71-0.329-1.334,0.22-1.836c0.523-0.513,1.596-0.899,3.432-1.13c-2.114-1.114-3.749-3.098-5.846-4.169
						c-2.96,1.002-3.904,3.153-4.465,5.332c-0.501,2.191-0.367,4.508-0.822,5.761c0.623-0.85,1.433-1.844,2.624-2.053
						c0,0,0.335,0.858,0.839,2.146c0.492,1.291,1.187,3.049,1.799,4.803c1.168,3.475,2.289,7.086,2.289,7.086
						c-3.196,0.479-4.598-1.729-5.995-3.826c-0.098,1.165,0.453,2.446,0.924,3.854c0.466,1.404,0.895,2.958,0.385,4.558
						c-4.906-3.343-10.354-5.834-11.101-10.999c0,0,0.115,0.736,0.29,1.842c0.178,1.111,0.415,2.606,0.545,4.069
						c0.299,2.988,0.598,5.978,0.598,5.978c-1.289-0.286-3.433,0.055-5.402,0.166c-1.951,0.125-3.846-0.037-4.461-1.097
						c-2.883,1.492-1.991,5.74-1.508,10.277c0.178,2.222,0.277,4.511-0.16,6.49c-0.446,1.971-1.366,3.673-3.429,4.51
						c0.717,0.962,1.161,2.216,0.919,4.008c-1.299,1.251-2.857,2.239-4.429,3.188c-1.633,0.904-3.306,1.747-4.743,2.805
						c-1.449,1.051-2.646,2.331-3.479,4.036c-0.878,1.669-1.331,3.809-1.187,6.723c0,0-2.761-0.837-5.477-1.724
						c-2.699-0.861-5.438-1.85-5.438-1.85c-1.278,3.06,2.184,4.251,5.503,5.872c3.307,1.64,6.464,3.703,4.007,9.159
						c-1.556,4.069-3.667,3.049-5.886,0.942c-2.209-2.088-4.534-5.148-6.531-5.282c0.513,3.175,1.407,7.892,0.72,11.733
						c-0.087,0.479-0.195,0.945-0.332,1.39c-0.151,0.43-0.331,0.84-0.541,1.224c-0.421,0.769-0.965,1.437-1.655,1.962
						c-1.382,1.049-3.355,1.526-6.085,1.059C441.258,636.658,443.669,636.634,444.833,634.594z M376.748,679.938
						c0.514-0.974,1.128-2.813,1.915-3.95c0.768-1.198,1.72-1.688,3.022,0.092c0.633,4.208,0.229,5.53-0.729,5.638
						C379.984,681.801,378.438,680.624,376.748,679.938z M247.901,701.874c1.848-1.963,3.469-0.426,5.057,2.767
						C251.22,704.834,249.425,704.194,247.901,701.874z M40.263,386.472c0.08,0.123,0.145,0.212,0.26,0.328
						C36.329,390.392,37.925,389.152,40.263,386.472z M46.563,378.36c-0.586-1.273-1.543-1.579-2.641-1.555
						c1.461,1.304,0.764,3.372-0.605,5.534C45.331,382.329,47.019,381.639,46.563,378.36z M573.673,412.336l-1.415,2.264
						C569.284,411.01,571.375,411.698,573.673,412.336z"/>
					<path stroke="#FFFFFF" stroke-miterlimit="10" d="M264.862,695.49c0.238,1.285,0.121,2.633-0.018,3.991
						C265.726,698.404,265.981,697.019,264.862,695.49z"/>
					<path stroke="#FFFFFF" stroke-miterlimit="10" d="M475.175,594.641c0.096-0.031,0.124-0.109,0.207-0.15
						c-0.277-0.354-0.599-0.661-0.932-0.938L475.175,594.641z"/>
					<path stroke="#FFFFFF" stroke-miterlimit="10" d="M92.657,515.816c-0.75,1.713-1.898,2.82-3.143,3.652
						C91.271,519.224,92.616,518.24,92.657,515.816z"/>
					<path stroke="#FFFFFF" stroke-miterlimit="10" d="M58.94,325.796c0,0-0.117,0.403-0.295,1.01
						c-0.184,0.604-0.41,1.413-0.605,2.242c-0.404,1.642-0.809,3.282-0.809,3.282c1.262-2.89,3.145-3.06,4.986-3.762
						C60.702,327.801,57.948,327.571,58.94,325.796z"/>
					<path stroke="#FFFFFF" stroke-miterlimit="10" d="M125.89,311.403c-0.096-1.186,1.105-1.299,1-2.49l-2.6-2.147
						C122.034,309.451,122.394,313.002,125.89,311.403z"/>
					<path stroke="#FFFFFF" stroke-miterlimit="10" d="M82.374,333.783c2.686,1.452,4.088,1.129,4.98-0.068
						c0.445-0.6,0.766-1.42,1.057-2.347c0.314-0.917,0.648-1.904,0.992-2.917c-0.125,0.214-0.219,0.435-0.422,0.595
						c-3.152-2.916-4.791-3.069-5.686-1.823C82.417,328.474,82.401,331.166,82.374,333.783z"/>
					<path stroke="#FFFFFF" stroke-miterlimit="10" d="M89.788,327.553c0.504-1.202,1.129-2.36,2.09-3.205
						C89.392,321.957,90.392,325.211,89.788,327.553z"/>
					<path stroke="#FFFFFF" stroke-miterlimit="10" d="M47.542,365.33c2.295-1.276-6.576-4.357-3.811-4.452
						c-3.037-2.687-2.391,1.573-0.787,4.853c0.783,1.638,1.867,3.062,2.752,3.3C46.569,369.263,47.286,368.349,47.542,365.33z"/>
					<polygon stroke="#FFFFFF" stroke-miterlimit="10" points="100.901,342.041 93.874,339.081 97.761,344.239 					"/>
					<path stroke="#FFFFFF" stroke-miterlimit="10" d="M80.714,365.965l4.715-4.643c-1.156-0.506-1.445-1.563-1.49-2.709
						C81.944,361.953,78.653,365.104,80.714,365.965z"/>
					<path stroke="#FFFFFF" stroke-miterlimit="10" d="M83.937,358.614c1.078-1.725,1.939-3.444,1.42-5.042
						C84.892,354.574,83.88,356.734,83.937,358.614z"/>
					<path stroke="#FFFFFF" stroke-miterlimit="10" d="M98.269,350.328c0,0-0.578,0.176-1.156,0.352
						c-0.584,0.176-1.15,0.363-1.15,0.363l-2.643,3.49c0,0,1.225-1.066,2.449-2.135C96.962,351.321,98.269,350.328,98.269,350.328z"
						/>
					<path stroke="#FFFFFF" stroke-miterlimit="10" d="M57.536,429.72l0.906,7.171c2.424,1.101,4.301-0.455,3.732-3.113
						C60.694,431.865,60.167,429.156,57.536,429.72z"/>
					<path stroke="#FFFFFF" stroke-miterlimit="10" d="M82.212,414.943c-1.973,1.234-3.623,0.906-6.283,1.213l8.943,2.604
						L82.212,414.943z"/>
					<path stroke="#FFFFFF" stroke-miterlimit="10" d="M79.995,433.388c1.213,0.564,2.637,3.148,3.865,4.568
						c1.227,1.423,2.254,1.726,2.643-2.14c-1.199-0.543-2.074-2.445-2.992-3.577c-0.445-0.562-0.922-0.931-1.498-0.835
						C81.425,431.501,80.753,432.061,79.995,433.388z"/>
					<path stroke="#FFFFFF" stroke-miterlimit="10" d="M69.446,530.257l-0.494-1.617l-14.891,3.407c0,0,3.85-0.436,7.697-0.872
						C65.603,530.716,69.446,530.257,69.446,530.257z"/>
					<path stroke="#FFFFFF" stroke-miterlimit="10" d="M133.911,590.903c-0.49-7.579-8.846,3.724-8.246-3.911
						c-1.932,0.225-2.15,1.832-2.174,3.348c-0.051,1.527-0.041,3.042-1.82,3.158C127.192,595.043,126.519,598,133.911,590.903z"/>
					<path stroke="#FFFFFF" stroke-miterlimit="10" d="M121.671,593.498c-0.877-0.255-1.893-0.479-3.156-0.614
						C120.001,593.433,120.937,593.534,121.671,593.498z"/>
					<path stroke="#FFFFFF" stroke-miterlimit="10" d="M322.475,195.621c0,0-0.355-0.227-0.892-0.564
						c-0.536-0.351-1.254-0.77-1.975-1.186c-1.451-0.836-2.902-1.674-2.902-1.674s0.906,1.31,1.811,2.617
						c0.89,1.31,1.777,2.617,1.777,2.617s0.542-0.476,1.087-0.915C321.928,196.068,322.475,195.621,322.475,195.621z"/>
					<path stroke="#FFFFFF" stroke-miterlimit="10" d="M310.989,206.572l-1.211-9.765c0,0-0.894,2.182-1.784,4.364
						c-0.864,2.183-1.729,4.366-1.729,4.366C307.542,205.135,310.054,204.351,310.989,206.572z"/>
					<path stroke="#FFFFFF" stroke-miterlimit="10" d="M359.6,664.795l0.345,2.339c1.3,2.265,2.289,2.182,4.273,2.037
						c0,0-1.166-1.092-2.331-2.184C360.745,665.89,359.6,664.795,359.6,664.795z"/>
					<path stroke="#FFFFFF" stroke-miterlimit="10" d="M413.268,648.735l-0.927,0.361c0,0,1.556,1.616,3.111,3.231
						c1.572,1.604,3.146,3.211,3.146,3.211L413.268,648.735z"/>
					<path stroke="#FFFFFF" stroke-miterlimit="10" d="M442.282,610.948c-0.774,0.529-1.143,1.571-1.599,2.541
						c-0.45,0.972-0.907,1.951-1.714,2.459C440.79,612.132,450.465,618.231,442.282,610.948z"/>
				</g>
			</g>
		</g>
	</g>
</g>
<text transform="matrix(1 0 0 1 123.9131 136.7146)" font-family="'MyriadPro-Regular'" font-size="60">Messormancy</text>
<g>
	<ellipse fill="#FFFFFF" cx="235.261" cy="402.952" rx="29.913" ry="42.272"/>
	<ellipse fill="#FFFFFF" cx="361.729" cy="402.952" rx="29.913" ry="42.272"/>
	<ellipse fill="#FFFFFF" cx="277.683" cy="500.256" rx="22.459" ry="31.74"/>
	<ellipse fill="#FFFFFF" cx="315.027" cy="500.256" rx="22.459" ry="31.74"/>
	<ellipse fill="#FFFFFF" cx="207.813" cy="594.318" rx="11.17" ry="15.785"/>
	<ellipse fill="#FFFFFF" cx="230.042" cy="594.318" rx="11.17" ry="15.785"/>
	<ellipse fill="#FFFFFF" cx="252.383" cy="594.318" rx="11.171" ry="15.785"/>
	<ellipse fill="#FFFFFF" cx="274.723" cy="594.318" rx="11.17" ry="15.785"/>
	<ellipse fill="#FFFFFF" cx="296.952" cy="594.318" rx="11.17" ry="15.785"/>
	<ellipse fill="#FFFFFF" cx="319.182" cy="594.318" rx="11.17" ry="15.785"/>
	<ellipse fill="#FFFFFF" cx="341.523" cy="594.318" rx="11.171" ry="15.785"/>
	<ellipse fill="#FFFFFF" cx="363.864" cy="594.318" rx="11.17" ry="15.785"/>
	<ellipse fill="#FFFFFF" cx="386.092" cy="594.318" rx="11.17" ry="15.785"/>
</g>
<g>
	<ellipse cx="208.021" cy="598.918" rx="11.17" ry="15.785"/>
	<ellipse cx="230.25" cy="598.918" rx="11.17" ry="15.785"/>
	<ellipse cx="252.59" cy="598.918" rx="11.17" ry="15.785"/>
	<ellipse cx="274.931" cy="598.918" rx="11.17" ry="15.785"/>
	<ellipse cx="297.16" cy="598.918" rx="11.17" ry="15.785"/>
	<ellipse cx="319.39" cy="598.918" rx="11.17" ry="15.785"/>
	<ellipse cx="341.731" cy="598.918" rx="11.171" ry="15.785"/>
	<ellipse cx="364.072" cy="598.918" rx="11.17" ry="15.785"/>
	<ellipse cx="386.3" cy="598.918" rx="11.17" ry="15.785"/>
</g>
</svg>
