<?xml version="1.0" encoding="utf-8"?>
<!-- Generator: Adobe Illustrator 16.0.0, SVG Export Plug-In . SVG Version: 6.00 Build 0)  -->
<!DOCTYPE svg PUBLIC "-//W3C//DTD SVG 1.1//EN" "http://www.w3.org/Graphics/SVG/1.1/DTD/svg11.dtd">
<svg version="1.1" id="Layer_1" xmlns="http://www.w3.org/2000/svg" xmlns:xlink="http://www.w3.org/1999/xlink" x="0px" y="0px"
	 width="595.28px" height="841.89px" viewBox="0 0 595.28 841.89" enable-background="new 0 0 595.28 841.89" xml:space="preserve">
<g>
	<circle fill="#FFFFFF" cx="289.641" cy="466.945" r="246.428"/>
	<g>
		<g>
			<g>
				<g>
					<path d="M291.713,749.845c-2.617-0.489-1.675,5.772-2.072,6.909C294.116,755.264,291.57,748.214,291.713,749.845z"/>
					<path d="M332.547,732.173l-0.317,2.659c0,0,1.245-1.816,2.491-3.633c1.21-1.812,2.42-3.623,2.42-3.623L332.547,732.173z"/>
					<path d="M370.027,723.497c-3.337-4.565-6.454-3.261-9.807-0.955c-0.835,0.595-1.692,1.206-2.554,1.819
						c-0.863,0.625-1.748,1.202-2.658,1.635c-1.812,0.896-3.68,1.394-5.552,0.849l-1.629-2.127c0,0-0.281,2.273-0.563,4.548
						c-0.306,2.279-0.61,4.559-0.61,4.559c1.992-0.806,4.072-1.914,6.156-3.096c2.08-1.196,4.183-2.387,6.175-3.636
						C362.994,724.676,366.773,722.922,370.027,723.497z"/>
					<path d="M397.947,738.062c-2.827-3.367,3.142-5.092-5.305,0.688c0.629,0.241,0.858,0.434,1.25,0.642
						C394.712,739.006,395.869,738.561,397.947,738.062z"/>
					<path d="M393.893,739.391C389.889,741.284,397.837,741.604,393.893,739.391L393.893,739.391z"/>
					<path d="M411.607,729.3l-3.738,5.774c2.096,1.757,7.116,0.094,6.086,2.521C418.635,733.231,416.365,731.576,411.607,729.3z"/>
					<path d="M413.107,719.957c0,0-0.475,0.683-0.949,1.366c-0.491,0.659-0.982,1.318-0.982,1.318
						C412.08,723.363,412.965,723.376,413.107,719.957z"/>
					<path d="M406.905,728.229l4.271-5.587c-1.493-1.22-3.019-4.339-2.08,2.265C408.217,721.821,408.408,725.082,406.905,728.229z"
						/>
					<path d="M403.026,728.186c-1.909-0.406-3.932-0.553-5.027-1.351c-1.098-0.794-1.186-2.071,0.62-4.891
						c-4.562,2.714-5.879,5.571-4.813,7.194c0.53,0.801,1.655,1.268,3.248,1.193C398.644,730.255,400.722,729.678,403.026,728.186z"
						/>
					<path d="M368.506,712.326c0,0-1.145-0.441-2.288-0.882c-0.566-0.212-1.145-0.472-1.572-0.651
						c-0.429-0.184-0.714-0.306-0.714-0.306l-2.155,4.344c0.55-1.081,2.529-0.891,4.243-0.83
						C367.725,714.036,369.13,713.874,368.506,712.326z"/>
					<path d="M445.994,716.91c-0.91-2.121-4.863-4.099-6.738-6.359c0,0-0.136,0.279-0.339,0.7c-0.206,0.418-0.472,0.991-0.764,1.526
						c-0.577,1.089-1.155,2.179-1.155,2.179C439.708,715.264,443.94,714.207,445.994,716.91z"/>
					<path d="M439.256,710.551l3.164-6.667C437.527,706.473,437.645,708.597,439.256,710.551z"/>
					<path d="M408.738,708.843c0,0-1.232,2.988-2.629,5.829c-1.408,2.893-2.816,5.786-2.816,5.786s1.877-3.133,3.659-6.229
						c0.906-1.524,1.739-3.155,2.369-4.346c0.622-1.194,1.037-1.991,1.037-1.991L408.738,708.843z"/>
					<path d="M466.564,703.197c0,0,0.015,0.402,0.036,1.006c0.014,0.599,0.031,1.396,0.05,2.194
						c0.024,1.604,0.049,3.207,0.049,3.207s0.16-2.564,0.319-5.129c0.084-2.592,0.167-5.185,0.167-5.185L466.564,703.197z"/>
					<path d="M478.791,692.265c0.721,5.143,7.625,3.184,7.149,7.143c2.975-3.613,3.478-8.958,3.731-13.759
						C488.25,689.496,484.874,691.717,478.791,692.265z"/>
					<path d="M490.471,678.11c-0.576,1.997-0.649,4.653-0.799,7.538C490.398,683.568,490.792,681.194,490.471,678.11z"/>
					<path d="M451.815,698.929c1.181,0.85,4.006,3.267,7.806,2.429l-5.756-3.769C453.24,697.997,452.533,698.46,451.815,698.929z"/>
					<path d="M453.676,697.472l0.189,0.117c2.242-1.425,3.826-2.377,4.513-2.777C457.792,695.158,456.379,695.972,453.676,697.472z"
						/>
					<path d="M451.295,699.262c0.194-0.119,0.339-0.204,0.521-0.333C451.262,698.549,451.026,698.456,451.295,699.262z"/>
					<path d="M425.302,706.605c0.66-2.443,2.076-5.401,2.189-7.882c0.121-2.485-1.069-4.483-5.416-5.132
						c0.052,2.5,1.31,3.939,2.351,5.648C425.46,700.953,426.285,702.933,425.302,706.605z"/>
					<path d="M444.309,694.393c0,0-0.378,0.155-0.945,0.389c-0.581,0.212-1.354,0.494-2.129,0.775
						c-1.544,0.558-3.089,1.114-3.089,1.114c1.02,1.356,3.356,2.789,2.823,5.246c0,0,0.854-1.878,1.708-3.757
						c0.416-0.934,0.833-1.867,1.146-2.567C444.114,694.873,444.309,694.393,444.309,694.393z"/>
					<polygon points="445.705,690.907 444.309,694.393 446.558,693.464 					"/>
					<path d="M477.933,681.454c0.164-1.989,0.785-3.531,1.661-4.909c0.851-1.405,1.921-2.684,3.043-4.051
						c-1.807,0.822-3.473,1.822-5.125,2.817c-1.646,1.001-3.176,2.108-4.557,3.314C473.889,680.481,474.997,684.3,477.933,681.454z"
						/>
					<path d="M465.975,689.125c0.064-0.236,0.218-0.45,0.271-0.679C465.601,688.264,465.247,688.318,465.975,689.125z"/>
					<path d="M506.365,647.436c-0.395-0.079-0.841-0.235-1.255-0.327c0.259,0.271,0.515,0.524,0.765,0.807L506.365,647.436z"/>
					<path d="M471.701,678.133c-2.916,0.887-3.154,3.162-3.114,5.737c1.186-1.872,2.599-3.644,4.368-5.244
						C472.536,677.787,472.174,677.307,471.701,678.133z"/>
					<path d="M495.447,669.049c-0.999,0.074-1.993,0.216-2.982,0.406c-1,0.179-2.02,0.382-3.023,0.624
						c1.229,0.216,2.965,0.388,4.252,0.258C494.978,670.206,495.858,669.826,495.447,669.049z"/>
					<path d="M468.107,689.235c-0.048,0.168-0.076,0.34-0.157,0.487C469.549,690.216,469.035,689.763,468.107,689.235z"/>
					<path d="M468.107,689.235c0.576-1.631,0.481-3.566,0.479-5.365c-1.019,1.458-1.841,2.977-2.342,4.576
						C466.805,688.583,467.513,688.902,468.107,689.235z"/>
					<path d="M480.33,614.092c2.222,1.979,3.416,5.085,2.962,7.798c-0.231,1.35-0.846,2.614-1.97,3.524
						c-1.149,0.887-2.766,1.453-4.892,1.475c-0.105,3.521,4.048,7.888,9.734,11.721c5.683,3.838,12.955,7.079,18.945,8.499
						c-1.898-1.82-3.577-3.32-2.449-10.476c-1.965-0.157-5.517,1.414-8.846,1.864c-3.29,0.497-6.119,0.051-6.511-3.603
						c0.703-1.999,1.443-3.184,2.161-3.935c0.72-0.749,1.496-0.996,2.347-1.025c1.702-0.061,3.699,0.76,6.147,0.187
						c-3.937-0.982-4.463-4.67-5.311-8.658c-0.788-3.973-2.135-8.392-6.981-10.922c0,0-0.043,0.474-0.107,1.185
						c-0.062,0.716-0.152,1.667-0.288,2.591c-0.257,1.875-0.513,3.751-0.513,3.751C483.354,617.117,482.666,613.62,480.33,614.092z"
						/>
					<path d="M496.562,655.987l-1.286,2.429c1.412-0.758,2.972-1.096,4.878-1.308c1.911-0.21,4.247-0.22,7.347-0.245
						c0.793-5.344-0.315-7.44-1.625-8.948c0,0-2.308,2.352-4.615,4.703c-1.154,1.17-2.309,2.34-3.175,3.217
						c-0.883,0.86-1.495,1.411-1.495,1.41L496.562,655.987z"/>
					<path d="M486.973,667.019c-0.762-1.514-1.163-3.029-1.487-4.51c-0.337-1.492-0.578-2.93-0.964-4.24
						c-0.768-2.626-2.128-4.728-5.904-5.838c-0.596,0.705-1.039,1.352-1.361,1.954c-0.335,0.59-0.559,1.126-0.683,1.643
						c-0.25,1.029-0.13,1.948,0.107,2.858c0.474,1.822,1.42,3.601,0.743,6.183c3.873-4.803,3.866-3.556,4.011-1.535
						c0.146,2.015,0.386,4.855,4.948,3.025c-1.016,2.493-2.403,4.283-3.746,5.936c2.187-1,4.457-1.82,6.805-2.415
						c-0.188-0.023-0.323-0.046-0.494-0.085l-0.028,0.058c-0.03-0.031-0.031-0.051-0.063-0.082c-0.962-0.194-1.435-0.422-0.66-0.514
						c-0.025-0.087,0.065-0.215,0.1-0.278c-0.569-0.701-0.948-1.423-1.298-2.134c3.58-1.584,1.602,0.79,1.298,2.134
						c0.19,0.255,0.334,0.543,0.561,0.792c0.035,0.018,0.063,0.021,0.091,0.024c0,0,0.421-0.709,1.053-1.773
						c0.633-1.061,1.395-2.55,2.184-3.998c1.546-2.903,3.092-5.807,3.092-5.807c-1.251,0.662-2.416,1.626-3.716,3.024
						c-0.649,0.699-1.333,1.507-2.078,2.44c-0.368,0.472-0.757,0.97-1.169,1.497C487.891,665.895,487.444,666.44,486.973,667.019z"
						/>
					<path d="M420.176,678.542c0.592,0.299,0.823,0.698,1.092,1.083C421.463,678.561,421.404,677.954,420.176,678.542z"/>
					<path d="M426.162,679.341c-0.204,1.201,0.597,3.759-2.048,4.661c-2.997-0.385-1.616-2.643-2.847-4.377
						c-0.409,2.321-2.431,6.972,3.594,6.934l0.227-1.188c2.541-0.31,6.181,0.411,9.21,1.323c3.024,0.914,5.42,2.031,5.311,2.63
						C435.172,685.264,431.826,682.487,426.162,679.341z"/>
					<path d="M455.547,673.705c0,0,0.362-0.538,0.906-1.345c0.544-0.804,1.271-1.868,1.936-2.995
						c1.347-2.214,2.693-4.428,2.693-4.428s-1.851-0.248-3.701-0.496c-1.83-0.266-3.661-0.532-3.661-0.532l2.344,2.418
						c-1.245,0.665-1.993,1.265-2.376,1.867c-0.377,0.606-0.387,1.217-0.2,1.83C453.857,671.25,455.013,672.48,455.547,673.705z"/>
					<path d="M509.633,648.569l4.316,5.446c0,0-0.795-2.724-1.722-5.48c-0.921-2.724-1.842-5.447-1.842-5.447
						s-0.183,1.368-0.365,2.735c-0.095,0.687-0.189,1.374-0.261,1.89C509.691,648.231,509.633,648.568,509.633,648.569z"/>
					<path d="M517.558,637.171l4.435,3.97c0,0-0.036-0.317-0.091-0.795c-0.066-0.484-0.155-1.129-0.244-1.774
						c-0.184-1.282-0.368-2.564-0.368-2.564L517.558,637.171z"/>
					<path d="M182.271,285.546l-1.136,2.595C181.804,287.146,182.13,286.322,182.271,285.546z"/>
					<path d="M197.207,277.912l-0.916-2.815C196.298,276.906,196.545,278.113,197.207,277.912z"/>
					<path d="M530.95,317.612c2.292-6.72,6.563-15.962,1.312-11.779l-4.657,4.78C530.306,312.659,531.027,315.132,530.95,317.612z"
						/>
					<path d="M337.83,226.777c0.24,0.697,0.489,1.422,0.736,2.14c1.393-1.975,2.704-3.834,3.876-5.496
						C341.025,224.477,339.469,225.521,337.83,226.777z"/>
					<path d="M330.134,252.759c0,0-0.951-1.235-1.901-2.47c-0.973-1.24-1.945-2.48-1.945-2.48
						C327.086,249.44,328.323,251.084,330.134,252.759z"/>
					<path d="M121.454,351.689c0,0,0.99,1.461,1.98,2.923c1.026,1.46,2.053,2.92,2.053,2.92
						C127.673,354.229,123.975,353.796,121.454,351.689z"/>
					<path d="M568.814,507.066c3.016-3.517,4.474-6.531,5.128-9.239C569.637,502.184,563.613,505.075,568.814,507.066z"/>
					<path d="M154.639,221.782c-1.066,1.969-1.104,3.52-0.344,4.755C155.407,224.616,155.759,222.98,154.639,221.782z"/>
					<path d="M574.878,486.45c-0.702,0.65-1.083,1.307-1.684,1.969c0.436,1.474,0.815,2.957,0.999,4.508
						c0.175,1.55,0.207,3.172-0.251,4.9c1.638-1.594,2.856-3.388,3.229-5.313C577.534,490.592,576.987,488.533,574.878,486.45z"/>
					<path d="M172.608,640.488c0.036,0.377,0.204,0.644,0.197,1.049C173.357,640.845,173.099,640.633,172.608,640.488z"/>
					<path d="M253.027,739.414c-1.288,0.241-3.309-0.011-5.224-0.17C248.661,739.805,250.234,739.965,253.027,739.414z"/>
					<path d="M548.916,590.8C548.009,593.659,549.381,591.545,548.916,590.8L548.916,590.8z"/>
					<path d="M519.742,591.397c-0.381-0.86-1.003-1.686-2.296-2.454C518.728,589.879,519.434,590.685,519.742,591.397z"/>
					<path d="M534.888,458.495c-0.002-0.074,0.019-0.134,0.017-0.22C533.649,459.072,533.888,458.934,534.888,458.495z"/>
					<path d="M544.271,593.476c1.214-0.628,2.398-1.469,3.441-2.511C546.99,591.295,545.896,592.042,544.271,593.476z"/>
					<path d="M547.299,594.311c-0.728,0.781-1.237,1.426-1.742,2.026C546.352,597.162,547.115,597.17,547.299,594.311z"/>
					<path d="M550.308,586.888c-0.607,1.588-1.542,2.899-2.595,4.077c0.638-0.338,1.069-0.402,1.203-0.165
						C549.184,589.963,549.574,588.79,550.308,586.888z"/>
					<path d="M64.941,496.726c-0.184,0.18-0.292,0.374-0.547,0.578C67.368,499.278,66.812,498.313,64.941,496.726z"/>
					<path d="M436.668,308.489c0.121,0.024,0.276-0.061,0.399-0.054c-0.03-0.121-0.065-0.276-0.085-0.396L436.668,308.489z"/>
					<path d="M427.511,306.829c7.825-3.903,8.821-1.865,9.472,1.21c0,0,2.689-3.919,5.379-7.837
						c1.326-1.976,2.653-3.951,3.648-5.433c0.978-1.479,1.63-2.465,1.63-2.465s-5.149,3.529-10.176,7.166
						C432.425,303.097,427.511,306.829,427.511,306.829z"/>
					<path d="M151.072,310.647c0,0,1.985,0.215,3.971,0.43c1.955,0.237,3.91,0.474,3.91,0.474c0.699,5.774-0.24,8.661-0.282,10.541
						c-0.024,0.929,0.229,1.644,1.007,2.263c0.774,0.617,2.142,1.205,4.391,1.986c-3.268-3.906-4.043-6.768-3.546-9.144
						c0.506-2.362,2.201-4.291,4.07-5.999c1.833-1.761,3.653-3.529,4.31-5.922c0.718-2.304,0.283-5.269-2.534-9.511
						c0,0,1.358,0.349,2.716,0.698c1.343,0.359,2.685,0.718,2.685,0.718c-0.942,0.43-0.384,1.506-1.316,1.918
						c2.812,0.993,3.91,0.574,4.174-0.695c0.252-1.28-0.314-3.364-0.914-5.661c-1.229-4.599-2.558-10.149,2.169-11.469
						c3.606-0.392,7.049,1.138,6.39,4.271c0,0,0.902-1.97,1.804-3.94c0.936-1.995,1.872-3.989,1.872-3.989
						c0.998-0.363,1.825,0.34,2.134,1.174c0.302,0.826,0.123,1.835-0.855,2.182c-0.001,0,0.528-0.439,1.348-1.059
						c0.834-0.596,1.945-1.39,3.058-2.185c2.235-1.605,4.47-3.209,4.47-3.209l0.191,0.577c-0.025-1.817,0.266-4.16,0.665-6.42
						c0.397-2.258,0.909-4.421,1.298-5.75c3.811,1.483-0.43,2.567,1.291,4.577c0,0,0.912-1.768,1.824-3.536
						c0.47-0.891,0.938-1.782,1.29-2.45c0.368-0.647,0.613-1.08,0.613-1.08c2.213,1.971,2.569,4.614,1.919,6.863
						c-0.632,2.316-2.268,4.259-4.321,4.772c6.753,8.114,7.193,6.486,8.14,3.505c0.478-1.44,1.06-3.207,2.506-4.204
						c1.443-0.976,3.742-1.267,7.523,0.511c0,0-0.27,0.263-0.676,0.658c-0.394,0.418-0.919,0.975-1.444,1.532
						c-1.038,1.106-2.075,2.213-2.075,2.213c1.872,2.367,3.394,3.813,4.76,4.717c1.364,0.903,2.566,1.247,3.825,1.54
						c2.489,0.539,5.105,0.455,8.902,2.955c-1.194-1.576-5.329-4.958-8.865-8.733c-3.509-3.784-6.373-7.954-4.115-11.389
						c2.271,0.875,4.688,0.776,6.844-4.223c2.179,6.909,4.874,4.312,8.853,2.744l2.219,9.344c0.871-0.964,1.43-2.005,1.814-3.04
						c0.388-1.025,0.588-2.101,0.726-3.212c0.276-2.224,0.295-4.588,1.129-6.998c5.272-0.25,7.777,6.771,10.109,12.756
						c3.924,0.085,2.103-2.622,0.3-5.75c-1.794-3.134-3.606-6.679,1.042-8.424c1.847,0.602,3.463,0.759,4.979,0.542
						c1.527-0.153,2.96-0.641,4.405-1.453c2.895-1.601,5.841-4.518,9.826-7.609c2.593,1.46,2.462,2.94,1.972,4.379
						c-0.497,1.439-1.357,2.835-0.398,4.14c0,0,0.919-1.99,1.838-3.979c0.957-1.994,1.914-3.987,1.914-3.987
						c1.076,0.099,0.855,2.474,0.752,3.672c1.719-1.633,1.699-3.948,1.931-6.33c0.238-2.358,0.744-4.676,3.709-6.054
						c0.33-2.651,1.315-3.032,2.689-2.302c0.686,0.365,1.468,1.007,2.31,1.782c0.42,0.399,0.856,0.814,1.307,1.243
						c0.446,0.456,0.906,0.926,1.377,1.408c1.877,1.893,3.872,3.742,5.865,4.376c1.996,0.651,4.001,0.001,5.995-2.802
						c1.614,2.858-1.206,5.804-0.867,9.554c5.033-3.553,7.317-4.823,9.374-6.446c2.087-1.597,3.926-3.425,8.811-8.167
						c0,0,1.56,1.783,3.118,3.566c0.771,0.866,1.513,1.849,2.071,2.535c0.555,0.7,0.924,1.167,0.924,1.167
						c-1.953-4.014-1.063-7.848,1.358-11.382c2.409-3.537,6.358-6.776,10.185-9.649c-1.304-3.766-2.497-7.075-3.419-8.712
						c0,0,2.835-0.8,5.671-1.601c1.436-0.427,2.853-0.698,3.934-0.963c1.08-0.247,1.8-0.411,1.8-0.411
						c0.921,1.828-0.878,4.796-3.373,8.332c0.854-0.615,1.678-1.229,2.348-1.818c2.854,4.296-0.369,9.236-3.959,13.909
						c-0.761-2.115-1.512-4.366-2.265-6.595c-3.637,5.272-6.967,11.234-7.507,16.843c0.798-0.981,2.136-1.71,3.521-2.008
						c-0.911,1.445-1.558,2.766-1.47,3.755c0.112,1.067,1.479-0.92,3.477-2.937c0,0-0.04,2.735-0.08,5.47
						c-0.065,2.729-0.13,5.458-0.13,5.458l1.404-4.035c0,0,2.51,2.294,5.02,4.589c1.244,1.102,2.42,2.386,3.312,3.271
						c0.882,0.904,1.471,1.507,1.471,1.507c2.722-2.02,5.55-4.364,8.514-6.697c2.936-2.24,6.018-4.499,9.281-6.489
						c1.632-0.995,3.309-1.923,5.034-2.748c1.718-0.807,3.454-1.428,5.254-1.953c1.797-0.514,3.641-0.888,5.531-1.085
						c1.89-0.197,3.837-0.246,5.763,0.061c-3.262,2.829-4.659,5.709-5.774,8.918c-1.107,3.212-1.928,6.754-3.846,10.986
						c0.227-5.303-2.794-5.285-6.4-4.556c-1.817,0.388-3.773,0.91-5.673,1.177c-1.908,0.287-3.719,0.206-5.228-0.833
						c3.158,2.158,0.895,6.068-0.459,7.244c0,0,0.908-0.285,2.271-0.711c0.688-0.21,1.491-0.456,2.352-0.719
						c0.857-0.224,1.772-0.462,2.687-0.701c3.674-0.95,7.484-1.859,7.484-1.859c-1.577,3.464-1.502,5.024-0.822,6.22
						c0.676,1.205,1.932,2.158,2.75,4.241c1.922-7.375,5.045-8.704,8.632-8.403c0.892,0.076,1.813,0.241,2.732,0.454
						c0.904,0.251,1.826,0.508,2.727,0.758c1.818,0.471,3.624,0.776,5.339,0.359c-2.072,4.605-5.558,8.617-10.503,4.703
						c0.544,6.641,4.376,3.646,8.552,0.587c4.152-3.132,8.53-6.13,9.19-0.216c-1.422-0.674-1.782-1.777-3.565,0.153
						c2.667-1.049,5.556,0.344,7.216,2.305c1.656,1.985,1.982,4.646-0.037,5.931l-1.342-0.742c1.91,1.76,4.476,3.681,7.4,5.421
						c2.885,1.801,6.019,3.588,9.296,4.783c1.656,0.575,3.212,1.188,4.818,1.546c1.592,0.376,3.175,0.58,4.712,0.563
						c3.077-0.042,5.963-0.937,8.292-3.101c-0.988,1.317-10.864,10.926-12.96,12.589c0,0,0.645-0.347,1.773-0.954
						c1.129-0.601,2.719-1.419,4.663-2.401c3.878-1.96,9.142-4.5,14.552-6.914c5.436-2.457,10.88-4.636,15.043-6.227
						c4.161-1.593,6.995-2.598,6.995-2.598c-4.467,3.311-9.938,10.894-15.77,17.308c-5.813,6.43-11.914,11.772-16.99,11.202
						c0.324,1.389,0.692,2.911,1.761,4.159c1.064,1.258,2.876,2.186,5.943,2.679c0.004-1.128,2.121-4.65,4.491-7.803
						c2.35-3.127,5.024-5.912,6.2-5.396c-2.092,6.652-2.556,8.53-2.687,10.43c-0.071,0.943-0.072,1.879-0.206,3.362
						c-0.137,1.482-0.375,3.492-1.116,6.663c0.09-1.696,3.74-4.938,7.688-7.282c3.942-2.351,8.225-3.757,9.387-1.997
						c-2.362,1.199-12.652,11.302-14.925,11.408c0,0,4.738-0.97,9.614-1.789c2.446-0.424,4.813-0.728,6.646-0.981
						c1.826-0.234,3.043-0.391,3.043-0.391c-3.955-0.118-11.399,8.632-13.877,13.196c0.995-1.407,2.206,0.26,3.529,2.386
						c1.269,2.168,2.523,4.859,3.952,5.399l0.823-5.596c1.062,2.601,3.182,3.57,5.899,3.781c1.354,0.107,2.875,0.007,4.44-0.161
						c1.557-0.161,3.198-0.417,4.858-0.67c3.32-0.505,6.715-0.994,9.646-0.683c2.912,0.318,5.453,1.392,6.709,4.127
						c-1.864,0.255-6.897,2.253-11.32,4.974c-4.424,2.718-8.274,6.099-7.833,9c2.184-0.536,5.88-1.487,10.407-2.452
						c4.521-0.962,9.923-1.958,15.294-2.506c5.404-0.569,10.931-0.768,15.829-0.318c2.434,0.23,4.771,0.592,6.738,1.191
						c1.976,0.596,3.692,1.376,5.049,2.357l-3.584,4.055c0,0,2.195,1.446,4.391,2.892c1.121,0.726,2.162,1.497,2.959,2.073
						c0.797,0.58,1.327,0.966,1.327,0.966c-6.962-0.194-18.465-0.916-29.408-1.398c-5.433-0.278-11.023-0.386-15.865-0.543
						c-4.876-0.145-9.085-0.306-12.24-0.555c-1.585,5.413-4.621,3.743-1.528,8.784c-3.208,3.885-7.707,0.372-8.687-0.968
						c0,0,0.838,3.274,1.676,6.549c0.456,1.606,0.742,3.282,0.998,4.513c0.248,1.232,0.413,2.053,0.413,2.053
						c4.472-2.358,7.827-1.074,11.056,0.417c3.108,1.525,6.037,3.264,9.853,1.472c0,0-0.959-0.652-2.396-1.629
						c-0.713-0.479-1.546-1.038-2.438-1.637c-0.93-0.567-1.921-1.172-2.912-1.777c-3.96-2.396-7.813-4.615-7.813-4.616
						c4.409-2.46,11.73-3.61,18.436-2.559c1.675,0.259,3.308,0.652,4.841,1.181c1.528,0.531,2.985,1.187,4.171,2.024
						c2.419,1.652,4.177,3.857,4.756,6.537c-1.37,1.992-5.773,3.058-10.187,3.879c-4.417,0.813-8.838,1.393-10.367,2.098
						c0.928-0.016,1.994,0.376,3.047,1.008c1.061,0.629,2.101,1.501,2.881,2.464c1.606,1.909,2.514,4.046,1.494,4.868
						c0,0-1.616-0.572-3.232-1.144c-1.606-0.547-3.213-1.095-3.213-1.095c-0.925,3.204,2.943,4.202,6.218,5.708
						c3.238,1.482,5.7,3.557,2.004,8.054c-0.017,1.204-2.607,3.667-4.658,5.664c-2.026,1.998-3.313,3.511-0.366,3.01
						c10.405-6.12,44.583-16.248,53.676-15.295c-0.265,0.575-2.096,4.853-4.516,9.344c-0.608,1.125-1.233,2.261-1.914,3.37
						c-0.704,1.114-1.426,2.193-2.146,3.19c-1.441,1.996-2.875,3.662-4.142,4.652c-4.063,2.916-9.654,2.185-15.067,1.547
						c-5.418-0.667-10.656-1.25-14.176,1.091c2.728-0.385,6.45,1.136,7.688,1.859c-1.873,2.866-8.591,0.446-6.415,5.489
						c10.238-0.645,0.531,11.07,8.88,1.282c1.786,2.487,1.45,4.009,0.817,5.646c-0.642,1.646-1.499,3.403-1.088,6.534
						c3.215-1.296,8.916-0.42,14.25,1.673c2.667,1.042,5.241,2.383,7.358,3.841c1.052,0.729,2.021,1.485,2.773,2.246
						c0.745,0.76,1.332,1.521,1.716,2.255c-2.607-0.241-5.955,1.22-7.483,1.896c-0.155,2.979-0.553,5.611-1.057,8.042
						c-0.587,2.431-1.344,4.66-2.034,6.848c-0.714,2.188-1.336,4.335-1.922,6.604c-0.638,2.265-1.127,4.655-1.354,7.353
						c-1.271,0.396-2.751,1.818-4.437,2.79c-1.672,0.978-3.63,1.489-5.688,0.205c1.625,1.659,4.88,3.424,4.715,6.72
						c-9.554,5.054-0.459-7.297-11.604-3.849c2.926,0.535,4.702,2.8,6.131,5.62c0.693,1.404,1.389,2.958,1.938,4.464
						c0.567,1.509,1.151,2.996,1.861,4.304c2.323,0.041,3.715-0.599,4.451-1.666c0.733-1.067,0.845-2.552,0.431-4.204
						c-0.762-3.308-3.077-7.151-4.626-9.639c6.294,0.656,12.479,3.369,17.597,7.736c2.538,2.176,4.901,4.771,6.713,7.65
						c1.788,2.875,3.179,6.057,4.063,9.412c0.339,2.599-0.052,4.076-0.856,4.823c-0.779,0.754-1.883,0.803-2.971,0.595
						c-2.174-0.419-4.288-1.845-3.596-0.835c-1.563,4.321-1.215,7.721-0.029,10.686c1.075,2.93,3.015,5.412,4.764,7.789
						c1.748,2.376,3.301,4.645,3.591,7.123c0.296,2.473-0.875,5.113-4.291,8.152c-4.824,1.672-8.608,0.338-11.96-1.393
						c-3.348-1.744-6.262-3.895-9.214-4.241c-0.232-4.116,1.947-6.436,4.289-8.482c2.27-2.055,4.803-3.786,5.369-6.372l-5.428,5.142
						c-1.893-3.145-2.492-8.487,0.521-10.549c-2.084,0.712-3.706,2.79-5.122,5.676c-0.714,1.442-1.356,3.094-2.016,4.87
						c-0.729,1.754-1.447,3.643-2.181,5.593c-0.746,1.947-1.455,3.977-2.307,5.958c-0.895,1.966-1.834,3.92-2.84,5.783
						c-0.503,0.933-1.022,1.841-1.562,2.718c-0.534,0.879-1.093,1.723-1.734,2.497c-1.25,1.563-2.583,2.956-4.016,4.099
						c1.511,3.218,2.336,8.185,6.063,7.813l0.74-4.374c3.771-0.447,4.993,2.309,5.86,4.796c0.873,2.473,1.404,4.648,3.946,2.72
						c0.226,0.94,0.454,1.896,0.688,2.867c0.225,0.974,0.429,1.959,0.626,2.964c0.388,2.008,0.693,4.071,0.724,6.104
						c0.028,2.032-0.212,4.037-0.925,5.901c-0.782,1.826-2.028,3.517-3.911,4.947l-8.766-3.211c2.395,1.223,7.543-2.11,6.265-5.544
						c0.921,2.523-3.454,3.869-6.897,5.616c-1.732,0.877-3.221,1.878-3.797,3.239c-0.61,1.341-0.266,3.073,1.76,5.492
						c0,0,2.159-0.42,4.319-0.839c1.093-0.212,2.166-0.446,2.953-0.637c0.797-0.187,1.328-0.311,1.328-0.311
						c0.242,1.95,0.61,4.106,0.959,6.37c0.355,2.267,0.69,4.642,0.785,6.952c0.078,2.299-0.016,4.581-0.684,6.521
						c-0.664,1.942-1.777,3.627-3.532,4.843c4.763,1.138,4.837,0.584,5.2-0.044c0.365-0.649,1.043-1.327,7.106-0.781
						c-6.85-1.581-3.897-5.881-1.264-9.899c1.315-2.016,2.586-3.955,2.464-5.438c-0.142-1.502-1.582-2.455-5.558-2.573
						c6.743,0.712,9.161-0.9,11.497-2.788c2.341-1.914,4.624-4.074,11.05-5.196c-2.801-1.188-6.407-0.215-1.923-5.689
						c-0.647-0.679-1.32-1.841-1.699-2.549c0.168-0.151,0.247-0.194,0.414-0.313c-0.167,0.07-0.332,0.104-0.493,0.177
						c-0.271-0.467-0.345-0.532-0.176,0.071c-1.929,0.863-3.949,1.303-5.693,0.997c-2.351-3.1-2.215-6.9-1.88-10.587
						c0.294-3.706,0.957-7.23,0.024-9.546c2.916-2.96,2.521,2.876,6.361,2.231c0,0-0.692-1.746-1.385-3.492
						c-0.754-1.744-1.509-3.488-1.509-3.488c3.208,1.051,6.762-0.327,9.562-0.751c2.793-0.412,4.834,0.148,4.89,5.374l3.463-7.976
						c2.714-1.719,4.87-4.221,6.318-6.878c1.404-2.673,2.071-5.507,1.323-8.026c2.558-3.612-4.328-12.03-0.223-7.171
						c0,0-0.02-0.89-0.049-2.224c-0.041-1.334-0.052-3.095-0.146-4.866c-0.251-3.531-0.502-7.063-0.502-7.063l1.67,0.256
						c2.05-6.404,0.366-13.741,0.249-20.823c-0.473-7.185,0.618-14.123,7.118-21.271c-0.684-2.308-1.438-4.636-1.767-7.298
						c-0.418-2.667-0.379-5.663,0.667-9.379l5.864-1.388c-0.873-2.93,0.424-7.3,1.283-11.327c0.846-4.017,1.223-7.656-1.957-8.733
						c3.799-1.796,5.775-4.554,6.625-7.833c0.425-1.64,0.568-3.407,0.518-5.244c-0.085-1.835-0.44-3.733-0.863-5.65
						c-0.432-1.916-0.971-3.848-1.524-5.746c-0.562-1.898-1.094-3.77-1.702-5.548c-1.146-3.567-1.98-6.839-1.767-9.563l-7.54,1.067
						c-0.104-0.879-0.247-1.747-0.43-2.605c-0.218-0.853-0.473-1.697-0.762-2.537c-0.578-1.681-1.295-3.347-2.129-5.03
						c-0.835-1.684-1.788-3.385-2.841-5.139c-1.093-1.744-2.36-3.52-3.675-5.392l-6.336,2.304
						c-3.678-2.739-3.646-7.504-3.691-12.973c0.023-2.744,0.135-5.688-0.043-8.631c-0.25-2.915-0.865-5.801-2.086-8.45
						c2.678-0.221,3.15,2.818,2.46,5.311c2.282-4.582,2.053-8.457,0.559-11.805c-1.586-3.317-4.529-6.065-7.495-8.664
						c-2.918-2.63-6.194-4.951-8.322-7.69c-2.153-2.733-3.22-5.86-2.427-9.919c-3.695-1.529-4.083-3.874-3.736-6.657
						c0.159,0.246,0.397,0.41,0.692,0.496c-0.092-0.32-0.319-0.743-0.578-1.162c0.316-1.811,0.699-3.733,0.759-5.621
						c-0.673,1.99-1.123,3.745-1.126,5.029c-1.339-2.03-4.1-4.67-7.428-6.775l5.208-5.253c-0.24-0.198-0.358-0.409-0.63-0.601
						c0.252-4.527-4.386-0.491-7.894,4.097c-1.929-0.866-4.099-1.359-6.244-1.396c3.985-4.459,1.805-5.835-0.333-7.31
						c-1.071-0.742-2.136-1.515-2.453-2.766c-0.343-1.233,0.036-2.928,1.903-5.593c-3.158,0.884-6.827-1.945-11.065-4.119
						c-4.378-2.066-9.301-3.435-14.657,0.124c1.171-1.188,1.102-2.476,2.388-1.149c-1.341-3.879-3.005-7.656-7.964-7.648
						l5.485-7.556c0,0-3.704,0.592-7.335,1.262c-3.696,0.72-7.329,1.528-7.329,1.528c0.301-7.447,0.817-11.441,9.472-12.96
						c-4.17-0.214-6.832-0.539-8.79-0.902c-1.989-0.324-3.229-0.725-4.421-1.09c-2.378-0.701-4.592-1.37-11.939-0.497l4.164-4.28
						c-1.539-1.069-4.724-0.974-7.32-1.229c-2.603-0.26-4.629-0.881-4.03-3.528c0.051-3.491-2.04-6.793-5.33-10.169
						c-0.828-0.834-1.713-1.702-2.697-2.518c-0.994-0.802-2.052-1.606-3.16-2.416c-2.216-1.619-4.631-3.262-7.143-4.946
						c-2.579-1.574-5.255-3.192-7.928-4.887c-1.346-0.831-2.651-1.754-4.018-2.569c-1.357-0.831-2.703-1.687-4.025-2.572
						c-1.322-0.886-2.622-1.801-3.888-2.753c-1.263-0.958-2.493-1.949-3.722-2.895c-2.435-1.94-4.691-4.053-6.69-6.391
						c-1.58,8.894-3.055,6.019-5.012,2.536c-1.982-3.424-4.544-7.596-7.384-1.433c0.336-4.307-1.768-7.642,2.891-9.677
						c-1.518-0.05-2.862-0.278-4.084-0.626c-1.229-0.328-2.354-0.724-3.385-1.212c-2.067-0.962-3.811-2.175-5.533-3.135
						c-1.729-0.936-3.404-1.717-5.375-1.551c-1.959,0.14-4.16,1.049-6.814,3.265c-0.13-4.354,4.021-5.162,3.583-7.837
						c-1.157,0.599-4.505,2.459-5.012-0.248c-0.499-2.698,2.543-2.891,4.835-4.112c-2.946-0.655-5.437-0.394-7.543,0.556
						c-2.127,1.021-3.867,2.702-5.335,4.809c-2.934,4.214-4.799,10.123-6.54,15.858c-2.075-3.383-3.909-5.055-5.873-5.014
						c-1.98,0.123-4.101,1.937-6.761,5.445c-1.16-4.18-3.78-8.808,3.355-8.96c-0.941-0.314-2.825-1.088-5.171-1.926
						c-1.172-0.419-2.459-0.854-3.798-1.254c-1.347-0.344-2.746-0.641-4.129-0.86c-5.543-0.87-10.785-0.437-11.427,4.401
						c-0.981-2.516-5.359-1.125-6.441-0.097c-2.153-0.306-3.814-0.592-5.23-0.845c-1.416-0.232-2.588-0.363-3.757-0.492
						c-2.338-0.235-4.673-0.285-8.941,0.067l2.343,1.625c-1.752,5.764-3.437,6.283-5.596,5.75c-2.146-0.575-4.788-2.409-8.141-1.626
						l0.15-1.191c-3.962-2.038-6.406-2.578-8.023-2.631c-1.621-0.043-2.427,0.482-3.223,0.971c-0.797,0.488-1.582,0.938-3.186,0.749
						c-0.801-0.09-1.81-0.361-3.132-0.827c-1.319-0.429-2.955-1.079-5.037-2.015l1.683,7.037c0.184,7.776-3.268,5.913-8.02,3.018
						c-2.365-1.409-5.043-2.957-7.649-3.757c-2.6-0.782-5.122-0.782-7.022,1.088c0,0,0.994,0.858,1.988,1.717
						c0.983,0.867,1.967,1.734,1.967,1.734c-1.867,2.96-6.105-1.422-10.893-6.646c-4.746-5.211-10.071-11.314-12.853-11.464
						c-1.454-0.976,1.181-2.611,2.514-3.952c-3.938-1.332-5.899-1.302-6.722-0.575c-0.824,0.743-0.517,2.249-0.008,4.064
						c1.026,3.629,2.807,8.511-1.659,10.923c-1.619-2.18-1.987-5.436-2.784-8.031c-0.401-1.297-0.915-2.427-1.771-3.167
						c-0.856-0.744-2.06-1.105-3.795-0.751c-2.29-1.394-5.923,4.151-10.154,9.257c-2.092,2.654-4.355,5.193-6.859,6.719
						c-1.253,0.763-2.568,1.274-3.965,1.423c-1.38,0.188-2.831,0.037-4.391-0.601c3.473,2.734,6.76,5.542,3.775,10.115
						c-1.451,1.039-3.623,1.196-6.116,1.086c-1.244-0.049-2.578-0.19-3.915-0.28c-1.327-0.07-2.678-0.132-3.991-0.116
						c-5.229,0.087-10.021,1.33-9.739,8.387c-1.299-0.488-2.101-1.21-2.611-2.04c-0.791,1.372-1.974,2.893-3.283,4.514
						c-1.312,1.62-2.762,3.322-4,5.204c-2.52,3.701-4.495,7.588-3.95,11.216c-4.49-4.557-8.002-4.863-10.993-3.243
						c-2.977,1.643-5.377,5.213-7.344,8.922c-1.008,1.828-1.96,3.633-2.93,5.171c-0.967,1.542-1.976,2.791-3.017,3.631
						c-2.114,1.63-4.714,1.251-8.44-3.101c0,0-0.738,0.741-1.845,1.852c-1.091,1.127-2.609,2.555-4.009,4.107
						c-2.801,3.09-5.602,6.181-5.602,6.181l-1.313-1.977c-1.101,0.789-2.047,1.584-2.856,2.382
						c-0.803,0.805-1.425,1.656-1.955,2.479c-1.051,1.659-1.633,3.308-1.896,4.941c-0.516,3.279,0.19,6.447,1.035,9.66
						c-2.73,0.765-3.18-1.979-3.936-2.94c-6.759,4.28-10.364,6.936-11.887,10.772c-0.795,1.893-1.143,4.032-1.203,6.743
						c-0.019,1.364-0.015,2.833,0.136,4.549c0.143,1.711,0.346,3.605,0.596,5.715l-6.813-3.247c0.373,1.339-0.829,2.705-2.888,4.304
						c-1.051,0.792-2.241,1.69-3.539,2.669c-1.312,0.98-2.742,2.048-4.198,3.223c-1.453,1.176-2.944,2.452-4.343,3.858
						c-1.339,1.443-2.604,3.007-3.697,4.694c-1.093,1.687-2.011,3.497-2.652,5.427c-0.659,1.92-0.882,4.047-0.812,6.233
						c-0.679-0.522-1.814-1.469-2.18-3.05c-0.029,2.441-0.619,4.679-1.6,6.787c-0.49,1.054-1.078,2.074-1.741,3.07
						c-0.625,1.014-1.312,2.011-2.059,2.986c-2.943,3.914-6.919,7.501-9.842,11.259c-1.504,1.857-2.848,3.707-3.833,5.552
						c-0.492,0.923-0.898,1.843-1.184,2.764c-0.251,0.934-0.389,1.865-0.39,2.792c-0.005,3.714,2.191,7.355,8.137,10.907
						c0,0,0.175,0.789,0.436,1.973c0.239,1.173,0.666,2.761,1.086,4.331c0.851,3.107,1.701,6.214,1.701,6.214
						c2.945-6.522,5.599-5.104,8.283-2.718c2.68,2.406,5.413,5.724,8.319,3.722c0.053,2.723-2.83,5.399-5.7,6.676
						c-1.421,0.637-2.796,0.921-3.846,0.609c-1.026-0.306-1.769-1.224-1.631-2.908l1.593-0.653
						c-3.242-1.499-5.456-1.306-7.108-0.165c-1.64,1.14-2.583,3.244-3.456,5.438c-0.861,2.199-1.599,4.5-2.704,6.11
						c-1.126,1.605-2.473,2.563-4.836,2c-0.547,3.522-1.216,7.006-1.978,10.469c-0.702,3.472-1.326,6.948-2.109,10.403
						c-0.358,1.731-0.826,3.452-1.137,5.188c-0.341,1.736-0.681,3.47-1.02,5.199c-0.358,1.736-0.716,3.47-1.072,5.2
						c-0.175,0.867-0.381,1.733-0.532,2.602l-0.433,2.606c-0.574,3.494-1.146,6.975-1.716,10.44
						c-0.457,3.483-0.784,6.971-1.108,10.455c-0.141,1.741-0.331,3.484-0.386,5.222c-0.045,1.737-0.071,3.473-0.075,5.205
						s0.014,3.462,0.057,5.187c0.036,1.725,0.103,3.444,0.308,5.147c0,0,2.631-1.067,5.262-2.134
						c2.656-1.038,5.313-2.076,5.313-2.076s0.001,0.145,0.004,0.396s-0.001,0.613,0.031,1.044c0.049,0.862,0.113,2.012,0.179,3.162
						c0.134,2.304,0.267,4.608,0.267,4.608c-2.227,2.73-8.084,4.474-8.491-2.333c-2.863,2.141-1.205,4.857,1.457,6.902
						c2.619,2.063,6.468,3.42,7.633,3.321c-1.063,6.718-4.416,6.123-7.486,4.155c-3.065-1.947-5.83-5.241-5.601-3.176l1.792,5.406
						l1.04-1.469c2.605,1.845,5.09,2.617,7.035,3.933c0.976,0.656,1.8,1.449,2.467,2.568c0.705,1.112,1.235,2.553,1.551,4.528
						c-1.003,5.425-6.003,4.084-5.959,6.157c-0.758,0.168-0.956,0.937,0.405,3.131c0,0,0.093,0.754,0.33,1.862
						c0.223,1.113,0.521,2.598,0.817,4.081c0.603,2.976,1.205,5.95,1.205,5.95s1.748-1.771,3.495-3.54
						c1.759-1.734,3.519-3.469,3.519-3.469c2.763,1.917,3.4,4.564,4.346,5.761c0.468,0.597,1.056,0.81,1.964,0.387
						c0.908-0.42,2.185-1.495,4.183-3.472c-6.117,5.838-4.019,16.797-0.021,26.556c0.909,2.477,2.105,4.805,3.177,7.033
						c1.084,2.223,2.117,4.314,2.982,6.204c1.805,3.742,3.058,6.628,2.553,8.266c2.235,0.9,4.098,1.951,5.69,3.155
						c1.644,1.175,3.052,2.483,4.272,3.948c2.459,2.917,4.161,6.478,6.266,10.325c0.342-2.81,7.978-8.941,10.862-2.231
						c-4.568,2.184-6.868,4.263-7.844,6.418c-0.975,2.149-0.671,4.382,0.088,6.661c0.729,2.303,1.772,4.741,2.142,7.466
						c0.188,1.361,0.198,2.802-0.064,4.327c-0.234,1.504-0.762,3.107-1.704,4.834c2.069-5.132,5.965-1.11,9.961,2.188
						c1.964,1.684,4.132,3.054,5.994,3.111c1.879,0.052,3.505-1.281,4.72-5.079c1.412,2.875,0.061,4.186-1.719,5.597
						c-1.774,1.416-3.99,2.917-4.154,6.339c2.016,0.806,3.741,1.907,5.431,3.09c1.682,1.19,3.203,2.576,4.623,4.114
						c1.428,1.529,2.719,3.247,4.027,5.007c1.336,1.731,2.626,3.569,3.921,5.462c1.305,1.88,2.564,3.868,3.963,5.759
						c1.413,1.875,2.875,3.75,4.426,5.563c0.775,0.906,1.573,1.798,2.397,2.667c0.412,0.434,0.831,0.862,1.257,1.284
						c0.439,0.404,0.891,0.798,1.347,1.186c1.827,1.55,3.778,2.974,5.879,4.203c1.825-1.919,1.847-7.031,7.395-7.668
						c0,0-0.015,1.035-0.037,2.589c-0.005,0.78-0.011,1.69-0.017,2.665c0.017,0.962,0.034,1.987,0.052,3.013
						c0.083,4.111,0.279,8.296,0.279,8.296c1.947,0.589,4.843-2.024,7.279-3.361c1.222-0.67,2.321-1.012,3.155-0.483
						c0.853,0.503,1.431,1.881,1.624,4.726c0.392-2.387,1.055-5.938,3.593-5.309c2.965,3.804,6.287,7.255,10.055,10.059
						c1.86,1.439,3.784,2.795,5.755,4.083c1.978,1.275,4.076,2.346,6.165,3.438c2.1,1.073,4.23,2.093,6.38,3.074
						c2.192,0.892,4.408,1.738,6.628,2.568c2.229,0.812,4.433,1.677,6.69,2.405l6.786,2.14c4.479,1.533,9.047,2.776,13.508,4.325
						l6.678,2.386c2.226,0.806,4.431,1.689,6.617,2.673c1.094,0.488,2.18,1.015,3.267,1.545c1.098,0.492,2.19,1.013,3.279,1.563
						c2.178,1.1,4.339,2.32,6.49,3.685c2.142,1.407,4.309,2.779,6.466,4.343c2.157,1.564,4.311,3.293,6.471,5.207
						c-4.337-5.962-0.781-5.837,3.112-5.352c-2.331-1.646,1.056-6.43,1.098-10.049c0,0,0.211,0.206,0.589,0.522
						c0.38,0.322,0.921,0.783,1.57,1.336c1.324,1.108,3.09,2.585,4.855,4.062c1.815,1.479,3.631,2.959,4.992,4.069
						c0.688,0.567,1.271,0.99,1.679,1.296c0.408,0.304,0.642,0.478,0.642,0.478c1.924-4.825,6.09-4.674,10.133-4.486
						c2.018,0.13,4.003,0.129,5.603-0.457c1.599-0.579,2.804-1.749,3.269-4.109l-4.939,1.578c3.489-5.521,1.378-11.76-1.016-18.497
						c-2.44-6.821-5.127-14.063-4.147-21.193c-1.794,3.055-3.686,3.326-5.605,2.295c-1.917-1.091-3.845-3.576-5.846-5.849
						c-1.001-1.143-2.022-2.242-3.086-3.118c-0.531-0.438-1.074-0.819-1.632-1.123c-0.554-0.325-1.119-0.591-1.707-0.745
						c-2.35-0.627-4.995,0.367-8.37,4.396c-1.622-3.262,2.748-4.214,2.205-7.694c-3.618,5.694-7.014,6.131-11.922,2.188l0.985-1.337
						c-0.988-0.131-1.938-0.282-2.851-0.452c-0.907-0.192-1.767-0.449-2.601-0.697c-1.667-0.508-3.209-1.08-4.663-1.711
						c-1.447-0.654-2.838-1.265-4.124-2.107c-1.295-0.815-2.541-1.678-3.78-2.581c-1.239-0.904-2.471-1.849-3.735-2.828
						c-1.27-0.964-2.512-2.13-3.857-3.236c-1.339-1.129-2.75-2.289-4.273-3.476c-0.381-0.293-0.77-0.591-1.164-0.895
						c-0.387-0.32-0.779-0.646-1.18-0.979c-0.802-0.658-1.637-1.323-2.509-1.995l-1.711,7.024c-3.083-2.441-2.865-4.783-3.692-7.105
						c-8.589,7.939,9.411,4.912,0.955,14.131c0.263-3.85-1.109-6.47-3.271-8.488c-1.098-0.976-2.318-1.964-3.663-2.818
						c-1.339-0.867-2.771-1.668-4.185-2.474c-0.706-0.403-1.408-0.808-2.091-1.222c-0.672-0.434-1.308-0.909-1.919-1.384
						c-1.217-0.959-2.297-1.988-3.115-3.151c-1.638-2.327-2.229-5.16-0.739-9.135c-2.334-1.557-3.094,0.402-3.834,2.369
						c-0.74,1.968-1.461,3.944-3.894,2.327l1.124-4.56l-4.375,4.001c-0.677-0.721-1.107-1.59-1.297-2.594
						c-0.187-1.01-0.166-2.103,0.002-3.197c0.337-2.19,1.268-4.39,2.291-5.971c0.473,0.885,2.659,0.603,3.606,0.886
						c-0.45-3.546-3.353-5.067-6.276-6.044c-1.479-0.458-2.859-0.909-3.942-1.319c-1.075-0.421-1.814-0.85-1.87-1.437
						c0,0,0.634,1.371,1.268,2.742c0.322,0.691,0.645,1.382,0.886,1.9c0.237,0.527,0.42,0.849,0.42,0.849
						c-1.845-0.74-3.604-1.707-5.362-2.749c-0.875-0.524-1.744-1.077-2.607-1.65l-1.292-0.875c-0.419-0.309-0.824-0.639-1.235-0.963
						c-3.245-2.646-6.571-5.367-9.654-8.33c-1.578-1.442-3.187-2.849-4.844-4.187c-1.578-1.417-3.212-2.758-4.932-3.988
						c-3.514-2.394-7.029-4.645-11.301-6.066l-1.786,3.058c-1.563-0.625-2.814-1.241-3.78-1.883
						c-0.938-0.665-1.625-1.325-2.137-1.987c-1.026-1.323-1.351-2.649-1.606-4.057c-0.24-1.42-0.485-2.868-1.181-4.587
						c-0.696-1.721-1.947-3.625-4.429-5.868l0.931-0.069c-4.313-0.164-7.584-2.288-9.234-5.543c2.56,0.354,3.315-2.003,4.221-4.219
						c0.897-2.227,1.947-4.31,4.924-3.7c-0.782-0.433-1.49-0.824-2.133-1.179c-0.636-0.367-1.206-0.697-1.721-0.994
						c-1.052-0.585-1.924-1.021-2.68-1.338c-1.514-0.633-2.566-0.786-3.709-0.735c-1.145,0.05-2.381,0.304-4.283,0.451
						c-1.9,0.143-4.503,0.207-8.232-0.317l4.002-4.384c-2.905-0.155-4.99-0.012-6.895-0.5c-1.892-0.497-3.697-1.592-5.725-4.448
						c3.323,1.56,4.773-0.376,6.464-2.248c1.682-1.891,3.611-3.704,7.685-2.344c1.361-4.391,0.871-7.299-0.479-9.529
						c-1.282-2.249-3.316-3.854-5.188-5.326c-0.928-0.738-1.798-1.448-2.469-2.189c-0.678-0.739-1.145-1.515-1.212-2.399
						c-0.167-1.755,1.028-3.867,4.758-6.718c-4.137-0.217-6.499,0.476-7.747,1.696c-1.25,1.215-1.396,2.938-1.156,4.627
						c0.231,1.692,0.858,3.342,1.245,4.394c0.354,1.063,0.354,1.58-0.746,1.04c-1.799,2.291-4.966,2.104-7.749,0.652
						c-2.695-1.472-4.906-4.234-4.913-6.64c-0.291-1.129,0.575-2.542,1.985-4.164c1.408-1.622,3.465-3.486,5.401-5.486
						c1.949-2.005,3.836-4.161,5.036-6.436c0.6-1.138,1.028-2.307,1.204-3.509c0.232-1.217,0.228-2.471-0.109-3.769
						c0.168,1.06,1.314,0.853,1.486,1.9c1.462-2.418-0.262-3.981-1.731-5.789c-0.734-0.899-1.402-1.854-1.567-2.961
						c-0.111-1.117,0.298-2.393,1.65-3.89c-4.813-0.492-4.972-2.137-5.397-3.447c-0.427-1.318-1.127-2.332-7.068-1.84l4.499,9.566
						c-2.02-2.516-6.695-4.522-10.277-7.382c-1.833-1.418-3.18-3.073-3.854-5.032c-0.655-1.959-0.547-4.238,0.813-6.876
						c2.481,0.524,5.979,3.044,7.967,4.752c1.561-1.618,0.815-2.865,0.077-4.155c-0.741-1.282-1.488-2.605,0.226-4.225
						c2.991-0.073,4.64,0.64,5.745,1.798c1.099,1.16,1.546,2.786,1.922,4.585c0.381,1.798,0.674,3.773,1.507,5.574
						c0.922,1.785,2.348,3.397,4.836,4.448c2.247-1.835-0.442-4.159-1.863-6.052c-1.414-1.894-1.769-3.188,4.789-2.606
						c-8.363-0.956-8.198-3.743-7.589-6.803c0.752-3.124,2.006-6.464-4.524-9.754l7.146,0.069c-1.255-1.044-4.654-3.263-4.519-5.404
						c0,0,2.328,0.864,4.656,1.729c2.324,0.825,4.649,1.649,4.649,1.649c-3.991-2.644-2.341-5.538-0.246-8.242
						c2.021-2.733,4.841-5.281,2.732-8c-0.016,2.802-0.572,4.353-1.472,5.192c-0.899,0.839-2.102,0.96-3.525,0.871
						c-2.826-0.165-6.353-1.235-8.879,1.299c-1.281-1.833-1.786-3.367-1.912-4.65c-0.114-1.285,0.217-2.319,0.861-3.178
						c1.288-1.719,3.831-2.736,6.563-3.755c2.701-1.021,5.727-2.036,7.87-3.747c2.168-1.715,3.415-4.103,2.918-8.001
						c0.344,1.077-0.8,2.914-2.517,4.075c-1.697,1.155-3.886,1.647-5.401-0.165c0.866-1.447,1.965-3.105,3.505-4.536
						c1.531-1.434,3.319-2.659,5.285-3.313c-0.1-5.117-1.963-5.035-4.271-4.208c-2.31,0.813-5.087,2.417-6.97-0.136
						c4.521-1.206,3.775-2.574,1.781-4.357c-2.028-1.776-5.437-3.981-6.377-6.622l7.12,1.294c0.835-1.39,1.235-2.515,1.314-3.455
						c0.123-0.931-0.073-1.675-0.499-2.3c-0.847-1.25-2.574-2.012-4.279-2.735c-3.416-1.432-6.719-2.782-2.718-7.696
						c0,0,2.168,1.773,4.335,3.546c2.179,1.719,4.357,3.439,4.357,3.439s-0.311-1.541-0.623-3.083
						c-0.154-0.778-0.31-1.556-0.426-2.14c-0.087-0.579-0.145-0.965-0.145-0.965l7.664,3.186c-2.155-3.665-2.662-5.933-2.203-7.876
						c0.233-0.973,0.718-1.87,1.38-2.836c0.664-0.966,1.617-1.969,2.631-3.204c-2.645-0.139-5.709-1.321-7.904-3.176
						c-2.196-1.849-3.516-4.393-2.726-7.1c2.624-1.082,4.109,0.05,5.069,0.417c0.981,0.378,1.523,0.071,2.466-3.717
						c1.786,1.639,3.838,3.39,4.517,4.805c0.341,0.71,0.329,1.334-0.22,1.836c-0.523,0.513-1.596,0.9-3.431,1.13
						c2.113,1.114,3.749,3.098,5.845,4.169c2.96-1.002,3.905-3.153,4.465-5.332c0.501-2.192,0.367-4.508,0.822-5.761
						c-0.623,0.85-1.432,1.844-2.624,2.053c0,0-0.335-0.859-0.839-2.147c-0.491-1.291-1.186-3.048-1.798-4.802
						c-1.168-3.475-2.289-7.086-2.289-7.086c3.196-0.479,4.597,1.728,5.995,3.826c0.097-1.165-0.453-2.446-0.924-3.854
						c-0.466-1.404-0.895-2.958-0.385-4.557c4.906,3.343,10.355,5.834,11.101,10.999c0,0-0.116-0.737-0.29-1.842
						c-0.178-1.111-0.415-2.606-0.544-4.069c-0.3-2.989-0.599-5.978-0.599-5.978c1.288,0.286,3.433-0.055,5.402-0.166
						c1.952-0.125,3.845,0.037,4.461,1.097c2.883-1.492,1.992-5.74,1.508-10.278c-0.178-2.221-0.277-4.51,0.16-6.49
						c0.447-1.97,1.367-3.673,3.429-4.51c-0.717-0.961-1.161-2.215-0.919-4.007c1.299-1.251,2.858-2.24,4.429-3.189
						c1.633-0.904,3.305-1.747,4.743-2.805c1.449-1.05,2.646-2.331,3.478-4.036c0.878-1.669,1.332-3.808,1.186-6.722
						c0,0,2.762,0.837,5.478,1.723c2.699,0.862,5.438,1.85,5.438,1.85c1.278-3.06-2.184-4.251-5.503-5.872
						c-3.307-1.64-6.464-3.703-4.007-9.159c1.556-4.07,3.666-3.049,5.886-0.943c2.209,2.088,4.534,5.149,6.531,5.282
						c-0.513-3.174-1.407-7.891-0.719-11.733c0.086-0.479,0.195-0.945,0.332-1.39c0.151-0.429,0.331-0.839,0.541-1.223
						c0.42-0.769,0.964-1.437,1.655-1.962c1.382-1.049,3.355-1.526,6.085-1.059C154.646,308.584,152.235,308.608,151.072,310.647z
						 M219.157,265.303c-0.514,0.974-1.128,2.813-1.915,3.951c-0.768,1.198-1.72,1.688-3.023-0.092
						c-0.632-4.208-0.229-5.53,0.73-5.638C215.921,263.441,217.467,264.618,219.157,265.303z M348.004,243.368
						c-1.848,1.963-3.47,0.426-5.057-2.767C344.686,240.408,346.479,241.048,348.004,243.368z M555.643,558.77
						c-0.082-0.123-0.145-0.212-0.26-0.328C559.575,554.85,557.98,556.09,555.643,558.77z M549.342,566.882
						c0.585,1.274,1.543,1.579,2.639,1.555c-1.46-1.304-0.762-3.372,0.607-5.534C550.574,562.913,548.887,563.603,549.342,566.882z
						 M22.231,532.906l1.415-2.264C26.621,534.231,24.53,533.543,22.231,532.906z"/>
					<path d="M331.042,249.752c-0.237-1.285-0.121-2.633,0.018-3.992C330.179,246.838,329.925,248.222,331.042,249.752z"/>
					<path d="M120.729,350.6c-0.095,0.032-0.124,0.11-0.207,0.151c0.278,0.354,0.599,0.661,0.932,0.938L120.729,350.6z"/>
					<path d="M503.247,429.425c0.75-1.713,1.9-2.82,3.144-3.652C504.634,426.017,503.29,427.001,503.247,429.425z"/>
					<path d="M536.964,619.446c0,0,0.118-0.404,0.296-1.01c0.183-0.603,0.41-1.413,0.604-2.242c0.405-1.642,0.81-3.282,0.81-3.282
						c-1.262,2.889-3.146,3.059-4.987,3.761C535.202,617.441,537.956,617.671,536.964,619.446z"/>
					<path d="M470.015,633.839c0.095,1.186-1.106,1.299-0.999,2.491l2.598,2.147C473.87,635.791,473.512,632.24,470.015,633.839z"/>
					<path d="M513.53,611.458c-2.685-1.452-4.086-1.128-4.979,0.069c-0.446,0.6-0.766,1.42-1.059,2.347
						c-0.312,0.917-0.646,1.904-0.991,2.917c0.126-0.214,0.22-0.435,0.423-0.595c3.152,2.916,4.791,3.069,5.685,1.823
						C513.488,616.768,513.504,614.076,513.53,611.458z"/>
					<path d="M506.116,617.689c-0.503,1.202-1.129,2.36-2.09,3.205C506.514,623.285,505.513,620.031,506.116,617.689z"/>
					<path d="M548.363,579.912c-2.294,1.276,6.576,4.357,3.81,4.452c3.038,2.686,2.391-1.573,0.788-4.853
						c-0.784-1.637-1.868-3.061-2.752-3.3C549.336,575.979,548.619,576.893,548.363,579.912z"/>
					<polygon points="495.003,603.201 502.031,606.161 498.144,601.003 					"/>
					<path d="M515.19,579.277l-4.714,4.642c1.156,0.506,1.445,1.563,1.491,2.709C513.96,583.289,517.252,580.138,515.19,579.277z"/>
					<path d="M511.968,586.628c-1.078,1.725-1.939,3.445-1.42,5.042C511.014,590.667,512.024,588.508,511.968,586.628z"/>
					<path d="M497.637,594.914c0,0,0.578-0.176,1.156-0.352c0.583-0.176,1.15-0.363,1.15-0.363l2.642-3.491
						c0,0-1.224,1.067-2.448,2.135C498.942,593.921,497.637,594.914,497.637,594.914z"/>
					<path d="M538.368,515.521l-0.906-7.171c-2.423-1.1-4.3,0.455-3.732,3.113C535.211,513.376,535.737,516.085,538.368,515.521z"/>
					<path d="M513.692,530.299c1.973-1.234,3.623-0.906,6.284-1.213l-8.944-2.604L513.692,530.299z"/>
					<path d="M515.91,511.853c-1.213-0.564-2.638-3.148-3.865-4.568c-1.228-1.423-2.254-1.726-2.643,2.139
						c1.199,0.543,2.075,2.446,2.992,3.577c0.445,0.562,0.921,0.931,1.498,0.835C514.479,513.741,515.152,513.18,515.91,511.853z"/>
					<path d="M526.458,414.985l0.494,1.617l14.891-3.407c0,0-3.849,0.436-7.697,0.872
						C530.302,414.526,526.458,414.985,526.458,414.985z"/>
					<path d="M461.995,354.339c0.489,7.579,8.846-3.724,8.245,3.911c1.932-0.225,2.151-1.832,2.174-3.348
						c0.051-1.527,0.04-3.042,1.819-3.158C468.713,350.199,469.387,347.242,461.995,354.339z"/>
					<path d="M474.233,351.744c0.878,0.255,1.893,0.478,3.156,0.614C475.903,351.808,474.969,351.708,474.233,351.744z"/>
					<path d="M273.429,749.621c0,0,0.356,0.226,0.892,0.564c0.536,0.351,1.254,0.77,1.975,1.186
						c1.451,0.836,2.902,1.673,2.902,1.673s-0.906-1.309-1.812-2.617c-0.888-1.309-1.776-2.617-1.776-2.617
						s-0.542,0.476-1.087,0.915C273.976,749.173,273.429,749.621,273.429,749.621z"/>
					<path d="M284.916,738.669l1.211,9.765c0,0,0.893-2.182,1.784-4.364c0.864-2.183,1.729-4.366,1.729-4.366
						C288.363,740.106,285.85,740.89,284.916,738.669z"/>
					<path d="M236.304,280.447l-0.344-2.339c-1.3-2.265-2.289-2.182-4.274-2.037c0,0,1.166,1.092,2.331,2.184
						C235.16,279.351,236.304,280.447,236.304,280.447z"/>
					<path d="M182.636,296.507l0.927-0.362c0,0-1.556-1.616-3.111-3.231c-1.572-1.605-3.146-3.211-3.146-3.211L182.636,296.507z"/>
					<path d="M153.623,334.294c0.774-0.53,1.142-1.572,1.598-2.541c0.451-0.972,0.909-1.952,1.714-2.459
						C155.115,333.11,145.439,327.01,153.623,334.294z"/>
				</g>
			</g>
		</g>
	</g>
</g>
<text transform="matrix(1 0 0 1 104.7217 136.7144)" font-family="'MyriadPro-Regular'" font-size="60">Ventusamancy</text>
<g>
	<g>
		<g>
			<path opacity="0.1091" d="M178.344,475.877c-0.797,0.506-1.34,1.232-1.625,2.178c-0.016,0.475-0.035,0.948-0.055,1.423
				c0.235,5.464,0.676,10.913,1.32,16.349c0.21,3.047,1.719,5.921,2.989,8.634c1.356,2.9,3.131,5.375,5.097,7.886
				c4.938,6.314,11.602,11.185,18.234,15.548c7.97,5.244,16.994,8.223,26.272,10.063c5.199,1.031,10.509,0.736,15.751,0.434
				c5.847-0.337,11.455-2.302,16.926-4.195c6.23-2.158,11.754-5.95,17.19-9.563c6.3-4.186,11.585-9.747,16.75-15.193
				c12.772-13.471,21.273-30.015,30.229-46.066c3.593-6.438,8.31-12.073,13.146-17.585c3.682-4.192,8.252-7.246,12.985-10.07
				c-0.691,0.292-1.384,0.584-2.076,0.877c2.032-0.83,4.062-1.661,6.091-2.491c-0.726,0.258-1.451,0.514-2.176,0.77
				c3.585-0.414,7.167-0.826,10.751-1.24c-2.344-0.087-4.691-0.174-7.036-0.262c3.391,0.304,6.784,0.606,10.179,0.909
				c-2.384-0.313-4.767-0.629-7.15-0.943c5.933,2.424,11.867,4.846,17.8,7.27c-2.257-1.349-4.51-2.698-6.766-4.046
				c3.018,2.089,6.032,4.177,9.049,6.266c-2.153-1.606-4.31-3.214-6.464-4.82c2.904,2.399,5.809,4.8,8.712,7.201
				c-2.001-1.838-4.003-3.677-6.004-5.515c6.247,5.599,11.629,11.893,16.139,18.882c-0.557-0.831-1.11-1.665-1.667-2.498
				c6.572,10.44,12.438,21.25,17.899,32.308c3.472,7.024,6.201,14.44,9.819,21.383c0.556,0.777,1.242,0.918,2.062,0.426
				c1.138-1.133,1.794-2.521,1.974-4.169c0.736-2.787,1.318-5.604,1.741-8.452c0.487-1.586,0.433-3.122-0.166-4.61
				c-4.739-8.642-9.517-17.21-15.036-25.396c-7.948-11.787-17.564-22.538-29.175-30.793c0.736,0.641,1.473,1.283,2.209,1.925
				c-3.253-3.091-6.683-6.126-11.067-7.472c-3.366-1.032-7.078-1.955-10.635-2.071c-2.957-0.096-6.361-0.123-9.224,0.766
				c-2.527,0.651-4.961,1.554-7.306,2.704c-2.882,1.442-5.533,3.228-7.959,5.357c-4.91,3.744-8.933,8.812-12.877,13.49
				c-5.764,6.841-10.395,14.813-15.148,22.367c-3.299,5.49-6.9,10.776-10.801,15.858c-3.233,4.176-6.874,7.955-10.924,11.336
				c-3.502,3.405-7.22,6.557-11.153,9.452c-3.529,2.45-7.225,4.614-11.089,6.493c-4.715,2.515-9.993,3.753-15.156,4.912
				c-5.747,1.29-11.754,0.77-17.534,0.144c-3.925-0.425-7.834-1.821-11.529-3.122c-4.902-1.725-9.409-4.327-13.797-7.063
				c-7.006-4.367-13.581-10.115-18.45-16.783c-1.182-1.454-2.087-3.06-2.724-4.815c-0.545-1.765-1.39-3.375-2.536-4.829
				c-0.919-1.495-1.746-3.038-2.485-4.629c-0.761-0.484-1.592-0.801-2.485-0.952c0.551,5.124,1.102,10.248,1.655,15.37
				c0.777-1.212,1.556-2.425,2.33-3.637c-0.288,0.236-0.578,0.475-0.866,0.713c2.965-1.856,5.885-3.116,9.186-4.277
				c3.152-1.11-0.271-4.202-1.462-5.291c-2.129-1.923-4.357-3.724-6.686-5.399C182.229,476.384,180.05,474.509,178.344,475.877z"/>
			<path opacity="0.1091" d="M168.921,468.08c-0.071,0.012-0.141,0.024-0.21,0.035c-0.961-0.037-1.492,0.422-1.589,1.38
				c0.717,6.344,1.566,12.669,2.552,18.975c0.404,2.116,0.991,4.096,1.936,6.045c0.783,1.662,1.608,3.304,2.472,4.924
				c1.548,2.993,3.828,5.516,5.993,8.059c4.368,5.131,10.085,9.163,15.635,12.882c7.795,5.223,16.64,8.271,25.744,10.198
				c8.795,1.861,17.697,0.631,26.323-1.322c6.004-1.358,11.615-4.476,16.972-7.36c6.323-3.402,11.571-8.232,16.892-12.962
				c3.754-3.765,7.306-7.715,10.652-11.85c5.808-6.799,10.456-14.342,15.073-21.963c1.603-2.935,3.208-5.87,4.811-8.805
				c2.802-5.44,5.927-10.687,9.379-15.737c3.773-5.879,8.584-10.797,13.634-15.549c-0.374,0.328-0.751,0.656-1.124,0.985
				c1.849-1.475,3.698-2.952,5.545-4.428c-0.391,0.312-0.778,0.622-1.169,0.934c1.437-0.902,2.874-1.804,4.308-2.706
				c2.558-1.311,5.246-2.23,8.066-2.759c-0.913,0.113-1.83,0.228-2.743,0.341c2.153-0.231,4.308-0.463,6.464-0.692
				c-0.928,0.053-1.854,0.105-2.779,0.158c2.12,0.027,4.244,0.054,6.367,0.081c-2.262-0.166-4.523-0.333-6.782-0.501
				c3.479,0.662,6.959,1.323,10.438,1.985c-2.607-0.827-5.218-1.654-7.828-2.482c3.568,1.272,7.137,2.544,10.705,3.816
				c-2.562-1.064-5.122-2.13-7.683-3.196c3.469,1.632,6.938,3.263,10.406,4.895c-2.508-1.313-5.019-2.623-7.53-3.934
				c3.358,1.949,6.716,3.897,10.074,5.847c-2.425-1.551-4.848-3.1-7.272-4.649c3.23,2.278,6.461,4.555,9.688,6.833
				c-2.339-1.789-4.678-3.58-7.017-5.37c3.111,2.562,6.223,5.125,9.334,7.688c-2.223-2.013-4.445-4.025-6.671-6.036
				c4.401,4.634,8.8,9.268,13.198,13.902c2.153,2.78,4.191,5.646,6.106,8.598c-0.65-0.971-1.304-1.94-1.957-2.911
				c1.29,2.002,2.577,4.005,3.867,6.006c-0.604-1.021-1.207-2.043-1.813-3.064c6.779,11.472,13.251,23.041,19.078,35.027
				c-0.291-0.613-0.581-1.228-0.872-1.841c2.289,4.891,4.346,9.983,6.912,14.739c0.687,0.879,1.387,0.892,2.104,0.036
				c0.938-1.858,1.337-3.852,1.195-5.977c0.225-3.847,0.288-7.694,0.196-11.545c0.216-2.12-0.113-4.124-0.991-6.014
				c-3.161-5.07-6.469-10.019-9.871-14.934c-5.874-8.488-12.711-16.172-19.92-23.535c-7.549-7.713-16.332-14.192-26.597-17.721
				c-4.632-1.587-9.439-1.781-14.428-0.584c-2.325-0.095-4.546,0.364-6.669,1.382c-7.187,2.262-12.825,7.709-18.126,12.746
				c-7.084,6.729-12.604,14.729-18.026,22.793c-3.248,5.363-6.506,10.72-9.775,16.071c-3.006,4.826-6.422,9.34-10.253,13.538
				c-3.38,3.304-6.774,6.597-10.176,9.878c-3.306,3.078-6.88,5.798-10.728,8.159c-3.357,2.201-6.932,3.969-10.715,5.304
				c-4.881,2.048-10.032,2.616-15.234,3.109c-5.904,0.559-11.925-0.981-17.522-2.613c-6.583-1.919-12.534-5.654-18.182-9.418
				c-4.368-2.909-8.269-6.53-12.053-10.144c-1.763-1.695-3.413-3.498-4.946-5.408c-2.129-2.488-3.68-5.138-5.307-7.958
				c0.279,0.607,0.562,1.217,0.844,1.824c-0.335-0.821-0.67-1.642-1.008-2.464c-0.498-1.417-1.041-2.816-1.627-4.199
				c-1.136-1.867-2.209-3.74-3.217-5.678c0.376,7.041,0.753,14.083,1.129,21.126c0.994-1.741,1.99-3.482,2.984-5.224
				c-0.266,0.276-0.534,0.555-0.803,0.831c2.81-1.811,5.728-3.269,8.712-4.774c0.08-0.384,0.16-0.768,0.24-1.15
				c-0.59-1.601-1.622-2.876-3.101-3.831c-2.325-2.033-4.747-3.942-7.266-5.727C172.097,468.984,170.612,468.28,168.921,468.08z"/>
			<path opacity="0.1091" d="M184.398,467.18c-1.553,1.114-3.114,2.223-4.676,3.324c-1.993,1.41-3.41,3.455-4.836,5.386
				c-2.298,3.113-3.643,6.534-4.969,10.129c-0.457,1.237,0.18,3.231,1.107,4.11c1.675,1.667,3.43,3.243,5.265,4.731
				c0.736,0.869,1.47,1.739,2.206,2.609c1.65,1.813,3.322,3.604,5.021,5.373c4.905,5.178,11.348,8.846,17.481,12.359
				c4.258,2.439,9.304,4.453,14.082,5.675c3.261,0.98,6.583,1.677,9.963,2.089c5.467,0.909,10.929,0.464,16.404,0.021
				c3.961-0.57,7.854-1.456,11.674-2.658c6.35-1.717,12.163-5.283,17.735-8.625c6.395-3.834,11.79-9.158,17.103-14.306
				c5.971-5.787,10.87-12.841,15.695-19.541c5.484-7.609,9.645-16.241,13.896-24.557c1.509-2.881,3.015-5.761,4.523-8.641
				c2.663-4.752,5.686-9.263,9.068-13.531c-0.199,0.246-0.398,0.492-0.598,0.739c1.509-1.713,3.021-3.426,4.528-5.138
				c2.729-2.855,5.758-5.344,9.089-7.466c4.017-2.898,8.368-3.905,13.112-4.81c-0.382,0.017-0.764,0.035-1.146,0.051
				c1.345,0.018,2.69,0.034,4.036,0.052c11.241,4.791,19.516,12.117,24.822,21.978c1.83,3.124,3.449,6.407,5.077,9.638
				c3.407,6.756,6.641,13.607,9.815,20.476c2.746,5.943,5.468,11.894,8.042,17.915c1.479,3.459,2.804,6.994,4.51,10.353
				c0.498,0.977,2.879,1.019,3.565,0.297c0.899-0.943,0.938-3.337,0.371-4.433c-2.193-4.233-3.976-8.678-5.938-13.018
				c-3.139-6.94-6.422-13.825-9.802-20.648c-4.38-8.843-8.701-17.73-13.723-26.231c-3.103-5.256-6.699-10.072-11.261-14.15
				c-2.317-2.07-4.858-3.437-7.596-4.855c-2.965-1.536-6.073-1.931-9.335-2.337c-3.889-0.483-6.671,0.293-10.444,1.142
				c-7.648,1.721-13.782,7.254-19.306,12.444c-3.421,3.214-6.748,8.297-9.406,12.056c-3.169,4.984-5.954,10.175-8.359,15.571
				c-2.533,5.562-5.26,11.025-8.181,16.395c-11.54,24.006-28.404,40.007-50.595,47.998c-3.617,1.178-7.308,2.046-11.069,2.606
				c-3.53,0.431-7.07,0.58-10.622,0.448c-3.344-0.212-6.654-0.661-9.935-1.35c0.271,0.072,0.542,0.145,0.813,0.216
				c-1.827-0.485-3.654-0.972-5.481-1.457c0.269,0.084,0.537,0.167,0.806,0.25c-1.779-0.586-3.56-1.175-5.34-1.762
				c0.266,0.092,0.531,0.185,0.801,0.275c-4.225-1.768-8.178-3.666-12.147-5.947c-3.745-2.152-7.223-4.79-10.674-7.372
				c-0.864-0.85-1.725-1.699-2.589-2.549c-1.619-1.721-3.23-3.449-4.83-5.188c-0.739-0.861-1.479-1.723-2.218-2.582
				c-2.231-1.835-4.421-3.718-6.565-5.648c0.367,1.37,0.738,2.74,1.106,4.111c0.546-2.557,1.144-4.701,2.168-7.09
				c1.827-4.253,6.389-8.348,10.671-9.938c1.323-0.491,2.251-1.844,1.498-3.156c-0.471-0.787-1.063-1.473-1.771-2.054
				C186.031,466.165,185.345,466.504,184.398,467.18z"/>
			<path opacity="0.1091" d="M171.05,455.821c1.753,6.794,3.505,13.587,5.257,20.381c-0.797-3.635-1.595-7.269-2.392-10.903
				c0.756,4.024,1.509,8.05,2.265,12.074c0.077,2.761,0.592,5.421,1.542,7.979c0.813,2.546,1.857,4.802,3.114,7.161
				c1.525,2.865,3.211,5.407,5.193,7.976c2.3,2.982,5.076,5.513,7.822,8.069c5.227,4.869,11.458,8.634,17.774,11.889
				c3.147,1.619,6.384,2.8,9.708,3.991c4.618,1.655,9.448,2.255,14.284,2.833c5.246,0.63,10.563-0.197,15.721-1.02
				c5.853-0.934,11.228-3.441,16.565-5.863c6.029-2.738,11.303-7.185,16.368-11.337c5.921-4.855,10.749-10.867,15.607-16.728
				c5.6-6.75,10.093-14.343,14.594-21.831c1.572-2.888,3.142-5.773,4.714-8.66c2.589-4.997,5.506-9.794,8.754-14.394
				c3.825-5.845,8.711-10.719,13.808-15.423c3.831-3.541,8.235-5.764,12.991-7.72c-0.77,0.258-1.542,0.516-2.312,0.772
				c2.126-0.59,4.252-1.179,6.378-1.768c-0.786,0.211-1.569,0.421-2.354,0.633c2.456-0.512,4.931-0.631,7.425-0.355
				c-1.589-0.183-3.178-0.367-4.767-0.55c2.71,0.388,5.423,0.775,8.133,1.163c-1.553-0.314-3.109-0.627-4.664-0.94
				c2.624,0.673,5.248,1.347,7.872,2.021c-3.646-1.209-7.288-2.416-10.932-3.624c4.629,1.685,9.257,3.369,13.886,5.052
				c-3.477-1.525-6.951-3.052-10.428-4.578c4.415,2.116,8.83,4.23,13.243,6.348c-3.309-1.847-6.616-3.693-9.927-5.54
				c4.186,2.517,8.368,5.031,12.551,7.548c-3.078-2.129-6.159-4.258-9.237-6.386c3.922,2.877,7.845,5.755,11.771,8.634
				c-1.213-0.954-2.428-1.906-3.641-2.858c2.013,1.759,4.025,3.52,6.037,5.279c-1.109-1.047-2.217-2.095-3.327-3.141
				c1.894,1.911,3.784,3.824,5.678,5.737c-1.011-1.141-2.019-2.28-3.028-3.421c3.402,3.959,6.602,7.761,9.658,11.955
				c2.646,3.628,5.019,7.445,7.427,11.229c-0.398-0.64-0.8-1.279-1.201-1.919c5.21,8.725,9.996,17.647,14.489,26.761
				c2.547,5.168,4.744,10.542,7.466,15.621c2.212,4.133,4.321-6.204,4.237-5.815c0.855-4.052,1.554-8.13,2.096-12.235
				c0.565-2.202,0.567-4.382,0.012-6.54c-12.46-21.27-27.046-42.951-49.377-54.78c-2.663-1.456-5.456-2.591-8.379-3.403
				c-4.311-1.464-8.593-1.855-13.097-2.217c-2.898,0-5.777,0.231-8.64,0.692c-4.382,0.526-8.587,2.367-12.615,4.039
				c-8.522,3.539-15.217,10.237-21.397,16.828c-4.712,5.023-9.144,10.089-13.454,15.468c-5.393,6.729-9.954,14.187-14.782,21.317
				c0.241-0.358,0.484-0.715,0.729-1.074c-1.827,2.335-3.654,4.671-5.479,7.007c0.266-0.341,0.534-0.68,0.8-1.021
				c-2.934,3.352-6.14,6.419-9.616,9.202c-1.439,1.33-2.879,2.66-4.321,3.99c-2.727,2.222-5.562,4.295-8.507,6.22
				c-3.629,2.506-7.931,4.066-12.075,5.435c-3.632,1.197-7.294,1.436-11.072,1.672c0.426,0.014,0.853,0.026,1.281,0.04
				c-1.616-0.086-3.23-0.17-4.847-0.256c0.426,0.046,0.85,0.09,1.275,0.136c-1.586-0.186-3.172-0.373-4.758-0.559
				c0.421,0.074,0.841,0.146,1.262,0.219c-1.562-0.34-3.122-0.681-4.687-1.021c0.415,0.1,0.83,0.2,1.246,0.3
				c-1.542-0.43-3.087-0.86-4.629-1.289c0.407,0.122,0.816,0.243,1.224,0.365c-4.59-1.711-8.77-3.731-12.994-6.206
				c-5.257-3.075-9.857-7.26-14.231-11.446c-3.147-3.015-5.58-6.552-7.938-10.182c-0.952-1.654-1.863-3.332-2.732-5.033
				c-0.756-0.879-1.509-1.759-2.265-2.638c-1.314-1.568-2.591-3.167-3.825-4.797c0.171,8.249,0.346,16.497,0.521,24.744
				c2.529-4.492,6.159-7.161,10.893-8.007c0.086-0.425,0.172-0.849,0.255-1.273c-0.842-2.257-2.162-4.22-3.964-5.885
				c-2.943-3.409-6.002-6.709-9.177-9.902c-1.157-1.075-2.317-2.15-3.475-3.226C173.453,455.747,172.326,455.408,171.05,455.821z"/>
			<path opacity="0.1091" d="M191.347,465.452c-0.851,0.803-1.697,1.607-2.544,2.41c0.213-0.197,0.424-0.394,0.637-0.59
				c-2.918,2.448-5.271,5.092-7.519,8.17c-1.979,2.706-3.189,6.022-4.288,9.15c-0.412,1.175-0.471,3.116,0.492,4.086
				c2.55,2.566,5.174,4.929,7.53,7.677c2.425,2.824,5.129,5.447,7.795,8.038c2.126,2.065,5.243,3.942,7.729,5.522
				c2.646,1.683,4.94,3.047,7.695,4.611c8.744,4.96,18.603,7.064,28.487,8.026c7.674,0.746,15.386-0.991,22.71-3.034
				c8.289-2.312,15.514-7.604,22.287-12.658c6.076-4.535,11.126-10.539,16.028-16.255c7.646-8.906,13.688-19.11,19.443-29.274
				c1.54-2.97,3.079-5.937,4.618-8.905c2.685-5.481,5.732-10.751,9.146-15.809c2.716-4.031,5.758-7.794,9.133-11.288
				c2.749-2.834,5.769-5.339,9.058-7.516c-0.347,0.213-0.695,0.426-1.041,0.64c1.818-1.061,3.638-2.121,5.456-3.182
				c-0.354,0.189-0.709,0.378-1.063,0.567c2.705-1.215,5.523-2.043,8.455-2.484c2.627-0.263,5.237-0.151,7.831,0.335
				c-0.554-0.13-1.107-0.262-1.664-0.392c1.755,0.513,3.508,1.027,5.26,1.541c-0.513-0.158-1.024-0.316-1.536-0.475
				c14.826,6.231,21.224,21.631,27.856,34.773c3.363,6.665,6.458,13.47,9.575,20.253c2.129,4.637,4.163,9.323,6.167,14.015
				c1.481,3.461,2.808,6.996,4.507,10.358c0.477,0.942,2.677,1.364,3.499,0.749c0.919-0.689,1.37-3.01,0.858-4.015
				c-2.179-4.286-3.92-8.8-5.854-13.2c-3.233-7.357-6.686-14.628-10.26-21.827c0.136,0.278,0.271,0.557,0.404,0.835
				c-3.388-7.061-6.912-14.055-10.769-20.874c-2.635-4.664-5.461-9.771-8.999-13.808c-1.681-1.916-3.372-3.703-5.163-5.514
				c-2.612-2.645-6.048-4.374-9.231-6.201c-1.702-0.976-3.95-1.575-5.866-1.971c-3.053-0.93-6.167-1.269-9.351-1.019
				c-3.336,0.033-6.566,0.639-9.688,1.823c-4.532,1.269-7.015,3.246-10.896,5.855c-5.444,3.662-9.725,8.677-13.93,13.618
				c-5.284,6.209-8.786,13.851-12.335,21.094c-2.485,5.567-5.151,11.046-7.997,16.438c-2.508,4.745-5.257,9.349-8.241,13.81
				c-3.964,6.261-8.567,11.844-13.47,17.371c-7.873,5.639-15.746,11.275-23.618,16.913c-6.633,2.245-13.401,3.283-20.297,3.116
				c-4.883,0.097-9.815-1.154-14.505-2.321c-5.908-1.472-11.381-4.295-16.638-7.27c0.238,0.149,0.479,0.298,0.718,0.447
				c-1.457-0.917-2.915-1.831-4.371-2.748c0.234,0.154,0.473,0.307,0.708,0.46c-2.405-1.581-4.744-3.256-7.017-5.025
				c-1.739-1.598-3.411-3.267-5.008-5.005c-1.653-1.682-3.233-3.428-4.748-5.235c-2.167-1.975-4.279-4.007-6.339-6.094
				c0.249,1.067,0.498,2.134,0.747,3.201c0.955-3.84,2.414-7.124,4.803-10.324c-0.205,0.232-0.406,0.465-0.611,0.698
				c2.447-2.497,4.883-4.769,8.107-6.188c1.448-0.639,2.489-1.486,1.711-3.166C195.297,466.994,193.284,463.612,191.347,465.452z"/>
			<path opacity="0.1091" d="M177.773,475.071c-2.261,1.299-4.509,2.496-6.646,3.989c-1.61,1.128-2.817,3.28-3.662,4.998
				c-1.841,3.741-3.095,8.068-1.01,12.029c1.511,2.868,3.084,5.341,5.093,7.891c3.247,4.119,7.272,7.542,11.292,10.867
				c3.472,2.87,7.311,5.186,11.156,7.503c5.719,3.445,12.124,5.492,18.482,7.343c7.364,2.141,15.206,1.977,22.744,1.446
				c6.01-0.422,11.903-2.807,17.432-4.961c8.733-3.399,16.166-9.351,23.22-15.339c6.179-5.244,11.197-11.739,16.222-18.034
				c7.87-9.863,13.805-21.144,19.654-32.258c1.423-2.635,2.846-5.27,4.269-7.905c2.749-4.751,5.847-9.261,9.293-13.529
				c2.727-3.384,5.769-6.453,9.129-9.206c2.732-2.113,5.67-3.888,8.812-5.323c-0.282,0.114-0.563,0.226-0.845,0.338
				c6.301-2.769,12.867-2.478,19.702,0.873c2.97,1.504,5.397,4.371,7.606,6.768c3.848,4.169,6.743,9.456,9.542,14.349
				c3.798,6.641,7.541,13.261,10.898,20.138c2.605,5.33,5.287,10.621,7.867,15.966c-0.213-0.454-0.423-0.908-0.637-1.362
				c1.747,3.774,3.475,7.556,5.19,11.344c1.171,2.582,2.229,5.223,3.544,7.733c0.733,1.396,3.066,1.15,3.565-0.309
				c0.26-1.351,0.302-2.71,0.124-4.08c-0.061-1.379-0.335-2.712-0.822-3.998c-2.156-3.912-4.11-7.95-6.164-11.918
				c-3.71-7.167-7.704-14.185-11.5-21.306c-1.691-3.177-3.549-6.254-5.207-9.446c-2.353-4.527-4.93-8.918-7.584-13.273
				c-2.666-4.381-6.052-8.129-9.783-11.607c-2.832-2.644-6.298-4.066-9.838-5.422c-1.955-0.749-4.108-1.037-6.195-1.052
				c-1.335-0.012-2.669-0.022-4.003-0.026c-2.968,0.393-5.839,1.156-8.609,2.291c-5.562,1.863-10.151,6.137-14.375,9.977
				c-3.383,3.472-6.423,7.22-9.124,11.246c-1.816,2.558-3.455,5.218-4.922,7.979c-4.551,8.498-8.991,17.019-13.789,25.381
				c-5.522,9.635-12.554,18.194-19.961,26.409c-6.265,6.946-14.024,12.126-22.044,16.771c-6.831,3.957-14.688,5.561-22.375,6.725
				c0.296-0.007,0.593-0.014,0.889-0.021c-2.096,0.047-4.191,0.093-6.284,0.14c0.297,0.015,0.596,0.03,0.895,0.046
				c-2.063-0.111-4.125-0.221-6.189-0.331c0.301,0.034,0.601,0.069,0.902,0.104c-2.096-0.353-4.191-0.704-6.287-1.056
				c0.302,0.051,0.606,0.103,0.908,0.153c-1.752-0.412-3.505-0.826-5.257-1.238c-3.274-1.005-6.48-2.193-9.62-3.562
				c-5.793-2.335-11.014-6.039-16.05-9.661c-4.329-3.113-8.1-6.995-11.772-10.831c-2.865-2.991-4.831-6.39-6.592-10.089
				c0.368,1.806,0.736,3.61,1.102,5.414c0.283-1.905,0.568-3.808,0.851-5.713c-0.197,0.395-0.391,0.789-0.587,1.186
				c0.708-1.433,1.566-2.768,2.574-4.008c2.07-2.862,4.714-4.123,8.061-5.273c1.426-0.489,1.678-2.446,0.809-3.433
				C180.979,475.893,179.216,474.241,177.773,475.071z"/>
			<path opacity="0.1091" d="M178.433,481.919c-2.001,1.131-3.602,2.024-4.581,4.134c-0.069,0.608-0.139,1.216-0.208,1.823
				c-0.448,3.256-0.598,6.517-0.454,9.784c0.214,3.593,1.285,6.465,2.818,9.705c2.195,4.639,5.83,8.433,9.406,12.013
				c7.223,7.229,16.214,12.402,25.498,16.453c4.529,1.976,9.356,2.992,14.168,3.977c5.243,1.072,10.61,0.835,15.911,0.597
				c5.963-0.268,11.721-2.176,17.323-4.028c8.822-2.917,16.49-8.491,23.713-14.14c6.179-4.83,11.256-10.83,16.357-16.729
				c6.17-7.136,10.976-15.124,15.843-23.164c1.661-3.037,3.321-6.072,4.982-9.107c2.854-5.568,6.04-10.936,9.567-16.102
				c2.734-4.021,5.796-7.777,9.176-11.27c2.619-2.729,5.523-5.106,8.712-7.132c-0.341,0.223-0.681,0.444-1.024,0.667
				c1.379-0.771,2.758-1.54,4.136-2.312c5.567-2.71,10.849-2.93,15.849-0.658c-0.469-0.221-0.938-0.439-1.409-0.659
				c1.276,0.617,2.552,1.236,3.828,1.854c-0.465-0.271-0.933-0.544-1.4-0.815c1.224,0.782,2.444,1.563,3.668,2.345
				c-0.463-0.324-0.925-0.649-1.388-0.975c1.186,0.873,2.373,1.745,3.558,2.619c-0.448-0.381-0.896-0.762-1.349-1.144
				c2.603,2.334,5.083,4.591,7.436,7.165c6.437,7.048,11.35,15.192,16.145,23.382c-0.401-0.69-0.806-1.38-1.207-2.07
				c4.806,8.669,9.287,17.498,13.554,26.444c2.646,5.552,4.936,11.314,7.795,16.759c0.659,0.634,1.359,0.683,2.099,0.146
				c0.955-1.121,1.411-2.445,1.37-3.974c0.338-2.587,0.518-5.185,0.537-7.795c0.252-1.508-0.02-2.882-0.812-4.124
				c-1.949-3.4-3.834-6.82-5.86-10.181c0.247,0.429,0.496,0.857,0.745,1.287c-5.728-9.953-12.053-19.468-19.146-28.505
				c-2.345-2.988-4.847-5.798-7.022-8.91c-2.106-3.014-4.197-5.894-6.541-8.732c-2.268-2.745-5.149-4.818-8.078-6.769
				c-3.69-2.457-9.063-3.834-13.439-3.469c-3.565,0.296-5.891,0.775-9.356,1.748c-3.123,0.876-6.566,2.878-9.13,4.813
				c-3.087,2.089-5.907,4.496-8.454,7.22c-5.55,5.264-9.649,12.103-13.774,18.447c-1.65,2.865-3.297,5.73-4.947,8.596
				c-3.23,5.93-6.74,11.688-10.527,17.277c-4.955,7.694-11.117,14.026-17.476,20.529c0.238-0.241,0.477-0.483,0.714-0.724
				c-2.217,1.993-4.435,3.985-6.651,5.979c0.269-0.223,0.537-0.446,0.806-0.67c-2.32,1.688-4.637,3.374-6.954,5.06
				c0.302-0.198,0.601-0.397,0.902-0.597c-2.342,1.452-4.684,2.903-7.025,4.355c0.332-0.171,0.661-0.342,0.993-0.514
				c-2.361,1.101-4.72,2.201-7.081,3.303c0.36-0.136,0.723-0.271,1.083-0.405c-2.375,0.875-4.753,1.749-7.129,2.624
				c0.385-0.099,0.772-0.195,1.16-0.293c-4.127,1.182-8.321,2-12.584,2.452c-3.469,0.266-6.932,0.235-10.392-0.091
				c-7.571-0.392-14.904-3.326-21.717-6.399c-5.061-2.283-9.658-5.586-14.124-8.836c-5.09-3.702-9.483-8.216-13.613-12.933
				c0.282,0.399,0.564,0.798,0.847,1.197c-0.858-1.253-1.716-2.507-2.574-3.761c0.269,0.406,0.534,0.813,0.8,1.221
				c-0.786-1.244-1.575-2.49-2.364-3.736c0.252,0.413,0.507,0.825,0.759,1.236c-1.188-3.429-2.262-6.849-2.702-10.46
				c-0.154-0.936-0.681-1.507-1.58-1.712c-0.222-0.026-0.443-0.053-0.665-0.077c0.43,3.691,0.858,7.383,1.285,11.074
				c0.299-0.587,0.598-1.174,0.896-1.761c-0.222,0.309-0.442,0.617-0.664,0.926c0.828-1.135,1.857-2.034,3.084-2.7
				c2.106-1.094,4.299-1.979,6.58-2.656c0.744-0.354,1.123-0.943,1.143-1.768c-0.213-1.128-0.853-1.974-1.915-2.537
				c-1.522-1.172-3.131-2.212-4.825-3.118C180.581,481.882,179.549,481.647,178.433,481.919z"/>
			<path opacity="0.1091" d="M182.998,460.017c-0.477,8.036,0.166,16.147,0.738,24.175c0.454,6.365,3.535,12.209,7.333,17.16
				c4.837,6.305,11.441,11.143,18.011,15.476c3.792,2.503,7.917,4.341,12.061,6.162c2.987,1.316,6.938,2.577,10.173,3.181
				c1.608,0.301,3.214,0.601,4.822,0.901c3.375,0.515,6.769,0.72,10.182,0.611c5.595,0.083,11.007-1.338,16.363-2.728
				c6.032-1.564,11.535-4.864,16.85-7.973c8.366-4.896,15.176-12.154,21.65-19.216c5.694-6.21,10.314-13.399,14.951-20.395
				c3.206-4.836,6.229-10.689,8.994-15.761c1.572-2.807,3.147-5.614,4.72-8.421c2.793-4.68,5.907-9.133,9.346-13.358
				c2.748-3.387,5.791-6.482,9.123-9.291c2.686-2.327,5.614-4.292,8.784-5.895c-0.64,0.28-1.279,0.561-1.916,0.84
				c2.029-0.829,4.059-1.657,6.088-2.486c-0.653,0.24-1.304,0.48-1.957,0.722c1.328-0.349,2.657-0.698,3.985-1.045
				c2.45-0.449,4.908-0.504,7.378-0.168c-1.31-0.195-2.619-0.392-3.929-0.587c2.431,0.439,4.861,0.878,7.295,1.316
				c-1.263-0.312-2.525-0.621-3.787-0.933c2.316,0.7,4.631,1.402,6.948,2.103c-1.21-0.428-2.422-0.855-3.632-1.283
				c2.195,0.949,4.393,1.898,6.588,2.847c-1.132-0.534-2.264-1.069-3.399-1.605c2.065,1.156,4.128,2.313,6.192,3.469
				c-1.055-0.643-2.106-1.283-3.161-1.925c1.927,1.364,3.856,2.729,5.783,4.095c-0.955-0.725-1.91-1.45-2.868-2.176
				c1.797,1.515,3.594,3.028,5.39,4.543c-0.86-0.806-1.719-1.611-2.58-2.418c1.653,1.675,3.303,3.351,4.955,5.025
				c-0.758-0.859-1.52-1.718-2.278-2.577c2.456,2.597,4.723,5.346,6.799,8.247c2.262,3.01,4.252,6.197,6.268,9.373
				c3.648,5.746,6.802,11.809,9.96,17.831c-0.235-0.464-0.471-0.929-0.706-1.393c3.236,6.427,6.39,12.882,9.385,19.422
				c1.977,4.314,3.726,8.765,5.885,12.99c0.537,0.72,1.218,0.896,2.037,0.527c1.121-0.869,1.8-2.032,2.029-3.489
				c0.778-2.377,1.403-4.792,1.874-7.246c0.504-1.389,0.474-2.733-0.086-4.037c-2.294-4.592-4.556-9.198-6.859-13.785
				c-4.661-9.28-10.019-18.181-15.895-26.737c-5.29-7.7-11.499-14.593-18.749-20.46c-3.264-2.641-6.827-4.598-10.564-6.5
				c-4.705-2.396-9.94-3.313-15.131-3.823c-4.681-0.459-9.074,0.462-13.608,1.446c-6.452,1.402-12.155,5.297-17.431,9.034
				c-3.15,2.629-6.085,5.48-8.804,8.553c-3.108,3.095-6.046,6.344-8.816,9.744c-7.015,8.151-12.493,17.534-18.234,26.577
				c-4.963,7.822-11.606,14.101-17.827,20.867c-4.809,5.229-10.69,9.349-16.587,13.218c-4.833,3.173-10.542,4.781-16.083,6.114
				c-5.069,1.218-10.48,0.631-15.558-0.052c0.379,0.073,0.761,0.146,1.141,0.219c-1.628-0.354-3.259-0.709-4.889-1.062
				c0.376,0.09,0.75,0.182,1.126,0.272c-5.055-1.461-9.63-3.36-14.283-5.812c-4.479-2.357-8.454-5.604-12.321-8.826
				c-3.425-2.854-6.01-6.29-8.49-9.942c-0.656-1.522-1.251-3.067-1.783-4.637c-0.772-1.958-1.473-3.943-2.098-5.953
				c0.149,0.478,0.296,0.955,0.445,1.434c-0.241-0.909-0.481-1.816-0.726-2.727c-0.747-2.39-1.813-4.646-3.194-6.77
				c0.213,4.969,0.429,9.939,0.643,14.908c0.736-0.395,1.473-0.789,2.209-1.184c2.452-0.846,4.946-1.534,7.487-2.067
				c2.821-0.696-4.863-10.294-4.819-10.232c-1.705-2.388-3.579-4.632-5.622-6.734C185.441,458.932,183.128,457.851,182.998,460.017z
				"/>
			<path opacity="0.1091" d="M178.795,469.567c-1.58,1.128-3.146,2.141-4.65,3.378c-1.179,0.972-2.093,2.292-3.025,3.484
				c-0.548,0.697-1.132,2.697-1.417,3.514c-0.861,2.477-1.396,4.554-1.188,7.184c0.459,5.794,4.608,10.261,8.26,14.439
				c2.624,3.002,5.824,5.557,8.886,8.086c3.633,2.999,7.737,5.756,11.915,7.935c2.568,1.342,4.874,2.466,7.521,3.654
				c3.342,1.499,6.815,2.462,10.32,3.486c5.135,1.503,10.517,1.703,15.814,1.836c3.881,0,7.721-0.41,11.516-1.232
				c4.089-0.772,8.048-1.972,11.876-3.602c6.472-2.346,12.089-6.322,17.694-10.196c3.953-3.065,7.68-6.388,11.178-9.963
				c3.782-4.003,7.325-8.203,10.636-12.604c5.7-7.145,10.185-14.945,14.686-22.867c3.021-5.904,6.104-11.775,9.251-17.612
				c2.691-4.746,5.73-9.256,9.121-13.529c-0.216,0.261-0.432,0.524-0.647,0.786c1.509-1.717,3.018-3.435,4.526-5.15
				c2.727-2.853,5.732-5.365,9.027-7.534c3.914-2.894,8.11-3.94,12.767-4.859c-0.474,0.04-0.946,0.082-1.423,0.123
				c1.301-0.037,2.603-0.075,3.903-0.112c8.911,7.683,17.821,15.368,26.732,23.05c2.14,3.538,4.142,7.15,6.01,10.84
				c2.447,4.562,4.726,9.222,7.09,13.825c-0.233-0.461-0.463-0.92-0.695-1.381c3.018,6.187,5.99,12.392,8.884,18.638
				c1.926,4.154,3.615,8.453,5.732,12.513c0.739,1.416,2.956,1.532,3.579-0.083c0.341-1.429,0.466-2.878,0.374-4.351
				c0.024-1.474-0.169-2.916-0.576-4.328c-2.176-4.007-4.193-8.113-6.289-12.165c-3.469-6.707-7.181-13.307-11.012-19.814
				c0.246,0.443,0.49,0.885,0.736,1.327c-3.211-5.837-6.566-11.597-9.943-17.339c-1.617-2.75-3.259-5.421-4.972-8.11
				c-2.052-3.218-4.606-6.011-7.228-8.759c-1.777-1.863-4.031-3.237-6.146-4.668c-2.087-1.412-4.581-2.411-7.02-3.026
				c-0.682-0.171-1.362-0.343-2.04-0.516c-1.957-0.592-3.967-0.826-6.032-0.7c-3.477-0.208-6.859,0.702-10.17,1.56
				c-5.465,1.415-9.761,5.091-14.129,8.436c-3.447,2.639-7.153,6.836-9.653,10.317c-1.467,2.046-2.937,4.09-4.404,6.136
				c-3.228,4.956-6.112,10.106-8.653,15.451c-1.47,2.897-2.939,5.798-4.41,8.696c-2.793,5.35-5.865,10.534-9.218,15.55
				c-1.414,1.927-2.829,3.853-4.243,5.779c-3.106,4.167-6.439,8.146-9.999,11.934c-4.526,5.091-10.182,9.028-15.793,12.782
				c-5.144,3.443-10.901,5.36-16.726,7.254c-3.692,0.883-7.43,1.462-11.217,1.738c-3.604,0.117-7.197-0.033-10.779-0.451
				c0.33,0.063,0.659,0.126,0.985,0.188c-1.951-0.382-3.903-0.765-5.854-1.146c0.326,0.085,0.653,0.169,0.98,0.254
				c-1.913-0.513-3.829-1.023-5.744-1.535c0.326,0.104,0.65,0.207,0.977,0.312c-1.799-0.646-3.596-1.289-5.395-1.933
				c0.32,0.123,0.645,0.246,0.966,0.37c-1.755-0.748-3.511-1.495-5.263-2.243c0.318,0.141,0.637,0.28,0.952,0.42
				c-4.024-2.052-7.809-4.223-11.579-6.709c-3.502-2.31-6.654-5.078-9.808-7.827c-2.796-2.438-5.263-5.245-7.627-8.093
				c-1.962-2.367-3.164-4.726-4.476-7.476c0.282,2.045,0.562,4.089,0.844,6.132c0.283-2.083,0.565-4.166,0.848-6.251
				c-0.205,0.468-0.413,0.938-0.62,1.405c1.245-2.066,2.524-3.61,4.255-5.294c-0.25,0.188-0.502,0.377-0.751,0.565
				c0.768-0.557,1.531-1.112,2.298-1.668c1.409-0.969,2.948-1.653,4.62-2.055c1.761-0.617,1.791-2.404,0.806-3.655
				c-0.795-0.98-1.697-1.844-2.707-2.596C180.567,468.597,179.972,468.725,178.795,469.567z"/>
			<path opacity="0.1091" d="M175.825,458.069c-0.382,1.281-0.515,2.607-0.398,3.977c0.033,1.263,0.063,2.524,0.097,3.787
				c0.022,4.306,0.083,8.611,0.183,12.918c0.056,2.611,0.543,4.907,1.207,7.428c0.457,1.73,1.694,3.664,2.571,5.256
				c2.592,4.713,6.696,8.425,10.611,12.021c6.449,5.926,14.248,10.191,22.184,13.733c7.561,3.373,15.81,4.465,23.989,4.731
				c7.547,0.244,14.948-1.813,21.946-4.378c11.17-4.095,20.17-11.709,28.665-19.776c5.764-5.475,10.444-12.181,15.109-18.563
				c5.533-7.569,9.907-15.931,14.331-24.165c-0.194,0.345-0.383,0.689-0.576,1.034c2.766-5.396,5.869-10.592,9.31-15.582
				c2.752-4,5.813-7.749,9.183-11.243c2.754-2.819,5.743-5.366,8.966-7.641c2.621-1.907,5.473-3.358,8.554-4.353
				c-0.573,0.176-1.146,0.352-1.719,0.527c1.927-0.516,3.854-1.033,5.779-1.547c-0.572,0.141-1.148,0.284-1.722,0.426
				c1.293-0.136,2.589-0.272,3.884-0.408c2.453-0.098,4.855,0.196,7.211,0.884c-1.004-0.304-2.009-0.609-3.017-0.912
				c2.114,0.693,4.229,1.388,6.342,2.083c-0.955-0.38-1.913-0.761-2.868-1.14c1.979,0.917,3.959,1.836,5.94,2.754
				c-0.896-0.446-1.793-0.893-2.69-1.34c1.874,1.096,3.748,2.192,5.622,3.289c-0.836-0.515-1.672-1.03-2.511-1.543
				c1.73,1.268,3.461,2.537,5.19,3.805c-0.772-0.567-1.544-1.135-2.316-1.703c1.633,1.406,3.267,2.811,4.896,4.216
				c-0.708-0.622-1.42-1.243-2.129-1.864c1.495,1.521,2.993,3.042,4.487,4.563c-0.647-0.66-1.295-1.321-1.943-1.983
				c1.412,1.624,2.824,3.249,4.238,4.872c-0.59-0.7-1.182-1.4-1.771-2.101c1.301,1.691,2.6,3.381,3.9,5.072
				c-0.534-0.729-1.068-1.457-1.605-2.187c1.231,1.768,2.461,3.535,3.689,5.301c-0.484-0.755-0.969-1.513-1.45-2.269
				c10.713,16.852,19.69,34.648,27.995,52.793c-0.208-0.455-0.412-0.912-0.617-1.367c0.806,1.801,1.58,3.597,2.491,5.344
				c0.64,0.651,1.34,0.723,2.096,0.209c0.985-1.088,1.483-2.394,1.489-3.919c0.415-2.568,0.673-5.152,0.772-7.753
				c0.296-1.497,0.069-2.875-0.685-4.136c-10.613-19.528-21.563-39.252-37.31-55.184c-2.023-2.006-4.188-3.848-6.494-5.521
				c-3.46-2.721-7.316-4.501-11.3-6.291c-4.02-1.805-8.673-2.134-12.985-2.392c-3.781-0.225-7.223,0.567-10.888,1.307
				c-11.565,2.333-20.03,10.972-28.012,18.961c-9.645,9.654-15.792,22.219-22.281,34.039c0.205-0.335,0.41-0.67,0.612-1.006
				c-1.631,2.67-3.261,5.338-4.892,8.007c0.219-0.324,0.438-0.648,0.658-0.972c-1.61,2.276-3.222,4.554-4.833,6.829
				c0.241-0.306,0.481-0.612,0.726-0.916c-1.528,1.888-3.054,3.776-4.581,5.666c-2.655,3.508-5.54,6.815-8.653,9.924
				c-4.02,4.292-8.723,7.604-13.596,10.821c0.338-0.182,0.673-0.362,1.011-0.544c-1.871,0.998-3.742,1.994-5.614,2.991
				c0.35-0.156,0.695-0.314,1.044-0.471c-1.888,0.782-3.772,1.565-5.661,2.348c0.357-0.133,0.715-0.266,1.071-0.399
				c-1.888,0.582-3.775,1.163-5.663,1.746c0.365-0.108,0.73-0.216,1.096-0.324c-2.945,0.73-5.935,1.163-8.966,1.299
				c-2.888,0.1-5.761-0.063-8.618-0.489c-6.896-0.708-13.467-3.821-19.502-7.011c-4.741-2.508-8.993-5.892-13.104-9.301
				c-1.938-1.622-3.765-3.36-5.483-5.215c-2.387-2.424-4.142-5.047-6.002-7.87c0.241,0.432,0.482,0.863,0.72,1.295
				c-0.872-2.462-1.595-4.688-1.979-7.276c-0.199-1.497-0.332-3-0.393-4.511c-0.357-1.049-0.889-2.007-1.589-2.87
				c0.056,4.292,0.11,8.583,0.163,12.875c0.186-1.558,0.911-2.699,2.173-3.423c2.043-1.054,4.152-1.94,6.337-2.662
				c0.643-0.797,0.691-1.661,0.144-2.591c-1.234-2.03-2.646-3.931-4.232-5.702C183.181,461.592,177.068,453.521,175.825,458.069z"/>
			<path opacity="0.1091" d="M180.352,465.478c-0.222,0.608-0.44,1.218-0.659,1.825c-0.158,2.315,0.03,4.606,0.564,6.875
				c-0.138-0.981-0.276-1.964-0.418-2.947c0.828,6.233,1.498,12.48,2.01,18.745c0.186,2.104,1.204,4.424,1.886,6.388
				c2.158,6.226,6.662,11.355,11.225,15.923c6.043,6.05,13.362,10.596,20.922,14.467c4.371,2.239,9.617,4.182,14.459,5.087
				c1.616,0.303,3.23,0.604,4.847,0.906c3.396,0.514,6.813,0.72,10.248,0.62c5.616,0.091,11.073-1.355,16.448-2.763
				c6.058-1.586,11.566-4.9,16.9-8.036c6.132-3.607,11.294-8.68,16.404-13.542c3.261-3.101,6.793-7.615,9.636-11.055
				c5.708-6.91,10.387-14.404,15.026-22.045c1.6-2.915,3.197-5.83,4.795-8.746c2.807-5.433,5.948-10.663,9.423-15.691
				c3.803-5.874,8.658-10.766,13.752-15.487c-0.481,0.392-0.963,0.785-1.444,1.177c1.957-1.515,3.916-3.028,5.874-4.543
				c-0.504,0.367-1.008,0.735-1.509,1.104c1.428-0.871,2.859-1.74,4.29-2.609c2.553-1.323,5.246-2.233,8.078-2.729
				c-1.207,0.168-2.411,0.337-3.615,0.506c2.452-0.281,4.905-0.563,7.357-0.845c-1.218,0.073-2.436,0.146-3.653,0.22
				c2.405,0.02,4.811,0.04,7.217,0.06c-2.965-0.2-5.933-0.401-8.897-0.602c4.069,0.461,8.136,0.922,12.205,1.381
				c-2.929-0.481-5.854-0.963-8.783-1.446c7.438,3.608,14.879,7.217,22.317,10.825c-2.254-1.868-4.507-3.738-6.761-5.607
				c3.01,2.729,6.021,5.458,9.033,8.188c-0.875-0.813-1.747-1.629-2.622-2.443c1.605,1.718,3.214,3.438,4.82,5.154
				c-0.784-0.894-1.57-1.789-2.354-2.684c1.492,1.848,2.981,3.696,4.474,5.544c-0.689-0.951-1.382-1.9-2.073-2.851
				c6.098,8.503,11.499,17.256,16.54,26.422c-0.271-0.518-0.546-1.035-0.819-1.552c3.917,7.5,7.687,15.059,11.238,22.739
				c1.993,4.309,3.765,8.756,5.94,12.976c0.51,0.818,1.188,0.996,2.035,0.535c1.204-1.097,1.943-2.477,2.217-4.139
				c0.897-2.795,1.642-5.631,2.234-8.506c0.581-1.582,0.614-3.146,0.105-4.694c-2.408-4.636-4.834-9.247-7.313-13.85
				c-4.283-7.959-9.222-15.482-14.531-22.788c-6.192-8.527-13.799-16.039-22.547-21.894c-3.161-2.116-6.561-3.639-10.067-5.09
				c-2.53-1.046-5.296-1.546-7.967-2.095c-4.269-0.88-9.362-0.733-13.598,0.281c-2.571,0.615-5.32,1.2-7.721,2.35
				c-2.716,1.169-5.32,2.551-7.812,4.145c-2.938,1.909-5.645,4.103-8.122,6.582c-1.398,1.462-2.793,2.923-4.191,4.385
				c-3.062,3.118-5.96,6.385-8.694,9.797c-7.231,8.554-13.1,18.259-19.351,27.521c-2.981,4.295-6.35,8.256-10.109,11.885
				c-3.23,2.683-6.351,5.487-9.362,8.411c-5.633,5.26-12.391,8.961-19.2,12.416c0.363-0.172,0.726-0.345,1.085-0.518
				c-1.807,0.693-3.617,1.388-5.428,2.081c0.379-0.137,0.756-0.272,1.132-0.409c-1.738,0.548-3.474,1.096-5.212,1.645
				c0.387-0.102,0.774-0.202,1.162-0.302c-1.744,0.346-3.488,0.691-5.231,1.039c0.393-0.065,0.788-0.129,1.185-0.193
				c-1.694,0.232-3.389,0.466-5.083,0.698c0.399-0.03,0.798-0.062,1.196-0.093c-1.684,0.05-3.366,0.1-5.049,0.15
				c0.398,0.002,0.8,0.004,1.198,0.005c-1.655-0.048-3.311-0.097-4.966-0.146c0.398,0.031,0.794,0.062,1.192,0.092
				c-1.63-0.208-3.258-0.414-4.886-0.62c0.394,0.057,0.786,0.115,1.18,0.173c-1.611-0.301-3.226-0.601-4.836-0.901
				c0.387,0.082,0.774,0.162,1.165,0.244c-3.659-1.008-7.081-2.162-10.574-3.645c-4.626-1.964-8.814-4.815-12.89-7.714
				c-3.883-2.763-7.219-6.146-10.469-9.605c-1.21-1.593-2.361-3.229-3.452-4.906c-2.784-6.342-6.167-12.378-10.146-18.105
				c1.719,5.5,3.441,11.002,5.16,16.502c2.544-1.089,5.157-1.972,7.842-2.647c0.582-1.013,0.477-2.011-0.318-2.989
				c-1.769-2.484-3.706-4.828-5.815-7.033C190.026,472.66,181.314,462.81,180.352,465.478z"/>
			<path opacity="0.1091" d="M177.948,479.635c-1.732,0.975-5.331,2.544-7.817,2.817c-0.936,0.481-1.48,1.271-1.633,2.365
				c-0.537,1.476-1.074,2.95-1.611,4.425c-0.274,1.618-0.327,3.244-0.16,4.88c0.19,2.947,0.771,4.789,2.021,7.44
				c1.462,3.106,3.771,5.57,5.99,8.14c2.594,3.005,5.811,5.547,8.85,8.072c3.615,3.002,7.79,5.868,11.965,8.041
				c4.269,2.222,8.474,4.095,12.985,5.772c4.816,1.789,9.888,2.513,14.942,3.221c3.25,0.455,7.749,0.568,11.057,0.104
				c1.979-0.277,3.958-0.555,5.938-0.833c4.219-0.687,8.302-1.854,12.249-3.501c6.719-2.343,12.529-6.338,18.373-10.27
				c1.894-1.578,3.787-3.154,5.681-4.732c3.958-3.5,7.621-7.286,10.992-11.355c10.143-11.307,17.521-24.765,24.571-38.108
				c1.561-2.878,3.125-5.754,4.688-8.631c2.749-4.753,5.85-9.266,9.302-13.534c1.533-1.702,3.064-3.405,4.598-5.107
				c2.68-2.792,5.686-5.171,9.017-7.134c-0.274,0.147-0.552,0.295-0.828,0.443c1.73-0.905,3.458-1.81,5.188-2.715
				c-0.282,0.139-0.564,0.277-0.847,0.417c5.154-2.282,10.568-2.464,16.249-0.544c2.032,0.849,3.914,1.954,5.642,3.317
				c-0.26-0.217-0.521-0.435-0.777-0.651c1.065,0.922,2.131,1.844,3.199,2.766c-0.249-0.242-0.498-0.484-0.747-0.726
				c0.869,0.853,1.738,1.707,2.607,2.56c-0.24-0.278-0.481-0.557-0.72-0.835c3.441,4.09,6.459,8.375,9.273,12.918
				c5.78,9.32,11.134,18.819,16.194,28.54c-0.293-0.574-0.587-1.147-0.878-1.722c3.06,6.057,6.035,12.148,8.884,18.306
				c1.562,3.372,2.989,6.842,4.739,10.119c0.883,1.65,3.048,1.884,3.57-0.244c0.25-1.863,0.283-3.733,0.092-5.608
				c-0.069-1.886-0.352-3.733-0.855-5.545c-2.289-3.952-4.465-7.976-6.719-11.948c-3.646-6.422-7.582-12.697-11.651-18.859
				c0.321,0.514,0.643,1.028,0.964,1.542c-2.871-4.713-5.786-9.383-8.551-14.162c-2.176-3.768-4.338-7.516-6.811-11.101
				c-1.309-1.896-2.784-3.591-4.343-5.279c-1.767-1.918-4.114-4.094-6.431-5.337c-2.143-1.341-4.424-2.377-6.843-3.107
				c-1.269-0.305-2.553-0.531-3.851-0.683c-5.359-0.84-9.977,0.459-15.029,2.179c-1.802,0.872-3.565,1.816-5.29,2.832
				c-3.333,1.993-6.339,4.4-9.019,7.218c-3.383,3.475-6.434,7.222-9.151,11.239c-1.522,2.411-3.045,4.823-4.567,7.234
				c-3.236,5.955-6.434,11.933-9.587,17.933c0.139-0.243,0.28-0.488,0.418-0.733c-1.729,2.961-3.457,5.92-5.188,8.881
				c0.155-0.237,0.308-0.474,0.46-0.71c-1.78,2.737-3.563,5.477-5.343,8.216c0.169-0.229,0.338-0.455,0.504-0.683
				c-1.836,2.453-3.674,4.905-5.512,7.358c-3.247,4.178-6.727,8.153-10.438,11.927c-3.441,3.354-7.101,6.452-10.979,9.291
				c-3.905,2.534-7.98,4.767-12.219,6.696c0.288-0.103,0.576-0.205,0.861-0.308c-2.458,0.854-4.917,1.707-7.375,2.56
				c0.302-0.083,0.606-0.166,0.908-0.249c-2.444,0.65-4.892,1.301-7.336,1.95c0.318-0.065,0.634-0.129,0.952-0.193
				c-2.361,0.307-4.723,0.614-7.084,0.922c0.333-0.038,0.665-0.075,0.994-0.112c-2.342,0.124-4.687,0.249-7.031,0.372
				c0.344-0.013,0.687-0.025,1.033-0.037c-3.533-0.126-7.034-0.52-10.506-1.18c-3.239-0.69-6.414-1.599-9.525-2.727
				c-5.844-1.894-11.22-5.214-16.374-8.467c-4.745-2.993-8.982-6.767-13.116-10.53c-3.521-3.207-6.402-6.844-9.168-10.694
				c0.238,0.657,0.479,1.313,0.72,1.971c-0.863-2.199-1.614-4.437-2.251-6.71c0.283,2.559,0.568,5.118,0.854,7.679
				c0.315-2.812,0.634-5.622,0.949-8.434c-0.463,1.385-0.925,2.769-1.39,4.154c1.304-1.729,2.633-2.98,4.318-4.347
				c-0.258,0.171-0.513,0.339-0.77,0.51c2.029-1.582,4.318-2.646,6.865-3.189c1.107-0.319,2.591-1.575,2.029-2.946
				c-0.507-0.799-1.166-1.446-1.979-1.942C180.352,479.822,179.139,478.965,177.948,479.635z"/>
		</g>
	</g>
</g>
</svg>
