<?xml version="1.0" encoding="utf-8"?>
<!-- Generator: Adobe Illustrator 16.0.0, SVG Export Plug-In . SVG Version: 6.00 Build 0)  -->
<!DOCTYPE svg PUBLIC "-//W3C//DTD SVG 1.1//EN" "http://www.w3.org/Graphics/SVG/1.1/DTD/svg11.dtd">
<svg version="1.1" id="Layer_1" xmlns="http://www.w3.org/2000/svg" xmlns:xlink="http://www.w3.org/1999/xlink" x="0px" y="0px"
	 width="595.281px" height="841.891px" viewBox="0 0 595.281 841.891" enable-background="new 0 0 595.281 841.891"
	 xml:space="preserve">
<text transform="matrix(1 0 0 1 259.1812 136.7148)" font-family="'MyriadPro-Regular'" font-size="60">Sin</text>
<path stroke="#000000" stroke-miterlimit="10" d="M296.017,346.001c0,0-110.946,186.322,0,248.994
	c111.639-11.931,14.229-251.288,8.168-248.994"/>
<g>
	<circle fill="#FFFFFF" stroke="#0A6031" stroke-width="3" stroke-miterlimit="10" cx="307.865" cy="496.88" r="254.629"/>
	<g>
		<g>
			<g>
				<g opacity="0.8">
					<g>
						<path fill="#202020" stroke="#0A6031" stroke-width="3" stroke-miterlimit="10" d="M331.755,711.845
							c2.464-0.213,4.912-0.424,7.347-0.634l1.827-0.155l1.805-0.263c1.203-0.173,2.402-0.346,3.6-0.519
							c1.196-0.172,2.392-0.343,3.584-0.514l1.785-0.26l1.762-0.357c2.349-0.476,4.686-0.948,7.012-1.419l1.745-0.354l1.716-0.451
							c1.144-0.3,2.285-0.6,3.423-0.897c1.141-0.299,2.277-0.598,3.413-0.895l1.703-0.444l1.671-0.536
							c4.445-1.455,8.907-2.78,13.182-4.56c8.688-3.199,16.902-7.33,24.938-11.681l5.896-3.504c0.977-0.595,1.981-1.139,2.933-1.774
							l2.848-1.911c1.895-1.282,3.811-2.53,5.688-3.838c1.829-1.377,3.66-2.755,5.494-4.136c11.41-8.514,21.976-17.57,31.776-27.307
							c9.794-9.737,18.825-20.159,26.969-31.45c8.136-11.288,15.384-23.452,21.415-36.627c6.024-13.17,10.827-27.357,13.906-42.547
							c3.194-15.021,4.558-29.91,4.426-44.703c-0.142-14.791-1.79-29.46-4.997-44.193c-4.897-29.979-16.775-60.896-36.2-88.42
							c-9.707-13.732-21.196-26.61-34.226-38.112l-2.429-2.178l-2.537-2.057c-1.692-1.374-3.387-2.75-5.084-4.127
							c-0.834-0.708-1.729-1.339-2.613-1.984l-2.654-1.936c-1.781-1.278-3.524-2.617-5.343-3.852
							c-7.317-4.865-14.823-9.565-22.747-13.562c-0.82-0.491-1.842-1.101-2.996-1.791c-1.165-0.667-2.431-1.49-3.855-2.162
							c-2.816-1.413-5.947-2.907-8.867-4.109c-5.97-2.124-11.027-3.073-10.976-0.155c-31.125-13.511-65.313-19.866-99.206-18.274
							c-16.919,0.798-33.712,3.616-49.868,8.469c-16.171,4.811-31.628,11.838-45.898,20.635
							c-12.12,7.12-24.536,14.427-36.318,22.941c-11.77,8.479-22.867,18.2-31.783,29.399c-7.013,9.278-13.79,18.612-20.048,28.293
							c-6.14,9.743-11.936,19.7-16.98,30.063c-1.263,2.587-2.379,5.24-3.583,7.858c-0.584,1.316-1.202,2.622-1.761,3.949
							l-1.568,4.024l-1.566,4.03c-0.52,1.345-1.07,2.681-1.488,4.059l-2.678,8.222c-0.474,1.365-0.825,2.763-1.188,4.156
							l-1.09,4.185l-1.073,4.188c-0.349,1.399-0.575,2.823-0.864,4.235c-0.54,2.83-1.092,5.66-1.58,8.498
							c-0.362,2.857-0.707,5.719-1.03,8.579c-0.112,3.21,0.563,8.347,0.911,13.26c0.134,2.456,0.504,4.884,0.658,7.015
							c0.174,2.133,0.233,3.979,0.108,5.301c-1.509,15.654-0.618,31.254,2.252,46.227c2.866,14.984,7.699,29.346,13.988,42.801
							c6.29,13.465,14.027,26.03,22.75,37.672c8.729,11.649,18.438,22.382,28.816,32.352c2.036,1.956,4.015,3.855,5.947,5.714
							c1.954,1.832,3.991,3.486,5.916,5.188c0.971,0.841,1.932,1.676,2.887,2.504c0.967,0.813,1.978,1.563,2.952,2.344
							c1.954,1.549,3.889,3.082,5.815,4.61c1.986,1.448,3.965,2.893,5.953,4.343c0.986,0.73,1.975,1.465,2.967,2.201
							c1.021,0.694,2.047,1.393,3.078,2.094c2.062,1.401,4.133,2.838,6.228,4.319c2.171,1.369,4.365,2.783,6.601,4.258
							c1.458-0.499,3.145,0.11,5.294,0.933c2.123,0.86,4.589,2.144,7.387,3.288c1.74,1.004,4.551,2.428,8.023,4.421
							c0.874,0.486,1.782,1.026,2.751,1.551c0.981,0.498,2.008,1.019,3.071,1.559c2.127,1.094,4.407,2.268,6.811,3.503
							c9.735,4.691,21.799,9.695,34.08,13.611c1.54,0.477,3.076,0.951,4.604,1.425c1.531,0.466,3.044,0.993,4.582,1.349
							c3.066,0.803,6.08,1.592,9.005,2.356c2.945,0.692,5.829,1.253,8.579,1.874c1.377,0.289,2.72,0.627,4.035,0.869
							c1.32,0.227,2.604,0.445,3.844,0.658c2.484,0.436,4.808,0.858,6.928,1.265c2.131,0.321,4.053,0.612,5.727,0.865
							c3.356,0.54,5.734,1.033,6.799,1.445c0.529,0.207-1.931,0.324-6.652,0.394c-2.36,0.01-5.294,0.143-8.68-0.1
							c-1.694-0.085-3.508-0.176-5.427-0.271c-0.96-0.05-1.946-0.1-2.958-0.15c-1.011-0.056-2.038-0.201-3.094-0.301
							c-16.875-1.516-39.706-5.79-61.29-14.198l-4.064-1.513c-1.341-0.537-2.653-1.135-3.98-1.695
							c-2.638-1.16-5.312-2.223-7.889-3.438c-2.563-1.25-5.104-2.488-7.615-3.713c-0.63-0.306-1.255-0.609-1.88-0.914
							c-0.608-0.334-1.216-0.667-1.818-0.999c-1.21-0.661-2.41-1.319-3.602-1.972c-4.828-2.501-9.223-5.375-13.496-7.919
							c-2.122-1.297-4.079-2.717-6.033-3.996c-0.972-0.649-1.926-1.288-2.86-1.914c-0.94-0.62-1.861-1.23-2.717-1.892
							c-1.741-1.281-3.407-2.506-4.987-3.668c-1.575-1.172-3.122-2.213-4.453-3.334c-2.717-2.174-5.088-4.035-7.037-5.523
							c-3.798-3.088-5.874-4.723-5.822-4.177c0.268,0.507,1.854,2.257,4.516,4.872c1.389,1.245,3.032,2.72,4.89,4.386
							c0.937,0.827,1.926,1.702,2.964,2.62c1.045,0.91,2.209,1.777,3.383,2.726c1.184,0.937,2.413,1.908,3.683,2.912
							c1.272,1,2.563,2.063,3.982,3.024c2.809,1.966,5.711,4.111,8.808,6.186c3.157,1.983,6.375,4.104,9.725,6.133
							c3.42,1.911,6.847,3.95,10.371,5.83c14.122,7.509,29.22,13.479,41.499,17.234c3.066,0.951,5.979,1.696,8.608,2.464
							c1.318,0.375,2.573,0.731,3.759,1.068c1.201,0.278,2.33,0.543,3.383,0.788c4.209,0.981,7.168,1.744,8.467,2.104
							c-13.932-2.012-27.098-5.148-39.42-9.045c-1.538-0.5-3.065-0.997-4.585-1.492c-1.523-0.486-3.04-0.974-4.503-1.564
							c-2.958-1.125-5.879-2.237-8.764-3.335c-2.85-1.188-5.628-2.448-8.401-3.646c-2.799-1.153-5.441-2.525-8.084-3.834
							c-5.346-2.517-10.305-5.423-15.224-8.146c-2.429-1.409-4.744-2.928-7.081-4.358c-1.164-0.724-2.319-1.441-3.468-2.157
							c-1.136-0.732-2.22-1.521-3.322-2.271c-2.198-1.52-4.366-3.015-6.504-4.491c-2.089-1.542-4.104-3.122-6.122-4.648
							c-4.098-2.989-7.747-6.28-11.44-9.333c-0.459-0.387-0.915-0.771-1.37-1.152c-0.445-0.392-0.871-0.802-1.307-1.199
							c-0.864-0.802-1.723-1.597-2.574-2.386c-1.709-1.581-3.391-3.138-5.047-4.67c-3.144-3.229-6.265-6.31-9.173-9.402
							c-2.802-3.179-5.612-6.193-8.176-9.238c-2.493-3.094-4.955-6.06-7.257-8.982c-9.097-11.789-15.758-22.751-21.126-32.187
							c-2.542-4.788-5.001-9.102-6.836-13.181c-1.932-4.039-3.725-7.643-5.039-10.95c-1.375-3.286-2.654-6.142-3.649-8.645
							c-0.957-2.521-1.762-4.642-2.423-6.38c-1.354-3.48-2.175-5.441-2.462-6.063c-0.307-0.618-0.28,0.154,0.216,2.082
							c0.521,1.921,1.45,5.013,2.726,9.08c0.593,2.048,1.444,4.285,2.375,6.741c0.933,2.455,1.922,5.138,3.05,7.988
							c4.726,11.32,11.626,25.392,21.093,39.897c9.451,14.497,21.364,29.471,35.189,42.715
							c13.777,13.287,29.222,24.966,44.551,34.077c9.025,6.462,20.969,12.891,35.797,18.836
							c14.837,5.942,32.516,11.396,53.218,15.868c-1.568-0.213-3.238-0.438-4.994-0.676c-1.762-0.225-3.624-0.417-5.521-0.772
							c-1.916-0.31-3.902-0.629-5.942-0.958c-2.045-0.331-4.172-0.602-6.283-1.077c-8.523-1.633-17.717-3.65-26.366-6.234
							c-17.354-5.004-32.713-11.768-38.06-15.115c-12.692-7.209-21.475-12.975-28.442-17.862
							c-7.045-4.813-12.214-8.852-17.538-13.146c-2.573-2.237-5.179-4.556-8-7.163c-2.743-2.678-5.603-5.741-8.895-9.28
							c-6.259-7.334-14.057-16.832-22.862-31.474c-7.154-12.028-15.056-26.565-21.936-42.902
							c-6.908-16.31-12.755-34.407-16.586-52.801c-3.875-18.386-5.709-37.002-5.772-54.021c-0.104-17.036,1.575-32.443,3.68-44.606
							c-0.048,0.811-0.116,1.648-0.152,2.524c-0.017,0.879-0.034,1.79-0.052,2.731c-0.037,1.874-0.077,3.868-0.119,5.969
							c-0.022,1.045-0.045,2.116-0.068,3.213c-0.011,0.547-0.021,1.101-0.034,1.659c0.015,0.562,0.026,1.129,0.04,1.703
							c0.053,2.282,0.104,4.657,0.159,7.109c-0.005,4.877,0.47,10.071,0.767,15.406c0.099,1.336,0.12,2.678,0.278,4.033
							c0.143,1.352,0.284,2.715,0.428,4.088c0.273,2.729,0.552,5.492,0.83,8.279c0.354,2.777,0.786,5.566,1.158,8.355
							c0.405,2.789,0.688,5.582,1.241,8.351c0.995,5.542,1.806,11.048,2.996,16.372c0.552,2.665,1.012,5.307,1.556,7.889
							c0.604,2.572,1.172,5.102,1.699,7.579c0.522,2.478,0.984,4.908,1.587,7.238c0.555,2.34,1.059,4.62,1.507,6.829
							c-0.771-4.855-1.749-9.381-2.274-13.754c-0.59-4.358-1.393-8.441-1.786-12.389c-0.259-1.965-0.513-3.881-0.759-5.752
							c-0.254-1.869-0.567-3.689-0.718-5.486c-0.379-3.584-0.797-7.006-1.249-10.305c-0.354-3.311-0.693-6.492-1.024-9.58
							c-0.189-1.552-0.377-3.078-0.563-4.584c-0.133-1.513-0.264-3.006-0.394-4.482c-0.269-2.959-0.563-5.869-0.87-8.766
							c-0.22-2.892-0.366-5.765-0.565-8.66c-0.503-5.802-0.42-11.627-0.476-17.824c0.034-3.092,0.283-6.241,0.476-9.524
							c0.118-1.642,0.238-3.311,0.361-5.012c0.223-1.688,0.449-3.409,0.681-5.165c1.878-14.041,5.724-30.422,14.584-49.734
							c0.805-1.805,1.611-3.693,2.427-5.659c0.403-0.985,0.814-1.986,1.231-3.002c0.451-1.001,0.909-2.018,1.374-3.049
							c1.873-4.117,3.62-8.6,5.831-13.067c1.304-1.983,2.589-3.94,3.881-5.906c0.628-0.992,1.324-1.944,2.025-2.902
							c0.697-0.959,1.399-1.925,2.109-2.902c1.42-1.948,2.872-3.939,4.382-6.011c1.604-1.997,3.27-4.071,5.023-6.256
							c10.265-14.083,21.337-26.898,33.197-38.546c11.863-11.643,24.521-22.121,38.025-31.372
							c13.499-9.248,27.862-17.267,43.122-23.821c15.249-6.57,31.437-11.577,48.415-14.767c-2.877,0.742-5.379,0.664-7.936,0.534
							c-1.275-0.065-2.564-0.144-3.914-0.14c-1.334,0.059-2.727,0.208-4.222,0.537c-1.849,0.38-3.688,0.759-5.521,1.136
							c-1.829,0.399-3.669,0.747-5.447,1.271c-3.581,0.974-7.129,1.982-10.646,3.02c-6.932,2.35-13.769,4.76-20.288,7.767
							c-13.104,5.846-25.491,12.784-37.108,20.971c-11.654,8.132-22.727,17.214-33.451,27.27
							c-10.639,10.156-20.928,21.26-31.029,33.567c-1.015,1.144-2.017,2.395-3.009,3.724c-0.49,0.668-0.998,1.342-1.468,2.059
							c-0.451,0.73-0.909,1.471-1.371,2.22c-1.81,3.026-3.606,6.244-5.316,9.524c-1.612,3.347-3.204,6.71-4.817,9.905
							c-0.838,1.579-1.54,3.204-2.311,4.731c-0.761,1.533-1.535,3.002-2.333,4.387c-0.802,1.411-1.598,2.812-2.389,4.203
							c-0.746,1.416-1.487,2.823-2.225,4.222c-1.469,2.801-3.04,5.511-4.458,8.267c-2.752,5.552-5.699,10.907-8.182,16.434
							c-0.649,1.371-1.301,2.738-1.949,4.104l-0.977,2.048c-0.32,0.685-0.595,1.387-0.895,2.079
							c-1.178,2.786-2.353,5.566-3.527,8.35l-0.881,2.096c-0.277,0.704-0.524,1.419-0.788,2.129
							c-0.518,1.426-1.033,2.854-1.551,4.283c-0.513,1.435-1.024,2.873-1.538,4.314l-0.763,2.171l-0.659,2.206
							c2.248-12.03,5.376-24.56,10.069-36.909c0.563-1.552,1.114-3.116,1.705-4.67c0.645-1.532,1.289-3.068,1.937-4.608
							c0.653-1.539,1.311-3.082,1.969-4.628c0.664-1.544,1.304-3.106,2.071-4.61c1.489-3.031,2.986-6.076,4.488-9.13
							c0.727-1.542,1.606-3.003,2.423-4.502c0.834-1.49,1.67-2.982,2.506-4.476c13.507-23.855,31.304-45.695,50.602-64.064
							c1.905-2.014,3.966-4.072,5.979-6.251c2.023-2.165,3.978-4.481,5.952-6.673c2.007-2.156,3.943-4.296,5.76-6.308
							c0.91-1.008,1.788-1.98,2.625-2.906c0.854-0.907,1.697-1.73,2.479-2.516c-2.603,1.74-5.044,3.699-7.533,5.599l-3.72,2.871
							c-1.245,0.952-2.482,1.914-3.661,2.948l-7.159,6.109l-1.783,1.54l-1.717,1.611l-3.431,3.232
							c-4.654,4.232-8.919,8.869-13.282,13.417c-2.144,2.309-4.16,4.737-6.238,7.111l-3.09,3.588
							c-1.013,1.211-1.962,2.476-2.942,3.713c-13.523,17.432-25.621,38.119-34.396,60.539c-4.593,11.118-8.057,22.768-11.146,34.376
							c-0.67,2.93-1.338,5.858-2.006,8.783c-0.322,1.462-0.682,2.911-0.971,4.377l-0.785,4.406c-0.519,2.93-1.034,5.851-1.551,8.763
							c-0.379,2.93-0.756,5.85-1.132,8.759c-0.187,1.451-0.373,2.898-0.559,4.344c-0.188,1.444-0.258,2.9-0.392,4.342
							c-0.236,2.886-0.474,5.758-0.709,8.611c-0.145,1.423-0.188,2.85-0.235,4.271c-0.054,1.42-0.105,2.836-0.158,4.246
							c-0.083,2.821-0.267,5.617-0.272,8.395c0.016,2.775,0.029,5.53,0.043,8.262c0.004,1.364,0.008,2.723,0.013,4.073
							c-0.007,1.353,0.108,2.696,0.154,4.034c0.289,5.352,0.343,10.6,0.874,15.708c1.53,20.472,4.521,38.815,6.892,54.313
							c0.702,1.727,1.396,3.43,2.81,6.9c-0.01,0.977,0.141,2.268,0.514,3.654c3.771,11.509,8.757,25.033,12.892,37.681
							c0,0-0.058-0.118-0.166-0.339c-0.099-0.227-0.243-0.558-0.428-0.979c-0.367-0.844-0.893-2.049-1.522-3.494
							c-0.627-1.446-1.359-3.133-2.144-4.94c-0.392-0.904-0.795-1.838-1.205-2.787c-0.393-0.957-0.746-1.946-1.124-2.928
							c-1.476-3.937-2.998-7.853-4.038-10.823c-0.969-2.998-1.614-4.996-1.614-4.996C34.785,567.115,28.4,544.772,25.7,521.401
							c-0.315-2.926-0.634-5.857-0.95-8.799c-0.277-2.944-0.362-5.906-0.535-8.874c-0.072-1.485-0.146-2.974-0.217-4.462
							l-0.104-2.234l-0.004-2.238c0.018-2.988,0.035-5.982,0.053-8.984c0.033-1.5-0.015-3.006,0.094-4.508l0.27-4.513
							c0.194-3.012,0.391-6.029,0.586-9.051c0.349-3.011,0.698-6.027,1.048-9.047l0.545-4.533c0.199-1.509,0.49-3.007,0.734-4.513
							c0.52-3.008,1.04-6.019,1.56-9.031c0.566-3.005,1.307-5.98,1.962-8.976c1.236-6.01,3.038-11.889,4.678-17.817
							c3.655-11.737,7.782-23.382,12.916-34.583c9.921-22.569,22.896-43.636,37.553-63.065c6.399-8.694,16.496-19.038,27.623-28.06
							c2.681-2.366,5.569-4.49,8.329-6.668c2.771-2.164,5.459-4.33,8.192-6.263c2.694-1.981,5.275-3.921,7.688-5.81
							c2.48-1.797,4.811-3.525,6.902-5.211c12.524-9.604,26.168-18.115,40.616-25.265c14.444-7.168,29.765-12.779,45.43-16.966
							c15.677-4.162,31.737-6.83,47.781-7.939c16.058-1.003,32.037-0.499,47.655,1.353c28.217,3.114,55.808,10.496,81.405,21.816
							c12.852,5.537,25.111,12.276,36.815,19.706l4.371,2.815l2.181,1.409l2.116,1.507l8.435,6.031
							c5.434,4.272,10.908,8.449,16.011,13.07l3.878,3.39c1.292,1.127,2.496,2.359,3.745,3.534l3.707,3.563
							c1.219,1.203,2.499,2.337,3.651,3.607l7.042,7.455c1.195,1.216,2.263,2.558,3.388,3.839l3.329,3.882
							c1.095,1.305,2.239,2.561,3.289,3.903l3.135,4.028c2.063,2.703,4.229,5.312,6.128,8.133l5.827,8.324l5.422,8.572
							c6.983,11.559,13.218,23.501,18.389,35.848c5.104,12.375,9.338,25.026,12.61,37.865
							c12.907,51.467,9.273,105.582-8.678,152.973l-0.81,2.229l-0.916,2.192l-1.828,4.376l-1.825,4.363
							c-0.628,1.443-1.347,2.854-2.014,4.279c-1.383,2.832-2.663,5.697-4.122,8.479l-4.477,8.27
							c-6.232,10.856-13.096,21.255-20.719,30.982c-7.697,9.678-15.997,18.75-24.821,27.161
							c-8.954,8.293-18.402,15.902-28.25,22.793c-1.733,1.41-3.467,2.822-5.196,4.229c-1.733,1.401-3.44,2.831-5.26,4.086
							c0.951-0.353,1.918-0.664,2.833-1.04c0.916-0.379,1.825-0.755,2.732-1.13l-2.711,1.648l-2.797,1.521
							c-1.86,0.998-3.719,1.995-5.568,2.986l-1.879,1.347c-0.635,0.435-1.292,0.837-1.938,1.255l-3.89,2.474l-3.894,2.451
							c-1.313,0.788-2.669,1.501-4.002,2.248l-4.017,2.2c-1.345,0.719-2.661,1.485-4.054,2.105c-2.753,1.302-5.509,2.58-8.264,3.836
							c-11.164,4.724-22.682,8.347-34.402,10.481c-2.444,0.288-2.662,0.032-1.48-0.416c1.171-0.484,3.677-1.391,6.7-2.422
							c1.509-0.524,3.143-1.093,4.8-1.669c1.623-0.669,3.263-1.362,4.813-2.05c3.089-1.401,5.864-2.67,7.316-3.95
							c-0.625,0.229-1.243,0.476-1.863,0.688c-0.627,0.198-1.242,0.394-1.839,0.581c-1.189,0.378-2.301,0.729-3.252,1.031
							c-1.899,0.604-3.166,1.005-3.166,1.005s0.51-1.468,1.019-2.933c-1.784,0.981-3.353,1.385-4.85,1.511
							c-1.514,0.085-2.937-0.044-4.412-0.003c12.085-4.164,23.854-9.315,35.144-15.413c11.239-6.191,21.991-13.294,32.129-21.216
							c5.12-3.9,9.943-8.176,14.733-12.48l6.995-6.675l6.675-7.003c8.719-9.514,16.7-19.718,23.859-30.494
							c-2.851,1.678-6.537,5.522-9.914,9.768c-1.745,2.075-3.517,4.185-5.142,6.116c-0.807,0.971-1.576,1.896-2.287,2.751
							c-0.717,0.851-1.454,1.566-2.08,2.211c-10.364,13.361-22.392,25.645-35.308,34.235c-1.05,0.84-2.079,1.71-3.158,2.518
							l-3.296,2.345l-3.317,2.327c-1.11,0.771-2.207,1.563-3.378,2.246c-2.313,1.401-4.632,2.807-6.952,4.212
							c-1.146,0.723-2.357,1.337-3.561,1.966l-3.609,1.881l-3.611,1.866c-1.216,0.6-2.473,1.121-3.706,1.683
							c-2.483,1.09-4.94,2.226-7.44,3.255c-5.079,1.893-10.08,3.901-15.258,5.387c-5.084,1.723-10.323,2.903-15.45,4.252
							c-2.589,0.595-5.203,1.064-7.78,1.61l-3.861,0.799c-1.3,0.198-2.599,0.396-3.896,0.596c-2.591,0.388-5.153,0.838-7.721,1.2
							c-2.577,0.288-5.146,0.577-7.705,0.864c-1.279,0.13-2.539,0.354-3.821,0.416c-1.276,0.091-2.552,0.182-3.822,0.271
							c-2.543,0.165-5.057,0.448-7.574,0.567c-3.764-0.224-7.486-0.395-11.161-0.721c-3.685-0.465-7.312-0.962-10.856-1.507
							c-2.562-0.474-3.146-1.056-2.318-1.646c0.413-0.295,1.181-0.593,2.23-0.88c0.929-0.31,2.053-0.622,3.378-0.91
							c1.32-0.289,2.817-0.559,4.436-0.791c1.615-0.248,3.354-0.376,5.141-0.675c1.789-0.252,3.64-0.456,5.496-0.595
							C328.082,711.997,329.954,711.992,331.755,711.845z M381.863,240.938c15.223,6.047,29.14,13.741,42.646,22.777
							c2.475,1.406,4.938,2.806,7.403,4.206c2.389,1.524,4.776,3.049,7.176,4.581c1.454,0.99,3.008,1.873,4.497,2.917
							c1.504,1.018,3.047,2.025,4.625,3.024c1.577,0.999,3.19,1.99,4.835,2.973c1.599,1.051,3.221,2.108,4.874,3.153
							c23.57,19.14,43.386,42.106,58.51,67.6c-6.486-13.485-14.53-26.803-24.912-39.703c-10.38-12.877-23.125-25.35-38.984-36.546
							c10.357,7.031,20.088,14.613,28.805,22.996c1.103,1.031,2.204,2.06,3.302,3.086c1.049,1.079,2.096,2.155,3.141,3.23
							c2.072,2.166,4.166,4.288,6.17,6.479c3.873,4.516,7.826,8.881,11.302,13.6c14.4,18.455,25.245,38.665,33.244,59.347
							c3.814,10.433,7.203,20.886,9.509,31.555c1.343,5.271,2.176,10.66,3.143,15.97l0.347,1.994l0.255,2.016l0.508,4.02
							l0.508,4.007l0.253,1.999c0.072,0.668,0.106,1.344,0.163,2.016c0.375,5.379,0.933,10.699,0.95,16.079
							c0.053,2.682,0.183,5.349,0.176,8.024c-0.062,2.674-0.122,5.351-0.184,8.03l-0.094,4.004l-0.287,4.009
							c-0.186,2.661-0.371,5.327-0.557,8c-0.269,2.661-0.622,5.32-0.921,7.979c-0.316,2.656-0.567,5.314-1.067,7.956
							c-0.385,3.204-0.771,6.413-1.158,9.629c-0.538,3.188-1.078,6.383-1.618,9.583l-0.398,2.396l-0.522,2.379l-1.036,4.76
							l-1.027,4.765c-0.421,1.571-0.843,3.144-1.267,4.718c-1.552,6.328-3.614,12.536-5.615,18.775
							c-1.131,3.074-2.265,6.158-3.4,9.25c-0.525,1.559-1.234,3.052-1.856,4.579c-0.638,1.521-1.275,3.043-1.916,4.567
							c-7.128,17.211-15.719,33.373-25.731,48.422c8.883-11.139,16.854-23.076,23.779-35.672l2.528-4.763
							c0.825-1.598,1.743-3.157,2.469-4.804l4.594-9.796l4.139-10.024c1.297-3.377,2.452-6.81,3.694-10.225
							c4.638-13.754,8.107-27.979,10.364-42.483l0.792-5.452l0.396-2.732c0.126-0.911,0.183-1.827,0.278-2.742
							c0.333-3.661,0.713-7.332,1.015-11.014l0.483-11.077c0.127-1.854,0.021-3.698,0.037-5.552l-0.038-5.565
							c-0.313-14.84-1.889-29.743-4.779-44.489l-1.163-5.518c-0.403-1.838-0.73-3.702-1.25-5.509
							c-0.965-3.637-1.898-7.297-2.904-10.945l-3.432-10.825c-1.24-3.58-2.62-7.114-3.933-10.688
							c-11.115-28.313-27.395-54.999-48.105-78.308c-20.688-23.331-45.953-43.073-74.225-57.958
							c-14.14-7.436-29.042-13.638-44.478-18.469c-15.447-4.783-31.427-8.115-47.64-10.032c-16.216-1.904-32.663-2.401-49.148-1.396
							c-16.477,1.082-32.942,3.711-49.107,7.844c-32.332,8.256-63.415,22.696-90.903,42.571c18.494-11.86,37.955-21.528,58.02-28.89
							c2.475-0.997,5.039-1.769,7.566-2.611l7.586-2.476l7.682-2.123l3.833-1.047l1.915-0.519l1.938-0.433l7.742-1.719
							c1.29-0.279,2.572-0.58,3.865-0.838l3.899-0.668l7.785-1.321c1.29-0.242,2.6-0.391,3.904-0.544l3.914-0.467
							c20.854-2.514,41.833-2.615,62.511-0.336C341.961,228.857,362.342,233.714,381.863,240.938z M351.897,237.473
							c-16.076-3.025-32.377-4.418-48.564-4.276c-16.189,0.153-32.301,1.804-47.98,5.07c-21.401,4.067-42.823,10.979-62.809,20.459
							c-2.468,1.248-4.932,2.494-7.392,3.737c-1.226,0.629-2.463,1.236-3.676,1.884l-3.579,2.043
							c-2.381,1.367-4.756,2.73-7.124,4.089c-2.299,1.474-4.59,2.943-6.874,4.407c-1.14,0.736-2.275,1.471-3.412,2.205
							c-1.135,0.733-2.205,1.558-3.307,2.331c-2.185,1.575-4.358,3.143-6.523,4.705c-1.097,0.76-2.115,1.62-3.156,2.444
							c-1.036,0.831-2.069,1.66-3.102,2.486c-1.028,0.829-2.054,1.655-3.077,2.48l-1.53,1.237l-1.471,1.3
							c-15.803,13.687-29.036,28.762-39.231,43.754c-10.225,14.988-17.397,29.864-21.829,43.048
							c7.844-17.072,17.669-33.509,29.355-48.844c11.722-15.307,25.396-29.403,40.639-41.95c3.739-3.232,7.772-6.103,11.735-9.095
							c1.962-1.527,4.043-2.886,6.105-4.279c2.065-1.39,4.135-2.782,6.206-4.175c2.111-1.328,4.268-2.594,6.406-3.895l3.22-1.938
							l1.612-0.969l1.656-0.892c2.213-1.186,4.428-2.374,6.646-3.562c1.113-0.585,2.212-1.206,3.343-1.761l3.418-1.618
							c18.188-8.736,37.604-15.456,57.749-19.633c-4.792,0.967-9.051,1.94-12.826,2.751c-3.743,0.944-6.972,1.867-9.747,2.61
							c-1.383,0.385-2.659,0.709-3.804,1.058c-1.137,0.373-2.161,0.708-3.075,1.008c-1.826,0.606-3.212,1.066-4.177,1.387
							c-3.857,1.302-0.965,0.42,7.365-2.233c8.429-2.288,22.403-6.242,41.08-8.676c2.336-0.271,4.738-0.551,7.207-0.839
							c1.233-0.14,2.483-0.283,3.751-0.427c1.271-0.085,2.56-0.171,3.861-0.258c2.606-0.173,5.274-0.35,8.004-0.531
							c1.362-0.121,2.746-0.104,4.144-0.136c1.396-0.023,2.808-0.047,4.233-0.071c1.426-0.024,2.864-0.048,4.318-0.072
							c0.727-0.012,1.456-0.024,2.19-0.036c0.732,0.024,1.471,0.048,2.211,0.072c2.961,0.098,5.977,0.197,9.045,0.298
							c0.768,0.026,1.537,0.053,2.311,0.079c0.771,0.063,1.547,0.127,2.324,0.191c1.556,0.129,3.124,0.258,4.705,0.389
							c3.16,0.274,6.377,0.465,9.611,0.964c1.208,0.005,3.094,0.169,5.465,0.435c1.185,0.143,2.49,0.3,3.896,0.469
							C348.848,236.896,350.334,237.199,351.897,237.473z"/>
						<path fill="#202020" stroke="#0A6031" stroke-width="3" stroke-miterlimit="10" d="M542.033,601.371
							c-8.982,15.219-19.39,29.505-31.036,42.434c-11.64,12.929-24.52,24.493-38.276,34.298c2.946-1.557,5.805-3.065,8.65-4.568
							l2.147-1.158l2.076-1.251c1.386-0.852,2.778-1.707,4.188-2.571c1.405-0.881,2.833-1.774,4.266-2.713
							c1.383-0.983,2.785-2.001,4.213-3.058c2.849-2.118,5.868-4.342,8.783-7.012c1.941-1.823,3.887-3.688,5.832-5.588
							c1.857-1.968,3.692-3.989,5.54-6.034c0.92-1.028,1.843-2.062,2.769-3.096c0.89-1.063,1.743-2.156,2.614-3.244
							c1.727-2.2,3.462-4.412,5.204-6.635c1.635-2.299,3.242-4.639,4.861-6.99c0.806-1.183,1.612-2.365,2.42-3.552
							c0.746-1.224,1.493-2.448,2.241-3.677c1.485-2.464,3.002-4.931,4.457-7.44c1.361-2.563,2.725-5.133,4.091-7.704
							c0.666-1.297,1.397-2.568,2.008-3.896l1.851-3.977c1.209-2.664,2.518-5.302,3.645-8.011
							c2.174-5.444,4.524-10.859,6.353-16.442c4.051-11.056,7.064-22.401,9.871-33.664c3.921-16.215,6.157-33.026,6.731-50.086
							c0.582-17.063-0.524-34.405-3.426-51.643c-5.768-34.48-18.84-68.494-38.552-98.943
							c-19.668-30.468-45.927-57.373-76.961-78.154c-30.992-20.815-66.794-35.426-104.383-42.117
							c-0.918-0.21-1.974-0.472-3.149-0.703c-1.183-0.198-2.48-0.416-3.867-0.649c-2.777-0.449-5.923-0.921-9.229-1.364
							c-3.313-0.372-6.797-0.573-10.228-0.772c-1.716-0.091-3.42-0.163-5.084-0.211c-1.667,0.019-3.295,0.074-4.856,0.146
							c23.984,1.591,47.489,6.498,69.815,13.942c22.375,7.361,43.408,17.817,62.775,30.275c2.46,1.496,4.803,3.172,7.156,4.824
							c2.349,1.657,4.711,3.283,7.027,4.968l6.786,5.266l3.377,2.634l3.257,2.78l6.479,5.569c2.11,1.906,4.149,3.891,6.219,5.833
							c4.195,3.821,8.019,8.019,11.939,12.077c0.991,1.004,1.926,2.064,2.847,3.135l2.777,3.192l2.77,3.19
							c0.926,1.059,1.847,2.121,2.702,3.241c3.459,4.442,7.048,8.75,10.209,13.386c1.617,2.288,3.257,4.551,4.836,6.854l4.517,7.054
							l2.245,3.522l2.09,3.619l4.137,7.239c10.597,19.529,18.616,40.233,24.063,61.396c5.362,21.199,7.885,42.911,7.857,64.401
							c0.016,21.492-2.852,42.813-8.186,63.312c-0.693,2.558-1.28,5.13-2.067,7.656l-2.397,7.554l-1.207,3.762l-1.389,3.705
							l-2.783,7.379c-0.966,2.441-2.078,4.832-3.11,7.239l-1.577,3.599l-0.795,1.793l-0.878,1.761
							C546.917,592.157,544.71,596.878,542.033,601.371z"/>
						<path fill="#202020" stroke="#0A6031" stroke-width="3" stroke-miterlimit="10" d="M92.661,298.175
							c-0.59,0.672-1.197,1.328-1.771,2.013l-1.696,2.081l-3.382,4.161l-3.368,4.159c-1.085,1.415-2.131,2.861-3.193,4.288
							l-3.172,4.29c-1.044,1.437-2.14,2.831-3.104,4.321c-1.981,2.937-3.958,5.867-5.93,8.79c-1.012,1.441-1.903,2.961-2.829,4.453
							c-0.922,1.495-1.842,2.987-2.76,4.477c-0.919,1.488-1.837,2.974-2.753,4.456c-0.855,1.519-1.71,3.034-2.563,4.547
							c-1.682,3.037-3.46,6.003-5.056,9.05c-1.582,3.055-3.156,6.095-4.723,9.119c1.698-2.612,3.434-5.351,5.195-8.189
							c0.854-1.433,1.815-2.838,2.777-4.266c0.95-1.432,1.915-2.883,2.891-4.351c0.965-1.47,1.939-2.957,2.923-4.457
							c1.016-1.479,2.083-2.941,3.127-4.431c1.047-1.487,2.102-2.984,3.16-4.488c1.054-1.505,2.093-3.029,3.24-4.483
							c8.71-11.967,18.531-23.41,27.735-33.173c25.45-27.875,56.595-50.742,90.7-66.222
							C153.17,247.831,120.084,269.092,92.661,298.175z"/>
						<path fill="#202020" stroke="#0A6031" stroke-width="3" stroke-miterlimit="10" d="M317.797,211.326l-5.745-0.359
							c-1.918-0.094-3.838-0.291-5.765-0.277c-3.854-0.049-7.724-0.099-11.617-0.149c-17.843,0.148-35.987,2.174-53.918,6.151
							c-17.933,3.971-35.642,9.888-52.641,17.626c36.931-14.302,75.992-20.073,114.511-18.554c-0.059-1.285,1.535-2.302,4.252-3.101
							C309.589,211.899,313.421,211.557,317.797,211.326z"/>
					</g>
				</g>
			</g>
		</g>
	</g>
</g>
</svg>
