<?xml version="1.0" encoding="utf-8"?>
<!-- Generator: Adobe Illustrator 16.0.0, SVG Export Plug-In . SVG Version: 6.00 Build 0)  -->
<!DOCTYPE svg PUBLIC "-//W3C//DTD SVG 1.1//EN" "http://www.w3.org/Graphics/SVG/1.1/DTD/svg11.dtd">
<svg version="1.1" id="Layer_1" xmlns="http://www.w3.org/2000/svg" xmlns:xlink="http://www.w3.org/1999/xlink" x="0px" y="0px"
	 width="595.281px" height="841.891px" viewBox="0 0 595.281 841.891" enable-background="new 0 0 595.281 841.891"
	 xml:space="preserve">
<text transform="matrix(1 0 0 1 171.4614 136.7148)" font-family="'MyriadPro-Regular'" font-size="60">Animancy</text>
<g>
	<g>
		<g>
			<path fill="#231F20" d="M292.078,253.34c90.355,0.245,174.94,49.832,220.076,127.961c45.767,79.221,44.261,179.949-3.047,258.061
				c-11.177,18.455-24.797,35.435-40.356,50.371c-3.626,3.48-7.538,6.95-10.294,9.265c-2.005,1.685-4.049,3.321-6.104,4.943
				c2.928-2.311-0.535,0.381-0.952,0.696c-0.698,0.525-1.399,1.047-2.103,1.564c2.109-1.517,2.339-1.683,0.688-0.499
				c-1.066,0.765-2.145,1.512-3.222,2.259c4.886-3.389,1.046-0.725,0.043-0.059c-3.903,2.59,4.016-2.537,0.058-0.027
				c-1.109,0.703-2.23,1.391-3.351,2.077c4.267-2.614,0.377-0.249-0.427,0.222c-1.137,0.664-2.284,1.312-3.431,1.958
				c3.229-1.821-0.628,0.315-1.078,0.557c-1.55,0.832-3.115,1.637-4.683,2.437c-38.151,19.475-86.053,27.977-130.307,24.493
				c-89.356-7.034-169.658-63.071-208.622-143.499c-39.916-82.391-31.045-182.546,21.774-257.061
				c10.717-15.12,23.157-28.894,36.97-41.237c2.051-1.832,1.456-1.292,3.562-3.061c1.671-1.403,3.37-2.771,5.076-4.131
				c1.406-1.107,1.371-1.082-0.106,0.078c1.037-0.801,2.086-1.585,3.135-2.37c3.638-2.722-3.329,2.366,0.366-0.281
				c1.066-0.764,2.144-1.511,3.221-2.258c-7.402,5.133,6.365-4.069-1.21,0.79c1.106-0.709,2.223-1.402,3.34-2.094
				c3.871-2.399-3.51,2.076,0.412-0.244c0.756-0.445,1.515-0.886,2.276-1.323c0.443-0.256,4.295-2.39,1.048-0.603
				c2.312-1.272,4.653-2.49,7.003-3.69C214.06,262.184,254.315,253.442,292.078,253.34c2.407-0.006,6.453-2.99,8.324-4.077
				c4.441-2.58,8.759-5.387,12.962-8.339c3.25-2.283,6.556-4.639,9.459-7.364c0.593-0.556,2.905-2.404,0.831-2.398
				c-47.552,0.129-92.566,13.833-133.799,37.087c-43.819,24.713-84.009,57.564-111.775,99.884
				c-50.026,76.248-54.727,176.287-12.917,257.154c41.095,79.481,123.648,132.331,212.898,136.931
				c46.683,2.405,92.178-8.141,133.813-29.121c45.393-22.874,88.152-55.459,118.331-96.675
				c53.849-73.54,63.677-173.175,26.157-256.069c-36.902-81.532-116.545-138.371-205.355-147.784
				c-9.081-0.962-18.224-1.383-27.353-1.407c-2.394-0.007-6.47,3-8.324,4.077c-4.441,2.58-8.759,5.387-12.962,8.339
				c-3.25,2.283-6.556,4.639-9.459,7.364C292.3,251.513,290.014,253.334,292.078,253.34z"/>
		</g>
	</g>
	<g>
		<g>
			<g>
				<g opacity="0.8">
					<g>
						<g>
							<g>
								<path fill="#231F20" d="M317.321,724.647c20.461-1.768,39.88-6.062,59.026-13.586c23.807-9.356,44.846-24.363,64.704-40.2
									c27.069-21.589,52.362-45.871,71.93-74.58c16.816-24.674,27.756-52.475,32.979-81.823c5.54-31.119,2.44-62.223-4.227-92.88
									c-6.248-28.724-18.792-55.997-36.023-79.765c-13.955-19.248-31.078-35.487-50.167-49.507
									c-11.288-8.291-24.023-15.563-36.679-21.559c-5.053-2.394-11.559-5.596-16.969-2.804
									c-6.786,3.503-12.898,9.133-18.565,14.159c-3.398,3.014-9.696,7.314-10.559,12.223c10.215-8.569,20.43-17.139,30.645-25.708
									c-55.907-23.997-121.392-25.385-176.896,0.582c-13.834,6.472-26.935,14.627-39.896,22.671
									c-15.72,9.757-30.753,20.585-44.81,32.625c-14.113,12.09-26.667,24.935-37.693,39.884
									c-9.281,12.583-17.812,25.624-25.383,39.307c-8.399,15.177-15.522,31.589-19.909,48.426
									c-2.409,9.244-4.314,18.502-5.43,28.005c-0.773,6.593,0.514,13.772,1.224,20.342c0.808,7.479-0.443,15.057-0.467,22.565
									c-0.198,61.331,35.626,115.318,80.394,154.34c6.097,5.314,12.598,10.085,19.088,14.899c3.007,2.23,6.153,4.272,9.225,6.413
									c1.941,1.354,6.704,5.681,9.057,5.309c2.801-0.443,6.157,1.739,8.594,2.869c2.873,1.331,5.633,2.736,8.416,4.252
									c6.585,3.589,13.154,7.167,19.968,10.313c14.813,6.839,30.209,12.03,45.975,16.152c6.605,1.728,13.336,2.998,20.055,4.187
									c3.605,0.638,7.202,1.259,10.822,1.807c1.357,0.205,5.902,0.337,6.859,1.519c9.918-8.553,19.837-17.104,29.756-25.656
									c-2.11,0.651-4.873,0.258-7.051,0.281c-4.307,0.045-8.579-0.17-12.879-0.385c-7.536-0.376-15.048-1.362-22.493-2.57
									c-16.261-2.638-31.902-7.256-47.313-12.996c-13.606-5.067-26.646-11.938-39.01-19.508
									c-7.256-4.442-14.154-9.336-21.025-14.344c-3.045-2.219-5.944-4.637-8.922-6.945c-2-1.551-4.298-4.232-6.751-5.056
									c-2.969-0.996-10.607,6.468-12.489,7.959c-5.695,4.518-12.259,9.391-16.713,15.221c-0.026,0.035-0.053,0.069-0.079,0.104
									c-0.843,0.674-1.324,1.517-1.443,2.528c2.444,3.576,6.212,6.393,9.406,9.258c4.045,3.628,8.334,6.969,12.632,10.293
									c9.899,7.657,20.858,14.178,31.918,19.997c20.475,10.772,41.92,16.778,64.083,22.799
									c10.215-8.569,20.43-17.14,30.645-25.709c-47.694-7.078-93.93-27.949-129.595-60.671
									c-18.238-16.731-34.192-35.425-47.234-56.494c-5.998-9.69-11.229-19.764-16.067-30.075
									c-2.225-4.741-4.273-9.64-6.132-14.536c-0.827-2.179-1.649-4.359-2.5-6.529c-0.472-1.206-0.989-3.728-2.02-4.612
									c-2.095-1.797-15.263,10.194-16.608,11.322c-3.61,3.028-7.165,6.162-10.458,9.538c-0.766,0.785-3.714,3.291-3.579,4.848
									c0.376,4.319,2.342,8.79,3.623,12.897c1.669,5.352,3.859,10.666,6.064,15.817c4.773,11.149,10.458,21.896,16.789,32.236
									c12.952,21.156,29.262,40.159,47.932,56.459c9.11,7.954,18.875,15.15,29.047,21.681c9.272,5.951,18.445,11.84,28.385,16.647
									c21.034,10.175,43.803,16.737,66.566,21.71c10.215-8.569,20.43-17.14,30.645-25.709
									c-27.966-3.791-55.744-9.595-81.404-21.762c-10.551-5.003-20.553-11.648-30.211-18.176
									c-11.146-7.534-22.125-15.564-31.615-25.147c-18.514-18.696-32.276-41.344-43.927-64.791
									c-13.839-27.852-23.249-57.807-27.56-88.611c-3.693-26.389-3.263-53.337,1.2-79.6c-10.215,8.569-20.43,17.14-30.645,25.709
									c-2.641,40.589,5.64,79.877,13.821,119.326c0.166,0.798,15.805-10.648,16.607-11.322c3.61-3.028,7.165-6.163,10.458-9.538
									c0.649-0.666,3.819-3.388,3.579-4.849c-4.759-28.877-8.709-58.009-10.439-87.244c-1.696-28.683,3.829-56.787,15.658-82.906
									c2.71-5.985,5.225-12.076,7.82-18.112c3.124-7.265,7.486-13.475,12.129-19.844c8.73-11.976,17.98-23.725,27.888-34.75
									c4.49-4.997,8.38-8.814,12.694-12.868c4.39-4.124-2.583,2.286,1.9-1.718c4.528-4.044-3.113,2.604,1.51-1.315
									c4.62-3.917-3.188,2.522,1.526-1.268c0.95-0.758,1.904-1.51,2.863-2.256c-1.382,1.067-1.197,0.937,0.556-0.393
									c4.274-3.21,9.664-6.825,15.147-10.177c6.687-4.088,13.591-7.823,20.657-11.21c18.036-8.646,37.17-14.788,56.801-18.558
									c9.622-8.535,19.244-17.07,28.866-25.604c-5.917,1.24-11.922,0.078-17.918,1.311c-7.253,1.492-14.481,3.248-21.499,5.636
									c-14.286,4.862-27.949,11.129-41.063,18.594c-31.147,17.73-59.45,42.066-84.341,67.683
									c-10.113,10.408-20.484,21.329-28.768,33.283c-3.955,5.706-6.877,12.182-9.896,18.404
									c-3.192,6.578-6.722,12.924-10.126,19.386c-10.187,19.333-20.62,38.843-26.907,59.882
									c10.146-8.28,20.292-16.561,30.439-24.841c5.98-31.469,18.553-60.888,36.14-87.605
									c8.323-12.644,17.899-24.516,28.341-35.469c3.089-3.24,4.295-4.426,6.81-6.833c3.817-3.654,7.444-7.52,11.015-11.412
									c4.884-5.324,9.74-11.142,14.681-16.083c0.021-0.021,4.279-4.013,3.579-4.848s-5.372,2.664-5.396,2.681
									c-2.143,1.482-4.258,3-6.361,4.537c-0.91,0.665-7.763,5.954-4.474,3.424c-2.112,1.624-4.223,3.25-6.333,4.878
									c-3.912,3.019-7.719,6.162-11.477,9.369c-6.315,5.389-12.548,10.84-18.592,16.534
									c-19.603,18.467-36.816,38.768-50.464,62.038c-27.342,46.62-38.792,102.616-36.117,156.347
									c1.017,20.414,3.432,40.572,6.529,60.771c0.621,4.049,1.215,7.636,2.758,11.423c1.693,4.157,2.411,8.739,3.88,13.062
									c3.542,10.419,7.289,20.767,10.727,31.222c10.215-8.569,20.43-17.14,30.645-25.709c-5.206-10.626-8.14-22.146-12.952-32.87
									c-6.091-13.576-10.594-27.838-13.823-42.352c-5.105-22.949-6.305-46.611-4.788-70.021
									c3.697-57.058,27.101-113.321,62.592-157.951c1.71-2.151,3.518-4.232,5.402-6.232c-0.317,0.336,3.667-3.73,2.069-2.167
									c0.063-0.062,4.412-4.104,1.815-1.754c4.54-4.108-3.115,2.566,1.61-1.385c0.399-0.333,5.176-4.173,1.461-1.226
									c1.388-1.101,2.799-2.173,4.194-3.264c0.917-0.718,1.833-1.437,2.748-2.156c-1.521,1.151-1.424,1.082,0.292-0.206
									c2.609-1.952,5.246-3.862,7.831-5.846c1.263-0.972,2.526-1.944,3.79-2.916c-1.573,1.253-1.463,1.201,0.329-0.157
									c2.199-1.624,4.345-3.318,6.511-4.985c-3.174,2.443,1.444-1.066,1.708-1.261c4.605-3.401-2.27,1.551,2.443-1.723
									c3.02-2.098,6.104-4.084,9.239-6.004c26.552-16.265,56.4-26.532,87.049-31.624c61.39-10.2,127.033,4.032,180.344,35.517
									c67.327,39.763,115.275,108.096,128.511,185.376c8.129,47.463,2.313,96.868-16.25,141.232
									c-7.228,17.275-16.608,33.549-27.502,48.768c-3.911,5.465-8.229,10.629-12.64,15.693c-2.132,2.447-4.34,4.815-6.587,7.157
									c-1.27,1.323-2.566,2.62-3.863,3.918c1.396-1.397-2.948,2.72-0.205,0.23c-0.904,0.814-1.814,1.623-2.729,2.426
									c3.43-3.026-1.125,0.928-1.518,1.256c3.523-2.942-1.127,0.875-1.535,1.197c2.827-2.232-1.869,1.399-1.971,1.476
									c-2.666,1.99-7.311,5.233-10.949,8.194c-1.299,1.057-2.598,2.113-3.896,3.171c-0.342,0.278-4.744,3.53-1.472,1.17
									c-5.438,3.922-10.594,8.376-15.467,12.976c-1.768,1.634-3.446,3.354-5.035,5.161c0.121-0.144-2.976,3.342-0.555,2.477
									c1.88-0.672,3.722-1.408,5.565-2.17c9.005-8.226,18.011-16.45,27.016-24.675c-6.023,3.662-12.215,6.762-17.974,10.89
									c-3.006,2.154,5.485-3.663,2.31-1.643c-1.04,0.661-2.08,1.322-3.119,1.984c-2.159,1.373-4.319,2.719-6.558,3.959
									c-6.858,3.798-13.83,7.229-21.137,10.104c-5.306,2.087-10.737,3.836-16.224,5.381c-1.356,0.383-14.091,3.308-14.065,2.772
									c-9.919,8.552-19.837,17.104-29.756,25.656c4.387-2.113,9.244-3.192,13.736-5.061c6.583-2.738,12.639-5.949,18.314-10.316
									c5.34-4.108,10.563-8.347,15.467-12.976c1.768-1.634,3.446-3.354,5.035-5.161c-0.171,0.202,2.997-3.395,0.555-2.477
									c-2.288,0.86-4.626,1.563-6.955,2.3c-0.923,0.294-1.845,0.587-2.768,0.879c0.146,0.169,0.291,0.338,0.436,0.506
									c0.29-0.832,0.579-1.665,0.869-2.497c0.502-0.884,0.273-1.155-0.684-0.815c-2.828,1.377-5.27,1.459-8.373,1.456
									c-9.919,8.553-19.837,17.104-29.756,25.657c37.333-13.025,69.716-35.422,99.135-61.508
									c18.919-16.776,35.857-35.52,49.951-56.563c1.719-2.567-5.607,2.085-5.191,1.814c-14.123,9.183-26.077,21.176-36.852,33.993
									c-6.438,7.658-14.314,17.589-20.593,23.551c0.659-0.626,6.001-4.94,2.451-2.126c0.529-0.447,1.077-0.871,1.642-1.272
									c-2.874,2.014-5.741,4-8.472,6.213c-6.501,5.268,7.382-5.213,2.636-1.837c-0.727,0.518-1.451,1.038-2.182,1.551
									c-2.911,2.043-4.045,2.859-6.633,4.428c-3.266,1.979-6.54,3.871-9.924,5.636c-14.76,7.692-33.471,13.982-51.264,17.544
									c-9.446,1.891-18.96,3.277-28.554,4.194c-6.668,0.638-13.149,0.688-19.827,0.217c-3.057-0.217-6.094-0.702-9.127-1.129
									c-1.604-0.226-5.34-0.108-6.236-1.736c-0.48,0.843-0.962,1.686-1.443,2.528c0.116-0.146,0.232-0.293,0.348-0.439
									c-8.82,7.399-17.641,14.799-26.46,22.198c2.625-1.325,6.931-1.483,9.846-1.87
									C307.654,725.357,312.451,724.942,317.321,724.647c2.259-0.138,6.223-3.812,7.81-4.992c4.122-3.065,8.095-6.343,11.937-9.75
									c2.972-2.636,5.99-5.35,8.566-8.387c0.663-0.78,2.525-2.596,0.555-2.477c-7.318,0.444-14.694,0.978-21.854,2.656
									c-4.616,1.082-8.393,3.685-12.16,6.486c-7.271,5.408-15.188,11.416-20.85,18.575c-0.843,0.675-1.324,1.518-1.443,2.528
									c0.899,1.633,4.629,1.502,6.237,1.736c3.033,0.441,6.072,0.879,9.126,1.129c6.041,0.494,11.751,0.399,17.782-0.049
									c10.874-0.81,21.697-2.262,32.377-4.466c19.213-3.967,37.567-10.335,54.967-19.404c7.191-3.748,14.108-8.017,20.747-12.675
									c1.538-1.08,3.069-2.171,4.601-3.261c2.426-1.677,4.789-3.437,7.092-5.278c0.355-0.275,0.71-0.55,1.065-0.825
									c2.569-2.055,1.363-1.171-3.618,2.65c4.31-2.917,8.42-6.11,12.541-9.284c12.955-9.974,24.943-21.283,35.919-33.387
									c3.943-4.35,7.438-9.03,11.353-13.339c1.856-2.042,3.556-4.26,5.333-6.374c1.085-1.291,2.168-2.581,3.231-3.891
									c5.769-7.103,2.949,0.441-15.026,12.129c-1.73,0.604-3.461,1.21-5.191,1.814c-3.73,5.571-7.654,10.979-11.824,16.229
									c-2.295,2.889-4.686,5.7-7.105,8.484c-0.09,0.103-4.181,4.553-1.641,1.888c-0.362,0.38-0.725,0.76-1.086,1.14
									c-1.258,1.319-2.516,2.639-3.773,3.959c-0.469,0.491-0.938,0.983-1.406,1.475c-1.528,1.604,3.838-3.705,2.235-2.176
									c-2.188,2.089-4.377,4.178-6.565,6.267c6.891-6.577-5.358,4.561-0.442,0.349c-4.441,3.806,3.27-2.547-1.314,1.084
									c-4.532,3.59,2.811-2.1-1.981,1.501c-4.389,3.298-9.853,6.852-15.42,10.173c-12.515,7.467-25.916,13.324-39.66,18.119
									c-5.717,1.995-11.201,7.48-15.719,11.271c-3.61,3.028-7.165,6.163-10.458,9.538c0.463-0.475-4.274,4.848-3.579,4.849
									c2.161,0.002,4.293,0.085,6.439-0.2c1.999-0.266,2.901-1.808,2.009,0.758c-0.503,0.884-0.274,1.155,0.683,0.815
									c3.382-1.07,6.802-2.058,10.121-3.305c7.02-6.871,14.038-13.742,21.057-20.613c7.084-5.45,3.35-2.344,0.494-1.042
									c-2.115,0.965-4.264,1.859-6.459,2.623c-3.478,1.21-7.142,2.211-10.465,3.813c-5.762,2.776-10.856,7.19-15.719,11.271
									c-3.61,3.028-7.165,6.162-10.458,9.538c-0.988,1.012-3.498,3.124-3.579,4.848c-0.041,0.869,11.083-1.649,12.188-1.917
									c6.147-1.491,12.168-3.471,18.098-5.66c8.683-3.206,16.956-7.344,25.062-11.783c4.453-2.438,8.703-5.186,12.981-7.915
									c2.685-1.714,5.272-3.514,7.861-5.369c2.077-1.491,0.867-0.609-3.629,2.644c1.393-0.747,2.786-1.494,4.179-2.242
									c1.874-1.005,3.692-2.064,5.508-3.169c6.421-3.903,12.288-8.839,17.895-13.812c2.972-2.636,5.99-5.35,8.566-8.387
									c-0.271,0.32,3.039-3.503,0.555-2.477c-1.845,0.763-3.687,1.498-5.565,2.17c-7.02,6.871-14.038,13.742-21.057,20.613
									c3.548-2.559,6.956-5.298,10.348-8.058c0.433-0.353,0.865-0.705,1.299-1.058c2.702-2.165,1.696-1.457-3.019,2.124
									c2.09-1.474,4.162-2.972,6.232-4.473c8.103-5.878,15.928-12.177,23.565-18.644c14.227-12.046,27.569-25.009,39.719-39.153
									c15.492-18.036,29.311-38.961,38.533-61.004c19.776-47.267,26.705-98.05,18.019-148.766
									c-13.274-77.506-62.604-144.824-129.762-184.486c-52.996-31.298-117.796-43.956-178.644-34.794
									c-31.051,4.675-60.876,15.459-88.078,31.064c-6.549,3.757-12.912,7.865-19.143,12.126
									c-3.539,2.421-7.013,4.943-10.462,7.491c-2.219,1.639-4.433,3.321-6.591,5.032c-1.639,1.299-1.71,1.355-0.214,0.17
									c-0.961,0.714-1.928,1.423-2.898,2.125c-1.263,0.972-2.526,1.944-3.79,2.916c1.747-1.332,1.764-1.348,0.051-0.046
									c-1.307,0.992-2.629,1.965-3.949,2.94c-3.579,2.641-7.104,5.35-10.603,8.098c-8.008,6.288-15.87,12.71-23.552,19.395
									c-46.322,40.305-77.11,98.723-89.044,158.605c-4.022,20.185-5.642,41.071-4.637,61.627
									c0.733,15.004,2.609,29.861,5.993,44.507c1.622,7.021,3.668,13.938,5.964,20.764c2.264,6.731,5.668,13.128,7.838,19.849
									c3.398,10.523,7.295,21.112,12.167,31.055c0.712,1.454,15.807-10.65,16.608-11.322c3.61-3.028,7.165-6.163,10.458-9.538
									c0.437-0.448,3.996-3.579,3.579-4.849c-2.313-7.031-4.75-14.021-7.191-21.009c-2.218-6.353-5.924-13.547-6.215-20.326
									c-0.087-2.024-2.021-4.962-2.81-6.9c-1.04-2.558-0.965-6.273-1.385-9.013c-1.095-7.14-2.134-14.287-3.059-21.451
									c-3.563-27.626-4.328-55.145-2.039-82.895c4.352-52.748,25.342-104.776,59.884-144.88
									c4.001-4.645,8.687-9.374,12.544-13.008c0.965-0.909,1.93-1.818,2.895-2.727c0.482-0.454,0.966-0.906,1.449-1.359
									c-3.209,2.886-4,3.62-2.371,2.204c1.831-1.582,0.816-0.707-3.045,2.624c2.326-1.984,4.651-3.969,6.977-5.954
									c-3.731,3.184,0.474-0.313,1.493-1.099c0.567-0.438,1.133-0.875,1.7-1.312c-7.077,5.46,5.205-3.628,0.601-0.444
									c-0.606-0.723-1.212-1.445-1.818-2.167c-5.758,5.76-11.17,11.957-16.551,18.07c-5.089,5.782-9.844,9.922-15.954,16.258
									c-12.135,12.583-23.224,26.113-33.126,40.518c-19.117,27.809-32.216,59.117-38.512,92.253
									c1.017,0.058,1.931-0.27,2.741-0.982c3.438-2.009,6.636-4.51,9.748-6.978c4.024-3.191,7.942-6.533,11.677-10.06
									c1.572-1.483,5.584-4.517,6.273-6.823c5.243-17.546,13.546-33.902,21.71-50.214c5.732-11.453,12.18-22.481,17.729-34.041
									c5.821-12.126,14.018-21.8,22.953-31.747c1.734-1.931,3.52-3.813,5.31-5.691c1.241-1.302,2.5-2.586,3.76-3.87
									c-0.35,0.357,3.795-3.788,2.155-2.183c0.845-0.823,1.693-1.642,2.546-2.456c4.333-4.158-2.574,2.28,1.862-1.722
									c0.387-0.35,4.931-4.331,1.429-1.313c1.366-1.177,2.752-2.33,4.139-3.483c-4.608,3.832,5.484-4.214,1.919-1.499
									c1.417-1.079,2.854-2.131,4.292-3.183c-1.842,1.348,2.899-2.029,2.498-1.749c4.962-3.466,10.152-6.563,15.435-9.513
									c11.478-6.411,23.571-11.35,35.998-15.579c6.424-2.187,13.132-3.681,19.768-5.047c5.98-1.231,11.958-0.062,17.918-1.311
									c2.587-0.542,5.828-3.518,7.81-4.992c4.122-3.065,8.094-6.342,11.937-9.75c2.971-2.635,5.989-5.35,8.566-8.386
									c0.331-0.389,2.736-2.896,0.554-2.477C198.97,230.696,141.694,273.53,96.551,322.583
									c-10.091,10.966-19.492,22.828-28.266,34.867c-4.255,5.838-8.427,11.684-12.397,17.721
									c-3.938,5.988-6.282,13.965-9.046,20.578c-5.44,13.014-10.632,25.682-13.848,39.467
									c-3.101,13.293-4.317,26.892-4.243,40.521c0.083,15.547,2,31.001,3.648,46.438c1.777,16.635,4.277,33.156,6.997,49.657
									c10.215-8.569,20.43-17.14,30.645-25.709c-8.181-39.448-16.462-78.736-13.821-119.326c0.05-0.771-5.935,3.049-5.396,2.682
									c-3.896,2.656-7.601,5.612-11.211,8.641c-3.61,3.028-7.165,6.163-10.458,9.538c-1.202,1.232-3.262,2.986-3.579,4.849
									c-10.278,60.485,2.106,121.989,30.343,176.024c12.076,23.108,26.617,45.249,46.121,62.779
									c9.588,8.618,20.258,16.043,31.051,23.066c9.799,6.376,19.85,12.519,30.597,17.163
									c24.032,10.385,49.593,15.554,75.406,19.054c1.701,0.23,4.242-1.895,5.396-2.682c3.896-2.656,7.601-5.612,11.211-8.641
									c3.61-3.028,7.165-6.163,10.458-9.538c-0.424,0.436,4.388-4.672,3.579-4.849c-22.841-4.989-45.392-11.691-66.566-21.709
									c-9.472-4.481-18.032-10.206-26.901-15.711c-10.772-6.687-20.924-14.354-30.531-22.617
									c-18.815-16.182-34.818-35.424-47.932-56.459c-6.152-9.868-11.491-20.242-16.194-30.872
									c-2.251-5.086-4.167-10.318-6.088-15.536c-1.642-4.462-3.776-9.763-4.193-14.543c-10.215,8.569-20.43,17.139-30.645,25.708
									c2.109,1.81,3.021,7.194,4,9.772c1.842,4.852,3.883,9.634,5.961,14.39c4.561,10.44,10.043,20.497,15.932,30.24
									c13.104,21.683,29.525,40.663,48.06,57.846c35.416,32.832,82.077,53.618,129.595,60.671
									c1.682,0.249,4.268-1.912,5.396-2.682c3.896-2.656,7.601-5.612,11.211-8.641c3.61-3.028,7.165-6.163,10.458-9.538
									c-0.405,0.415,4.399-4.625,3.579-4.849c-10.058-2.731-20.168-4.998-30.071-8.312c-11.693-3.912-23.057-8.841-34.012-14.486
									c-11.196-5.771-21.693-12.672-31.918-19.997c-4.045-2.898-7.951-6.156-11.678-9.45c-3.507-3.102-7.693-6.198-10.36-10.102
									c-0.481,0.843-0.962,1.686-1.443,2.528c0.027-0.034,0.053-0.069,0.08-0.104c-9.734,7.727-19.468,15.453-29.201,23.18
									c2.085,0.7,4.08,2.934,5.742,4.281c3.248,2.632,6.558,5.253,9.932,7.72c6.86,5.018,13.763,9.919,21.025,14.344
									c12.671,7.72,25.95,14.645,39.875,19.831c15.653,5.829,31.543,10.255,48.044,12.933c7.544,1.224,15.15,2.024,22.78,2.405
									c4.086,0.204,8.133,0.32,12.224,0.277c2.323-0.024,5.339,0.326,7.601-0.372c4.007-1.237,31.983-22.906,29.755-25.656
									c-0.762-0.94-4.185-1.058-5.265-1.253c-2.974-0.538-5.979-0.877-8.948-1.439c-6.688-1.267-13.346-2.51-20-3.957
									c-14.743-3.207-29.168-8.295-43.043-14.161c-12.013-5.079-23.005-12.063-34.84-17.419c-2.714-1.228-5.352-2.635-8.343-2.997
									c-2.834-0.344-5.316-2.542-7.741-4.078c-6.761-4.282-13.403-9.131-19.672-14.104
									c-46.679-37.027-84.386-88.291-89.996-149.117c-0.714-7.738-0.741-15.526-0.334-23.281
									c0.391-7.463,0.035-14.416-0.617-21.876c-1.02-11.667,0.837-22.884,3.735-34.2c3.881-15.152,9.535-29.76,16.54-43.742
									c6.91-13.792,15.122-26.924,23.989-39.532c4.288-6.096,8.635-12.207,13.485-17.872c1.896-2.215,3.346-3.647,4.57-4.814
									c-3.326,3.173,3.43-2.955-1.062,0.893c1.807-1.507,1.782-1.496-0.077,0.034c1.712-1.344,1.826-1.444,0.342-0.3
									c10.72-8.195,23.909-15.483,36.099-22.922c12.769-7.792,26.524-13.773,40.783-18.245
									c49.036-15.378,102.961-10.821,149.915,9.333c1.299,0.558,4.742-2.235,5.396-2.681c3.896-2.656,7.601-5.612,11.211-8.641
									s7.165-6.163,10.458-9.538c1.213-1.242,3.251-2.981,3.579-4.848c0.045-0.254,0.089-0.508,0.134-0.762
									c-0.481,0.843-0.962,1.686-1.443,2.528c0.139-0.182,0.277-0.364,0.415-0.546c-8.82,7.399-17.64,14.799-26.46,22.198
									c-0.993,0.512,2.782,0.945,2.673,0.923c1.706,0.343,3.371,0.962,5.013,1.521c3.048,1.039,5.989,2.679,8.867,4.109
									c6.271,3.117,12.443,6.817,18.452,10.409c10.081,6.025,19.379,12.958,28.483,20.339
									c20.873,16.919,38.125,39.117,50.925,62.62c14.197,26.07,21.775,54.835,25.876,84.092c4.387,31.3,1.488,63.628-8.406,93.633
									c-7.362,22.326-19.016,43.315-33.389,61.874c-6.616,8.544-14.853,17.579-21.68,24.064c-0.877,0.827-1.758,1.649-2.645,2.465
									c2.651-2.456-1.774,1.536-1.865,1.617c4.5-3.963-6.254,5.09-1.647,1.371c-3.113,2.513-7.311,5.767-11.425,8.516
									c-1.18,0.787-2.355,1.581-3.534,2.372c-0.856,0.573-0.703,0.473,0.46-0.303c-0.647,0.401-1.329,0.786-1.989,1.178
									c-2.318,1.378-4.617,2.787-6.992,4.065c-10.573,5.696-21.563,10.232-32.99,13.904c-14.341,4.607-29.093,6.945-44.061,8.237
									c-2.321,0.201-6.155,3.761-7.81,4.992c-4.122,3.065-8.095,6.343-11.937,9.75c-2.972,2.636-5.99,5.35-8.566,8.387
									C317.275,722.878,315.31,724.82,317.321,724.647z"/>
								<path fill="#231F20" d="M366.541,253.792c13.903,5.596,27.058,12.66,39.637,20.791c6.27,4.053,12.805,7.659,19.069,11.737
									c6.662,4.338,13.88,8.212,20.002,13.286c22.197,18.395,41.075,40.69,55.857,65.417c0.953,1.594,15.746-10.599,16.607-11.322
									c3.61-3.029,7.165-6.163,10.458-9.538c0.275-0.282,4.118-3.738,3.579-4.848c-14.779-30.433-36.315-56.582-63.896-76.249
									c-10.215,8.569-20.43,17.139-30.645,25.708c50.313,34.399,85.291,87.491,97.018,147.374
									c3.472,17.728,5.06,35.797,4.647,53.861c-0.451,19.788-2.531,40.014-6.74,59.353c-7.651,35.155-21.754,68.722-41.597,98.765
									c-0.502,0.884-0.274,1.155,0.683,0.815c2.793-1.018,5.479-3.258,7.81-4.992c7.093-5.275,14.974-11.151,20.503-18.137
									c27.527-34.77,45.398-74.61,52.709-118.404c6.413-38.422,3.786-78.988-7.985-116.123
									c-16.507-52.072-48.472-97.861-92-130.952c-49.68-37.766-111.703-55.96-173.852-53.298
									c-55.716,2.386-107.711,23.397-152.665,55.671c-6.513,4.676-12.768,10.078-18.367,15.816
									c-1.219,1.25-6.251,7.314-0.838,3.867C197.808,236.992,286.419,224.476,366.541,253.792
									c1.377,0.504,4.649-2.172,5.396-2.681c3.896-2.656,7.601-5.612,11.211-8.641s7.165-6.163,10.458-9.538
									c-0.362,0.372,4.41-4.544,3.579-4.848c-82.347-30.131-172.503-15.926-245.486,30.56
									c-6.402,6.561-12.803,13.122-19.205,19.683c21.368-15.34,49.514-28.053,76.306-35.75
									c31.296-8.991,63.948-11.804,96.352-9.031c60.347,5.165,117.693,31.67,161.195,73.707
									c36.414,35.188,62.424,81.687,72.875,131.263c9.157,43.444,7.098,88.395-6.299,130.729
									c-8.824,27.888-23.015,54.316-41.147,77.221c9.665-7.438,19.33-14.876,28.995-22.313
									c27.989-42.375,44.321-91.61,47.849-142.228c3.003-43.079-2.921-85.141-20.973-124.719
									c-17.407-38.166-45.235-70.513-79.792-94.139c-1.034-0.707-5.034,2.435-5.396,2.681c-3.896,2.656-7.601,5.612-11.211,8.641
									c-0.795,0.667-15.33,13.464-14.037,14.386c27.58,19.667,49.116,45.816,63.896,76.249
									c10.215-8.569,20.43-17.139,30.645-25.708c-14.83-24.808-33.731-46.833-55.857-65.417
									c-11.313-9.501-25.303-15.887-37.564-24.036c-12.959-8.611-26.708-15.968-41.144-21.778
									c-1.331-0.536-4.704,2.209-5.396,2.681c-3.896,2.656-7.601,5.612-11.211,8.641
									C379.777,240.077,365.773,253.483,366.541,253.792z"/>
								<path fill="#231F20" d="M367.219,224.619c-58.997-10.855-123.077-0.733-175.332,29.094
									c-26.224,14.969-50.334,33.506-72.115,54.409c-22.267,21.368-41.678,45.987-53.786,74.561
									c-1.416,3.341-2.668,6.748-3.842,10.181c-0.696,2.034,1.968,0.216,2.535-0.115c3.438-2.01,6.636-4.51,9.748-6.978
									c4.024-3.191,7.942-6.534,11.677-10.059c1.922-1.814,5.106-4.305,6.273-6.823c8.204-17.695,18.237-34.583,30.27-49.952
									c5.528-7.061,11.5-13.73,17.827-20.081c-0.612,0.614,2.863-2.727,3.51-3.333c-2.461,2.306,2.637-2.335,3.11-2.75
									c-4.646,4.067,4.711-3.838,0.18-0.16c-1.355,1.014-1.147,0.856,0.623-0.475c1.485-1.119,2.981-2.224,4.469-3.341
									c8.428-6.325,20.338-13.143,30.802-18.097c18.474-8.746,37.743-15.404,57.749-19.633c2.591-0.548,5.823-3.514,7.81-4.992
									c4.122-3.065,8.094-6.342,11.937-9.75c2.971-2.635,5.989-5.35,8.566-8.386c0.297-0.35,2.755-2.927,0.554-2.477
									c-11.758,2.405-24.185,4.759-35.313,9.405c-7.293,3.045-13.935,9.588-19.746,14.742c-2.971,2.635-5.99,5.35-8.566,8.386
									c-0.385,0.454-2.702,2.844-0.554,2.477c3.364-0.576,6.652-2.172,9.94-3.066c4.11-1.118,8.224-2.215,12.361-3.228
									c12.788-3.131,25.719-4.984,38.786-6.472c22.714-2.587,47.43-1.451,69.882,2.621c1.634,0.296,4.332-1.956,5.396-2.681
									c3.896-2.656,7.601-5.612,11.211-8.641s7.165-6.163,10.458-9.538C363.203,229.915,368.017,224.764,367.219,224.619
									c-22.216-4.029-45.329-4.266-67.8-2.775c-13.428,0.891-26.799,3.073-39.909,6.08c-4.752,1.09-9.464,2.345-14.167,3.624
									c-3.596,0.978-7.198,2.69-10.871,3.32c-9.622,8.535-19.244,17.069-28.867,25.604c11.128-4.646,23.555-7,35.313-9.405
									c9.622-8.535,19.244-17.07,28.866-25.604c-40.711,8.605-77.09,27.284-110.122,52.171
									c-40.723,30.681-75.939,68.686-97.518,115.23c10.078-7.992,20.156-15.984,30.233-23.976
									c8.387-24.521,22.565-47.18,40.235-66.088c4.614-4.937,7.513-7.603,11.021-10.665c2.779-2.426,6.545-5.151-6.279,5.213
									c0.89-0.719,1.78-1.437,2.67-2.155c1.545-1.246,3.094-2.486,4.642-3.728c3.649-2.927-3.669,2.663,0.667-0.465
									c1.305-0.941,2.609-1.882,3.914-2.823c0.224-0.161,4.446-3.041,1.314-0.913c2.467-1.676,5.021-3.236,7.531-4.846
									c3.397-2.178,7.071-4.068,10.604-6.085c23.284-13.291,49.853-20.91,75.995-26.017c30.235-5.906,61.635-5.555,91.883,0.011
									c1.63,0.3,4.337-1.959,5.396-2.681c3.896-2.656,7.601-5.612,11.211-8.641s7.165-6.163,10.458-9.538
									C363.204,229.915,368.018,224.766,367.219,224.619z"/>
							</g>
						</g>
						<g>
							<g>
								<path fill="#231F20" d="M526.179,589.179c-17.794,29.921-40.988,56.374-69.313,76.731
									c-1.195,0.859,13.83,13.158,14.636,13.777c3.735,2.873,7.562,5.669,11.567,8.157c0.609,0.379,4.287,3.094,5.506,2.45
									c10.267-5.423,20.008-11.062,29.275-18.127c10.517-8.018,18.905-18.463,27.007-28.801
									c15.7-20.036,26.402-44.724,34.355-68.707c19.553-58.965,18.781-122.141-3.542-180.215
									c-21.969-57.15-64.085-102.032-113.146-137.392c-24.955-17.984-51.833-32.938-80.871-43.215
									c-13.242-4.686-26.875-8.227-40.674-10.823c-12.925-2.432-25.828-4.43-39.037-3.881c0.162,1.006,0.679,1.828,1.55,2.465
									c2.703,2.924,5.834,5.508,8.914,8.015c3.983,3.242,8.092,6.347,12.34,9.235c1.779,1.209,5.622,4.488,8.015,4.656
									c30.95,2.167,61.491,9.527,90.077,21.583c13.203,5.569,25.833,12.486,37.897,20.197c-2.065-1.32,2.623,1.806,2.346,1.612
									c1.413,0.987,2.82,1.983,4.232,2.972c-0.513-0.359-5.391-4.057-3.53-2.613c0.603,0.467,1.205,0.935,1.808,1.402
									c2.42,1.878,4.839,3.756,7.254,5.64c3.835,2.991-10.219-8.455-6.521-5.297c0.655,0.559,1.311,1.119,1.966,1.678
									c0.704,0.601,1.406,1.205,2.108,1.809c1.38,1.186,2.76,2.373,4.14,3.559c0.704,0.605,2.313,2.115-0.884-0.811
									c1.677,1.535,3.308,3.121,4.961,4.681c6.441,6.08,12.3,12.686,18.101,19.366c10.643,12.257,19.559,26.033,27.599,40.104
									C567.254,414.531,570.093,513.671,526.179,589.179c-1.337,2.3,13.317,12.764,14.636,13.777
									c0.922,0.71,16.096,12.287,17.073,10.607c46.494-79.945,40.301-185.719-9.066-262.801
									c-21.112-32.964-48.43-60.161-79.248-84.076c-48.52-37.652-104.993-63.216-166.74-67.538
									c10.272,8.124,20.545,16.247,30.818,24.371c13.774-0.573,27.267,1.895,40.715,4.515
									c14.351,2.797,28.434,6.892,42.147,11.942c13.517,4.978,26.51,11.197,39.021,18.322c6.032,3.436,9.044,5.515,14.21,9.093
									c-3.253-2.252,1.311,0.981,1.599,1.191c-3.994-2.917,0.565,0.446,1.142,0.889c4.495,3.457-3.287-2.663,1.116,0.901
									c1.663,1.374,1.738,1.427,0.227,0.157c0.857,0.725,1.71,1.455,2.558,2.19c7.838,6.754,18.27,17.703,26.283,27.337
									c8.954,10.767,16.83,22.484,23.9,34.557c15.147,25.86,25.63,54.391,31.082,83.841
									c9.814,53.016,1.011,105.725-18.928,155.281c-7.87,19.563-19.388,37.65-32.512,54.055
									c-13.417,16.77-30.594,28.217-49.345,38.12c10.569,8.128,21.14,16.257,31.709,24.385
									c28.323-20.357,51.518-46.811,69.313-76.731c1.345-2.263-13.337-12.779-14.636-13.777
									C542.32,599.068,527.187,587.485,526.179,589.179z"/>
							</g>
						</g>
						<g>
							<g>
								<path fill="#231F20" d="M73.061,294.198c-18.692,20.995-33.417,45.348-46.3,70.205c-0.697,1.345,18.201,5.733,19.203,5.937
									c4.618,0.937,9.284,1.765,13.976,2.238c0.612,0.062,5.299,0.896,6.022-0.221c18.293-28.261,37.59-55.033,61.606-78.794
									c22.943-22.7,49.99-41.455,79.336-54.887c1.808-0.828-0.743-1.553-1.669-1.911c-3.714-1.438-7.662-2.381-11.531-3.277
									c-5.003-1.159-10.059-2.141-15.144-2.866c-2.175-0.31-6.979-1.541-9.246-0.656
									C132.935,244.161,99.973,265.853,73.061,294.198c-0.6,0.631,5.982,2.712,5.459,2.551c4.505,1.393,9.125,2.449,13.744,3.386
									c4.618,0.937,9.284,1.765,13.976,2.238c0.978,0.099,4.985,0.871,6.022-0.221c26.471-27.881,58.837-49.504,94.642-63.476
									c-12.53-2.904-25.06-5.807-37.59-8.711c-29.52,13.512-56.391,31.906-79.739,54.462
									C64.9,308.266,45.321,335.729,26.76,364.403c13.067,2.651,26.134,5.302,39.201,7.953
									c12.884-24.858,27.608-49.21,46.3-70.205c0.587-0.66-5.96-2.706-5.459-2.551c-4.505-1.393-9.125-2.449-13.744-3.386
									c-4.618-0.937-9.284-1.765-13.976-2.238C78.172,293.885,74.039,293.099,73.061,294.198z"/>
							</g>
						</g>
						<g>
							<g>
								<path fill="#231F20" d="M334.693,207.617c-26.468-1.656-52.649,0.096-78.846,4.167
									c-29.924,4.65-59.232,12.575-86.867,25.038c-0.885,0.5-0.829,0.85,0.167,1.05c2.918,0.564,6.374,0.024,9.265-0.263
									c8.772-0.873,18.611-1.826,26.911-5.007c7.191-2.755,14.472-5.291,21.882-7.393c3.683-1.045,7.663-2.043,10.5-2.686
									c0.024-0.005,5.989-1.248,2.583-0.571c1.213-0.237,2.428-0.466,3.645-0.688c-2.198,0.367-2.119,0.355,0.238-0.035
									c6.044-0.998-4.005,0.518,2.058-0.322c1.221-0.165,2.443-0.322,3.666-0.472c-1.692,0.194-1.441,0.171,0.755-0.069
									c3.672-0.39,6.39-0.576,10.658-0.813c8.131-0.451,16.282-0.376,24.417-0.08c7.412,0.27,15.209-1.283,22.45-2.64
									c1.781-0.333,13.637-1.591,14.198-4.211c-0.016-0.664,0.298-1.13,0.942-1.397c-6.833,1.258-13.666,2.516-20.499,3.774
									c-1.218,0.097-0.807,0.079,1.235-0.056c9.347-0.542,18.879-2.06,27.933-4.443c0.031-0.008,5.734-1.239,5.563-2.317
									c-0.172-1.077-5.976-0.478-6.008-0.477c-9.736,0.564-19.406,1.773-28.99,3.583c-4.863,0.918-9.692,2.003-14.381,3.594
									c-1.994,0.676-4.803,1.706-5.299,4.021c12.216-2.284,24.433-4.567,36.648-6.851c-24.849-0.905-49.591,1.208-74.147,4.935
									c-25.337,3.845-50.521,9.864-74.474,19.044c12.114-1.407,24.229-2.813,36.343-4.22c8.995-4.057,18.188-7.555,27.578-10.589
									c4.276-1.381,8.609-2.556,12.962-3.666c1.848-0.471,2.661-0.627,5.133-1.166c-1.48,0.279-1.118,0.207,1.088-0.217
									c6.323-1.228-3.87,0.593,2.474-0.442c2.397-0.369,2.574-0.399,0.529-0.091c1.286-0.175,2.573-0.341,3.861-0.497
									c-3.406,0.425,3.876-0.348,2.778-0.26c5.346-0.425,10.712-0.68,16.074-0.611c7.081,0.091,14.118,0.318,21.183,0.76
									c8.824,0.552,18.583-1.71,27.137-3.589c2.838-0.624,6.291-1.183,8.89-2.624
									C339.181,207.572,334.488,207.604,334.693,207.617z"/>
							</g>
						</g>
					</g>
				</g>
			</g>
		</g>
	</g>
</g>
</svg>
