<?xml version="1.0" encoding="utf-8"?>
<!-- Generator: Adobe Illustrator 16.0.0, SVG Export Plug-In . SVG Version: 6.00 Build 0)  -->
<!DOCTYPE svg PUBLIC "-//W3C//DTD SVG 1.1//EN" "http://www.w3.org/Graphics/SVG/1.1/DTD/svg11.dtd">
<svg version="1.1" id="Layer_1" xmlns="http://www.w3.org/2000/svg" xmlns:xlink="http://www.w3.org/1999/xlink" x="0px" y="0px"
	 width="595.28px" height="841.89px" viewBox="0 0 595.28 841.89" enable-background="new 0 0 595.28 841.89" xml:space="preserve">
<g>
	<circle fill="#FFFFFF" cx="289.64" cy="466.945" r="246.428"/>
	<g>
		<g>
			<g>
				<g>
					<path d="M291.713,749.845c-2.618-0.489-1.676,5.772-2.073,6.909C294.115,755.264,291.569,748.214,291.713,749.845z"/>
					<path d="M332.546,732.173l-0.317,2.659c0,0,1.245-1.816,2.491-3.633c1.21-1.812,2.42-3.623,2.42-3.623L332.546,732.173z"/>
					<path d="M370.026,723.497c-3.337-4.565-6.454-3.261-9.807-0.955c-0.835,0.595-1.692,1.206-2.554,1.819
						c-0.863,0.625-1.748,1.202-2.658,1.635c-1.812,0.896-3.68,1.394-5.552,0.849l-1.629-2.127c0,0-0.281,2.273-0.563,4.548
						c-0.306,2.279-0.61,4.559-0.61,4.559c1.992-0.806,4.072-1.914,6.155-3.096c2.081-1.196,4.184-2.387,6.176-3.636
						C362.993,724.676,366.772,722.922,370.026,723.497z"/>
					<path d="M397.946,738.063c-2.827-3.368,3.142-5.093-5.305,0.687c0.628,0.241,0.858,0.434,1.25,0.643
						C394.711,739.007,395.868,738.561,397.946,738.063z"/>
					<path d="M393.892,739.392C389.888,741.284,397.836,741.604,393.892,739.392L393.892,739.392z"/>
					<path d="M411.605,729.3l-3.738,5.774c2.097,1.758,7.116,0.094,6.087,2.521C418.634,733.232,416.364,731.576,411.605,729.3z"/>
					<path d="M413.106,719.957c0,0-0.475,0.684-0.949,1.366c-0.492,0.659-0.982,1.318-0.982,1.318
						C412.079,723.364,412.964,723.377,413.106,719.957z"/>
					<path d="M406.904,728.229l4.271-5.588c-1.493-1.219-3.019-4.339-2.08,2.265C408.216,721.822,408.407,725.083,406.904,728.229z"
						/>
					<path d="M403.025,728.187c-1.909-0.407-3.932-0.554-5.027-1.351c-1.098-0.794-1.186-2.072,0.62-4.891
						c-4.562,2.713-5.879,5.57-4.813,7.194c0.53,0.8,1.655,1.267,3.247,1.192C398.643,730.255,400.721,729.678,403.025,728.187z"/>
					<path d="M368.505,712.326c0,0-1.145-0.441-2.288-0.882c-0.566-0.212-1.145-0.472-1.572-0.651
						c-0.429-0.184-0.714-0.306-0.714-0.306l-2.155,4.344c0.55-1.081,2.529-0.89,4.243-0.83
						C367.723,714.036,369.129,713.874,368.505,712.326z"/>
					<path d="M445.993,716.911c-0.91-2.121-4.863-4.099-6.738-6.36c0,0-0.136,0.28-0.339,0.7c-0.206,0.418-0.472,0.991-0.764,1.526
						c-0.577,1.09-1.155,2.179-1.155,2.179C439.707,715.265,443.939,714.207,445.993,716.911z"/>
					<path d="M439.255,710.551l3.164-6.667C437.526,706.474,437.644,708.598,439.255,710.551z"/>
					<path d="M408.737,708.843c0,0-1.232,2.988-2.629,5.829c-1.408,2.893-2.816,5.786-2.816,5.786s1.877-3.132,3.659-6.229
						c0.906-1.523,1.739-3.154,2.369-4.346c0.622-1.194,1.037-1.991,1.037-1.991L408.737,708.843z"/>
					<path d="M466.563,703.197c0,0,0.015,0.402,0.036,1.007c0.014,0.599,0.031,1.396,0.05,2.194
						c0.024,1.603,0.049,3.206,0.049,3.206s0.16-2.564,0.319-5.128c0.084-2.593,0.167-5.185,0.167-5.185L466.563,703.197z"/>
					<path d="M478.79,692.266c0.721,5.142,7.625,3.184,7.149,7.143c2.975-3.613,3.478-8.959,3.731-13.759
						C488.249,689.497,484.873,691.718,478.79,692.266z"/>
					<path d="M490.47,678.111c-0.576,1.996-0.649,4.652-0.799,7.538C490.397,683.569,490.791,681.194,490.47,678.111z"/>
					<path d="M451.814,698.93c1.181,0.849,4.006,3.267,7.806,2.429l-5.756-3.769C453.239,697.998,452.532,698.46,451.814,698.93z"/>
					<path d="M453.675,697.473l0.189,0.117c2.242-1.425,3.827-2.378,4.513-2.778C457.791,695.158,456.378,695.972,453.675,697.473z"
						/>
					<path d="M451.294,699.263c0.194-0.12,0.339-0.204,0.521-0.333C451.261,698.55,451.025,698.457,451.294,699.263z"/>
					<path d="M425.301,706.605c0.66-2.443,2.076-5.401,2.189-7.882c0.121-2.485-1.069-4.482-5.416-5.132
						c0.052,2.5,1.31,3.94,2.351,5.648C425.459,700.953,426.284,702.933,425.301,706.605z"/>
					<path d="M444.308,694.394c0,0-0.378,0.155-0.945,0.389c-0.581,0.211-1.354,0.493-2.129,0.775
						c-1.544,0.557-3.089,1.113-3.089,1.113c1.02,1.356,3.356,2.79,2.823,5.247c0,0,0.854-1.879,1.708-3.757
						c0.416-0.934,0.833-1.867,1.146-2.567C444.113,694.873,444.308,694.394,444.308,694.394z"/>
					<polygon points="445.704,690.908 444.308,694.394 446.557,693.464 					"/>
					<path d="M477.932,681.455c0.164-1.989,0.785-3.531,1.661-4.909c0.851-1.405,1.921-2.684,3.043-4.052
						c-1.807,0.822-3.473,1.823-5.125,2.818c-1.646,1.001-3.176,2.108-4.557,3.314C473.888,680.482,474.996,684.301,477.932,681.455
						z"/>
					<path d="M465.974,689.126c0.064-0.237,0.218-0.451,0.271-0.68C465.6,688.264,465.246,688.319,465.974,689.126z"/>
					<path d="M506.365,647.437c-0.396-0.08-0.842-0.235-1.256-0.327c0.259,0.271,0.515,0.524,0.765,0.807L506.365,647.437z"/>
					<path d="M471.7,678.133c-2.916,0.888-3.154,3.163-3.114,5.737c1.186-1.871,2.599-3.643,4.368-5.243
						C472.535,677.788,472.173,677.307,471.7,678.133z"/>
					<path d="M495.446,669.05c-0.999,0.073-1.992,0.216-2.981,0.406c-1.001,0.179-2.021,0.382-3.024,0.624
						c1.229,0.215,2.965,0.388,4.252,0.258C494.977,670.207,495.858,669.826,495.446,669.05z"/>
					<path d="M468.106,689.236c-0.048,0.168-0.076,0.34-0.157,0.487C469.548,690.217,469.034,689.763,468.106,689.236z"/>
					<path d="M468.106,689.236c0.576-1.632,0.482-3.567,0.479-5.366c-1.019,1.459-1.841,2.978-2.342,4.576
						C466.804,688.584,467.512,688.903,468.106,689.236z"/>
					<path d="M480.329,614.092c2.222,1.979,3.416,5.086,2.962,7.799c-0.23,1.349-0.845,2.614-1.97,3.523
						c-1.149,0.888-2.766,1.453-4.892,1.475c-0.104,3.522,4.049,7.889,9.735,11.722c5.683,3.838,12.954,7.079,18.944,8.499
						c-1.898-1.82-3.577-3.32-2.449-10.477c-1.965-0.156-5.517,1.415-8.846,1.864c-3.29,0.498-6.118,0.052-6.511-3.602
						c0.703-1.999,1.443-3.185,2.162-3.936c0.72-0.748,1.495-0.995,2.346-1.025c1.703-0.06,3.699,0.761,6.148,0.188
						c-3.938-0.982-4.464-4.671-5.311-8.658c-0.788-3.973-2.136-8.392-6.982-10.922c0,0-0.043,0.474-0.107,1.185
						c-0.061,0.715-0.151,1.666-0.288,2.59c-0.256,1.876-0.513,3.752-0.513,3.752C483.354,617.118,482.666,613.62,480.329,614.092z"
						/>
					<path d="M496.562,655.988l-1.287,2.429c1.413-0.758,2.972-1.096,4.878-1.309c1.911-0.209,4.247-0.219,7.347-0.244
						c0.793-5.345-0.315-7.44-1.625-8.948c0,0-2.308,2.352-4.615,4.703c-1.154,1.17-2.309,2.34-3.175,3.217
						c-0.882,0.86-1.495,1.41-1.495,1.41L496.562,655.988z"/>
					<path d="M486.972,667.019c-0.762-1.513-1.162-3.029-1.487-4.509c-0.337-1.492-0.578-2.93-0.964-4.24
						c-0.768-2.626-2.128-4.728-5.903-5.838c-0.597,0.705-1.04,1.352-1.362,1.954c-0.335,0.59-0.559,1.126-0.682,1.642
						c-0.251,1.029-0.13,1.949,0.107,2.859c0.473,1.821,1.419,3.6,0.743,6.182c3.872-4.803,3.865-3.556,4.01-1.535
						c0.147,2.016,0.386,4.856,4.948,3.026c-1.016,2.493-2.402,4.282-3.746,5.935c2.187-0.999,4.457-1.819,6.805-2.414
						c-0.187-0.024-0.323-0.046-0.494-0.085l-0.028,0.058c-0.03-0.031-0.031-0.051-0.063-0.082c-0.962-0.195-1.434-0.422-0.66-0.514
						c-0.025-0.088,0.065-0.215,0.1-0.278c-0.569-0.702-0.948-1.423-1.297-2.134c3.579-1.584,1.601,0.789,1.297,2.134
						c0.19,0.255,0.334,0.542,0.561,0.792c0.035,0.017,0.063,0.021,0.091,0.024c0,0,0.422-0.71,1.053-1.774
						c0.634-1.061,1.395-2.55,2.184-3.998c1.546-2.902,3.092-5.806,3.092-5.806c-1.251,0.662-2.416,1.625-3.715,3.023
						c-0.65,0.699-1.334,1.508-2.079,2.441c-0.368,0.472-0.757,0.97-1.168,1.496C487.89,665.896,487.443,666.441,486.972,667.019z"
						/>
					<path d="M420.175,678.542c0.592,0.299,0.823,0.699,1.092,1.083C421.462,678.561,421.403,677.954,420.175,678.542z"/>
					<path d="M426.161,679.342c-0.204,1.201,0.597,3.759-2.047,4.661c-2.998-0.386-1.617-2.644-2.848-4.378
						c-0.409,2.321-2.431,6.972,3.594,6.935l0.227-1.188c2.541-0.31,6.181,0.411,9.21,1.322c3.024,0.915,5.42,2.032,5.311,2.63
						C435.171,685.265,431.825,682.487,426.161,679.342z"/>
					<path d="M455.546,673.705c0,0,0.363-0.537,0.906-1.344c0.545-0.804,1.271-1.868,1.936-2.996
						c1.347-2.213,2.693-4.427,2.693-4.427s-1.851-0.248-3.701-0.497c-1.83-0.266-3.66-0.531-3.66-0.531l2.343,2.417
						c-1.245,0.665-1.993,1.266-2.375,1.867c-0.378,0.607-0.387,1.218-0.201,1.83C453.857,671.251,455.012,672.481,455.546,673.705z
						"/>
					<path d="M509.632,648.569l4.316,5.447c0,0-0.795-2.724-1.721-5.481c-0.921-2.723-1.842-5.446-1.842-5.446
						s-0.183,1.367-0.365,2.735c-0.096,0.687-0.19,1.374-0.262,1.89C509.69,648.232,509.632,648.569,509.632,648.569z"/>
					<path d="M517.557,637.172l4.436,3.97c0,0-0.037-0.318-0.092-0.796c-0.066-0.483-0.155-1.128-0.244-1.773
						c-0.184-1.282-0.367-2.564-0.367-2.564L517.557,637.172z"/>
					<path d="M182.271,285.546l-1.136,2.595C181.805,287.146,182.131,286.321,182.271,285.546z"/>
					<path d="M197.208,277.912l-0.916-2.815C196.299,276.906,196.546,278.113,197.208,277.912z"/>
					<path d="M530.951,317.613c2.291-6.72,6.563-15.962,1.312-11.779l-4.657,4.78C530.307,312.66,531.027,315.133,530.951,317.613z"
						/>
					<path d="M337.831,226.777c0.24,0.697,0.489,1.422,0.736,2.14c1.393-1.975,2.704-3.834,3.876-5.496
						C341.026,224.478,339.47,225.521,337.831,226.777z"/>
					<path d="M330.135,252.759c0,0-0.951-1.235-1.902-2.47c-0.973-1.24-1.944-2.48-1.944-2.48
						C327.087,249.44,328.324,251.084,330.135,252.759z"/>
					<path d="M121.454,351.688c0,0,0.99,1.461,1.98,2.923c1.026,1.46,2.053,2.921,2.053,2.921
						C127.673,354.229,123.976,353.795,121.454,351.688z"/>
					<path d="M568.814,507.067c3.016-3.517,4.474-6.531,5.128-9.239C569.637,502.185,563.613,505.076,568.814,507.067z"/>
					<path d="M154.64,221.781c-1.066,1.969-1.104,3.52-0.344,4.755C155.408,224.615,155.76,222.98,154.64,221.781z"/>
					<path d="M574.878,486.451c-0.703,0.65-1.083,1.307-1.684,1.969c0.436,1.474,0.815,2.957,0.999,4.508
						c0.175,1.55,0.206,3.172-0.251,4.9c1.638-1.594,2.855-3.388,3.229-5.313C577.534,490.593,576.987,488.535,574.878,486.451z"/>
					<path d="M172.607,640.488c0.036,0.377,0.205,0.644,0.197,1.048C173.356,640.845,173.099,640.633,172.607,640.488z"/>
					<path d="M253.026,739.414c-1.288,0.241-3.309-0.011-5.224-0.17C248.66,739.805,250.233,739.965,253.026,739.414z"/>
					<path d="M548.915,590.801C548.009,593.66,549.381,591.546,548.915,590.801L548.915,590.801z"/>
					<path d="M519.741,591.398c-0.381-0.86-1.002-1.686-2.295-2.454C518.728,589.88,519.433,590.686,519.741,591.398z"/>
					<path d="M534.888,458.496c-0.002-0.074,0.019-0.135,0.017-0.22C533.649,459.072,533.888,458.934,534.888,458.496z"/>
					<path d="M544.271,593.477c1.214-0.628,2.398-1.469,3.441-2.511C546.99,591.296,545.896,592.043,544.271,593.477z"/>
					<path d="M547.298,594.312c-0.727,0.781-1.236,1.425-1.741,2.026C546.352,597.163,547.114,597.171,547.298,594.312z"/>
					<path d="M550.308,586.889c-0.607,1.588-1.543,2.899-2.595,4.077c0.638-0.339,1.069-0.403,1.202-0.165
						C549.184,589.964,549.573,588.791,550.308,586.889z"/>
					<path d="M64.941,496.725c-0.184,0.18-0.292,0.374-0.547,0.578C67.368,499.277,66.811,498.312,64.941,496.725z"/>
					<path d="M436.669,308.489c0.121,0.024,0.275-0.061,0.399-0.054c-0.031-0.121-0.066-0.276-0.085-0.396L436.669,308.489z"/>
					<path d="M427.511,306.83c7.825-3.904,8.821-1.865,9.473,1.21c0,0,2.689-3.919,5.378-7.837c1.327-1.975,2.653-3.951,3.648-5.433
						c0.979-1.479,1.631-2.465,1.631-2.465s-5.149,3.529-10.176,7.166C432.426,303.098,427.511,306.83,427.511,306.83z"/>
					<path d="M151.073,310.647c0,0,1.985,0.215,3.971,0.43c1.955,0.237,3.909,0.474,3.909,0.474
						c0.699,5.774-0.239,8.661-0.281,10.541c-0.024,0.929,0.228,1.644,1.006,2.263c0.774,0.617,2.143,1.205,4.392,1.987
						c-3.268-3.907-4.044-6.769-3.546-9.145c0.505-2.362,2.201-4.29,4.07-5.999c1.832-1.761,3.653-3.529,4.309-5.922
						c0.718-2.304,0.284-5.269-2.533-9.511c0,0,1.358,0.349,2.716,0.699c1.343,0.358,2.685,0.717,2.685,0.717
						c-0.942,0.43-0.384,1.506-1.317,1.918c2.813,0.993,3.91,0.575,4.175-0.695c0.252-1.28-0.314-3.364-0.915-5.661
						c-1.229-4.599-2.558-10.149,2.17-11.469c3.606-0.392,7.049,1.138,6.39,4.271c0,0,0.901-1.97,1.804-3.939
						c0.936-1.995,1.872-3.99,1.872-3.99c0.998-0.363,1.825,0.34,2.133,1.174c0.303,0.825,0.124,1.834-0.855,2.181
						c0,0,0.529-0.439,1.348-1.058c0.834-0.596,1.946-1.391,3.058-2.185c2.235-1.605,4.471-3.21,4.471-3.21l0.191,0.577
						c-0.025-1.818,0.265-4.16,0.664-6.42c0.397-2.259,0.91-4.421,1.299-5.751c3.811,1.483-0.431,2.567,1.291,4.577
						c0,0,0.912-1.768,1.824-3.536c0.469-0.891,0.938-1.782,1.29-2.45c0.367-0.647,0.612-1.079,0.612-1.079
						c2.214,1.971,2.57,4.614,1.919,6.863c-0.632,2.316-2.267,4.259-4.321,4.772c6.754,8.113,7.194,6.486,8.14,3.505
						c0.479-1.44,1.061-3.207,2.506-4.204c1.444-0.977,3.743-1.268,7.524,0.511c0,0-0.271,0.263-0.676,0.658
						c-0.395,0.418-0.92,0.976-1.444,1.533c-1.038,1.106-2.076,2.212-2.076,2.212c1.872,2.368,3.395,3.814,4.76,4.717
						c1.364,0.904,2.566,1.248,3.826,1.54c2.488,0.539,5.104,0.455,8.902,2.955c-1.195-1.576-5.33-4.958-8.865-8.733
						c-3.509-3.784-6.373-7.954-4.115-11.39c2.271,0.875,4.688,0.777,6.843-4.223c2.179,6.909,4.874,4.312,8.853,2.743l2.22,9.344
						c0.871-0.964,1.429-2.004,1.814-3.039c0.388-1.025,0.588-2.101,0.725-3.212c0.277-2.224,0.295-4.589,1.129-6.998
						c5.273-0.25,7.777,6.771,10.11,12.755c3.924,0.086,2.103-2.622,0.299-5.75c-1.794-3.134-3.606-6.679,1.043-8.424
						c1.846,0.602,3.463,0.759,4.979,0.542c1.527-0.152,2.96-0.64,4.405-1.453c2.894-1.601,5.841-4.518,9.826-7.609
						c2.593,1.46,2.462,2.94,1.972,4.379c-0.497,1.439-1.357,2.835-0.399,4.14c0,0,0.919-1.989,1.839-3.979
						c0.957-1.994,1.914-3.987,1.914-3.987c1.075,0.099,0.855,2.474,0.752,3.672c1.719-1.633,1.698-3.948,1.931-6.33
						c0.238-2.358,0.744-4.676,3.709-6.054c0.33-2.651,1.315-3.032,2.689-2.302c0.686,0.365,1.467,1.007,2.31,1.782
						c0.419,0.399,0.855,0.814,1.307,1.243c0.446,0.456,0.906,0.926,1.377,1.408c1.876,1.893,3.872,3.742,5.865,4.376
						c1.996,0.651,4.001,0.001,5.994-2.802c1.615,2.858-1.205,5.804-0.866,9.554c5.033-3.553,7.317-4.823,9.373-6.446
						c2.088-1.597,3.926-3.425,8.812-8.167c0,0,1.559,1.783,3.118,3.566c0.771,0.866,1.512,1.849,2.071,2.535
						c0.554,0.7,0.924,1.167,0.924,1.167c-1.953-4.014-1.063-7.847,1.358-11.382c2.409-3.537,6.358-6.776,10.185-9.649
						c-1.304-3.766-2.497-7.075-3.419-8.712c0,0,2.835-0.8,5.671-1.601c1.436-0.427,2.853-0.698,3.934-0.963
						c1.08-0.247,1.8-0.411,1.8-0.411c0.921,1.828-0.878,4.796-3.373,8.332c0.854-0.615,1.678-1.229,2.348-1.818
						c2.854,4.296-0.369,9.236-3.959,13.909c-0.761-2.114-1.512-4.366-2.265-6.595c-3.637,5.272-6.968,11.234-7.507,16.844
						c0.798-0.981,2.136-1.711,3.521-2.009c-0.911,1.445-1.558,2.766-1.47,3.756c0.112,1.066,1.479-0.92,3.477-2.937
						c0,0-0.04,2.735-0.08,5.47c-0.065,2.729-0.13,5.458-0.13,5.458l1.403-4.035c0,0,2.511,2.294,5.021,4.589
						c1.244,1.102,2.419,2.385,3.312,3.271c0.882,0.904,1.47,1.507,1.47,1.507c2.723-2.02,5.55-4.363,8.515-6.696
						c2.936-2.24,6.018-4.499,9.281-6.489c1.632-0.995,3.309-1.923,5.034-2.748c1.718-0.806,3.454-1.428,5.254-1.953
						c1.797-0.514,3.641-0.887,5.531-1.085c1.89-0.197,3.836-0.246,5.763,0.06c-3.262,2.829-4.66,5.71-5.774,8.918
						c-1.107,3.212-1.928,6.754-3.846,10.986c0.227-5.303-2.794-5.284-6.4-4.556c-1.817,0.388-3.773,0.91-5.673,1.177
						c-1.909,0.287-3.719,0.206-5.228-0.833c3.158,2.158,0.894,6.068-0.46,7.243c0,0,0.909-0.284,2.271-0.711
						c0.688-0.21,1.492-0.456,2.353-0.719c0.857-0.224,1.771-0.462,2.687-0.701c3.674-0.95,7.484-1.859,7.484-1.859
						c-1.577,3.464-1.502,5.024-0.822,6.22c0.676,1.205,1.932,2.157,2.75,4.241c1.922-7.376,5.045-8.704,8.632-8.403
						c0.892,0.076,1.812,0.24,2.731,0.454c0.904,0.251,1.827,0.508,2.727,0.758c1.819,0.471,3.625,0.777,5.339,0.36
						c-2.072,4.604-5.557,8.617-10.502,4.703c0.543,6.641,4.376,3.646,8.552,0.587c4.152-3.132,8.53-6.13,9.19-0.216
						c-1.422-0.674-1.782-1.777-3.565,0.153c2.666-1.049,5.556,0.344,7.216,2.305c1.656,1.985,1.982,4.646-0.038,5.931l-1.341-0.742
						c1.909,1.76,4.476,3.681,7.399,5.421c2.885,1.801,6.019,3.588,9.297,4.783c1.656,0.575,3.211,1.188,4.817,1.546
						c1.593,0.376,3.176,0.58,4.712,0.563c3.078-0.042,5.964-0.937,8.293-3.101c-0.989,1.317-10.864,10.925-12.961,12.589
						c0,0,0.646-0.347,1.774-0.954c1.129-0.601,2.718-1.419,4.662-2.401c3.879-1.96,9.143-4.5,14.553-6.914
						c5.436-2.457,10.88-4.636,15.043-6.227c4.161-1.593,6.995-2.598,6.995-2.598c-4.467,3.311-9.938,10.894-15.77,17.309
						c-5.814,6.429-11.914,11.771-16.99,11.201c0.324,1.389,0.692,2.911,1.761,4.159c1.063,1.258,2.876,2.186,5.942,2.679
						c0.004-1.128,2.121-4.65,4.491-7.803c2.35-3.127,5.024-5.912,6.2-5.396c-2.091,6.651-2.556,8.53-2.687,10.43
						c-0.071,0.943-0.072,1.879-0.205,3.362c-0.137,1.482-0.376,3.492-1.116,6.663c0.09-1.696,3.74-4.938,7.688-7.282
						c3.941-2.351,8.224-3.757,9.387-1.997c-2.363,1.199-12.652,11.302-14.926,11.408c0,0,4.739-0.97,9.615-1.788
						c2.446-0.424,4.812-0.729,6.646-0.982c1.826-0.234,3.044-0.391,3.044-0.391c-3.956-0.118-11.4,8.632-13.878,13.196
						c0.995-1.407,2.207,0.261,3.529,2.387c1.269,2.168,2.524,4.859,3.953,5.399l0.822-5.596c1.063,2.601,3.183,3.57,5.9,3.781
						c1.353,0.107,2.875,0.007,4.44-0.16c1.557-0.162,3.198-0.418,4.858-0.67c3.32-0.505,6.715-0.994,9.645-0.682
						c2.913,0.317,5.454,1.392,6.709,4.126c-1.864,0.255-6.897,2.254-11.32,4.974c-4.423,2.718-8.273,6.099-7.833,9
						c2.184-0.537,5.88-1.487,10.408-2.452c4.52-0.962,9.922-1.958,15.294-2.506c5.403-0.569,10.93-0.768,15.828-0.318
						c2.434,0.231,4.771,0.592,6.738,1.192c1.976,0.595,3.693,1.375,5.05,2.356l-3.584,4.056c0,0,2.195,1.446,4.39,2.892
						c1.121,0.726,2.162,1.497,2.96,2.073c0.796,0.58,1.327,0.966,1.327,0.966c-6.963-0.195-18.465-0.916-29.409-1.399
						c-5.432-0.278-11.023-0.386-15.865-0.543c-4.876-0.145-9.085-0.306-12.239-0.555c-1.586,5.413-4.622,3.743-1.528,8.784
						c-3.209,3.885-7.707,0.371-8.687-0.968c0,0,0.837,3.274,1.675,6.549c0.457,1.606,0.742,3.281,0.998,4.512
						c0.248,1.232,0.413,2.053,0.413,2.053c4.473-2.358,7.827-1.074,11.056,0.417c3.108,1.525,6.037,3.265,9.853,1.472
						c0,0-0.958-0.652-2.396-1.629c-0.714-0.479-1.546-1.038-2.438-1.637c-0.929-0.567-1.921-1.172-2.912-1.776
						c-3.96-2.396-7.813-4.616-7.813-4.616c4.409-2.46,11.73-3.61,18.436-2.559c1.675,0.259,3.309,0.651,4.841,1.181
						c1.529,0.531,2.985,1.187,4.171,2.023c2.419,1.652,4.177,3.857,4.757,6.537c-1.371,1.992-5.774,3.058-10.188,3.879
						c-4.417,0.813-8.838,1.394-10.366,2.098c0.927-0.016,1.994,0.376,3.047,1.008c1.06,0.63,2.1,1.502,2.88,2.465
						c1.606,1.909,2.515,4.046,1.494,4.868c0,0-1.616-0.572-3.232-1.144c-1.606-0.547-3.213-1.095-3.213-1.095
						c-0.925,3.204,2.943,4.202,6.218,5.708c3.238,1.481,5.701,3.557,2.004,8.054c-0.016,1.205-2.607,3.668-4.657,5.664
						c-2.027,1.998-3.314,3.511-0.367,3.01c10.405-6.12,44.583-16.247,53.676-15.295c-0.265,0.576-2.096,4.853-4.515,9.344
						c-0.609,1.125-1.234,2.261-1.915,3.371c-0.704,1.114-1.426,2.193-2.146,3.19c-1.44,1.996-2.875,3.662-4.142,4.652
						c-4.063,2.916-9.654,2.185-15.066,1.547c-5.419-0.667-10.657-1.25-14.177,1.091c2.728-0.385,6.45,1.135,7.688,1.858
						c-1.873,2.867-8.591,0.447-6.414,5.49c10.237-0.646,0.53,11.07,8.879,1.282c1.786,2.486,1.45,4.008,0.818,5.646
						c-0.643,1.646-1.5,3.403-1.09,6.534c3.216-1.296,8.917-0.42,14.251,1.673c2.667,1.042,5.241,2.383,7.358,3.841
						c1.052,0.729,2.021,1.485,2.773,2.245c0.745,0.761,1.332,1.522,1.715,2.256c-2.606-0.241-5.953,1.22-7.482,1.896
						c-0.155,2.979-0.553,5.611-1.057,8.042c-0.587,2.431-1.344,4.66-2.034,6.848c-0.714,2.188-1.336,4.335-1.923,6.603
						c-0.637,2.266-1.127,4.656-1.354,7.354c-1.271,0.396-2.75,1.817-4.436,2.79c-1.672,0.978-3.631,1.488-5.688,0.205
						c1.625,1.659,4.88,3.424,4.715,6.72c-9.554,5.054-0.459-7.298-11.604-3.849c2.926,0.535,4.702,2.8,6.13,5.619
						c0.694,1.405,1.39,2.959,1.938,4.465c0.568,1.509,1.152,2.995,1.861,4.304c2.324,0.041,3.715-0.6,4.452-1.666
						c0.733-1.067,0.845-2.552,0.431-4.205c-0.762-3.307-3.077-7.151-4.626-9.638c6.294,0.656,12.478,3.369,17.597,7.736
						c2.537,2.176,4.901,4.771,6.713,7.65c1.788,2.874,3.178,6.057,4.063,9.412c0.339,2.599-0.052,4.076-0.856,4.823
						c-0.78,0.754-1.884,0.803-2.971,0.595c-2.174-0.419-4.288-1.845-3.597-0.835c-1.562,4.321-1.214,7.721-0.028,10.686
						c1.074,2.93,3.015,5.412,4.764,7.789c1.748,2.376,3.301,4.645,3.591,7.123c0.295,2.473-0.875,5.113-4.291,8.152
						c-4.824,1.672-8.608,0.338-11.96-1.393c-3.348-1.744-6.262-3.895-9.214-4.241c-0.232-4.116,1.947-6.437,4.289-8.482
						c2.27-2.055,4.803-3.786,5.369-6.372l-5.428,5.141c-1.893-3.144-2.492-8.486,0.521-10.548c-2.084,0.712-3.706,2.79-5.123,5.676
						c-0.713,1.442-1.355,3.094-2.016,4.87c-0.729,1.754-1.446,3.642-2.18,5.593c-0.746,1.946-1.455,3.977-2.307,5.958
						c-0.895,1.966-1.834,3.92-2.84,5.783c-0.503,0.932-1.023,1.841-1.563,2.718c-0.533,0.879-1.092,1.722-1.734,2.496
						c-1.25,1.563-2.582,2.957-4.016,4.099c1.512,3.219,2.337,8.185,6.064,7.814l0.74-4.375c3.771-0.446,4.993,2.31,5.859,4.797
						c0.874,2.473,1.405,4.647,3.947,2.72c0.226,0.94,0.454,1.896,0.687,2.867c0.225,0.974,0.429,1.959,0.626,2.964
						c0.389,2.008,0.694,4.07,0.724,6.104c0.029,2.031-0.211,4.037-0.924,5.901c-0.782,1.825-2.029,3.517-3.912,4.946l-8.766-3.21
						c2.395,1.223,7.543-2.11,6.265-5.544c0.921,2.523-3.454,3.869-6.897,5.616c-1.732,0.876-3.221,1.878-3.796,3.239
						c-0.611,1.34-0.266,3.072,1.759,5.492c0,0,2.16-0.42,4.319-0.84c1.094-0.211,2.166-0.445,2.953-0.636
						c0.798-0.187,1.329-0.311,1.329-0.311c0.242,1.95,0.61,4.106,0.959,6.37c0.354,2.267,0.69,4.642,0.784,6.952
						c0.079,2.299-0.016,4.581-0.684,6.521c-0.664,1.942-1.777,3.627-3.532,4.843c4.764,1.138,4.837,0.584,5.2-0.044
						c0.366-0.649,1.044-1.327,7.107-0.782c-6.85-1.581-3.898-5.88-1.264-9.898c1.315-2.016,2.586-3.956,2.463-5.438
						c-0.142-1.502-1.582-2.455-5.557-2.573c6.743,0.711,9.16-0.901,11.497-2.788c2.34-1.914,4.624-4.074,11.05-5.196
						c-2.802-1.188-6.407-0.215-1.923-5.689c-0.648-0.68-1.321-1.841-1.7-2.549c0.168-0.152,0.247-0.194,0.415-0.313
						c-0.168,0.07-0.333,0.104-0.493,0.177c-0.271-0.467-0.346-0.532-0.176,0.071c-1.93,0.862-3.949,1.303-5.693,0.997
						c-2.352-3.1-2.216-6.9-1.88-10.587c0.294-3.706,0.957-7.23,0.024-9.546c2.916-2.96,2.52,2.876,6.36,2.231
						c0,0-0.692-1.746-1.384-3.492c-0.755-1.744-1.509-3.488-1.509-3.488c3.207,1.051,6.762-0.327,9.561-0.751
						c2.794-0.412,4.835,0.148,4.891,5.374l3.462-7.976c2.714-1.719,4.871-4.221,6.319-6.878c1.403-2.673,2.071-5.507,1.323-8.026
						c2.557-3.612-4.328-12.03-0.224-7.171c0,0-0.019-0.89-0.048-2.224c-0.041-1.334-0.052-3.095-0.146-4.866
						c-0.251-3.531-0.502-7.063-0.502-7.063l1.67,0.256c2.049-6.405,0.366-13.741,0.249-20.823
						c-0.473-7.185,0.618-14.123,7.118-21.271c-0.684-2.308-1.438-4.636-1.766-7.298c-0.419-2.667-0.38-5.663,0.666-9.379
						l5.865-1.388c-0.875-2.93,0.423-7.3,1.282-11.327c0.846-4.017,1.223-7.656-1.957-8.733c3.799-1.796,5.775-4.554,6.625-7.833
						c0.425-1.64,0.568-3.407,0.518-5.244c-0.085-1.835-0.44-3.733-0.863-5.65c-0.432-1.916-0.97-3.848-1.524-5.746
						c-0.562-1.898-1.094-3.77-1.701-5.548c-1.146-3.566-1.981-6.839-1.768-9.563l-7.54,1.067c-0.104-0.879-0.247-1.747-0.429-2.605
						c-0.218-0.853-0.473-1.697-0.762-2.537c-0.579-1.681-1.295-3.347-2.13-5.03s-1.788-3.385-2.841-5.139
						c-1.093-1.744-2.36-3.52-3.675-5.392l-6.335,2.304c-3.679-2.739-3.646-7.504-3.692-12.973c0.023-2.744,0.135-5.688-0.042-8.631
						c-0.251-2.915-0.866-5.801-2.086-8.451c2.677-0.22,3.15,2.818,2.459,5.311c2.283-4.582,2.054-8.457,0.559-11.805
						c-1.585-3.316-4.529-6.064-7.494-8.664c-2.919-2.63-6.195-4.951-8.323-7.69c-2.153-2.733-3.22-5.86-2.426-9.92
						c-3.696-1.528-4.084-3.874-3.737-6.657c0.159,0.246,0.397,0.41,0.692,0.496c-0.092-0.32-0.318-0.743-0.577-1.162
						c0.315-1.811,0.698-3.733,0.759-5.62c-0.673,1.989-1.123,3.745-1.126,5.029c-1.339-2.03-4.1-4.67-7.428-6.775l5.208-5.253
						c-0.24-0.198-0.359-0.409-0.631-0.601c0.253-4.527-4.386-0.492-7.893,4.097c-1.929-0.866-4.099-1.358-6.244-1.396
						c3.984-4.459,1.804-5.835-0.333-7.31c-1.071-0.742-2.137-1.515-2.453-2.766c-0.343-1.233,0.036-2.929,1.903-5.593
						c-3.158,0.884-6.828-1.944-11.065-4.119c-4.378-2.066-9.302-3.434-14.657,0.124c1.171-1.188,1.101-2.475,2.388-1.148
						c-1.341-3.88-3.005-7.656-7.964-7.648l5.484-7.556c0,0-3.704,0.591-7.335,1.261c-3.695,0.72-7.328,1.528-7.328,1.528
						c0.3-7.447,0.817-11.441,9.471-12.96c-4.169-0.214-6.831-0.539-8.79-0.902c-1.989-0.324-3.228-0.725-4.42-1.09
						c-2.378-0.701-4.593-1.37-11.94-0.497l4.165-4.279c-1.539-1.069-4.724-0.974-7.321-1.229c-2.603-0.26-4.629-0.881-4.029-3.528
						c0.051-3.491-2.04-6.792-5.33-10.169c-0.828-0.834-1.713-1.702-2.697-2.518c-0.994-0.802-2.052-1.606-3.16-2.416
						c-2.217-1.619-4.631-3.262-7.143-4.946c-2.579-1.574-5.255-3.192-7.928-4.887c-1.346-0.831-2.651-1.754-4.018-2.569
						c-1.357-0.831-2.703-1.686-4.025-2.571c-1.322-0.886-2.622-1.802-3.888-2.753c-1.263-0.958-2.493-1.949-3.722-2.895
						c-2.435-1.94-4.691-4.053-6.69-6.391c-1.58,8.894-3.055,6.02-5.012,2.536c-1.982-3.424-4.544-7.596-7.384-1.433
						c0.336-4.307-1.768-7.642,2.891-9.677c-1.518-0.05-2.862-0.278-4.084-0.626c-1.229-0.328-2.354-0.724-3.385-1.213
						c-2.067-0.962-3.811-2.174-5.533-3.134c-1.729-0.937-3.404-1.717-5.375-1.551c-1.96,0.14-4.16,1.049-6.814,3.265
						c-0.13-4.354,4.021-5.161,3.583-7.837c-1.156,0.599-4.505,2.459-5.012-0.248c-0.499-2.697,2.543-2.891,4.835-4.112
						c-2.946-0.655-5.437-0.395-7.543,0.555c-2.127,1.021-3.867,2.702-5.335,4.809c-2.934,4.214-4.799,10.123-6.54,15.858
						c-2.076-3.383-3.909-5.055-5.873-5.014c-1.98,0.122-4.101,1.936-6.761,5.445c-1.161-4.18-3.78-8.808,3.355-8.96
						c-0.941-0.313-2.825-1.088-5.171-1.926c-1.172-0.419-2.459-0.854-3.798-1.253c-1.347-0.344-2.746-0.641-4.129-0.861
						c-5.543-0.87-10.785-0.436-11.427,4.401c-0.981-2.516-5.359-1.125-6.442-0.097c-2.152-0.306-3.813-0.592-5.229-0.845
						c-1.416-0.233-2.589-0.363-3.757-0.492c-2.338-0.235-4.673-0.285-8.941,0.067l2.343,1.625c-1.752,5.764-3.437,6.283-5.596,5.75
						c-2.146-0.575-4.788-2.409-8.141-1.626l0.15-1.191c-3.962-2.038-6.406-2.578-8.023-2.631c-1.621-0.043-2.427,0.482-3.223,0.97
						c-0.797,0.488-1.582,0.939-3.186,0.749c-0.801-0.09-1.81-0.361-3.132-0.827c-1.319-0.429-2.955-1.079-5.037-2.015l1.683,7.037
						c0.184,7.777-3.268,5.914-8.02,3.018c-2.365-1.409-5.043-2.957-7.649-3.757c-2.6-0.783-5.122-0.782-7.022,1.088
						c0,0,0.994,0.858,1.988,1.717c0.983,0.867,1.966,1.734,1.966,1.734c-1.866,2.961-6.104-1.422-10.893-6.646
						c-4.745-5.21-10.07-11.314-12.852-11.464c-1.454-0.976,1.181-2.611,2.514-3.951c-3.938-1.332-5.899-1.302-6.722-0.575
						c-0.824,0.743-0.517,2.248-0.008,4.063c1.026,3.63,2.807,8.511-1.659,10.924c-1.619-2.181-1.987-5.436-2.785-8.031
						c-0.4-1.296-0.914-2.427-1.771-3.167c-0.856-0.744-2.06-1.104-3.795-0.75c-2.29-1.395-5.923,4.15-10.154,9.257
						c-2.092,2.654-4.355,5.193-6.859,6.719c-1.253,0.763-2.568,1.273-3.965,1.423c-1.38,0.187-2.831,0.037-4.391-0.601
						c3.473,2.734,6.76,5.542,3.775,10.115c-1.451,1.039-3.623,1.196-6.117,1.087c-1.243-0.05-2.577-0.19-3.914-0.281
						c-1.327-0.07-2.678-0.132-3.991-0.116c-5.229,0.087-10.021,1.33-9.739,8.387c-1.299-0.488-2.101-1.21-2.611-2.04
						c-0.791,1.372-1.974,2.893-3.283,4.514c-1.312,1.62-2.763,3.322-4,5.204c-2.52,3.701-4.495,7.588-3.95,11.216
						c-4.49-4.557-8.003-4.863-10.993-3.243c-2.977,1.643-5.377,5.213-7.344,8.922c-1.009,1.828-1.96,3.633-2.93,5.171
						c-0.967,1.542-1.977,2.791-3.017,3.631c-2.114,1.63-4.714,1.252-8.44-3.1c0,0-0.738,0.741-1.845,1.852
						c-1.091,1.126-2.609,2.555-4.01,4.107c-2.801,3.09-5.602,6.18-5.602,6.18l-1.313-1.977c-1.101,0.789-2.047,1.584-2.856,2.381
						c-0.803,0.806-1.425,1.657-1.956,2.48c-1.05,1.659-1.632,3.308-1.896,4.941c-0.516,3.279,0.19,6.447,1.035,9.659
						c-2.73,0.765-3.18-1.979-3.936-2.94c-6.759,4.279-10.365,6.936-11.888,10.771c-0.795,1.893-1.143,4.032-1.203,6.743
						c-0.018,1.364-0.014,2.833,0.136,4.549c0.144,1.711,0.346,3.604,0.596,5.715l-6.813-3.247c0.374,1.339-0.829,2.705-2.887,4.304
						c-1.052,0.793-2.241,1.69-3.54,2.67c-1.312,0.98-2.741,2.048-4.198,3.223c-1.453,1.176-2.943,2.452-4.342,3.859
						c-1.34,1.443-2.605,3.006-3.698,4.693c-1.092,1.687-2.011,3.497-2.652,5.427c-0.658,1.92-0.881,4.047-0.812,6.234
						c-0.678-0.523-1.814-1.47-2.18-3.05c-0.028,2.441-0.618,4.679-1.599,6.787c-0.49,1.054-1.078,2.074-1.742,3.07
						c-0.625,1.014-1.311,2.011-2.059,2.986c-2.943,3.915-6.919,7.501-9.842,11.259c-1.504,1.857-2.847,3.707-3.833,5.552
						c-0.491,0.923-0.898,1.843-1.184,2.764c-0.25,0.934-0.389,1.865-0.39,2.792c-0.004,3.714,2.191,7.355,8.137,10.907
						c0,0,0.175,0.789,0.436,1.973c0.239,1.173,0.666,2.761,1.087,4.331c0.851,3.107,1.701,6.214,1.701,6.214
						c2.944-6.522,5.599-5.104,8.282-2.718c2.68,2.407,5.414,5.724,8.319,3.722c0.053,2.723-2.83,5.399-5.7,6.676
						c-1.421,0.637-2.796,0.921-3.846,0.609c-1.025-0.306-1.769-1.223-1.631-2.908l1.593-0.653
						c-3.242-1.499-5.456-1.306-7.108-0.165c-1.64,1.14-2.582,3.244-3.456,5.438c-0.861,2.199-1.599,4.5-2.703,6.11
						c-1.127,1.605-2.474,2.563-4.837,2c-0.547,3.522-1.215,7.006-1.978,10.47c-0.702,3.471-1.325,6.947-2.108,10.402
						c-0.359,1.731-0.826,3.452-1.138,5.188c-0.341,1.736-0.681,3.47-1.02,5.199c-0.358,1.736-0.716,3.47-1.072,5.2
						c-0.175,0.867-0.381,1.733-0.532,2.602l-0.433,2.606c-0.574,3.494-1.146,6.975-1.716,10.44
						c-0.457,3.483-0.783,6.971-1.108,10.455c-0.141,1.741-0.331,3.484-0.386,5.222c-0.045,1.737-0.071,3.473-0.075,5.205
						c-0.005,1.732,0.014,3.462,0.057,5.187c0.036,1.725,0.103,3.444,0.308,5.147c0,0,2.631-1.067,5.261-2.134
						c2.657-1.038,5.314-2.076,5.314-2.076s0.001,0.145,0.004,0.396s-0.001,0.613,0.03,1.044c0.049,0.862,0.114,2.012,0.18,3.162
						c0.134,2.304,0.267,4.608,0.267,4.608c-2.227,2.73-8.084,4.474-8.491-2.333c-2.863,2.141-1.205,4.857,1.457,6.902
						c2.619,2.063,6.467,3.42,7.633,3.321c-1.063,6.718-4.416,6.123-7.486,4.155c-3.066-1.947-5.83-5.241-5.601-3.176l1.792,5.406
						l1.04-1.469c2.605,1.846,5.09,2.617,7.034,3.933c0.977,0.656,1.801,1.449,2.468,2.568c0.705,1.112,1.235,2.553,1.551,4.528
						c-1.004,5.425-6.003,4.084-5.959,6.157c-0.758,0.168-0.956,0.937,0.405,3.131c0,0,0.093,0.754,0.33,1.862
						c0.223,1.113,0.52,2.598,0.817,4.082c0.603,2.975,1.205,5.949,1.205,5.949s1.748-1.77,3.495-3.54
						c1.759-1.734,3.518-3.469,3.518-3.469c2.764,1.917,3.401,4.564,4.346,5.761c0.468,0.598,1.056,0.81,1.964,0.387
						c0.909-0.42,2.186-1.495,4.184-3.471c-6.117,5.838-4.02,16.796-0.021,26.555c0.91,2.477,2.106,4.805,3.178,7.033
						c1.083,2.224,2.116,4.314,2.981,6.204c1.805,3.742,3.059,6.628,2.553,8.266c2.235,0.9,4.099,1.951,5.691,3.155
						c1.644,1.175,3.052,2.483,4.271,3.948c2.46,2.917,4.161,6.478,6.266,10.325c0.342-2.81,7.979-8.941,10.862-2.231
						c-4.568,2.184-6.867,4.263-7.843,6.418c-0.975,2.149-0.672,4.382,0.088,6.661c0.729,2.303,1.772,4.742,2.142,7.466
						c0.187,1.361,0.197,2.802-0.064,4.327c-0.235,1.504-0.762,3.107-1.705,4.834c2.069-5.132,5.965-1.11,9.961,2.188
						c1.965,1.685,4.132,3.054,5.994,3.111c1.879,0.052,3.505-1.281,4.72-5.079c1.412,2.875,0.062,4.187-1.718,5.598
						c-1.774,1.416-3.991,2.916-4.155,6.338c2.016,0.806,3.741,1.907,5.431,3.09c1.682,1.191,3.203,2.576,4.623,4.114
						c1.428,1.529,2.719,3.247,4.027,5.008c1.336,1.731,2.627,3.568,3.921,5.461c1.305,1.88,2.565,3.869,3.963,5.76
						c1.413,1.875,2.875,3.749,4.426,5.563c0.775,0.907,1.573,1.799,2.397,2.667c0.412,0.435,0.831,0.862,1.257,1.284
						c0.439,0.405,0.891,0.798,1.347,1.187c1.827,1.549,3.778,2.973,5.879,4.203c1.825-1.92,1.847-7.032,7.395-7.669
						c0,0-0.015,1.036-0.037,2.589c-0.005,0.78-0.011,1.69-0.017,2.666c0.017,0.961,0.034,1.987,0.052,3.013
						c0.084,4.11,0.279,8.296,0.279,8.296c1.947,0.589,4.844-2.024,7.279-3.361c1.222-0.671,2.321-1.013,3.155-0.484
						c0.853,0.504,1.431,1.882,1.624,4.727c0.392-2.387,1.055-5.938,3.593-5.31c2.965,3.805,6.288,7.255,10.055,10.059
						c1.86,1.439,3.784,2.796,5.755,4.083c1.978,1.276,4.076,2.347,6.165,3.438c2.1,1.074,4.23,2.094,6.38,3.074
						c2.192,0.893,4.408,1.739,6.628,2.569c2.229,0.812,4.433,1.676,6.69,2.405l6.786,2.14c4.479,1.532,9.047,2.776,13.508,4.325
						l6.678,2.386c2.226,0.806,4.431,1.689,6.617,2.673c1.094,0.488,2.18,1.015,3.267,1.545c1.098,0.492,2.19,1.012,3.279,1.563
						c2.178,1.1,4.339,2.32,6.49,3.685c2.142,1.407,4.309,2.778,6.466,4.343s4.311,3.293,6.471,5.207
						c-4.337-5.962-0.781-5.837,3.112-5.352c-2.331-1.646,1.056-6.43,1.098-10.049c0,0,0.211,0.206,0.589,0.522
						c0.38,0.322,0.921,0.783,1.57,1.336c1.324,1.108,3.09,2.585,4.855,4.062c1.815,1.479,3.631,2.959,4.992,4.069
						c0.688,0.567,1.271,0.99,1.679,1.296c0.408,0.304,0.642,0.478,0.642,0.478c1.924-4.825,6.09-4.674,10.133-4.486
						c2.018,0.13,4.003,0.129,5.603-0.457c1.599-0.579,2.804-1.749,3.269-4.109l-4.939,1.578c3.489-5.521,1.378-11.76-1.016-18.497
						c-2.44-6.821-5.127-14.063-4.147-21.193c-1.794,3.055-3.686,3.326-5.605,2.295c-1.917-1.091-3.845-3.576-5.846-5.849
						c-1.001-1.143-2.022-2.242-3.086-3.118c-0.531-0.438-1.074-0.819-1.632-1.123c-0.554-0.325-1.119-0.591-1.707-0.745
						c-2.35-0.627-4.995,0.367-8.37,4.396c-1.622-3.262,2.748-4.214,2.205-7.694c-3.618,5.694-7.014,6.131-11.922,2.188l0.985-1.337
						c-0.988-0.131-1.938-0.282-2.851-0.452c-0.907-0.192-1.767-0.449-2.601-0.697c-1.667-0.508-3.209-1.08-4.663-1.711
						c-1.447-0.654-2.838-1.265-4.124-2.107c-1.295-0.815-2.541-1.678-3.78-2.581c-1.239-0.904-2.471-1.849-3.734-2.829
						c-1.271-0.963-2.512-2.129-3.858-3.235c-1.339-1.129-2.749-2.289-4.273-3.476c-0.381-0.293-0.769-0.592-1.164-0.895
						c-0.386-0.32-0.779-0.646-1.18-0.979c-0.802-0.658-1.636-1.323-2.509-1.995l-1.711,7.024c-3.082-2.442-2.865-4.783-3.691-7.105
						c-8.59,7.939,9.41,4.911,0.954,14.131c0.263-3.85-1.108-6.47-3.271-8.489c-1.098-0.976-2.318-1.963-3.663-2.817
						c-1.339-0.868-2.771-1.668-4.184-2.475c-0.707-0.402-1.409-0.807-2.092-1.221c-0.672-0.434-1.308-0.909-1.918-1.385
						c-1.218-0.959-2.298-1.988-3.116-3.15c-1.638-2.327-2.229-5.16-0.739-9.135c-2.334-1.557-3.094,0.401-3.833,2.369
						c-0.741,1.967-1.462,3.944-3.895,2.327l1.124-4.56l-4.375,4.001c-0.676-0.721-1.107-1.59-1.297-2.594
						c-0.187-1.01-0.166-2.103,0.003-3.197c0.336-2.19,1.267-4.39,2.291-5.972c0.472,0.886,2.659,0.604,3.605,0.887
						c-0.45-3.546-3.353-5.067-6.276-6.044c-1.479-0.458-2.858-0.909-3.941-1.32c-1.076-0.42-1.814-0.85-1.87-1.436
						c0,0,0.634,1.371,1.268,2.742c0.321,0.69,0.644,1.382,0.885,1.899c0.238,0.527,0.421,0.85,0.421,0.85
						c-1.846-0.74-3.604-1.708-5.362-2.749c-0.876-0.525-1.745-1.077-2.608-1.65l-1.292-0.875c-0.419-0.309-0.823-0.639-1.234-0.964
						c-3.246-2.646-6.571-5.366-9.655-8.33c-1.578-1.442-3.187-2.849-4.843-4.186c-1.579-1.417-3.212-2.759-4.932-3.988
						c-3.514-2.394-7.03-4.645-11.301-6.067l-1.787,3.059c-1.563-0.626-2.814-1.242-3.779-1.884
						c-0.938-0.665-1.625-1.325-2.138-1.986c-1.025-1.323-1.35-2.649-1.606-4.057c-0.24-1.42-0.484-2.869-1.18-4.588
						c-0.696-1.721-1.948-3.624-4.43-5.867l0.931-0.069c-4.312-0.164-7.583-2.289-9.233-5.543c2.56,0.354,3.314-2.003,4.22-4.219
						c0.897-2.228,1.947-4.311,4.924-3.701c-0.781-0.432-1.489-0.823-2.132-1.179c-0.636-0.367-1.207-0.696-1.721-0.993
						c-1.052-0.586-1.924-1.021-2.681-1.338c-1.514-0.634-2.565-0.787-3.709-0.736c-1.145,0.05-2.38,0.304-4.282,0.452
						c-1.901,0.143-4.503,0.206-8.232-0.318l4.002-4.384c-2.905-0.154-4.99-0.012-6.896-0.5c-1.892-0.497-3.696-1.591-5.724-4.448
						c3.323,1.56,4.772-0.375,6.464-2.248c1.682-1.891,3.611-3.704,7.685-2.344c1.36-4.391,0.87-7.299-0.479-9.529
						c-1.281-2.249-3.315-3.854-5.188-5.326c-0.928-0.738-1.798-1.447-2.469-2.189c-0.678-0.739-1.145-1.515-1.212-2.399
						c-0.168-1.755,1.027-3.867,4.758-6.718c-4.138-0.217-6.499,0.476-7.747,1.696c-1.251,1.215-1.396,2.938-1.156,4.627
						c0.231,1.693,0.858,3.342,1.244,4.395c0.354,1.063,0.354,1.579-0.745,1.039c-1.8,2.291-4.966,2.104-7.749,0.652
						c-2.695-1.472-4.907-4.234-4.913-6.64c-0.291-1.129,0.574-2.542,1.985-4.164c1.407-1.622,3.465-3.486,5.401-5.486
						c1.949-2.005,3.836-4.16,5.036-6.436c0.6-1.138,1.027-2.307,1.204-3.508c0.231-1.217,0.228-2.471-0.11-3.77
						c0.168,1.06,1.315,0.853,1.487,1.9c1.462-2.418-0.263-3.981-1.731-5.789c-0.734-0.899-1.402-1.854-1.567-2.961
						c-0.111-1.117,0.298-2.393,1.65-3.889c-4.813-0.492-4.972-2.138-5.397-3.448c-0.428-1.318-1.127-2.332-7.068-1.839l4.499,9.566
						c-2.02-2.517-6.696-4.523-10.277-7.383c-1.833-1.417-3.18-3.073-3.854-5.032c-0.655-1.959-0.547-4.238,0.813-6.876
						c2.481,0.524,5.979,3.044,7.967,4.752c1.56-1.617,0.815-2.865,0.077-4.154c-0.742-1.283-1.488-2.606,0.226-4.226
						c2.991-0.072,4.64,0.641,5.745,1.798c1.099,1.16,1.546,2.786,1.922,4.586c0.38,1.797,0.674,3.772,1.507,5.573
						c0.922,1.785,2.348,3.397,4.836,4.448c2.247-1.835-0.442-4.159-1.863-6.052c-1.414-1.894-1.769-3.188,4.789-2.606
						c-8.364-0.955-8.198-3.743-7.589-6.803c0.752-3.124,2.006-6.464-4.524-9.754l7.146,0.069c-1.255-1.044-4.654-3.262-4.519-5.404
						c0,0,2.328,0.864,4.656,1.729c2.324,0.824,4.649,1.648,4.649,1.648c-3.991-2.644-2.342-5.538-0.246-8.242
						c2.021-2.733,4.841-5.28,2.732-8c-0.016,2.802-0.572,4.353-1.472,5.192c-0.899,0.839-2.102,0.96-3.525,0.871
						c-2.826-0.165-6.353-1.235-8.879,1.3c-1.281-1.833-1.786-3.368-1.912-4.651c-0.114-1.284,0.217-2.318,0.861-3.178
						c1.288-1.719,3.831-2.735,6.563-3.755c2.701-1.021,5.727-2.036,7.87-3.746c2.168-1.715,3.415-4.104,2.918-8.002
						c0.344,1.077-0.8,2.915-2.517,4.075c-1.697,1.155-3.885,1.648-5.401-0.165c0.866-1.447,1.965-3.105,3.505-4.536
						c1.531-1.433,3.319-2.658,5.285-3.313c-0.1-5.117-1.963-5.035-4.271-4.207c-2.31,0.812-5.087,2.416-6.969-0.137
						c4.52-1.205,3.774-2.574,1.78-4.357c-2.028-1.776-5.437-3.981-6.377-6.622l7.12,1.294c0.836-1.389,1.235-2.515,1.314-3.455
						c0.123-0.931-0.073-1.675-0.499-2.3c-0.847-1.25-2.574-2.012-4.279-2.735c-3.416-1.432-6.719-2.782-2.718-7.697
						c0,0,2.168,1.773,4.335,3.546c2.179,1.72,4.358,3.439,4.358,3.439s-0.312-1.541-0.623-3.082
						c-0.155-0.778-0.311-1.556-0.427-2.14c-0.087-0.58-0.145-0.965-0.145-0.965l7.664,3.186c-2.154-3.665-2.662-5.933-2.203-7.876
						c0.233-0.973,0.718-1.869,1.381-2.836c0.663-0.966,1.616-1.968,2.631-3.204c-2.646-0.14-5.71-1.321-7.904-3.176
						c-2.197-1.849-3.516-4.393-2.726-7.099c2.623-1.082,4.109,0.049,5.069,0.417c0.98,0.378,1.522,0.071,2.465-3.717
						c1.786,1.639,3.839,3.389,4.517,4.805c0.341,0.709,0.329,1.334-0.22,1.836c-0.523,0.513-1.596,0.899-3.431,1.13
						c2.114,1.113,3.749,3.097,5.845,4.169c2.961-1.003,3.905-3.153,4.465-5.332c0.501-2.193,0.368-4.508,0.822-5.761
						c-0.623,0.85-1.431,1.844-2.624,2.053c0,0-0.335-0.859-0.838-2.147c-0.492-1.291-1.187-3.048-1.799-4.802
						c-1.168-3.475-2.289-7.086-2.289-7.086c3.197-0.479,4.597,1.728,5.995,3.826c0.097-1.166-0.453-2.446-0.924-3.854
						c-0.466-1.404-0.895-2.958-0.385-4.557c4.906,3.342,10.355,5.834,11.101,10.998c0,0-0.116-0.737-0.29-1.842
						c-0.178-1.111-0.415-2.606-0.544-4.069c-0.3-2.989-0.599-5.978-0.599-5.978c1.289,0.286,3.434-0.055,5.402-0.166
						c1.952-0.125,3.846,0.038,4.462,1.097c2.882-1.492,1.991-5.739,1.508-10.278c-0.179-2.221-0.278-4.51,0.159-6.49
						c0.447-1.97,1.367-3.673,3.429-4.51c-0.717-0.962-1.161-2.215-0.919-4.008c1.299-1.25,2.858-2.24,4.429-3.189
						c1.634-0.904,3.306-1.747,4.743-2.805c1.45-1.05,2.646-2.331,3.478-4.036c0.879-1.669,1.332-3.808,1.187-6.722
						c0,0,2.762,0.837,5.477,1.722c2.7,0.863,5.439,1.851,5.439,1.85c1.278-3.06-2.184-4.251-5.504-5.872
						c-3.306-1.64-6.464-3.703-4.007-9.159c1.557-4.071,3.667-3.049,5.887-0.943c2.208,2.088,4.534,5.149,6.53,5.282
						c-0.512-3.174-1.406-7.891-0.718-11.733c0.085-0.479,0.194-0.944,0.332-1.389c0.151-0.429,0.33-0.839,0.541-1.223
						c0.42-0.769,0.964-1.437,1.655-1.962c1.381-1.049,3.355-1.526,6.085-1.059C154.646,308.583,152.236,308.608,151.073,310.647z
						 M219.158,265.303c-0.514,0.974-1.129,2.813-1.915,3.951c-0.769,1.197-1.721,1.688-3.023-0.092
						c-0.633-4.208-0.229-5.53,0.73-5.639C215.922,263.441,217.468,264.618,219.158,265.303z M348.005,243.368
						c-1.849,1.963-3.47,0.426-5.057-2.767C344.687,240.408,346.479,241.048,348.005,243.368z M555.643,558.771
						c-0.082-0.123-0.145-0.212-0.26-0.328C559.575,554.851,557.98,556.091,555.643,558.771z M549.342,566.883
						c0.585,1.274,1.543,1.579,2.639,1.555c-1.46-1.304-0.762-3.372,0.607-5.535C550.573,562.914,548.886,563.604,549.342,566.883z
						 M22.231,532.905l1.414-2.264C26.621,534.23,24.53,533.542,22.231,532.905z"/>
					<path d="M331.043,249.752c-0.237-1.284-0.121-2.632,0.018-3.991C330.18,246.838,329.925,248.222,331.043,249.752z"/>
					<path d="M120.729,350.599c-0.095,0.032-0.124,0.11-0.207,0.151c0.278,0.354,0.599,0.661,0.932,0.938L120.729,350.599z"/>
					<path d="M503.247,429.426c0.75-1.713,1.9-2.82,3.144-3.652C504.634,426.018,503.29,427.002,503.247,429.426z"/>
					<path d="M536.964,619.447c0,0,0.117-0.404,0.295-1.01c0.183-0.603,0.41-1.413,0.604-2.242c0.405-1.642,0.811-3.283,0.811-3.283
						c-1.263,2.89-3.147,3.06-4.988,3.762C535.202,617.442,537.956,617.672,536.964,619.447z"/>
					<path d="M470.015,633.84c0.094,1.186-1.107,1.299-1,2.491l2.599,2.146C473.869,635.792,473.512,632.241,470.015,633.84z"/>
					<path d="M513.529,611.459c-2.684-1.452-4.086-1.128-4.978,0.069c-0.447,0.6-0.767,1.419-1.059,2.347
						c-0.312,0.917-0.647,1.904-0.991,2.917c0.125-0.214,0.219-0.436,0.423-0.596c3.152,2.917,4.79,3.07,5.684,1.824
						C513.488,616.769,513.503,614.077,513.529,611.459z"/>
					<path d="M506.115,617.69c-0.503,1.202-1.129,2.36-2.09,3.205C506.514,623.286,505.513,620.032,506.115,617.69z"/>
					<path d="M548.362,579.913c-2.294,1.276,6.576,4.357,3.81,4.452c3.039,2.686,2.391-1.573,0.789-4.853
						c-0.784-1.637-1.868-3.061-2.753-3.3C549.336,575.98,548.618,576.894,548.362,579.913z"/>
					<polygon points="495.003,603.202 502.03,606.161 498.143,601.004 					"/>
					<path d="M515.19,579.278l-4.715,4.642c1.156,0.506,1.445,1.563,1.492,2.709C513.96,583.29,517.251,580.139,515.19,579.278z"/>
					<path d="M511.968,586.629c-1.079,1.725-1.94,3.445-1.42,5.041C511.013,590.668,512.023,588.509,511.968,586.629z"/>
					<path d="M497.636,594.915c0,0,0.578-0.176,1.156-0.353c0.583-0.175,1.151-0.362,1.151-0.362l2.641-3.491
						c0,0-1.224,1.067-2.447,2.135C498.942,593.922,497.636,594.915,497.636,594.915z"/>
					<path d="M538.368,515.521l-0.906-7.171c-2.423-1.1-4.3,0.455-3.732,3.113C535.21,513.377,535.737,516.086,538.368,515.521z"/>
					<path d="M513.692,530.3c1.973-1.234,3.623-0.906,6.283-1.214l-8.943-2.604L513.692,530.3z"/>
					<path d="M515.91,511.854c-1.213-0.564-2.638-3.148-3.866-4.568c-1.227-1.423-2.254-1.726-2.643,2.139
						c1.2,0.543,2.076,2.446,2.993,3.577c0.445,0.562,0.921,0.931,1.497,0.835C514.478,513.742,515.152,513.18,515.91,511.854z"/>
					<path d="M526.458,414.985l0.494,1.618l14.892-3.407c0,0-3.849,0.436-7.698,0.872
						C530.302,414.527,526.458,414.985,526.458,414.985z"/>
					<path d="M461.995,354.339c0.489,7.579,8.846-3.724,8.245,3.912c1.932-0.226,2.152-1.833,2.175-3.349
						c0.051-1.527,0.039-3.042,1.818-3.158C468.713,350.2,469.388,347.243,461.995,354.339z"/>
					<path d="M474.233,351.744c0.879,0.255,1.893,0.478,3.157,0.614C475.903,351.809,474.969,351.709,474.233,351.744z"/>
					<path d="M273.428,749.621c0,0,0.356,0.226,0.892,0.564c0.536,0.351,1.254,0.77,1.975,1.186
						c1.451,0.836,2.902,1.673,2.902,1.673s-0.906-1.309-1.812-2.617c-0.888-1.309-1.776-2.617-1.776-2.617
						s-0.542,0.476-1.087,0.915C273.975,749.173,273.428,749.621,273.428,749.621z"/>
					<path d="M284.915,738.669l1.211,9.765c0,0,0.893-2.182,1.784-4.364c0.864-2.183,1.729-4.366,1.729-4.366
						C288.362,740.106,285.849,740.89,284.915,738.669z"/>
					<path d="M236.305,280.447l-0.344-2.339c-1.301-2.265-2.29-2.182-4.274-2.037c0,0,1.165,1.092,2.331,2.183
						C235.161,279.351,236.305,280.447,236.305,280.447z"/>
					<path d="M182.637,296.506l0.927-0.362c0,0-1.556-1.616-3.111-3.231c-1.573-1.605-3.146-3.211-3.146-3.211L182.637,296.506z"/>
					<path d="M153.623,334.293c0.774-0.53,1.142-1.572,1.598-2.541c0.451-0.972,0.909-1.953,1.714-2.46
						C155.116,333.11,145.44,327.009,153.623,334.293z"/>
				</g>
			</g>
		</g>
	</g>
</g>
<text transform="matrix(1 0 0 1 139.7021 136.7144)" font-family="'MyriadPro-Regular'" font-size="60">Aquamancy</text>
<path d="M393.813,415.49c0,0-242.941-224.212-182.763,158.697c15.602-183.215,69.092-180.985,122.584-131.951"/>
</svg>
