<?xml version="1.0" encoding="utf-8"?>
<!-- Generator: Adobe Illustrator 16.0.0, SVG Export Plug-In . SVG Version: 6.00 Build 0)  -->
<!DOCTYPE svg PUBLIC "-//W3C//DTD SVG 1.1//EN" "http://www.w3.org/Graphics/SVG/1.1/DTD/svg11.dtd">
<svg version="1.1" id="Layer_1" xmlns="http://www.w3.org/2000/svg" xmlns:xlink="http://www.w3.org/1999/xlink" x="0px" y="0px"
	 width="595.281px" height="841.891px" viewBox="0 0 595.281 841.891" enable-background="new 0 0 595.281 841.891"
	 xml:space="preserve">
<text transform="matrix(1 0 0 1 177.1924 136.7146)" font-family="'MyriadPro-Regular'" font-size="60">Mundane</text>
<path stroke="#000000" stroke-miterlimit="10" d="M296.017,346.001c0,0-110.946,186.322,0,248.994
	c111.639-11.931,14.229-251.288,8.168-248.994"/>
<g>
	<circle fill="#FFFFFF" cx="316.641" cy="473.945" r="254.629"/>
	<g>
		<g>
			<g>
				<g opacity="0.8">
					<g>
						<path fill="#202020" d="M531.605,450.056c-0.212-2.464-0.423-4.912-0.633-7.347l-0.156-1.827l-0.262-1.805
							c-0.173-1.203-0.346-2.402-0.519-3.599c-0.172-1.197-0.343-2.392-0.514-3.584l-0.259-1.786l-0.358-1.761
							c-0.475-2.349-0.948-4.686-1.419-7.012l-0.353-1.745l-0.451-1.716c-0.3-1.144-0.6-2.285-0.898-3.423
							c-0.299-1.14-0.597-2.277-0.894-3.413l-0.445-1.703l-0.536-1.671c-1.455-4.445-2.78-8.907-4.559-13.182
							c-3.2-8.688-7.33-16.902-11.681-24.938l-3.504-5.896c-0.595-0.976-1.139-1.981-1.774-2.932l-1.912-2.848
							c-1.282-1.894-2.53-3.81-3.837-5.688c-1.377-1.829-2.755-3.66-4.136-5.494c-8.514-11.411-17.57-21.976-27.307-31.777
							c-9.737-9.794-20.159-18.825-31.45-26.969c-11.288-8.136-23.452-15.384-36.627-21.415
							c-13.17-6.024-27.358-10.827-42.547-13.906c-15.021-3.194-29.91-4.558-44.703-4.426c-14.791,0.142-29.46,1.79-44.193,4.997
							c-29.979,4.898-60.896,16.776-88.42,36.2c-13.732,9.708-26.61,21.197-38.112,34.226l-2.178,2.429l-2.057,2.537
							c-1.374,1.692-2.75,3.387-4.127,5.084c-0.708,0.834-1.339,1.729-1.984,2.613l-1.936,2.655
							c-1.278,1.781-2.617,3.524-3.852,5.342c-4.865,7.318-9.565,14.824-13.562,22.747c-0.491,0.821-1.101,1.842-1.791,2.996
							c-0.667,1.166-1.49,2.431-2.162,3.856c-1.413,2.816-2.907,5.947-4.109,8.867c-2.124,5.97-3.073,11.028-0.155,10.976
							c-13.511,31.125-19.866,65.312-18.274,99.205c0.798,16.919,3.616,33.712,8.469,49.868
							c4.811,16.171,11.838,31.628,20.635,45.898c7.12,12.121,14.427,24.537,22.941,36.319c8.479,11.769,18.2,22.867,29.399,31.783
							c9.278,7.013,18.612,13.79,28.293,20.048c9.743,6.139,19.7,11.935,30.063,16.98c2.587,1.263,5.24,2.379,7.858,3.583
							c1.316,0.584,2.622,1.202,3.949,1.761l4.024,1.568l4.029,1.567c1.345,0.519,2.681,1.07,4.059,1.488l8.222,2.678
							c1.365,0.473,2.762,0.825,4.156,1.188l4.184,1.09l4.189,1.073c1.399,0.349,2.823,0.576,4.235,0.865
							c2.83,0.54,5.66,1.092,8.498,1.58c2.858,0.362,5.719,0.707,8.579,1.03c3.21,0.112,8.347-0.563,13.26-0.911
							c2.456-0.134,4.883-0.504,7.014-0.658c2.133-0.174,3.979-0.234,5.302-0.109c15.654,1.509,31.253,0.618,46.226-2.252
							c14.984-2.866,29.345-7.699,42.8-13.988c13.466-6.29,26.031-14.027,37.673-22.75c11.649-8.729,22.381-18.438,32.351-28.816
							c1.956-2.036,3.856-4.015,5.714-5.948c1.832-1.954,3.486-3.991,5.187-5.916c0.841-0.97,1.676-1.931,2.504-2.886
							c0.813-0.967,1.564-1.978,2.344-2.953c1.549-1.954,3.082-3.888,4.61-5.815c1.449-1.986,2.893-3.965,4.343-5.953
							c0.731-0.986,1.465-1.975,2.201-2.967c0.695-1.021,1.393-2.047,2.094-3.078c1.402-2.062,2.838-4.133,4.32-6.228
							c1.369-2.17,2.783-4.365,4.257-6.6c-0.499-1.458,0.111-3.145,0.933-5.294c0.86-2.123,2.144-4.589,3.288-7.387
							c1.004-1.74,2.428-4.551,4.421-8.023c0.486-0.874,1.026-1.782,1.551-2.751c0.498-0.982,1.018-2.008,1.558-3.071
							c1.094-2.127,2.268-4.408,3.503-6.811c4.692-9.735,9.696-21.799,13.612-34.08c0.476-1.54,0.951-3.076,1.424-4.604
							c0.466-1.531,0.994-3.044,1.349-4.582c0.803-3.066,1.592-6.08,2.356-9.005c0.693-2.945,1.253-5.829,1.874-8.579
							c0.29-1.377,0.627-2.719,0.87-4.035c0.226-1.32,0.445-2.604,0.658-3.844c0.435-2.484,0.858-4.807,1.264-6.927
							c0.322-2.131,0.613-4.053,0.866-5.727c0.54-3.356,1.033-5.734,1.445-6.799c0.207-0.529,0.324,1.931,0.393,6.653
							c0.01,2.36,0.143,5.294-0.099,8.679c-0.085,1.695-0.176,3.508-0.272,5.427c-0.049,0.96-0.099,1.946-0.15,2.958
							c-0.056,1.011-0.201,2.038-0.301,3.094c-1.515,16.875-5.79,39.706-14.198,61.29l-1.513,4.064
							c-0.537,1.341-1.134,2.654-1.695,3.981c-1.16,2.637-2.223,5.311-3.437,7.888c-1.25,2.563-2.489,5.105-3.713,7.616
							c-0.306,0.629-0.61,1.255-0.914,1.88c-0.334,0.608-0.667,1.215-0.999,1.818c-0.662,1.21-1.32,2.41-1.972,3.601
							c-2.501,4.829-5.375,9.223-7.919,13.497c-1.297,2.122-2.717,4.079-3.996,6.033c-0.65,0.971-1.288,1.925-1.914,2.86
							c-0.62,0.94-1.231,1.861-1.892,2.717c-1.281,1.741-2.506,3.407-3.668,4.987c-1.172,1.575-2.213,3.122-3.334,4.453
							c-2.174,2.717-4.035,5.088-5.523,7.037c-3.088,3.798-4.723,5.874-4.177,5.823c0.507-0.268,2.257-1.854,4.872-4.516
							c1.245-1.389,2.72-3.032,4.386-4.89c0.827-0.936,1.702-1.925,2.62-2.963c0.91-1.045,1.777-2.209,2.726-3.383
							c0.936-1.184,1.908-2.413,2.912-3.683c1-1.272,2.062-2.563,3.024-3.982c1.966-2.809,4.111-5.711,6.186-8.808
							c1.983-3.157,4.103-6.375,6.133-9.725c1.911-3.42,3.95-6.846,5.83-10.371c7.508-14.122,13.478-29.219,17.234-41.499
							c0.951-3.066,1.696-5.978,2.464-8.608c0.375-1.318,0.731-2.573,1.068-3.759c0.279-1.201,0.543-2.33,0.788-3.383
							c0.982-4.209,1.744-7.168,2.104-8.467c-2.012,13.932-5.149,27.098-9.045,39.42c-0.5,1.538-0.997,3.066-1.492,4.585
							c-0.487,1.524-0.974,3.04-1.565,4.503c-1.125,2.958-2.237,5.879-3.335,8.764c-1.187,2.85-2.448,5.628-3.646,8.401
							c-1.154,2.799-2.526,5.442-3.834,8.084c-2.517,5.346-5.423,10.305-8.146,15.224c-1.409,2.429-2.928,4.744-4.358,7.081
							c-0.724,1.164-1.442,2.319-2.157,3.468c-0.733,1.135-1.521,2.22-2.271,3.322c-1.519,2.198-3.015,4.366-4.491,6.504
							c-1.542,2.089-3.122,4.104-4.649,6.122c-2.989,4.098-6.28,7.747-9.333,11.44c-0.386,0.459-0.77,0.915-1.152,1.37
							c-0.392,0.446-0.802,0.872-1.199,1.307c-0.802,0.864-1.597,1.723-2.386,2.574c-1.581,1.709-3.138,3.391-4.67,5.047
							c-3.228,3.144-6.309,6.265-9.402,9.173c-3.179,2.802-6.194,5.612-9.238,8.176c-3.094,2.493-6.06,4.955-8.983,7.257
							c-11.789,9.096-22.751,15.757-32.186,21.126c-4.789,2.542-9.102,5.001-13.181,6.836c-4.039,1.931-7.642,3.724-10.95,5.039
							c-3.286,1.375-6.142,2.654-8.645,3.649c-2.521,0.957-4.641,1.762-6.38,2.423c-3.48,1.354-5.441,2.175-6.063,2.462
							c-0.618,0.307,0.154,0.28,2.082-0.216c1.921-0.521,5.013-1.45,9.08-2.725c2.048-0.593,4.285-1.445,6.741-2.375
							c2.455-0.933,5.138-1.922,7.988-3.05c11.321-4.726,25.392-11.626,39.898-21.093c14.497-9.451,29.471-21.364,42.715-35.19
							c13.287-13.777,24.966-29.221,34.077-44.55c6.462-9.026,12.891-20.969,18.836-35.797
							c5.942-14.837,11.395-32.516,15.868-53.218c-0.213,1.568-0.438,3.238-0.676,4.994c-0.224,1.762-0.417,3.624-0.772,5.521
							c-0.31,1.916-0.629,3.902-0.958,5.942c-0.331,2.045-0.602,4.172-1.077,6.283c-1.633,8.524-3.651,17.717-6.235,26.366
							c-5.004,17.355-11.767,32.713-15.115,38.06c-7.209,12.692-12.975,21.475-17.862,28.442
							c-4.814,7.045-8.852,12.214-13.146,17.538c-2.237,2.574-4.555,5.179-7.163,8c-2.678,2.744-5.741,5.603-9.28,8.895
							c-7.334,6.259-16.832,14.057-31.474,22.862c-12.028,7.155-26.565,15.056-42.902,21.936
							c-16.31,6.908-34.407,12.755-52.801,16.586c-18.385,3.875-37.002,5.709-54.021,5.772c-17.035,0.105-32.443-1.575-44.606-3.679
							c0.811,0.047,1.649,0.116,2.525,0.152c0.879,0.017,1.79,0.034,2.731,0.052c1.874,0.037,3.868,0.077,5.969,0.119
							c1.045,0.022,2.116,0.045,3.213,0.068c0.547,0.011,1.1,0.022,1.659,0.034c0.562-0.014,1.129-0.026,1.703-0.04
							c2.282-0.052,4.657-0.104,7.11-0.159c4.877,0.005,10.071-0.47,15.406-0.766c1.336-0.099,2.678-0.121,4.033-0.279
							c1.352-0.142,2.715-0.284,4.088-0.428c2.728-0.273,5.492-0.551,8.279-0.83c2.777-0.354,5.566-0.786,8.355-1.158
							c2.789-0.405,5.582-0.688,8.351-1.241c5.542-0.995,11.048-1.806,16.372-2.996c2.665-0.552,5.307-1.012,7.889-1.556
							c2.572-0.604,5.102-1.172,7.579-1.699c2.478-0.522,4.908-0.984,7.238-1.587c2.34-0.555,4.62-1.059,6.829-1.507
							c-4.855,0.772-9.38,1.749-13.753,2.275c-4.359,0.589-8.442,1.392-12.39,1.786c-1.964,0.259-3.88,0.512-5.751,0.759
							c-1.87,0.253-3.69,0.567-5.486,0.717c-3.584,0.379-7.006,0.797-10.305,1.249c-3.311,0.354-6.493,0.694-9.581,1.025
							c-1.551,0.189-3.077,0.377-4.584,0.562c-1.512,0.133-3.005,0.264-4.482,0.394c-2.959,0.268-5.869,0.562-8.766,0.87
							c-2.891,0.22-5.764,0.366-8.659,0.565c-5.802,0.503-11.627,0.42-17.825,0.476c-3.091-0.034-6.241-0.283-9.524-0.476
							c-1.642-0.118-3.311-0.238-5.012-0.361c-1.688-0.223-3.409-0.449-5.165-0.681c-14.041-1.878-30.422-5.723-49.734-14.584
							c-1.805-0.804-3.693-1.611-5.659-2.426c-0.985-0.404-1.986-0.815-3.002-1.232c-1.001-0.451-2.018-0.909-3.049-1.374
							c-4.117-1.873-8.6-3.62-13.067-5.831c-1.983-1.304-3.94-2.589-5.906-3.881c-0.992-0.628-1.944-1.324-2.902-2.025
							c-0.959-0.697-1.925-1.399-2.902-2.109c-1.948-1.42-3.939-2.872-6.011-4.382c-1.997-1.604-4.071-3.27-6.256-5.024
							c-14.083-10.264-26.898-21.337-38.546-33.197c-11.643-11.863-22.121-24.52-31.372-38.025
							C79.8,608.673,71.781,594.31,65.226,579.05c-6.57-15.249-11.577-31.437-14.767-48.415c0.742,2.877,0.664,5.379,0.534,7.935
							c-0.065,1.276-0.144,2.565-0.14,3.914c0.059,1.334,0.208,2.727,0.537,4.222c0.38,1.849,0.759,3.689,1.136,5.522
							c0.399,1.829,0.747,3.668,1.271,5.447c0.974,3.581,1.982,7.129,3.02,10.646c2.35,6.932,4.76,13.769,7.767,20.288
							c5.846,13.104,12.784,25.492,20.971,37.109c8.132,11.654,17.214,22.726,27.27,33.451
							c10.156,10.639,21.26,20.928,33.567,31.029c1.144,1.015,2.395,2.017,3.724,3.009c0.668,0.49,1.342,0.998,2.059,1.468
							c0.73,0.451,1.471,0.909,2.22,1.371c3.026,1.809,6.244,3.606,9.524,5.316c3.347,1.613,6.71,3.204,9.905,4.818
							c1.579,0.838,3.204,1.54,4.731,2.31c1.533,0.761,3.002,1.535,4.387,2.333c1.411,0.802,2.812,1.598,4.203,2.389
							c1.416,0.746,2.823,1.487,4.222,2.225c2.801,1.468,5.511,3.04,8.267,4.458c5.552,2.752,10.907,5.699,16.434,8.181
							c1.371,0.65,2.738,1.301,4.104,1.949l2.048,0.977c0.685,0.32,1.387,0.595,2.079,0.895c2.786,1.177,5.566,2.352,8.35,3.527
							l2.096,0.881c0.704,0.277,1.419,0.524,2.129,0.788c1.426,0.517,2.854,1.033,4.283,1.551c1.435,0.512,2.873,1.024,4.314,1.538
							l2.171,0.762l2.206,0.66c-12.03-2.248-24.56-5.376-36.909-10.07c-1.552-0.563-3.116-1.114-4.67-1.705
							c-1.532-0.644-3.068-1.289-4.608-1.936c-1.539-0.654-3.082-1.311-4.628-1.969c-1.544-0.664-3.106-1.304-4.61-2.071
							c-3.031-1.49-6.076-2.987-9.13-4.489c-1.542-0.726-3.003-1.606-4.502-2.423c-1.49-0.834-2.982-1.669-4.476-2.505
							c-23.855-13.507-45.695-31.304-64.064-50.602c-2.014-1.905-4.072-3.966-6.251-5.978c-2.165-2.024-4.481-3.978-6.673-5.953
							c-2.156-2.006-4.296-3.943-6.308-5.759c-1.008-0.911-1.98-1.789-2.906-2.625c-0.907-0.854-1.73-1.698-2.516-2.479
							c1.74,2.603,3.699,5.044,5.599,7.533l2.871,3.72c0.952,1.245,1.914,2.482,2.948,3.661l6.109,7.159l1.54,1.783l1.611,1.717
							l3.232,3.431c4.232,4.654,8.869,8.919,13.417,13.282c2.309,2.144,4.737,4.16,7.111,6.238l3.588,3.09
							c1.211,1.013,2.476,1.962,3.713,2.943c17.432,13.523,38.119,25.621,60.539,34.396c11.118,4.593,22.768,8.057,34.376,11.146
							c2.93,0.67,5.858,1.338,8.782,2.006c1.462,0.322,2.912,0.681,4.377,0.97l4.407,0.785c2.929,0.519,5.85,1.035,8.762,1.551
							c2.93,0.379,5.85,0.756,8.759,1.132c1.451,0.187,2.899,0.373,4.344,0.559c1.444,0.187,2.9,0.257,4.342,0.391
							c2.885,0.237,5.757,0.474,8.611,0.709c1.423,0.145,2.85,0.189,4.271,0.236c1.42,0.053,2.836,0.105,4.247,0.158
							c2.821,0.083,5.616,0.266,8.394,0.272c2.775-0.015,5.53-0.029,8.262-0.043c1.364-0.004,2.722-0.008,4.073-0.012
							c1.352,0.006,2.696-0.109,4.034-0.155c5.351-0.289,10.599-0.342,15.708-0.874c20.471-1.53,38.815-4.52,54.313-6.891
							c1.727-0.702,3.43-1.396,6.901-2.81c0.976,0.01,2.268-0.14,3.654-0.514c11.509-3.771,25.033-8.756,37.681-12.891
							c0,0-0.118,0.058-0.339,0.166c-0.227,0.099-0.558,0.243-0.979,0.428c-0.843,0.367-2.048,0.892-3.494,1.522
							c-1.446,0.627-3.133,1.359-4.94,2.144c-0.904,0.391-1.838,0.795-2.787,1.205c-0.957,0.392-1.947,0.746-2.928,1.124
							c-3.937,1.475-7.852,2.998-10.823,4.038c-2.998,0.969-4.996,1.614-4.996,1.614c-20.011,9.066-42.354,15.451-65.725,18.151
							c-2.925,0.316-5.857,0.634-8.799,0.951c-2.944,0.277-5.906,0.362-8.874,0.535c-1.485,0.072-2.973,0.145-4.461,0.217
							l-2.235,0.103l-2.238,0.004c-2.989-0.018-5.983-0.035-8.985-0.053c-1.5-0.033-3.005,0.015-4.507-0.093l-4.513-0.27
							c-3.012-0.194-6.029-0.391-9.051-0.586c-3.011-0.349-6.027-0.698-9.047-1.048l-4.533-0.545
							c-1.509-0.199-3.007-0.49-4.513-0.734c-3.007-0.52-6.018-1.04-9.031-1.56c-3.005-0.566-5.98-1.306-8.975-1.962
							c-6.01-1.236-11.889-3.038-17.817-4.677c-11.737-3.656-23.382-7.783-34.583-12.916c-22.569-9.921-43.636-22.897-63.065-37.553
							c-8.694-6.4-19.038-16.496-28.06-27.623c-2.366-2.681-4.49-5.57-6.668-8.329c-2.164-2.771-4.33-5.459-6.263-8.193
							c-1.981-2.694-3.921-5.275-5.81-7.688c-1.797-2.481-3.525-4.811-5.211-6.903c-9.604-12.524-18.115-26.167-25.265-40.616
							c-7.168-14.444-12.779-29.764-16.966-45.429c-4.162-15.677-6.83-31.738-7.939-47.782c-1.003-16.057-0.499-32.036,1.353-47.654
							c3.114-28.217,10.496-55.808,21.816-81.405c5.537-12.852,12.276-25.112,19.706-36.816l2.815-4.371l1.409-2.18l1.507-2.117
							l6.031-8.434c4.272-5.434,8.449-10.908,13.07-16.011l3.39-3.878c1.127-1.292,2.359-2.496,3.534-3.745l3.563-3.707
							c1.203-1.219,2.337-2.499,3.607-3.652l7.455-7.042c1.216-1.195,2.558-2.262,3.839-3.387l3.882-3.329
							c1.305-1.095,2.561-2.24,3.903-3.289l4.028-3.135c2.703-2.063,5.312-4.229,8.133-6.128l8.324-5.827l8.572-5.422
							c11.559-6.984,23.501-13.218,35.848-18.389c12.375-5.104,25.026-9.338,37.865-12.61
							c51.467-12.907,105.581-9.274,152.973,8.678l2.229,0.809l2.193,0.916l4.376,1.828l4.363,1.825
							c1.444,0.628,2.854,1.347,4.279,2.014c2.832,1.383,5.698,2.663,8.479,4.122l8.269,4.477
							c10.857,6.232,21.255,13.095,30.983,20.719c9.677,7.697,18.75,15.997,27.161,24.821c8.293,8.954,15.902,18.402,22.793,28.25
							c1.41,1.733,2.822,3.467,4.229,5.196c1.402,1.734,2.831,3.441,4.086,5.26c-0.352-0.951-0.664-1.918-1.04-2.833
							c-0.379-0.916-0.755-1.825-1.13-2.732l1.649,2.711l1.52,2.796c0.998,1.861,1.995,3.719,2.987,5.569l1.346,1.879
							c0.435,0.635,0.837,1.292,1.255,1.938l2.474,3.89l2.451,3.893c0.788,1.313,1.501,2.669,2.248,4.002l2.2,4.017
							c0.719,1.345,1.486,2.661,2.106,4.054c1.301,2.753,2.58,5.508,3.836,8.263c4.723,11.164,8.346,22.682,10.481,34.403
							c0.288,2.444,0.032,2.662-0.416,1.48c-0.484-1.171-1.391-3.677-2.422-6.7c-0.524-1.509-1.093-3.143-1.669-4.8
							c-0.669-1.623-1.362-3.263-2.05-4.813c-1.401-3.089-2.67-5.865-3.95-7.317c0.23,0.625,0.476,1.243,0.688,1.864
							c0.198,0.626,0.393,1.242,0.581,1.838c0.378,1.19,0.729,2.301,1.031,3.252c0.604,1.9,1.005,3.166,1.005,3.166
							s-1.468-0.509-2.933-1.018c0.982,1.784,1.385,3.352,1.511,4.849c0.085,1.514-0.044,2.937-0.003,4.413
							c-4.164-12.085-9.315-23.854-15.413-35.144c-6.191-11.239-13.294-21.991-21.216-32.129c-3.9-5.12-8.176-9.943-12.48-14.733
							l-6.675-6.995l-7.003-6.675c-9.514-8.719-19.718-16.701-30.494-23.86c1.678,2.851,5.522,6.537,9.767,9.914
							c2.076,1.745,4.185,3.517,6.117,5.142c0.97,0.806,1.896,1.576,2.751,2.287c0.85,0.717,1.566,1.454,2.211,2.08
							c13.361,10.365,25.644,22.392,34.235,35.308c0.84,1.05,1.71,2.079,2.517,3.158l2.345,3.296l2.327,3.317
							c0.771,1.111,1.563,2.207,2.246,3.378c1.402,2.314,2.807,4.632,4.212,6.952c0.723,1.147,1.337,2.358,1.966,3.561l1.881,3.609
							l1.866,3.612c0.6,1.216,1.121,2.472,1.683,3.706c1.09,2.483,2.225,4.94,3.255,7.44c1.892,5.079,3.901,10.08,5.386,15.258
							c1.723,5.084,2.904,10.323,4.252,15.45c0.595,2.589,1.065,5.203,1.611,7.78l0.799,3.862c0.198,1.3,0.396,2.598,0.595,3.895
							c0.388,2.591,0.838,5.154,1.2,7.721c0.289,2.577,0.578,5.146,0.865,7.705c0.13,1.279,0.353,2.539,0.416,3.821
							c0.091,1.277,0.181,2.552,0.271,3.823c0.165,2.543,0.448,5.056,0.568,7.574c-0.224,3.764-0.395,7.486-0.721,11.161
							c-0.465,3.685-0.962,7.312-1.507,10.856c-0.473,2.562-1.056,3.147-1.646,2.319c-0.295-0.413-0.593-1.181-0.88-2.231
							c-0.31-0.928-0.622-2.052-0.91-3.378c-0.289-1.32-0.559-2.817-0.791-4.435c-0.248-1.615-0.376-3.355-0.675-5.141
							c-0.252-1.789-0.456-3.639-0.595-5.496C531.758,453.729,531.753,451.856,531.605,450.056z M60.699,399.947
							c6.047-15.222,13.741-29.139,22.777-42.646c1.406-2.475,2.806-4.939,4.206-7.404c1.524-2.388,3.049-4.776,4.581-7.175
							c0.99-1.454,1.873-3.008,2.917-4.497c1.018-1.504,2.025-3.047,3.024-4.625c0.999-1.578,1.99-3.191,2.973-4.835
							c1.051-1.599,2.108-3.221,3.153-4.874c19.14-23.571,42.106-43.386,67.6-58.51c-13.485,6.486-26.803,14.53-39.703,24.912
							c-12.877,10.38-25.35,23.125-36.546,38.984c7.031-10.357,14.613-20.088,22.996-28.804c1.031-1.103,2.06-2.204,3.086-3.302
							c1.079-1.049,2.155-2.096,3.23-3.141c2.166-2.072,4.288-4.166,6.479-6.17c4.516-3.873,8.881-7.826,13.6-11.302
							c18.455-14.4,38.665-25.245,59.347-33.244c10.433-3.814,20.886-7.203,31.555-9.509c5.271-1.342,10.66-2.175,15.97-3.142
							l1.994-0.347l2.015-0.255l4.02-0.508l4.007-0.507l1.999-0.253c0.668-0.073,1.344-0.107,2.015-0.163
							c5.379-0.375,10.7-0.933,16.079-0.951c2.682-0.052,5.349-0.182,8.025-0.175c2.674,0.061,5.35,0.122,8.03,0.183l4.004,0.094
							l4.009,0.287c2.661,0.186,5.327,0.371,7.999,0.557c2.662,0.268,5.321,0.622,7.979,0.921c2.656,0.316,5.314,0.567,7.956,1.067
							c3.204,0.385,6.414,0.771,9.629,1.158c3.188,0.538,6.383,1.078,9.583,1.618l2.396,0.399l2.379,0.522l4.76,1.036l4.765,1.028
							c1.571,0.421,3.144,0.843,4.718,1.266c6.328,1.552,12.536,3.615,18.775,5.616c3.075,1.13,6.158,2.264,9.25,3.4
							c1.559,0.525,3.052,1.234,4.579,1.856c1.521,0.638,3.043,1.276,4.567,1.916c17.212,7.128,33.374,15.719,48.422,25.732
							c-11.138-8.883-23.076-16.854-35.671-23.779l-4.763-2.529c-1.598-0.825-3.158-1.743-4.804-2.468l-9.796-4.594l-10.024-4.139
							c-3.377-1.297-6.81-2.452-10.225-3.694c-13.754-4.638-27.979-8.108-42.483-10.364l-5.453-0.792l-2.732-0.397
							c-0.911-0.126-1.827-0.183-2.742-0.278c-3.661-0.333-7.332-0.713-11.014-1.015l-11.077-0.483
							c-1.854-0.127-3.698-0.022-5.552-0.037l-5.565,0.038c-14.84,0.312-29.743,1.888-44.489,4.779l-5.518,1.163
							c-1.837,0.403-3.701,0.731-5.508,1.25c-3.637,0.965-7.297,1.899-10.945,2.904l-10.825,3.432
							c-3.58,1.24-7.114,2.62-10.688,3.933c-28.313,11.115-54.999,27.394-78.308,48.105c-23.331,20.689-43.073,45.953-57.958,74.225
							c-7.436,14.14-13.638,29.042-18.469,44.477c-4.783,15.448-8.115,31.427-10.032,47.64c-1.904,16.216-2.401,32.662-1.396,49.148
							c1.082,16.476,3.711,32.942,7.844,49.107c8.256,32.332,22.696,63.415,42.571,90.903c-11.86-18.494-21.528-37.955-28.89-58.019
							c-0.997-2.475-1.769-5.039-2.611-7.567l-2.476-7.586l-2.123-7.681l-1.047-3.833l-0.519-1.915l-0.433-1.939l-1.719-7.742
							c-0.279-1.29-0.58-2.572-0.838-3.865l-0.668-3.9l-1.321-7.785c-0.242-1.29-0.391-2.599-0.544-3.904l-0.467-3.914
							c-2.514-20.854-2.615-41.833-0.336-62.511C48.618,439.85,53.475,419.469,60.699,399.947z M57.234,429.913
							c-3.025,16.076-4.418,32.377-4.276,48.565c0.153,16.188,1.804,32.3,5.07,47.979c4.067,21.401,10.979,42.823,20.459,62.809
							c1.248,2.467,2.494,4.931,3.737,7.391c0.629,1.226,1.236,2.463,1.884,3.676l2.043,3.579c1.367,2.381,2.73,4.756,4.089,7.124
							c1.474,2.299,2.943,4.59,4.407,6.874c0.736,1.14,1.471,2.276,2.205,3.412c0.733,1.135,1.558,2.205,2.331,3.307
							c1.575,2.184,3.143,4.358,4.705,6.523c0.76,1.097,1.62,2.116,2.444,3.157c0.831,1.036,1.66,2.069,2.486,3.101
							c0.829,1.028,1.655,2.054,2.48,3.077l1.237,1.53l1.3,1.471c13.687,15.803,28.762,29.036,43.754,39.232
							c14.988,10.224,29.864,17.397,43.048,21.829c-17.072-7.844-33.509-17.669-48.844-29.356
							c-15.307-11.721-29.403-25.396-41.95-40.638c-3.232-3.74-6.103-7.773-9.095-11.736c-1.527-1.962-2.886-4.043-4.279-6.105
							c-1.39-2.066-2.782-4.135-4.175-6.206c-1.328-2.112-2.594-4.268-3.895-6.406l-1.938-3.22l-0.969-1.613l-0.892-1.656
							c-1.186-2.213-2.374-4.428-3.562-6.645c-0.585-1.114-1.206-2.212-1.761-3.343l-1.618-3.418
							c-8.736-18.188-15.456-37.603-19.633-57.749c0.967,4.792,1.94,9.051,2.751,12.826c0.944,3.743,1.867,6.972,2.61,9.747
							c0.385,1.383,0.709,2.659,1.058,3.804c0.373,1.137,0.708,2.161,1.008,3.075c0.606,1.826,1.066,3.212,1.387,4.177
							c1.302,3.857,0.42,0.965-2.233-7.365c-2.288-8.429-6.242-22.404-8.676-41.08c-0.271-2.336-0.551-4.739-0.839-7.207
							c-0.14-1.234-0.283-2.484-0.427-3.751c-0.085-1.271-0.171-2.56-0.258-3.862c-0.173-2.606-0.35-5.274-0.531-8.004
							c-0.121-1.362-0.104-2.746-0.136-4.143c-0.023-1.396-0.047-2.808-0.071-4.233c-0.024-1.425-0.048-2.864-0.072-4.318
							c-0.012-0.727-0.024-1.456-0.036-2.19c0.024-0.733,0.048-1.471,0.072-2.211c0.098-2.961,0.197-5.977,0.298-9.045
							c0.026-0.768,0.053-1.537,0.079-2.311c0.063-0.771,0.127-1.547,0.191-2.324c0.129-1.556,0.258-3.124,0.389-4.705
							c0.274-3.16,0.465-6.377,0.964-9.611c0.005-1.208,0.169-3.094,0.435-5.465c0.143-1.185,0.3-2.491,0.469-3.896
							C56.657,432.963,56.96,431.477,57.234,429.913z"/>
						<path fill="#202020" d="M421.132,239.777c15.219,8.983,29.505,19.39,42.433,31.036c12.929,11.64,24.494,24.52,34.298,38.277
							c-1.556-2.946-3.065-5.805-4.568-8.651l-1.158-2.147l-1.251-2.076c-0.852-1.386-1.707-2.779-2.572-4.188
							c-0.88-1.405-1.774-2.833-2.712-4.266c-0.984-1.382-2.001-2.785-3.058-4.212c-2.118-2.849-4.342-5.869-7.012-8.784
							c-1.823-1.941-3.688-3.886-5.588-5.832c-1.967-1.857-3.989-3.692-6.034-5.54c-1.028-0.92-2.061-1.842-3.096-2.768
							c-1.062-0.89-2.156-1.743-3.244-2.615c-2.2-1.726-4.412-3.461-6.634-5.204c-2.299-1.634-4.639-3.242-6.991-4.861
							c-1.182-0.806-2.365-1.612-3.551-2.42c-1.224-0.746-2.449-1.493-3.677-2.241c-2.464-1.485-4.931-3.002-7.441-4.457
							c-2.563-1.361-5.132-2.725-7.704-4.091c-1.297-0.666-2.568-1.397-3.895-2.008l-3.977-1.85
							c-2.664-1.209-5.301-2.518-8.01-3.645c-5.445-2.174-10.86-4.524-16.443-6.352c-11.055-4.051-22.402-7.065-33.664-9.871
							c-16.215-3.921-33.027-6.158-50.086-6.732c-17.063-0.582-34.405,0.524-51.642,3.426c-34.48,5.767-68.494,18.84-98.943,38.552
							c-30.468,19.668-57.373,45.926-78.154,76.961c-20.815,30.992-35.426,66.794-42.117,104.383
							c-0.21,0.918-0.472,1.973-0.703,3.149c-0.198,1.183-0.416,2.48-0.649,3.867c-0.449,2.778-0.921,5.923-1.364,9.229
							c-0.372,3.312-0.573,6.797-0.772,10.227c-0.091,1.716-0.163,3.42-0.211,5.084c0.019,1.667,0.074,3.295,0.146,4.857
							c1.591-23.985,6.498-47.49,13.942-69.816c7.361-22.375,17.817-43.408,30.275-62.775c1.496-2.46,3.172-4.803,4.824-7.156
							c1.657-2.349,3.283-4.711,4.968-7.028l5.266-6.786l2.634-3.377l2.78-3.257l5.569-6.479c1.906-2.111,3.891-4.15,5.833-6.219
							c3.821-4.195,8.019-8.019,12.077-11.94c1.004-0.991,2.064-1.925,3.135-2.846l3.192-2.778l3.19-2.769
							c1.059-0.926,2.121-1.847,3.241-2.702c4.442-3.459,8.75-7.048,13.386-10.209c2.288-1.617,4.551-3.257,6.854-4.836l7.054-4.517
							l3.522-2.245l3.619-2.09l7.239-4.136c19.529-10.597,40.233-18.617,61.396-24.063c21.198-5.362,42.91-7.885,64.4-7.857
							c21.492-0.016,42.813,2.851,63.312,8.185c2.557,0.694,5.13,1.28,7.656,2.068l7.554,2.397l3.761,1.207l3.705,1.389l7.38,2.783
							c2.441,0.966,4.831,2.078,7.239,3.11l3.599,1.577l1.793,0.795l1.76,0.878C411.918,234.893,416.638,237.1,421.132,239.777z"/>
						<path fill="#202020" d="M117.936,689.149c0.672,0.59,1.328,1.198,2.013,1.772l2.081,1.696l4.161,3.382l4.159,3.368
							c1.415,1.085,2.861,2.131,4.288,3.194l4.29,3.171c1.437,1.044,2.831,2.14,4.321,3.104c2.937,1.981,5.867,3.958,8.79,5.93
							c1.441,1.011,2.961,1.903,4.453,2.829c1.495,0.922,2.987,1.842,4.477,2.76c1.488,0.919,2.974,1.837,4.456,2.752
							c1.519,0.856,3.034,1.71,4.547,2.563c3.037,1.682,6.003,3.46,9.05,5.056c3.055,1.582,6.095,3.156,9.119,4.722
							c-2.612-1.698-5.351-3.433-8.189-5.195c-1.433-0.855-2.838-1.815-4.266-2.777c-1.432-0.951-2.883-1.915-4.351-2.891
							c-1.47-0.965-2.957-1.939-4.457-2.923c-1.479-1.015-2.941-2.083-4.431-3.127c-1.487-1.047-2.984-2.101-4.488-3.16
							c-1.505-1.054-3.029-2.093-4.483-3.24c-11.967-8.71-23.41-18.532-33.173-27.736c-27.875-25.45-50.742-56.594-66.222-90.7
							C67.592,628.64,88.853,661.726,117.936,689.149z"/>
						<path fill="#202020" d="M31.087,464.014l-0.359,5.745c-0.094,1.918-0.291,3.838-0.277,5.764
							c-0.049,3.855-0.099,7.724-0.149,11.617c0.148,17.842,2.174,35.987,6.151,53.918c3.971,17.932,9.888,35.641,17.626,52.64
							c-14.302-36.93-20.073-75.992-18.554-114.51c-1.285,0.058-2.302-1.536-3.101-4.252
							C31.66,472.222,31.318,468.39,31.087,464.014z"/>
					</g>
				</g>
			</g>
		</g>
	</g>
</g>
</svg>

